<svg xmlns="http://www.w3.org/2000/svg" viewBox="0 0 24 24">
    <g stroke-width="1" fill-rule="evenodd">
        <path d="M12.1760582,0.17136 C5.93058909,0.17136 0.846894545,5.31310154 0.846894545,11.6232923 C0.846894545,17.9537262 5.93058909,23.0935846 12.1760582,23.0935846 C18.4122182,23.0935846 23.4935855,17.9537262 23.4935855,11.6232923 C23.4935855,5.31310154 18.4122182,0.17136 12.1760582,0.17136 L12.1760582,0.17136 Z M12.1760582,6.72399692 C14.1607564,6.72399692 15.7540073,8.34956308 15.7540073,10.3446831 C15.7540073,10.8309877 15.6502109,11.3026985 15.4807855,11.7230954 C15.4617018,11.7800585 15.42912,11.8224277 15.4198109,11.8699754 C14.8491636,13.1000954 13.6096582,13.9634862 12.1765236,13.9634862 C10.7433891,13.9634862 9.50853818,13.1000954 8.93370182,11.8699754 C8.91973818,11.8219569 8.88901818,11.7800585 8.87505455,11.7273323 C8.70283636,11.3074062 8.59950545,10.8309877 8.59950545,10.3442123 C8.59857455,8.34956308 10.19136,6.72399692 12.1760582,6.72399692 L12.1760582,6.72399692 Z M12.1760582,21.9110123 C9.49178182,21.9110123 7.05466182,20.8527231 5.23985455,19.1461846 C5.68529455,16.5616615 7.91482182,14.5976123 10.5972364,14.5976123 L11.14368,14.5976123 L12.1760582,16.1808092 L13.2084364,14.5976123 L13.75488,14.5976123 C16.42752,14.5976123 18.6761309,16.5715477 19.10016,19.1461846 C17.2900073,20.8720246 14.8486982,21.9110123 12.1760582,21.9110123 L12.1760582,21.9110123 Z"></path>
    </g>
</svg>
