<svg version="1.1" xmlns="http://www.w3.org/2000/svg" viewBox="0 0 24 24">
    <g stroke-width="1" fill-rule="evenodd" transform="translate(0.000000, 3.000000)">
        <path d="M18.6161825,16.9428571 C18.5553925,17.5861424 18.502877,18.1134533 18.502877,18.1142857 L5.2964341,18.1142857 C5.2964341,18.1142857 5.24219238,17.5865897 5.18011408,16.9428571 L0.20802402,16.9428571 C0.20802402,16.9428571 -0.00886857287,14.8066173 0.000281583402,14.5231235 C0.0545047317,12.4541474 1.42465591,10.7014165 3.2780709,10.0411049 C2.5328415,9.47869559 2.02687175,8.54439879 2.02687175,7.53896443 C2.02687175,5.96513391 3.30721584,4.68571429 4.8759593,4.68571429 C6.44334718,4.68571429 7.72470795,5.96513391 7.72470795,7.53896443 C7.72470795,8.54439879 7.21772152,9.4744696 6.4738477,10.0411049 C6.60137483,10.0865803 6.72659376,10.137237 6.84923693,10.1928215 C7.61089919,9.36864117 8.56657324,8.72732115 9.63735198,8.34558594 C8.58269742,7.54921913 7.86712461,6.22758911 7.86712461,4.80479358 C7.86712461,2.57765761 9.67092443,0.767144082 11.8986963,0.767144082 C14.1264682,0.767144082 15.9302681,2.57765761 15.9321865,4.80280018 C15.9321865,6.2255957 15.2146952,7.54174385 14.1619591,8.34359254 C15.262058,8.73578044 16.2420141,9.40064687 17.0145571,10.2566855 C17.1802892,10.1752346 17.3510682,10.102945 17.5262011,10.0404895 C16.7811076,9.47814481 16.2755689,8.54395538 16.2755689,7.53863656 C16.2755689,5.96498689 17.5553408,4.68571429 19.1237983,4.68571429 C20.6909004,4.68571429 21.9720276,5.96498689 21.9720276,7.53863656 C21.9720276,8.54395538 21.4651336,9.47391931 20.7213954,10.0404895 C22.5731172,10.7007252 23.9430186,12.4532547 23.9999426,14.5234016 C24.0040085,14.8079191 23.7908827,16.9428571 23.7908827,16.9428571 L18.6161825,16.9428571 Z M18.6943913,16.0956428 L23.0640861,16.0956428 C23.0640861,16.0956428 23.1884378,14.7903129 23.1897931,14.5480504 C23.129142,12.3708573 21.3079152,10.6017779 19.1292196,10.6017779 C18.5711903,10.6017779 18.0366715,10.717759 17.5491898,10.9268427 C18.3031947,12.0001115 18.7622438,13.2935751 18.7987942,14.6881144 C18.8009354,14.8515456 18.7525918,15.4463808 18.6943913,16.0956428 Z M5.10083436,16.0969541 C5.04211335,15.4474888 4.99448125,14.8524684 5.00051693,14.6896094 C5.04156055,13.2698725 5.51927532,11.9518174 6.30061999,10.8648054 C5.85574837,10.6953666 5.37523238,10.6024578 4.8759593,10.6024578 C2.69551095,10.6024578 0.87395206,12.372797 0.814306597,14.5491838 C0.809223177,14.7914741 0.933597524,16.0969541 0.933597524,16.0969541 L5.10083436,16.0969541 Z M17.0880902,7.53863656 C17.0880902,8.69818643 18.0612183,9.75597198 19.1237983,9.76125386 C20.1921384,9.76125386 21.1595063,8.69959493 21.1595063,7.53863656 C21.1595063,6.42873641 20.2463517,5.5318723 19.1237983,5.5318723 C18.0015837,5.5318723 17.0880902,6.4354268 17.0880902,7.53863656 Z M11.9069091,8.76714408 C8.73371122,8.76714408 6.0811547,11.4394664 6.00022089,14.7294607 C5.9928184,15.0949565 6.17393249,17.0671443 6.17393249,17.0671443 L17.6477816,17.0671443 C17.6477816,17.0671443 17.8288957,15.0949565 17.8209997,14.7294607 C17.7326634,11.4394664 15.0801069,8.76714408 11.9069091,8.76714408 Z M2.83445777,7.53896443 C2.83445777,8.69864757 3.80369654,9.76183717 4.87053698,9.76183717 C5.93873301,9.76183717 6.9066162,8.70005623 6.9066162,7.53896443 C6.9066162,6.42893673 5.99329505,5.53196954 4.87053698,5.53196954 C3.74811782,5.53196954 2.83445777,6.43562789 2.83445777,7.53896443 Z M9,4.62378743 C9,6.27412542 10.3794178,7.78714406 11.897742,7.78714406 C13.4179955,7.78714406 14.795484,6.27562892 14.795484,4.62378743 C14.795484,3.04361261 13.4937188,1.76714408 11.897742,1.76714408 C10.3003183,1.76714408 9,3.05363592 9,4.62378743 Z"></path>
    </g>
</svg>
