<svg xmlns="http://www.w3.org/2000/svg" viewBox="0 0 24 24">
    <g stroke="none" stroke-width="1" fill-rule="evenodd" transform="translate(1.000000, 0.000000)">
        <path d="M20.9,20.1 L19.5,20.1 L19.1,9.6 C19.1,5.3 15.7,1.8 11.4,1.6 L11.4,0.6 C11.4,-0.1 10.3,-0.1 10.3,0.6 L10.3,1.6 C6,1.8 2.6,5.3 2.6,9.6 L2.2,20.1 L1,20.1 C0.3,20.1 0.3,21.2 1,21.2 L7.6,21.2 C7.8,22.8 9.2,24 10.9,24 C12.6,24 13.9,22.8 14.2,21.2 L21,21.2 C21.7,21.2 21.7,20.1 20.9,20.1 L20.9,20.1 L20.9,20.1 Z M3.3,20.1 L3.7,9.6 C3.7,5.8 6.9,2.6 10.8,2.6 C14.7,2.6 17.9,5.7 17.9,9.6 L18.3,20.1 L3.5,20.1 L3.3,20.1 L3.3,20.1 L3.3,20.1 Z M10.8,22.9 C9.8,22.9 8.9,22.1 8.7,21.2 L12.9,21.2 C12.8,22.2 11.9,22.9 10.8,22.9 L10.8,22.9 L10.8,22.9 Z"></path>
    </g>
</svg>
