
<svg viewBox="0 0 24 24" version="1.1" xmlns="http://www.w3.org/2000/svg">
    <path stroke-width="1" fill-rule="nonzero" d="M8.24609316,11.0273318 L13.0273318,6.24609316 C13.1913941,6.08203088 13.390612,6 13.6249866,6 C13.8593612,6 14.0585791,6.08203088 14.2226414,6.24609316 L14.9960771,7.05468499 C15.1601394,7.21874727 15.2421702,7.41796519 15.2421702,7.65233981 C15.2421702,7.88671443 15.1601394,8.0742138 14.9960771,8.21483847 L11.6210851,11.6249866 L14.9960771,14.9999785 C15.1601394,15.1640408 15.2421702,15.3632587 15.2421702,15.5976334 C15.2421702,15.832008 15.1601394,16.0312259 14.9960771,16.1952882 L14.2226414,17.00388 C14.0585791,17.1679423 13.8593612,17.2499732 13.6249866,17.2499732 C13.390612,17.2499732 13.1913941,17.1679423 13.0273318,17.00388 L8.24609316,12.2226414 C8.08203088,12.0585791 8,11.8593612 8,11.6249866 C8,11.390612 8.08203088,11.1913941 8.24609316,11.0273318 Z"></path>
</svg>
