<svg xmlns="http://www.w3.org/2000/svg" viewBox="0 0 24 24">
    <g stroke="none" stroke-width="1" fill-rule="evenodd">
        <path xmlns="http://www.w3.org/2000/svg" d="M11.5008025,24 C11.708387,24 11.9833768,23.8713676 12.1158013,23.7427352 L19.7212666,16.427149 C20.0660477,16.0869742 20.1060137,15.5315993 19.7564606,15.1341191 C19.4415048,14.7793131 18.8312781,14.769559 18.491269,15.0981508 L12.3955632,20.9707377 L12.3955632,0.224344645 C12.3955632,-0.280430807 11.9947104,0.224344645 11.5008025,0.224344645 C11.0068947,0.224344645 10.6060419,-0.280430807 10.6060419,0.224344645 L10.6060419,20.9707377 L4.51033606,15.0981508 C4.17032702,14.769559 3.57381994,14.7933347 3.24514454,15.1341191 C2.89797742,15.4938021 2.92839928,16.0912416 3.28033846,16.427149 L10.8858037,23.7427352 C11.0927917,23.9573257 11.2908321,23.9975615 11.5008025,24 Z" id="Page-1" transform="translate(11.500000, 12.000000) scale(-1, 1) rotate(90.000000) translate(-11.500000, -12.000000) "/>
    </g>
</svg>
