<svg xmlns="http://www.w3.org/2000/svg" viewBox="0 0 24 24">
    <g stroke="none" stroke-width="1" fill-rule="evenodd">
        <path xmlns="http://www.w3.org/2000/svg" d="M12.5008025,24 C12.708387,24 12.9833768,23.8713676 13.1158013,23.7427352 L20.7212666,16.427149 C21.0660477,16.0869742 21.1060137,15.5315993 20.7564606,15.1341191 C20.4415048,14.7793131 19.8312781,14.769559 19.491269,15.0981508 L13.3955632,20.9707377 L13.3955632,0.224344645 C13.3955632,-0.280430807 12.9947104,0.224344645 12.5008025,0.224344645 C12.0068947,0.224344645 11.6060419,-0.280430807 11.6060419,0.224344645 L11.6060419,20.9707377 L5.51033606,15.0981508 C5.17032702,14.769559 4.57381994,14.7933347 4.24514454,15.1341191 C3.89797742,15.4938021 3.92839928,16.0912416 4.28033846,16.427149 L11.8858037,23.7427352 C12.0927917,23.9573257 12.2908321,23.9975615 12.5008025,24 Z" id="Page-1" transform="translate(12.500000, 12.000000) rotate(90.000000) translate(-12.500000, -12.000000) "/>
    </g>
</svg>
