<svg xmlns="http://www.w3.org/2000/svg" viewBox="0 0 24 24">
    <g stroke-width="1" fill-rule="evenodd" transform="translate(3.000000, 0.000000)">
        <path d="M13.5,1.8 L5.4,10.1 C5.3,10.2 5.3,10.2 5.3,10.3 L4.6,13 C4.6,13.2 4.6,13.4 4.7,13.5 C4.8,13.6 4.9,13.7 5.1,13.7 L5.2,13.7 L7.9,13 C8,13 8.1,12.9 8.1,12.9 L16.2,4.6 L16.2,4.6 L16.2,4.6 L17.8,2.9 C18,2.7 18,2.4 17.8,2.2 L15.8,0.2 C15.8,0.1 15.7,0 15.5,0 C15.4,0 15.2,0.1 15.1,0.2 L13.5,1.8 L13.5,1.8 L13.5,1.8 L13.5,1.8 L13.5,1.8 Z M7.5,12 L5.8,12.5 L6.2,10.8 L13.8,3 L15.1,4.3 L7.5,12 L7.5,12 Z M15.5,1.3 L16.8,2.6 L15.9,3.5 L14.6,2.2 L15.5,1.3 L15.5,1.3 Z"></path>
        <path d="M17.5,5.53181818 C17.2,5.53181818 17,5.72272727 17,6.00909091 L17,22.0454545 L1,22.0454545 L1,2.95454545 L10.4,2.95454545 C10.7,2.95454545 10.9,2.76363636 10.9,2.47727273 C10.9,2.19090909 10.7,2 10.4,2 L0.5,2 C0.2,2 0,2.19090909 0,2.47727273 L0,22.5227273 C0,22.8090909 0.2,23 0.5,23 L17.5,23 C17.8,23 18,22.8090909 18,22.5227273 L18,6.00909091 C18,5.72272727 17.8,5.53181818 17.5,5.53181818 L17.5,5.53181818 L17.5,5.53181818 Z"></path>
    </g>
</svg>
