<svg xmlns="http://www.w3.org/2000/svg" viewBox="0 0 24 24">
    <g stroke="none" stroke-width="1" fill="none" fill-rule="evenodd" style="mix-blend-mode: luminosity;" transform="translate(2.000000, 0.000000)">
        <polygon fill="#34383B" points="1.82857143 4.31428571 0.257142857 5.11428571 0.257142857 18.8571429 1.82857143 19.6571429 5.68571429 11.9714286"></polygon>
        <polygon fill="#596067" points="10 17.6571429 1.82857143 19.6571429 1.82857143 4.31428571 10 6.28571429 13.8571429 12"></polygon>
        <polygon fill="#34383B" points="10 17.6571429 18.1714286 19.6571429 19.5714286 12.1714286 18.1714286 4.31428571 10 6.28571429"></polygon>
        <polygon fill="#596067" points="18.1714286 4.31428571 19.7428571 5.11428571 19.7428571 18.8571429 18.1714286 19.6571429"></polygon>
        <polygon fill="#34383B" points="6.42857143 14.5142857 10 14.9714286 12.8285714 12 10 9.02857143 6.42857143 9.48571429"></polygon>
        <polygon fill="#2C2F32" points="13.5714286 7.05714286 10 7.71428571 6.42857143 7.05714286 10 0.228571429"></polygon>
        <polygon fill="#2C2F32" points="13.5714286 16.9428571 10 16.2857143 6.42857143 16.9428571 10 23.7714286"></polygon>
        <polygon fill="#596067" points="13.5714286 7.05714286 10 6.17142857 10 0.228571429 13.5714286 2.02857143"></polygon>
        <polygon fill="#34383B" points="6.42857143 7.05714286 10 6.17142857 10 0.228571429 6.42857143 2.02857143"></polygon>
        <polygon fill="#596067" points="10 23.7714286 13.5714286 21.9714286 13.5714286 16.9428571 10 17.8285714"></polygon>
        <polygon fill="#34383B" points="10 23.7714286 6.42857143 21.9714286 6.42857143 16.9428571 10 17.8285714"></polygon>
        <polygon fill="#596067" points="13.5714286 14.5142857 10 14.9714286 10 9.02857143 13.5714286 9.48571429"></polygon>
    </g>
</svg>
