<svg viewBox="0 0 24 24" version="1.1" xmlns="http://www.w3.org/2000/svg">
    <g stroke-width="1" fill-rule="evenodd">
        <path d="M18.4615385,4.69230769 L13.8461538,4.69230769 L13.8461538,8.38461538 L9.23076923,8.38461538 L9.23076923,12.0769231 L4.61538462,12.0769231 L4.61538462,15.7692308 L0,15.7692308 L0,23.1538462 L24,23.1538462 L24,1 L18.4615385,1 L18.4615385,4.69230769 Z M4.61538462,22.2307692 L0.923076923,22.2307692 L0.923076923,16.6923077 L4.61538462,16.6923077 L4.61538462,22.2307692 Z M9.23076923,22.2307692 L5.53846154,22.2307692 L5.53846154,13 L9.23076923,13 L9.23076923,22.2307692 Z M13.8461538,22.2307692 L10.1538462,22.2307692 L10.1538462,9.30769231 L13.8461538,9.30769231 L13.8461538,22.2307692 Z M18.4615385,22.2307692 L14.7692308,22.2307692 L14.7692308,5.61538462 L18.4615385,5.61538462 L18.4615385,22.2307692 Z M19.3846154,1.92307692 L23.0769231,1.92307692 L23.0769231,22.2307692 L19.3846154,22.2307692 L19.3846154,1.92307692 Z"></path>
    </g>
</svg>
