<svg xmlns="http://www.w3.org/2000/svg" viewBox="0 0 24 24">
    <g stroke-width="1" fill-rule="evenodd">
        <path transform="translate(3.000000, 8.000000)" d="M12.33,13.5 C12.69,13.5 12.96,13.23 12.96,12.87 L12.96,4.77 C12.96,4.41 12.69,4.05 12.33,4.05 C11.97,4.05 11.7,4.32 11.7,4.77 L11.7,12.87 C11.61,13.23 11.88,13.5 12.33,13.5 L12.33,13.5 L12.33,13.5 Z M0.45,3.17967874e-14 C0.45,0.72 1.08,1.35 1.8,1.35 L1.8,13.5 C1.8,15.03 2.97,16.2 4.41,16.2 L13.59,16.2 C15.03,16.2 16.2,15.03 16.2,13.5 L16.2,1.35 C16.92,1.35 17.55,0.72 17.55,3.17967874e-14 L0.45,3.17967874e-14 Z M14.94,13.5 C14.94,14.22 14.31,14.85 13.59,14.85 L4.41,14.85 C3.69,14.85 3.06,14.22 3.06,13.5 L3.06,1.35 L14.94,1.35 L14.94,13.5 L14.94,13.5 Z M5.67,13.5 C6.03,13.5 6.3,13.23 6.3,12.87 L6.3,4.77 C6.3,4.41 6.03,4.05 5.67,4.05 C5.31,4.05 5.04,4.32 5.04,4.77 L5.04,12.87 C5.04,13.23 5.31,13.5 5.67,13.5 L5.67,13.5 L5.67,13.5 Z M9,13.5 C9.36,13.5 9.63,13.23 9.63,12.87 L9.63,4.77 C9.63,4.41 9.36,4.05 9,4.05 C8.64,4.05 8.37,4.32 8.37,4.77 L8.37,12.87 C8.37,13.23 8.64,13.5 9,13.5 L9,13.5 L9,13.5 Z"></path>
        <path d="M15.24,2.7 L15.24,1.35 C15.33,0.63 14.7,0 13.98,0 L10.02,0 C9.3,0 8.67,0.63 8.67,1.35 L8.67,2.7 L4.8,2.7 C4.08,2.7 3.45,3.33 3.45,4.05 L3.45,5.4 C3.45,6.12 4.08,6.75 4.8,6.75 L19.2,6.75 C19.92,6.75 20.55,6.12 20.55,5.4 L20.55,4.05 C20.55,3.33 19.92,2.7 19.2,2.7 L15.24,2.7 Z M10.02,1.98 C10.02,1.62 10.29,1.35 10.65,1.35 L13.26,1.35 C13.62,1.35 13.89,1.62 13.89,1.98 L13.89,2.7 L10.02,2.7 L10.02,1.98 L10.02,1.98 Z M18.57,5.4 L5.43,5.4 C5.07,5.4 4.8,5.13 4.8,4.77 C4.8,4.41 5.07,4.05 5.43,4.05 L18.57,4.05 C18.93,4.05 19.2,4.32 19.2,4.77 C19.2,5.13 18.93,5.4 18.57,5.4 L18.57,5.4 L18.57,5.4 Z"></path>
    </g>
</svg>
