<svg xmlns="http://www.w3.org/2000/svg" viewBox="0 0 24 24">
    <g stroke-width="1" fill-rule="evenodd">
        <path d="M15.5583333,21.25 C15.925,21.25 16.2,20.975 16.2,20.6083333 L16.2,12.3583333 C16.2,11.9916667 15.925,11.625 15.5583333,11.625 C15.1916667,11.625 14.9166667,11.9 14.9166667,12.3583333 L14.9166667,20.6083333 C14.825,20.975 15.1,21.25 15.5583333,21.25 L15.5583333,21.25 L15.5583333,21.25 Z M15.4666667,4.75 L15.4666667,3.375 C15.5583333,2.64166667 14.9166667,2 14.1833333,2 L10.15,2 C9.41666667,2 8.775,2.64166667 8.775,3.375 L8.775,4.75 L4.83333333,4.75 C4.1,4.75 3.45833333,5.39166667 3.45833333,6.125 L3.45833333,7.5 C3.45833333,8.23333333 4.1,8.875 4.83333333,8.875 L4.83333333,21.25 C4.83333333,22.8083333 6.025,24 7.49166667,24 L16.8416667,24 C18.3083333,24 19.5,22.8083333 19.5,21.25 L19.5,8.875 C20.2333333,8.875 20.875,8.23333333 20.875,7.5 L20.875,6.125 C20.875,5.39166667 20.2333333,4.75 19.5,4.75 L15.4666667,4.75 Z M10.15,4.01666667 C10.15,3.65 10.425,3.375 10.7916667,3.375 L13.45,3.375 C13.8166667,3.375 14.0916667,3.65 14.0916667,4.01666667 L14.0916667,4.75 L10.15,4.75 L10.15,4.01666667 L10.15,4.01666667 Z M18.2166667,21.25 C18.2166667,21.9833333 17.575,22.625 16.8416667,22.625 L7.49166667,22.625 C6.75833333,22.625 6.11666667,21.9833333 6.11666667,21.25 L6.11666667,8.875 L18.2166667,8.875 L18.2166667,21.25 L18.2166667,21.25 Z M18.8583333,7.5 L5.475,7.5 C5.10833333,7.5 4.83333333,7.225 4.83333333,6.85833333 C4.83333333,6.49166667 5.10833333,6.125 5.475,6.125 L18.8583333,6.125 C19.225,6.125 19.5,6.4 19.5,6.85833333 C19.5,7.225 19.225,7.5 18.8583333,7.5 L18.8583333,7.5 L18.8583333,7.5 Z M8.775,21.25 C9.14166667,21.25 9.41666667,20.975 9.41666667,20.6083333 L9.41666667,12.3583333 C9.41666667,11.9916667 9.14166667,11.625 8.775,11.625 C8.40833333,11.625 8.13333333,11.9 8.13333333,12.3583333 L8.13333333,20.6083333 C8.13333333,20.975 8.40833333,21.25 8.775,21.25 L8.775,21.25 L8.775,21.25 Z M12.1666667,21.25 C12.5333333,21.25 12.8083333,20.975 12.8083333,20.6083333 L12.8083333,12.3583333 C12.8083333,11.9916667 12.5333333,11.625 12.1666667,11.625 C11.8,11.625 11.525,11.9 11.525,12.3583333 L11.525,20.6083333 C11.525,20.975 11.8,21.25 12.1666667,21.25 L12.1666667,21.25 L12.1666667,21.25 Z"></path>
    </g>
</svg>
