<svg xmlns="http://www.w3.org/2000/svg" viewBox="0 0 24 24">
    <g stroke-width="1" fill-rule="evenodd"  transform="translate(1.000000, 0.000000)">
        <path d="M21.6738824,4.5629589 C21.7534706,4.46531507 21.7913235,4.33676712 21.7787059,4.21117808 L21.5147059,1.50115068 C21.4364118,0.696 20.7437353,0.100273973 19.9300588,0.181150685 L1.38502941,2.04723288 C0.588823529,2.12679452 0.00744117647,2.84843836 0.0860588235,3.65621918 L0.320941176,6.07693151 C0.279205882,6.14893151 0.247823529,6.22849315 0.247823529,6.31857534 L0.247823529,22.2867945 C0.247823529,23.0985205 0.897147059,23.7586849 1.69594118,23.7586849 L20.3331765,23.7586849 C21.1316471,23.7586849 21.7812941,23.0985205 21.7812941,22.2867945 L21.7812941,6.31857534 C21.7812941,6.05260274 21.5690588,5.83824658 21.3073235,5.83824658 L10.406,5.83824658 L21.3542353,4.73621918 C21.4794412,4.72339726 21.5942941,4.66191781 21.6738824,4.5629589 Z M20.8346471,22.2867945 C20.8346471,22.5682192 20.6097941,22.7953973 20.3344706,22.7953973 L1.69594118,22.7953973 C1.42061765,22.7953973 1.19414706,22.5669041 1.19414706,22.2867945 L1.19414706,6.80021918 L20.8336765,6.80021918 L20.8336765,22.2867945 L20.8346471,22.2867945 Z M1.24623529,5.79320548 L1.02882353,3.56120548 C1.001,3.28241096 1.20320588,3.03221918 1.47723529,3.00394521 L20.0248529,1.13786301 C20.0410294,1.13523288 20.0575294,1.13523288 20.0740294,1.13523288 C20.3331765,1.13523288 20.5467059,1.33315068 20.5719412,1.59517808 L20.7893529,3.82717808 L1.24623529,5.79320548 Z"></path>
        <path d="M13.0246471,20.9934247 L19.1186471,20.9934247 C19.3800588,20.9934247 19.5926176,20.7777534 19.5926176,20.5121096 L19.5926176,17.2050411 C19.5926176,16.9390685 19.3800588,16.7233973 19.1186471,16.7233973 L13.0246471,16.7233973 C12.7629118,16.7233973 12.5506765,16.9390685 12.5506765,17.2050411 L12.5506765,20.5121096 C12.5506765,20.7777534 12.7616176,20.9934247 13.0246471,20.9934247 Z M13.4973235,17.6853699 L18.6459706,17.6853699 L18.6459706,20.0304658 L13.4973235,20.0304658 L13.4973235,17.6853699 Z"></path>
    </g>
</svg>
