<svg xmlns="http://www.w3.org/2000/svg" viewBox="0 0 24 24">
    <g stroke-width="1" fill-rule="evenodd" transform="translate(0.842105, 0.347368)">
        <path d="M10.7789474,0.209940729 C4.95168259,0.209940729 0.209940729,4.95168259 0.209940729,10.7789474 C0.209940729,16.6062121 4.95168259,21.347954 10.7789474,21.347954 C16.6062121,21.347954 21.347954,16.6062121 21.347954,10.7789474 C21.347954,4.95168259 16.6062121,0.209940729 10.7789474,0.209940729 Z M10.7789474,20.3479994 C5.50223806,20.3479994 1.20989538,16.05433 1.20989538,10.7776207 C1.20989538,5.50091142 5.5035647,1.2089004 10.7789474,1.2089004 C16.0556567,1.2089004 20.3479994,5.50223806 20.3479994,10.7776207 C20.3479994,16.0556567 16.0556567,20.3479994 10.7789474,20.3479994 Z"></path>
        <path d="M15.7770623,10.2788042 L11.2790905,10.2788042 L11.2790905,3.81674235 C11.2790905,3.5408013 11.0548884,3.31659919 10.7789474,3.31659919 C10.5030063,3.31659919 10.2788042,3.5408013 10.2788042,3.81674235 L10.2788042,10.7789474 C10.2788042,11.0548884 10.5030063,11.2790905 10.7789474,11.2790905 L15.7770623,11.2790905 C16.0530034,11.2790905 16.2772055,11.0548884 16.2772055,10.7789474 C16.2772055,10.5030063 16.0530034,10.2788042 15.7770623,10.2788042 Z"></path>
    </g>
</svg>
