<?xml version="1.0" encoding="UTF-8"?>
<svg xmlns="http://www.w3.org/2000/svg" viewBox="0 0 24 24">
    <g stroke="none" stroke-width="1" fill-rule="evenodd">
        <path d="M9.71428571,4 C6.24419048,4 3.75009524,6.88533333 3.67847619,9.96419048 C1.55809524,10.599619 0,12.5325714 0,14.8571429 C0,17.6933333 2.30666667,20 5.14285714,20 L18.8571429,20 C21.8868571,20 24,17.9641905 24,15.4285714 C24,13.376381 22.6041905,11.384 20.5447619,10.919619 C20.4746667,9.23961905 19.6754286,7.98361905 18.5714286,7.32152381 C17.4895238,6.6727619 16.1531429,6.59390476 14.9733333,7.08914286 C14.0266667,5.384 12.1638095,4 9.71428571,4 Z M9.71428571,4.57142857 C12.0445714,4.57142857 13.7859048,5.92838095 14.5980952,7.55352381 C14.6697143,7.69333333 14.8422857,7.75009524 14.9820952,7.67847619 C16.0358095,7.15161905 17.2975238,7.22019048 18.2857143,7.81257143 C19.2739048,8.40457143 20,9.51619048 20,11.1428571 C20.0030476,11.2811429 20.104,11.3973333 20.2411429,11.4198095 C22.1131429,11.7337143 23.4285714,13.5729524 23.4285714,15.4285714 C23.4285714,17.6518095 21.6369524,19.4285714 18.8571429,19.4285714 L5.14285714,19.4285714 C2.61447619,19.4285714 0.571428571,17.3855238 0.571428571,14.8571429 C0.571428571,12.7173333 2.03885714,10.9299048 4.01790476,10.4285714 C4.14742857,10.3958095 4.23657143,10.2769524 4.232,10.1428571 C4.20533333,7.30514286 6.49714286,4.57142857 9.71428571,4.57142857 Z" id="cloud"></path>
    </g>
</svg>
