<svg xmlns="http://www.w3.org/2000/svg" viewBox="0 0 24 24">
    <g stroke="none" stroke-width="1" fill-rule="evenodd">
        <path d="M12,4 C8.2,4 5.1,6.8 4.7,10.5 C2.1,10.5 0,12.6 0,15.2 C0,17.8 2.1,20 4.7,20 L19.3,20 C21.9,20 24,17.9 24,15.3 C24,12.6 21.9,10.5 19.3,10.5 C18.9,6.9 15.8,4 12,4 Z" fill="#F2009B"/>
        <path d="M6,12 L18,12 C19.6568542,12 21,13.3431458 21,15 L21,16 C21,17.6568542 19.6568542,19 18,19 L6,19 C4.34314575,19 3,17.6568542 3,16 L3,15 C3,13.3431458 4.34314575,12 6,12 Z M10.2250977,17.128418 L8.81005859,13.0234375 L8.09570312,13.0234375 L9.93798828,18 L10.519043,18 L12.3647461,13.0234375 L11.6469727,13.0234375 L10.2250977,17.128418 Z M16.1279297,18 L16.1279297,17.4838867 L13.6293945,17.4838867 L14.9624023,16.0380859 C15.5867544,15.3613247 15.8989258,14.7779972 15.8989258,14.2880859 C15.8989258,13.8847636 15.764487,13.5617688 15.4956055,13.3190918 C15.2267239,13.0764148 14.8610049,12.9550781 14.3984375,12.9550781 C13.9039689,12.9550781 13.5091974,13.0963528 13.2141113,13.3789062 C12.9190252,13.6614597 12.7714844,14.031736 12.7714844,14.4897461 L13.4038086,14.4897461 C13.4038086,14.1707341 13.4909659,13.9217945 13.6652832,13.7429199 C13.8396005,13.5640453 14.0839828,13.4746094 14.3984375,13.4746094 C14.6604831,13.4746094 14.8701164,13.5577791 15.0273438,13.7241211 C15.1845711,13.8904631 15.2631836,14.1035143 15.2631836,14.3632812 C15.2631836,14.5569671 15.2147629,14.7443839 15.1179199,14.9255371 C15.021077,15.1066904 14.8450534,15.3419582 14.5898438,15.6313477 L12.8671875,17.5454102 L12.8671875,18 L16.1279297,18 Z" fill="#FAFAFA"/>
    </g>
</svg>
