<svg xmlns="http://www.w3.org/2000/svg" viewBox="0 0 24 24">
    <g stroke="none" stroke-width="1" fill-rule="evenodd">
        <path d="M12,4 C8.2,4 5.1,6.8 4.7,10.5 C2.1,10.5 0,12.6 0,15.2 C0,17.8 2.1,20 4.7,20 L19.3,20 C21.9,20 24,17.9 24,15.3 C24,12.6 21.9,10.5 19.3,10.5 C18.9,6.9 15.8,4 12,4 Z" fill="#F2009B"/>
        <path d="M6,12 L18,12 C19.6568542,12 21,13.3431458 21,15 L21,16 C21,17.6568542 19.6568542,19 18,19 L6,19 C4.34314575,19 3,17.6568542 3,16 L3,15 C3,13.3431458 4.34314575,12 6,12 Z M15.0830078,16.3286133 L15.0830078,13.0234375 L14.409668,13.0234375 L12.1811523,16.472168 L12.1811523,16.8447266 L14.4472656,16.8447266 L14.4472656,18 L15.0830078,18 L15.0830078,16.8447266 L15.7734375,16.8447266 L15.7734375,16.3286133 L15.0830078,16.3286133 Z M12.8989258,16.3286133 L14.3720703,14.0249023 L14.4472656,13.8881836 L14.4472656,16.3286133 L12.8989258,16.3286133 Z M10.2250977,17.128418 L8.81005859,13.0234375 L8.09570312,13.0234375 L9.93798828,18 L10.519043,18 L12.3647461,13.0234375 L11.6469727,13.0234375 L10.2250977,17.128418 Z" fill="#FAFAFA"/>
    </g>
</svg>
