<svg xmlns="http://www.w3.org/2000/svg" viewBox="0 0 24 24">
    <g stroke-width="1" fill-rule="evenodd">
        <path d="M22.47616,15.6576 C22.65984,14.8624 22.75872,14.05248 22.75872,13.24128 C22.75872,9.47744 20.84256,6.0512 17.63264,4.07488 C17.43616,3.95488 17.1824,4.01632 17.0624,4.20992 C16.9424,4.40512 17.00384,4.65984 17.19744,4.78016 C20.16128,6.60384 21.9312,9.76736 21.9312,13.24128 C21.9312,13.95488 21.84864,14.6688 21.69376,15.3712 C21.50368,15.3312 21.30624,15.31008 21.10368,15.31008 C19.50624,15.31008 18.20736,16.60992 18.20736,18.2064 C18.20736,19.80256 19.50624,21.1024 21.10368,21.1024 C22.70112,21.1024 24,19.80256 24,18.2064 C24,17.10624 23.3824,16.14752 22.47616,15.6576 Z M21.10368,20.27616 C19.96256,20.27616 19.03488,19.34752 19.03488,18.20736 C19.03488,17.06624 19.96384,16.13888 21.10368,16.13888 C22.24512,16.13888 23.17248,17.06752 23.17248,18.20736 C23.17248,19.3488 22.24384,20.27616 21.10368,20.27616 Z"></path>
        <path d="M15.79488,22.41984 C14.5888,22.91872 13.31264,23.17248 12,23.17248 C9.35744,23.17248 6.81632,22.10752 4.95872,20.23744 C5.4736,19.7136 5.79264,18.99744 5.79264,18.20736 C5.79264,16.6112 4.49376,15.31136 2.89632,15.31136 C1.29888,15.31136 0,16.6112 0,18.20736 C0,19.80384 1.29888,21.10368 2.89632,21.10368 C3.40384,21.10368 3.88,20.9712 4.29504,20.74112 C6.31488,22.81504 9.10112,24 12,24 C13.42112,24 14.80512,23.7264 16.11136,23.18496 C16.32256,23.0976 16.4224,22.85504 16.33504,22.64384 C16.24864,22.43264 16.0064,22.33248 15.79488,22.41984 Z M0.82752,18.20736 C0.82752,17.06624 1.75616,16.13888 2.89632,16.13888 C4.03744,16.13888 4.96512,17.06752 4.96512,18.20736 C4.96512,19.3488 4.03616,20.27616 2.89632,20.27616 C1.75488,20.27616 0.82752,19.34752 0.82752,18.20736 Z"></path>
        <path d="M1.65504,12.91616 C1.66496,12.91744 1.67488,12.91744 1.68512,12.91744 C1.90016,12.91744 2.08128,12.75136 2.0976,12.53248 C2.39264,8.35744 5.23616,4.8688 9.2224,3.71264 C9.57632,4.9136 10.6864,5.79264 12,5.79264 C13.59744,5.79264 14.89632,4.49248 14.89632,2.89632 C14.89632,1.29984 13.59744,0 12,0 C10.4064,0 9.11008,1.29376 9.10368,2.8864 C4.72512,4.10624 1.5936,7.91136 1.27136,12.4736 C1.25504,12.70112 1.42752,12.89984 1.65504,12.91616 Z M12,0.82752 C13.14112,0.82752 14.0688,1.75616 14.0688,2.89632 C14.0688,4.03744 13.13984,4.96512 12,4.96512 C10.85888,4.96512 9.9312,4.03616 9.9312,2.89632 C9.9312,1.75488 10.85888,0.82752 12,0.82752 Z"></path>
    </g>
</svg>
