<svg xmlns="http://www.w3.org/2000/svg" viewBox="0 0 24 24">
    <g fill-rule="evenodd">
        <path fill-rule="evenodd" d="M10.8,0 C10.1424,0 9.6,0.5424 9.6,1.2 L9.6,2.772 C8.7456,2.992 7.9296,3.328 7.168,3.772 L6.144,2.748 C5.6784,2.284 4.912,2.284 4.4456,2.748 L2.7496,4.4456 C2.2832,4.9112 2.2832,5.6776 2.7496,6.144 L3.7752,7.1704 C3.3272,7.9304 2.988,8.7464 2.7648,9.6 L1.2,9.6 C0.5424,9.6 0,10.1424 0,10.8 L0,13.2 C0,13.8576 0.5424,14.4 1.2,14.4 L2.772,14.4 C2.992,15.2544 3.328,16.0704 3.772,16.832 L2.748,17.856 C2.284,18.3216 2.284,19.088 2.748,19.5544 L4.4456,21.2504 C4.9112,21.7168 5.6776,21.7168 6.144,21.2504 L7.1704,20.2248 C7.9304,20.6728 8.7464,21.012 9.6,21.2352 L9.6,22.8 C9.6,23.4576 10.1424,24 10.8,24 L13.2,24 C13.8576,24 14.4,23.4576 14.4,22.8 L14.4,21.228 C15.2544,21.008 16.0704,20.672 16.832,20.228 L17.856,21.252 C18.3216,21.716 19.088,21.716 19.5544,21.252 L21.2504,19.5544 C21.7168,19.0888 21.7168,18.3224 21.2504,17.856 L20.2248,16.8296 C20.6728,16.0696 21.012,15.2536 21.2352,14.4 L22.8,14.4 C23.4576,14.4 24,13.8576 24,13.2 L24,10.8 C24,10.1424 23.4576,9.6 22.8,9.6 L21.228,9.6 C21.008,8.7456 20.672,7.9296 20.228,7.168 L21.252,6.144 C21.716,5.6784 21.716,4.912 21.252,4.4456 L19.5544,2.7496 C19.0888,2.2832 18.3224,2.2832 17.856,2.7496 L16.8296,3.7752 C16.0696,3.3272 15.2536,2.988 14.4,2.7648 L14.4,1.2 C14.4,0.5424 13.8576,0 13.2,0 L10.8,0 Z M10.8,0.8 L13.2,0.8 C13.4288,0.8 13.6,0.9712 13.6,1.2 L13.6,3.0264 C13.5999064,3.21348324 13.7295003,3.37564171 13.912,3.4168 C14.9064,3.6408 15.8544,4.0328 16.7144,4.5808 C16.872528,4.68023506 17.0784231,4.65698884 17.2104,4.5248 L18.4216,3.3152 C18.5832,3.1536 18.828,3.1536 18.9896,3.3152 L20.6856,5.0112 C20.8472,5.1728 20.8472,5.4176 20.6856,5.5792 L19.48,6.784 C19.346982,6.91622502 19.3236984,7.12311714 19.424,7.2816 C19.968,8.1424 20.3576,9.0912 20.576,10.0856 C20.6163176,10.26964 20.7795965,10.4005963 20.968,10.4 L22.8,10.4 C23.0288,10.4 23.2,10.5712 23.2,10.8 L23.2,13.2 C23.2,13.4288 23.0288,13.6 22.8,13.6 L20.9736,13.6 C20.7865168,13.5999064 20.6243583,13.7295003 20.5832,13.912 C20.3592,14.9064 19.9672,15.8544 19.4192,16.7144 C19.3197649,16.872528 19.3430112,17.0784231 19.4752,17.2104 L20.6848,18.4216 C20.8464,18.5832 20.8464,18.828 20.6848,18.9896 L18.9888,20.6856 C18.8272,20.8472 18.5824,20.8472 18.4208,20.6856 L17.216,19.48 C17.083775,19.346982 16.8768829,19.3236984 16.7184,19.424 C15.8576,19.968 14.9088,20.3576 13.9144,20.576 C13.73036,20.6163176 13.5994037,20.7795965 13.6,20.968 L13.6,22.8 C13.6,23.0288 13.4288,23.2 13.2,23.2 L10.8,23.2 C10.5712,23.2 10.4,23.0288 10.4,22.8 L10.4,20.9736 C10.4000936,20.7865168 10.2704997,20.6243583 10.088,20.5832 C9.0936,20.3592 8.1456,19.9672 7.2856,19.4192 C7.12747198,19.3197649 6.92157693,19.3430112 6.7896,19.4752 L5.5784,20.6848 C5.4168,20.8464 5.172,20.8464 5.0104,20.6848 L3.3144,18.9888 C3.1528,18.8272 3.1528,18.5824 3.3144,18.4208 L4.52,17.216 C4.65301796,17.083775 4.67630164,16.8768829 4.576,16.7184 C4.032,15.8576 3.6424,14.9088 3.424,13.9144 C3.38368238,13.73036 3.22040354,13.5994037 3.032,13.6 L1.2,13.6 C0.9712,13.6 0.8,13.4288 0.8,13.2 L0.8,10.8 C0.8,10.5712 0.9712,10.4 1.2,10.4 L3.0264,10.4 C3.21348324,10.4000936 3.37564171,10.2704997 3.4168,10.088 C3.6408,9.0936 4.0328,8.1456 4.5808,7.2856 C4.68023506,7.12747198 4.65698884,6.92157693 4.5248,6.7896 L3.3152,5.5776 C3.1536,5.416 3.1536,5.1712 3.3152,5.0096 L5.0112,3.3136 C5.1728,3.152 5.4176,3.152 5.5792,3.3136 L6.784,4.52 C6.91622502,4.65301796 7.12311714,4.67630164 7.2816,4.576 C8.1424,4.032 9.0912,3.6424 10.0856,3.424 C10.26964,3.38368238 10.4005963,3.22040354 10.4,3.032 L10.4,1.2 C10.4,0.9712 10.5712,0.8 10.8,0.8 Z M12,8 C9.7952,8 8,9.7952 8,12 C8,14.2048 9.7952,16 12,16 C14.2048,16 16,14.2048 16,12 C16,9.7952 14.2048,8 12,8 Z M12,8.8 C13.772,8.8 15.2,10.228 15.2,12 C15.2,13.772 13.772,15.2 12,15.2 C10.228,15.2 8.8,13.772 8.8,12 C8.8,10.228 10.228,8.8 12,8.8 Z"/>
    </g>
</svg>
