<svg viewBox="0 0 24 24" version="1.1" xmlns="http://www.w3.org/2000/svg">
    <path stroke-width="1" fill-rule="evenodd" transform="translate(11.996077, 11.624987) scale(-1, 1) translate(-11.996077, -11.624987)" d="M7.21483847,17.00388 C7.05077618,17.1679423 6.85155826,17.2499732 6.61718364,17.2499732 C6.38280902,17.2499732 6.18359111,17.1679423 6.01952882,17.00388 L5.24609316,16.1952882 C5.08203088,16.0312259 5,15.832008 5,15.5976334 C5,15.3632587 5.08203088,15.1640408 5.24609316,14.9999785 L8.62108512,11.6249866 L5.24609316,8.24999464 C5.08203088,8.08593235 5,7.88671443 5,7.65233981 C5,7.41796519 5.08203088,7.21874727 5.24609316,7.05468499 L6.01952882,6.24609316 C6.18359111,6.08203088 6.38280902,6 6.61718364,6 C6.85155826,6 7.05077618,6.08203088 7.21483847,6.24609316 L11.9960771,11.0273318 C12.1601394,11.1913941 12.2421702,11.390612 12.2421702,11.6249866 C12.2421702,11.8593612 12.1601394,12.0585791 11.9960771,12.2226414 L7.21483847,17.00388 Z M18.746061,11.0273318 C18.9101233,11.1913941 18.9921541,11.390612 18.9921541,11.6249866 C18.9921541,11.8593612 18.9101233,12.0585791 18.746061,12.2226414 L13.9648224,17.00388 C13.8007601,17.1679423 13.6015422,17.2499732 13.3671676,17.2499732 C13.1327929,17.2499732 12.933575,17.1679423 12.7695127,17.00388 L11.9960771,16.1952882 C11.8320148,16.0312259 11.7499839,15.832008 11.7499839,15.5976334 C11.7499839,15.3632587 11.8320148,15.1640408 11.9960771,14.9999785 L15.371069,11.6249866 L11.9960771,8.21483847 C11.8320148,8.0742138 11.7499839,7.88671443 11.7499839,7.65233981 C11.7499839,7.41796519 11.8320148,7.21874727 11.9960771,7.05468499 L12.7695127,6.24609316 C12.933575,6.08203088 13.1327929,6 13.3671676,6 C13.6015422,6 13.8007601,6.08203088 13.9648224,6.24609316 L18.746061,11.0273318 Z"></path>
</svg>
