<svg xmlns="http://www.w3.org/2000/svg" viewBox="0 0 24 24">
    <path transform="translate(0, -5)" d="M11.7,18.8c-0.3,0-0.7-0.1-0.9-0.4L0.4,8.2c-0.5-0.5-0.5-1.4,0-1.9c0.5-0.5,1.4-0.5,1.9,0l9.4,9.2l10.1-9.9
        c0.5-0.5,1.4-0.5,1.9,0c0.5,0.5,0.5,1.4,0,1.9l-11,10.8C12.3,18.6,12,18.8,11.7,18.8z"/>
    <path transform="translate(0, 5)" d="M11.7,18.8c-0.3,0-0.7-0.1-0.9-0.4L0.4,8.2c-0.5-0.5-0.5-1.4,0-1.9c0.5-0.5,1.4-0.5,1.9,0l9.4,9.2l10.1-9.9
        c0.5-0.5,1.4-0.5,1.9,0c0.5,0.5,0.5,1.4,0,1.9l-11,10.8C12.3,18.6,12,18.8,11.7,18.8z"/>
</svg>
