<svg viewBox="0 0 24 24" xmlns="http://www.w3.org/2000/svg">
    <g stroke-width="1" transform="translate(3.000000, 3.000000)" fill-rule="nonzero">
        <path d="M17.1896087,5.23995652 C17.1716087,5.27869565 17.1496957,5.31586957 17.118,5.34795652 L6.19826087,16.2673043 C6.1556087,16.3408696 6.09652174,16.4050435 6.0123913,16.4371304 L0.592043478,17.9553913 C0.580695652,17.9608696 0.567782609,17.9616522 0.55526087,17.9655652 L0.536869565,17.9710435 C0.53373913,17.9722174 0.530217391,17.9714348 0.527478261,17.9726087 C0.490695652,17.9823913 0.454304348,17.9906087 0.415565217,17.9902174 C0.377217391,17.9913913 0.341608696,17.9843478 0.305217391,17.9741739 C0.297,17.9718261 0.289565217,17.9733913 0.281347826,17.9706522 C0.278217391,17.9694783 0.27626087,17.9667391 0.273130435,17.9655652 C0.238695652,17.9526522 0.208956522,17.933087 0.179217391,17.9103913 C0.163956522,17.8994348 0.147913043,17.8896522 0.135,17.8767391 C0.122086957,17.8638261 0.112304348,17.8477826 0.101347826,17.8325217 C0.0786521739,17.8031739 0.0594782609,17.7730435 0.046173913,17.7386087 C0.0446086957,17.7354783 0.0422608696,17.7335217 0.0410869565,17.7303913 C0.0383478261,17.7225652 0.0399130435,17.7147391 0.0375652174,17.7065217 C0.0277826087,17.6705217 0.0207391304,17.6345217 0.0215217391,17.5965652 C0.0215217391,17.5574348 0.0293478261,17.5210435 0.0391304348,17.4842609 C0.0406956522,17.4811304 0.0395217391,17.478 0.0406956522,17.4752609 L0.046173913,17.456087 C0.0504782609,17.4443478 0.0512608696,17.4314348 0.0563478261,17.4196957 L1.5746087,11.9993478 C1.60669565,11.9148261 1.67086957,11.856913 1.74443478,11.8134783 L12.497087,1.06043478 C12.5127391,1.04282609 12.5311304,1.02795652 12.5471739,1.01073913 L12.6641739,0.89373913 C12.6700435,0.887869565 12.6774783,0.885913043 12.6837391,0.880434783 C13.2487826,0.340434783 14.0071304,0 14.8511739,0 C16.5901304,0 18,1.40986957 18,3.14882609 C18,3.95530435 17.688913,4.68352174 17.1896087,5.23995652 Z M15.7108696,5.67391304 L14.2947391,4.25778261 L5.04430435,13.5086087 C5.04586957,13.5117391 5.04978261,13.512913 5.05134783,13.5160435 L5.97991304,15.4048696 L15.7108696,5.67391304 Z M1.54291304,15.0769565 L2.93517391,16.4696087 L5.32995652,15.7985217 C5.32995652,15.7985217 4.31804348,13.6964348 4.31647826,13.6956522 L2.2136087,12.6821739 L1.54291304,15.0769565 Z M4.49608696,12.9615652 C4.49921739,12.9631304 4.5003913,12.9666522 4.50352174,12.9686087 L13.7543478,3.7173913 L12.3382174,2.30126087 L2.60726087,12.0322174 L4.49608696,12.9615652 Z M14.8390435,0.782608696 C14.1417391,0.782608696 13.5195652,1.08626087 13.0824783,1.56286957 L13.0797391,1.56013043 L12.8786087,1.76086957 L16.2512609,5.13352174 L16.4574783,4.92691304 L16.4551304,4.92456522 C16.9282174,4.48786957 17.2295217,3.86765217 17.2295217,3.17308696 C17.2295217,1.85282609 16.1593043,0.782608696 14.8390435,0.782608696 Z"></path>
    </g>
</svg>
