<svg xmlns="http://www.w3.org/2000/svg" viewBox="0 0 24 24">
    <g stroke-width="1" fill-rule="evenodd" transform="translate(1.000000, 2.000000)">
        <path d="M21.0095217,6.4043913 C20.9875217,6.45173913 20.9607391,6.49717391 20.922,6.5363913 L7.57565217,19.8822609 C7.52352174,19.9721739 7.45130435,20.0506087 7.34847826,20.0898261 L0.723608696,21.9454783 C0.70973913,21.9521739 0.693956522,21.9531304 0.678652174,21.957913 L0.656173913,21.9646087 C0.652347826,21.9660435 0.648043478,21.965087 0.644695652,21.9665217 C0.59973913,21.9784783 0.55526087,21.9885217 0.507913043,21.9880435 C0.461043478,21.9894783 0.417521739,21.9808696 0.373043478,21.9684348 C0.363,21.9655652 0.353913043,21.9674783 0.343869565,21.9641304 C0.340043478,21.9626957 0.337652174,21.9593478 0.333826087,21.957913 C0.29173913,21.9421304 0.255391304,21.9182174 0.219043478,21.8904783 C0.200391304,21.877087 0.180782609,21.8651304 0.165,21.8493478 C0.149217391,21.8335652 0.13726087,21.8139565 0.123869565,21.7953043 C0.0961304348,21.7594348 0.0726956522,21.7226087 0.0564347826,21.6805217 C0.0545217391,21.6766957 0.0516521739,21.6743043 0.0502173913,21.6704783 C0.0468695652,21.660913 0.0487826087,21.6513478 0.0459130435,21.6413043 C0.0339565217,21.5973043 0.0253478261,21.5533043 0.0263043478,21.506913 C0.0263043478,21.459087 0.0358695652,21.4146087 0.047826087,21.3696522 C0.0497391304,21.3658261 0.0483043478,21.362 0.0497391304,21.3586522 L0.0564347826,21.3352174 C0.0616956522,21.3208696 0.0626521739,21.305087 0.0688695652,21.2907391 L1.92452174,14.6658696 C1.96373913,14.5625652 2.04217391,14.4917826 2.13208696,14.4386957 L15.2742174,1.29608696 C15.2933478,1.27456522 15.3158261,1.2563913 15.3354348,1.23534783 L15.4784348,1.09234783 C15.4856087,1.08517391 15.4946957,1.08278261 15.5023478,1.07608696 C16.1929565,0.416086957 17.1198261,0 18.1514348,0 C20.2768261,0 22,1.72317391 22,3.84856522 C22,4.83426087 21.6197826,5.72430435 21.0095217,6.4043913 Z M19.2021739,6.93478261 L17.4713478,5.20395652 L6.16526087,16.5105217 C6.16717391,16.5143478 6.17195652,16.5157826 6.17386957,16.5196087 L7.30878261,18.8281739 L19.2021739,6.93478261 Z M1.88578261,18.4273913 L3.58743478,20.1295217 L6.5143913,19.3093043 C6.5143913,19.3093043 5.2776087,16.740087 5.27569565,16.7391304 L2.70552174,15.5004348 L1.88578261,18.4273913 Z M5.49521739,15.841913 C5.49904348,15.8438261 5.50047826,15.8481304 5.50430435,15.8505217 L16.8108696,4.54347826 L15.0800435,2.81265217 L3.18665217,14.7060435 L5.49521739,15.841913 Z M18.1366087,0.956521739 C17.2843478,0.956521739 16.523913,1.32765217 15.9896957,1.91017391 L15.9863478,1.90682609 L15.7405217,2.15217391 L19.8626522,6.27430435 L20.1146957,6.02178261 L20.1118261,6.01891304 C20.6900435,5.48517391 21.0583043,4.72713043 21.0583043,3.87821739 C21.0583043,2.26456522 19.7502609,0.956521739 18.1366087,0.956521739 Z"></path>
    </g>
</svg>
