<svg xmlns="http://www.w3.org/2000/svg" viewBox="0 0 24 24">
  <g fill-rule="evenodd">
      <path d="M12,1 C14.209139,1 16,2.790861 16,5 C16,7.03954853 14.4735454,8.7225745 12.5007553,8.96895886 L12.5,11 L18.5,11 C19.3284271,11 20,11.6715729 20,12.5 L20.0007553,15.0310411 C21.9735454,15.2774255 23.5,16.9604515 23.5,19 C23.5,21.209139 21.709139,23 19.5,23 C17.290861,23 15.5,21.209139 15.5,19 C15.5,16.9601082 17.0269685,15.2768589 19.0002409,15.0309168 L19,12.5 C19,12.2545401 18.8231248,12.0503916 18.5898756,12.0080557 L18.5,12 L5.5,12 C5.25454011,12 5.05039163,12.1768752 5.00805567,12.4101244 L5,12.5 L5.00075535,15.0310411 C6.97354544,15.2774255 8.5,16.9604515 8.5,19 C8.5,21.209139 6.709139,23 4.5,23 C2.290861,23 0.5,21.209139 0.5,19 C0.5,16.9601082 2.02696848,15.2768589 4.00024088,15.0309168 L4,12.5 C4,11.6715729 4.67157288,11 5.5,11 L11.5,11 L11.5002409,8.96908315 C9.52696848,8.72314107 8,7.03989183 8,5 C8,2.790861 9.790861,1 12,1 Z M4.5,16 C2.84314575,16 1.5,17.3431458 1.5,19 C1.5,20.6568542 2.84314575,22 4.5,22 C6.15685425,22 7.5,20.6568542 7.5,19 C7.5,17.3431458 6.15685425,16 4.5,16 Z M19.5,16 C17.8431458,16 16.5,17.3431458 16.5,19 C16.5,20.6568542 17.8431458,22 19.5,22 C21.1568542,22 22.5,20.6568542 22.5,19 C22.5,17.3431458 21.1568542,16 19.5,16 Z M12,2 C10.3431458,2 9,3.34314575 9,5 C9,6.65685425 10.3431458,8 12,8 C13.6568542,8 15,6.65685425 15,5 C15,3.34314575 13.6568542,2 12,2 Z"/>
  </g>
</svg>
