<svg viewBox="0 0 24 24" version="1.1" xmlns="http://www.w3.org/2000/svg">
    <g stroke-width="1" fill-rule="evenodd">
        <path d="M22.0518125,18.5835749 L1.94818749,18.5835749 C1.79734212,18.5835749 1.66987499,18.4566644 1.66987499,18.3052624 L1.66987499,6.43913074 L11.5427326,12.9009903 C11.6818888,12.9917202 11.8405269,13.0379201 11.9997217,13.0379201 C12.1616996,13.0379201 12.3231208,12.9911636 12.4633903,12.8976506 L22.330125,6.31333349 L22.330125,18.3052624 C22.330125,18.4566644 22.2026579,18.5835749 22.0518125,18.5835749 Z M20.2850848,5.66987499 L11.9958253,11.2021708 L3.54403136,5.66987499 L20.2850848,5.66987499 Z M23.3871559,4.53714312 C23.2852935,4.405223 23.1517035,4.31059675 23.0030846,4.25883062 C22.7203191,4.09907925 22.3991465,4 22.0518125,4 L1.94818749,4 C0.87445787,4 0,4.87390125 0,5.94818749 L0,18.3052624 C0,19.3795487 0.87445787,20.2534499 1.94818749,20.2534499 L22.0518125,20.2534499 C23.1255421,20.2534499 24,19.3795487 24,18.3052624 L24,5.94818749 C24,5.39211912 23.7623211,4.8928265 23.3871559,4.53714312 Z"></path>
    </g>
</svg>
