<svg viewBox="0 0 24 24" version="1.1" xmlns="http://www.w3.org/2000/svg">
    <g stroke-width="1" fill-rule="evenodd">
        <polygon points="18.0856552 0.434896552 18.1195862 1.36758621 22.0233103 1.22358621 11.5862069 11.6623448 12.2441379 12.3198621 22.6824828 1.88151724 22.5388966 5.78648276 23.469931 5.82041379 23.6735172 0.232551724"></polygon>
        <path d="M16.7424828,22.9911724 L4.29641379,22.9911724 C2.07848276,22.9911724 0.274758621,21.1874483 0.274758621,18.969931 L0.274758621,6.52386207 C0.274758621,4.30593103 2.07848276,2.5022069 4.29641379,2.5022069 L10.0878621,2.5022069 L10.0878621,3.43324138 L4.29641379,3.43324138 C2.59282759,3.43324138 1.2057931,4.81986207 1.2057931,6.52386207 L1.2057931,18.969931 C1.2057931,20.6735172 2.59282759,22.0601379 4.29641379,22.0601379 L16.7424828,22.0601379 C18.446069,22.0601379 19.8331034,20.6735172 19.8331034,18.969931 L19.8331034,13.6357241 L20.7641379,13.6357241 L20.7641379,18.969931 C20.7641379,21.1874483 18.96,22.9911724 16.7424828,22.9911724 Z"></path>
    </g>
</svg>
