<svg xmlns="http://www.w3.org/2000/svg" viewBox="0 0 24 24">
    <path d="M20.6,21H3.4c-0.5,0-0.9,0.4-0.9,0.9v1.2c0,0.5,0.4,0.9,0.9,0.9h17.1c0.5,0,0.9-0.4,0.9-0.9v-1.2C21.5,21.4,21.1,21,20.6,21
        L20.6,21z M20.6,21"/>
    <path d="M11.4,18.7c0.2,0.2,0.4,0.3,0.6,0.3c0.2,0,0.5-0.1,0.6-0.3l6.1-6.4c0.3-0.4,0.3-1,0-1.3l-0.8-0.9c-0.3-0.4-0.9-0.4-1.3,0
        l-3.1,3.3V0.9c0-0.5-0.4-0.9-0.9-0.9h-1.2c-0.5,0-0.9,0.4-0.9,0.9v12.4l-3.1-3.3c-0.3-0.4-0.9-0.4-1.3,0L5.3,11
        c-0.3,0.4-0.3,1,0,1.3L11.4,18.7z M11.4,18.7"/>
</svg>
