<svg xmlns="http://www.w3.org/2000/svg" viewBox="0 0 24 24">
    <g stroke="none" stroke-width="1" fill-rule="evenodd">
        <path d="M16.9972439,11.8536566 L16.9972439,19.7682428 C16.9972439,19.8343903 16.9469375,19.8812716 16.8844291,19.8812716 L4.11195847,19.8812716 C4.04688127,19.8812716 4,19.8309652 4,19.7682428 L4,6.99598619 C4,6.93090899 4.05009232,6.88402772 4.11195847,6.88402772 L13.1739584,6.88402772 L13.1739584,7.64825667 L4.76422895,7.64825667 L4.76422895,19.1168286 L16.2330149,19.1168286 L16.2330149,11.8536566 L16.9972439,11.8536566 Z M20,6.50191325 L16.4845468,5 L15.4921196,5.57370689 L18.6511466,6.84057157 C18.6511466,6.84057157 17.163576,7.25779348 15.6877793,8.10979101 C11.4932969,10.5315619 10.833534,13.5610768 10.833534,13.5610768 L11.2156485,14.221696 C11.2156485,14.221696 12.03682,11.0992748 16.0698938,8.77126649 C17.5525407,7.91498756 19.0326189,7.50204704 19.0326189,7.50204704 L18.5501057,10.8702202 L19.5433893,10.2965133 L20,6.50191325 Z"/>
    </g>
</svg>
