<svg xmlns="http://www.w3.org/2000/svg" viewBox="0 0 24 24">
    <g stroke-width="1" fill-rule="evenodd">
        <path d="M12,6 C3.69230769,6 0,12.4615385 0,12.4615385 C0,12.4615385 3.69230769,18.9230778 12,18.9230769 C20.3076923,18.923076 24,12.4615385 24,12.4615385 C24,12.4615385 20.3076923,6 12,6 L12,6 L12,6 L12,6 Z M12,6.92307692 C4.61538462,6.92307692 1.10764723,12.4615385 1.10764723,12.4615385 C1.10764723,12.4615385 4.61538462,18.0000006 12,18 C19.3846154,17.9999991 22.8923527,12.4615385 22.8923527,12.4615385 C22.8923527,12.4615385 19.3846154,6.92307692 12,6.92307692 L12,6.92307692 L12,6.92307692 L12,6.92307692 Z M12,16.1538462 C14.0392053,16.1538462 15.6923077,14.5007438 15.6923077,12.4615385 C15.6923077,10.4223331 14.0392053,8.76923077 12,8.76923077 C9.96079468,8.76923077 8.30769231,10.4223331 8.30769231,12.4615385 C8.30769231,14.5007438 9.96079468,16.1538462 12,16.1538462 L12,16.1538462 L12,16.1538462 L12,16.1538462 Z M12,15.2307692 C13.529404,15.2307692 14.7692308,13.9909424 14.7692308,12.4615385 C14.7692308,10.9321345 13.529404,9.69230769 12,9.69230769 C10.470596,9.69230769 9.23076923,10.9321345 9.23076923,12.4615385 C9.23076923,13.9909424 10.470596,15.2307692 12,15.2307692 L12,15.2307692 L12,15.2307692 L12,15.2307692 Z"></path>
    </g>
</svg>
