<svg viewBox="0 0 24 24" version="1.1" xmlns="http://www.w3.org/2000/svg">
    <g stroke-width="1" fill-rule="evenodd">
        <path d="M9.59029828,0 C9.54773828,0 9.50901828,0.00256 9.47157828,0.01248 C9.46773828,0.01248 9.46389828,0.0112 9.46037828,0.01248 C9.30165828,0.03616 9.15541828,0.10112 9.06645828,0.21376 L5.29269828,5.01248 L3.05525828,7.77376 C2.97141828,7.87616 3.00789828,7.99872 3.00789828,8.1312 L3.00789828,21.82112 C3.00789828,22.98368 3.86037828,24 5.01909828,24 L19.1141383,24 C20.2251783,24 21.2926983,23.02368 21.2926983,21.82112 L21.2926983,2.01248 C21.2926983,0.86624 20.2638983,0 19.1141383,0 L9.59029828,0 Z M10.2453383,1.1424 L19.1141383,1.1424 C19.6366983,1.1424 20.1502983,1.49376 20.1502983,2.01248 L20.1502983,21.82112 C20.1502983,22.32128 19.6526983,22.8576 19.1141383,22.8576 L5.01909828,22.8576 C4.49909828,22.8576 4.15029828,22.34496 4.15029828,21.82112 L4.15029828,8.38112 L7.92405828,8.38112 C9.13909828,8.38112 10.2453383,7.10496 10.2453383,6.01248 L10.2453383,1.1424 Z M9.10293828,2.21376 L9.10293828,6.01248 C9.10293828,6.5824 8.39765828,7.23744 7.92405828,7.23744 L5.01909828,7.23744 L5.90037828,6.1312 L9.10293828,2.21376 Z"></path>
    </g>
</svg>
