<svg xmlns="http://www.w3.org/2000/svg" viewBox="0 0 24 24">
        <g stroke-width="1" fill-rule="evenodd">
            <path d="M0,1.00069463 C0,0.448026248 0.44746922,0 1.00069463,0 L22.9993054,0 C23.5519738,0 24,0.44746922 24,1.00069463 L24,22.9993054 C24,23.5519738 23.5525308,24 22.9993054,24 L1.00069463,24 C0.448026248,24 0,23.5525308 0,22.9993054 L0,1.00069463 Z M1,2.00246167 C1,1.44881738 1.43945834,1 2.00246167,1 L21.9975383,1 C22.5511826,1 23,1.43945834 23,2.00246167 L23,21.9975383 C23,22.5511826 22.5605417,23 21.9975383,23 L2.00246167,23 C1.44881738,23 1,22.5605417 1,21.9975383 L1,2.00246167 Z M10.2602155,9.27796296 L9.42529274,12.5363889 C9.03511007,14.074 8.65466979,15.1883889 8.28348478,15.8795556 C7.91229977,16.5707222 7.47827635,17.0820556 6.98117096,17.4135556 C6.48406557,17.7450556 5.91437939,17.9106852 5.27211241,17.9106852 C4.86780328,17.9106852 4.57041686,17.8341296 4.38019672,17.6815 C4.18997658,17.5286296 4.09474473,17.3487963 4.09474473,17.142 C4.09474473,16.9491667 4.17317096,16.7823333 4.33026698,16.6412593 C4.487363,16.5001852 4.6941452,16.4296481 4.9511007,16.4296481 C5.1651897,16.4296481 5.32934895,16.4838148 5.44333489,16.5919074 C5.55732084,16.7 5.61455738,16.8365 5.61455738,17.0009259 C5.61455738,17.1513889 5.57899766,17.2628519 5.50763466,17.336037 C5.43627166,17.4089815 5.40071194,17.4571296 5.40071194,17.4807222 L5.43627166,17.5300741 C5.46476815,17.5536667 5.49813583,17.5652222 5.53613115,17.5652222 C5.67885714,17.5652222 5.80014988,17.5204444 5.90000937,17.4311296 C6.15233724,17.2101296 6.34012178,16.9421852 6.46360656,16.6270556 C6.54933958,16.4108704 6.71325527,15.8395926 6.95584075,14.9132222 L8.41159719,9.27796296 L7.41982201,9.27796296 L7.65534426,8.4527037 C8.01215925,8.45751852 8.27130679,8.41274074 8.43303044,8.31861111 C8.5947541,8.22448148 8.76597658,8.01287037 8.94669789,7.68377778 C9.46986417,6.72924074 10.0217705,6.04505556 10.6021733,5.63146296 C11.1825761,5.21787037 11.8294707,5.01083333 12.5431007,5.01083333 C12.9997752,5.01083333 13.3315035,5.09798148 13.5385293,5.2717963 C13.745555,5.44585185 13.8488244,5.67142593 13.8488244,5.949 C13.8488244,6.19359259 13.779897,6.38738889 13.6417986,6.53087037 C13.5039438,6.67435185 13.3324778,6.74609259 13.1281311,6.74609259 C12.937911,6.74609259 12.780815,6.68735185 12.6570867,6.56987037 C12.5333583,6.45238889 12.4714941,6.31131481 12.4714941,6.14664815 C12.4714941,6.02916667 12.5107073,5.90446296 12.5891335,5.77277778 C12.6675597,5.64133333 12.7067728,5.55177778 12.7067728,5.50483333 C12.7067728,5.45307407 12.688993,5.4107037 12.6531897,5.37796296 C12.61763,5.34522222 12.5711101,5.32861111 12.5141171,5.32861111 C12.2335363,5.32861111 11.9456487,5.50025926 11.6506979,5.84355556 C11.1655269,6.39364815 10.7753443,7.26368519 10.4803934,8.45318519 L11.5150351,8.45318519 L11.2653864,9.27844444 L10.2602155,9.27844444 L10.2602155,9.27796296 Z M11.9656206,8.67827778 L14.4560187,8.25505556 C14.907822,8.95585185 15.2266417,9.7267037 15.4122342,10.5683333 C15.8784075,9.88655556 16.2303513,9.40940741 16.4683091,9.13664815 C16.7871288,8.77 17.0499297,8.53118519 17.2567119,8.42068519 C17.4637377,8.31042593 17.6836721,8.25505556 17.9167588,8.25505556 C18.1783419,8.25505556 18.3792787,8.32559259 18.5198126,8.46666667 C18.6598595,8.60774074 18.7302482,8.79816667 18.7302482,9.03794444 C18.7302482,9.26375926 18.6598595,9.44816667 18.5198126,9.59164815 C18.3795222,9.73512963 18.2046464,9.80687037 17.9954286,9.80687037 C17.8432037,9.80687037 17.6680843,9.77990741 17.4710445,9.72574074 C17.2735176,9.67181481 17.1368806,9.64461111 17.0606464,9.64461111 C16.8609274,9.64461111 16.6704637,9.71514815 16.4897424,9.85622222 C16.2422857,10.0490556 15.9378361,10.4604815 15.5763934,11.0905 C15.9807026,12.501 16.3041499,13.3616481 16.5467354,13.671963 C16.6894614,13.8554074 16.834623,13.9471296 16.9819766,13.9471296 C17.1057049,13.9471296 17.2126276,13.9165556 17.3029883,13.8554074 C17.4408431,13.7567037 17.65274,13.5097037 17.9379485,13.1148889 L18.194904,13.2629444 C17.7762248,13.9305185 17.3672881,14.4009259 16.9676066,14.6734444 C16.6631569,14.8850556 16.3635785,14.9907407 16.0686276,14.9907407 C15.764178,14.9907407 15.5108759,14.9238148 15.3087213,14.7897222 C15.1063232,14.6556296 14.9270632,14.437037 14.7699672,14.1337037 C14.6128712,13.8303704 14.4275222,13.345037 14.2134333,12.6772222 C13.6568993,13.3777778 13.2204403,13.8893519 12.9040562,14.2112222 C12.5874286,14.5333333 12.3248712,14.7437407 12.1156534,14.8424444 C11.9064356,14.9411481 11.6826042,14.9907407 11.4446464,14.9907407 C11.1974333,14.9907407 11.0011241,14.9202037 10.8559625,14.7791296 C10.7108009,14.6380556 10.6382201,14.4546111 10.6382201,14.229037 C10.6382201,13.9892593 10.7166464,13.7918519 10.8737424,13.6365741 C11.0308384,13.4812963 11.2305574,13.4037778 11.4731429,13.4037778 C11.6014988,13.4037778 11.7466604,13.4413333 11.9083841,13.5166852 C12.1463419,13.6295926 12.3175644,13.6859259 12.4220515,13.6859259 C12.5599063,13.6859259 12.6836347,13.6577593 12.792993,13.6011852 C12.935719,13.5306481 13.1164403,13.3777778 13.3354005,13.1428148 C13.4686276,12.9971667 13.7136487,12.6866111 14.0704637,12.2118704 C13.6137892,10.538 13.2569742,9.53651852 13.0000187,9.20742593 C12.8382951,8.99581481 12.6337049,8.89012963 12.3862482,8.89012963 C12.2578923,8.89012963 12.1007963,8.90890741 11.9152037,8.94646296 L11.9656206,8.67827778 Z"></path>
        </g>
</svg>
