<svg version="1.1" xmlns="http://www.w3.org/2000/svg" viewBox="0 0 24 24">
    <g stroke-width="1" fill-rule="nonzero" transform="translate(0.000000, 1.000000)">
        <path d="M23.5293023,9.69674419 L18.6362791,1.18697674 C18.2618717,0.523012829 17.5639879,0.106830598 16.8018605,0.0930232558 L7.01395349,0.0930232558 C6.25171886,0.106454844 5.55366255,0.522739947 5.17953488,1.18697674 L0.284651163,9.6744186 C-0.0940175257,10.3333479 -0.0940175257,11.1438614 0.284651163,11.8027907 L5.17767442,20.3609302 C5.54796724,21.0343331 6.24416646,21.4643385 7.01209302,21.4939535 L16.8,21.4939535 C17.5678858,21.4675954 18.2653352,21.0393742 18.6362791,20.3665116 L23.5293023,11.8567442 C23.9106025,11.1872268 23.9106025,10.3662616 23.5293023,9.69674419 Z" fill="#88898A"></path>
        <path d="M15.9051163,8.28837209 L9.17395349,8.90790698 L7.87162791,10.2102326 L8.98790698,11.3265116 L7.88093023,13.2651163 L16.104186,21.4883721 L16.8,21.4883721 C17.5678858,21.462014 18.2653352,21.0337928 18.6362791,20.3609302 L22.0465116,14.4297674 L15.9051163,8.28837209 Z"  fill="#000000" opacity="0.0700000003"></path>
        <g transform="translate(7.627907, 8.186047)" fill="#FFFFFF">
            <path d="M8.13023256,0.0502325581 L0.420465116,0.0502325581 C0.359309873,0.0482245934 0.299934327,0.0709928085 0.255800936,0.113374875 C0.211667545,0.155756941 0.186515098,0.214162432 0.186046512,0.275348837 L0.186046512,1.86976744 C0.186046512,1.99409573 0.286834503,2.09488372 0.411162791,2.09488372 L8.13023256,2.09488372 C8.25413944,2.09387219 8.3543373,1.99367432 8.35534884,1.86976744 L8.35534884,0.275348837 C8.3543373,0.15144196 8.25413944,0.0512440933 8.13023256,0.0502325581 M6.93767442,1.53860465 C6.6828528,1.53860465 6.47627907,1.33203092 6.47627907,1.0772093 C6.47627907,0.822387688 6.6828528,0.615813953 6.93767442,0.615813953 C7.19249603,0.615813953 7.39906977,0.822387688 7.39906977,1.0772093 C7.39906977,1.33203092 7.19249603,1.53860465 6.93767442,1.53860465"></path>
            <path d="M8.13023256,3.1144186 L0.420465116,3.1144186 C0.357674668,3.11232382 0.296824508,3.13634809 0.252400255,3.18077235 C0.207976002,3.2251966 0.18395173,3.28604676 0.186046512,3.34883721 L0.186046512,4.94325581 C0.187058047,5.06716269 0.287255913,5.16736056 0.411162791,5.16837209 L8.13023256,5.16837209 C8.25413944,5.16736056 8.3543373,5.06716269 8.35534884,4.94325581 L8.35534884,3.33953488 C8.3543373,3.21562801 8.25413944,3.11543014 8.13023256,3.1144186 M6.93767442,4.6027907 C6.6828528,4.6027907 6.47627907,4.39621696 6.47627907,4.14139535 C6.47627907,3.88657373 6.6828528,3.68 6.93767442,3.68 C7.19249603,3.68 7.39906977,3.88657373 7.39906977,4.14139535 C7.39906977,4.39621696 7.19249603,4.6027907 6.93767442,4.6027907"></path>
        </g>
    </g>
</svg>
