<svg xmlns="http://www.w3.org/2000/svg" viewBox="0 0 24 24">
    <g stroke-width="1" fill-rule="evenodd">
        <path d="M12,0 C11.172,0 10.5,0.672 10.5,1.5 L10.5,4.5 C10.5,5.328 11.172,6 12,6 C12.828,6 13.5,5.328 13.5,4.5 L13.5,1.5 C13.5,0.672 12.828,0 12,0 L12,0 Z M12,18 C11.172,18 10.5,18.6705 10.5,19.5 L10.5,22.5 C10.5,23.3295 11.172,24 12,24 C12.828,24 13.5,23.3295 13.5,22.5 L13.5,19.5 C13.5,18.6705 12.828,18 12,18 L12,18 Z M18.363,7.758 L20.484,5.6355 C21.0705,5.0505 21.0705,4.0995 20.484,3.5145 C19.899,2.928 18.9495,2.928 18.363,3.5145 L16.242,5.6355 C15.6555,6.222 15.6555,7.1715 16.242,7.758 C16.8285,8.343 17.778,8.343 18.363,7.758 L18.363,7.758 Z M5.6355,16.242 L3.5145,18.363 C2.928,18.9495 2.928,19.899 3.5145,20.484 C4.0995,21.0705 5.049,21.0705 5.6355,20.484 L7.7565,18.363 C8.343,17.7765 8.343,16.8285 7.7565,16.242 C7.1715,15.657 6.222,15.657 5.6355,16.242 L5.6355,16.242 Z M5.6355,3.5145 C5.049,2.928 4.0995,2.928 3.5145,3.5145 C2.928,4.0995 2.928,5.0505 3.5145,5.6355 L5.6355,7.758 C6.222,8.343 7.1715,8.343 7.7565,7.758 C8.343,7.1715 8.343,6.222 7.7565,5.6355 L5.6355,3.5145 L5.6355,3.5145 Z M18.363,16.242 C17.7765,15.6555 16.8285,15.6555 16.242,16.242 C15.6555,16.8285 15.6555,17.7765 16.242,18.363 L18.363,20.484 C18.9495,21.0705 19.899,21.0705 20.484,20.484 C21.0705,19.899 21.0705,18.9495 20.484,18.363 L18.363,16.242 L18.363,16.242 Z M22.5,10.5 L19.5,10.5 C18.6705,10.5 18,11.172 18,12 C18,12.828 18.6705,13.5 19.5,13.5 L22.5,13.5 C23.3295,13.5 24,12.828 24,12 C24,11.172 23.3295,10.5 22.5,10.5 L22.5,10.5 Z M6,12 C6,11.172 5.328,10.5 4.5,10.5 L1.5,10.5 C0.672,10.5 0,11.172 0,12 C0,12.828 0.672,13.5 1.5,13.5 L4.5,13.5 C5.328,13.5 6,12.828 6,12 L6,12 Z"></path>
    </g>
</svg>
