<svg viewBox="0 0 24 24" version="1.1" xmlns="http://www.w3.org/2000/svg" xmlns:xlink="http://www.w3.org/1999/xlink">
    <g stroke-width="1"  fill-rule="evenodd" transform="translate(1.000000, 1.000000)">
        <path d="M19.6842105,19.1052632 C19.6842105,19.877193 18.5263158,19.877193 18.5263158,19.1052632 C18.5263158,18.3333333 19.6842105,18.3333333 19.6842105,19.1052632"></path>
        <path d="M17.3684211,19.1052632 C17.3684211,19.877193 16.2105263,19.877193 16.2105263,19.1052632 C16.2105263,18.3333333 17.3684211,18.3333333 17.3684211,19.1052632"></path>
        <path d="M15.0526316,19.1052632 C15.0526316,19.877193 13.8947368,19.877193 13.8947368,19.1052632 C13.8947368,18.3333333 15.0526316,18.3333333 15.0526316,19.1052632"></path>
        <path d="M12.7368421,19.1052632 C12.7368421,19.877193 11.5789474,19.877193 11.5789474,19.1052632 C11.5789474,18.3333333 12.7368421,18.3333333 12.7368421,19.1052632"></path>
        <path d="M10.4210526,19.1052632 C10.4210526,19.877193 9.26315789,19.877193 9.26315789,19.1052632 C9.26315789,18.3333333 10.4210526,18.3333333 10.4210526,19.1052632"></path>
        <path d="M8.10526316,19.1052632 C8.10526316,19.877193 6.94736842,19.877193 6.94736842,19.1052632 C6.94736842,18.3333333 8.10526316,18.3333333 8.10526316,19.1052632"></path>
        <path d="M5.78947368,19.1052632 C5.78947368,19.877193 4.63157895,19.877193 4.63157895,19.1052632 C4.63157895,18.3333333 5.78947368,18.3333333 5.78947368,19.1052632"></path>
        <path d="M3.47368421,19.1052632 C3.47368421,19.877193 2.31578947,19.877193 2.31578947,19.1052632 C2.31578947,18.3333333 3.47368421,18.3333333 3.47368421,19.1052632"></path>
        <path d="M16.2105263,17.9473684 C16.2105263,18.7192982 15.0526316,18.7192982 15.0526316,17.9473684 C15.0526316,17.1754386 16.2105263,17.1754386 16.2105263,17.9473684"></path>
        <path d="M18.5263158,17.9473684 C18.5263158,18.7192982 17.3684211,18.7192982 17.3684211,17.9473684 C17.3684211,17.1754386 18.5263158,17.1754386 18.5263158,17.9473684"></path>
        <path d="M13.8947368,17.9473684 C13.8947368,18.7192982 12.7368421,18.7192982 12.7368421,17.9473684 C12.7368421,17.1754386 13.8947368,17.1754386 13.8947368,17.9473684"></path>
        <path d="M11.5789474,17.9473684 C11.5789474,18.7192982 10.4210526,18.7192982 10.4210526,17.9473684 C10.4210526,17.1754386 11.5789474,17.1754386 11.5789474,17.9473684"></path>
        <path d="M9.26315789,17.9473684 C9.26315789,18.7192982 8.10526316,18.7192982 8.10526316,17.9473684 C8.10526316,17.1754386 9.26315789,17.1754386 9.26315789,17.9473684"></path>
        <path d="M6.94736842,17.9473684 C6.94736842,18.7192982 5.78947368,18.7192982 5.78947368,17.9473684 C5.78947368,17.1754386 6.94736842,17.1754386 6.94736842,17.9473684"></path>
        <path d="M4.63157895,17.9473684 C4.63157895,18.7192982 3.47368421,18.7192982 3.47368421,17.9473684 C3.47368421,17.1754386 4.63157895,17.1754386 4.63157895,17.9473684"></path>
        <path d="M19.6842105,16.7894737 C19.6842105,17.5614035 18.5263158,17.5614035 18.5263158,16.7894737 C18.5263158,16.0175439 19.6842105,16.0175439 19.6842105,16.7894737"></path>
        <path d="M17.3684211,16.7894737 C17.3684211,17.5614035 16.2105263,17.5614035 16.2105263,16.7894737 C16.2105263,16.0175439 17.3684211,16.0175439 17.3684211,16.7894737"></path>
        <path d="M15.0526316,16.7894737 C15.0526316,17.5614035 13.8947368,17.5614035 13.8947368,16.7894737 C13.8947368,16.0175439 15.0526316,16.0175439 15.0526316,16.7894737"></path>
        <path d="M12.7368421,16.7894737 C12.7368421,17.5614035 11.5789474,17.5614035 11.5789474,16.7894737 C11.5789474,16.0175439 12.7368421,16.0175439 12.7368421,16.7894737"></path>
        <path d="M10.4210526,16.7894737 C10.4210526,17.5614035 9.26315789,17.5614035 9.26315789,16.7894737 C9.26315789,16.0175439 10.4210526,16.0175439 10.4210526,16.7894737"></path>
        <path d="M8.10526316,16.7894737 C8.10526316,17.5614035 6.94736842,17.5614035 6.94736842,16.7894737 C6.94736842,16.0175439 8.10526316,16.0175439 8.10526316,16.7894737"></path>
        <path d="M5.78947368,16.7894737 C5.78947368,17.5614035 4.63157895,17.5614035 4.63157895,16.7894737 C4.63157895,16.0175439 5.78947368,16.0175439 5.78947368,16.7894737"></path>
        <path d="M3.47368421,16.7894737 C3.47368421,17.5614035 2.31578947,17.5614035 2.31578947,16.7894737 C2.31578947,16.0175439 3.47368421,16.0175439 3.47368421,16.7894737"></path>
        <path d="M19.6842105,14.4736842 C19.6842105,15.245614 18.5263158,15.245614 18.5263158,14.4736842 C18.5263158,13.7017544 19.6842105,13.7017544 19.6842105,14.4736842"></path>
        <path d="M17.3684211,14.4736842 C17.3684211,15.245614 16.2105263,15.245614 16.2105263,14.4736842 C16.2105263,13.7017544 17.3684211,13.7017544 17.3684211,14.4736842"></path>
        <path d="M5.78947368,14.4736842 C5.78947368,15.245614 4.63157895,15.245614 4.63157895,14.4736842 C4.63157895,13.7017544 5.78947368,13.7017544 5.78947368,14.4736842"></path>
        <path d="M4.63157895,15.6315789 C4.63157895,16.4035088 3.47368421,16.4035088 3.47368421,15.6315789 C3.47368421,14.8596491 4.63157895,14.8596491 4.63157895,15.6315789"></path>
        <path d="M3.47368421,14.4736842 C3.47368421,15.245614 2.31578947,15.245614 2.31578947,14.4736842 C2.31578947,13.7017544 3.47368421,13.7017544 3.47368421,14.4736842"></path>
        <path d="M19.6842105,12.1578947 C19.6842105,12.9298246 18.5263158,12.9298246 18.5263158,12.1578947 C18.5263158,11.3859649 19.6842105,11.3859649 19.6842105,12.1578947"></path>
        <path d="M17.3684211,12.1578947 C17.3684211,12.9298246 16.2105263,12.9298246 16.2105263,12.1578947 C16.2105263,11.3859649 17.3684211,11.3859649 17.3684211,12.1578947"></path>
        <path d="M5.78947368,12.1578947 C5.78947368,12.9298246 4.63157895,12.9298246 4.63157895,12.1578947 C4.63157895,11.3859649 5.78947368,11.3859649 5.78947368,12.1578947"></path>
        <path d="M3.47368421,12.1578947 C3.47368421,12.9298246 2.31578947,12.9298246 2.31578947,12.1578947 C2.31578947,11.3859649 3.47368421,11.3859649 3.47368421,12.1578947"></path>
        <path d="M19.6842105,9.84210526 C19.6842105,10.6140351 18.5263158,10.6140351 18.5263158,9.84210526 C18.5263158,9.07017544 19.6842105,9.07017544 19.6842105,9.84210526"></path>
        <path d="M18.5263158,8.68421053 C18.5263158,9.45614035 17.3684211,9.45614035 17.3684211,8.68421053 C17.3684211,7.9122807 18.5263158,7.9122807 18.5263158,8.68421053"></path>
        <path d="M17.3684211,9.84210526 C17.3684211,10.6140351 16.2105263,10.6140351 16.2105263,9.84210526 C16.2105263,9.07017544 17.3684211,9.07017544 17.3684211,9.84210526"></path>
        <path d="M5.78947368,9.84210526 C5.78947368,10.6140351 4.63157895,10.6140351 4.63157895,9.84210526 C4.63157895,9.07017544 5.78947368,9.07017544 5.78947368,9.84210526"></path>
        <path d="M3.47368421,9.84210526 C3.47368421,10.6140351 2.31578947,10.6140351 2.31578947,9.84210526 C2.31578947,9.07017544 3.47368421,9.07017544 3.47368421,9.84210526"></path>
        <path d="M19.6842105,7.52631579 C19.6842105,8.29824561 18.5263158,8.29824561 18.5263158,7.52631579 C18.5263158,6.75438596 19.6842105,6.75438596 19.6842105,7.52631579"></path>
        <path d="M17.3684211,7.52631579 C17.3684211,8.29824561 16.2105263,8.29824561 16.2105263,7.52631579 C16.2105263,6.75438596 17.3684211,6.75438596 17.3684211,7.52631579"></path>
        <path d="M5.78947368,7.52631579 C5.78947368,8.29824561 4.63157895,8.29824561 4.63157895,7.52631579 C4.63157895,6.75438596 5.78947368,6.75438596 5.78947368,7.52631579"></path>
        <path d="M3.47368421,7.52631579 C3.47368421,8.29824561 2.31578947,8.29824561 2.31578947,7.52631579 C2.31578947,6.75438596 3.47368421,6.75438596 3.47368421,7.52631579"></path>
        <path d="M4.63157895,13.3157895 C4.63157895,14.0877193 3.47368421,14.0877193 3.47368421,13.3157895 C3.47368421,12.5438596 4.63157895,12.5438596 4.63157895,13.3157895"></path>
        <path d="M4.63157895,11 C4.63157895,11.7719298 3.47368421,11.7719298 3.47368421,11 C3.47368421,10.2280702 4.63157895,10.2280702 4.63157895,11"></path>
        <path d="M4.63157895,8.68421053 C4.63157895,9.45614035 3.47368421,9.45614035 3.47368421,8.68421053 C3.47368421,7.9122807 4.63157895,7.9122807 4.63157895,8.68421053"></path>
        <path d="M4.63157895,6.36842105 C4.63157895,7.14035088 3.47368421,7.14035088 3.47368421,6.36842105 C3.47368421,5.59649123 4.63157895,5.59649123 4.63157895,6.36842105"></path>
        <path d="M19.6842105,5.21052632 C19.6842105,5.98245614 18.5263158,5.98245614 18.5263158,5.21052632 C18.5263158,4.43859649 19.6842105,4.43859649 19.6842105,5.21052632"></path>
        <path d="M18.5263158,15.6315789 C18.5263158,16.4035088 17.3684211,16.4035088 17.3684211,15.6315789 C17.3684211,14.8596491 18.5263158,14.8596491 18.5263158,15.6315789"></path>
        <path d="M18.5263158,13.3157895 C18.5263158,14.0877193 17.3684211,14.0877193 17.3684211,13.3157895 C17.3684211,12.5438596 18.5263158,12.5438596 18.5263158,13.3157895"></path>
        <path d="M18.5263158,11 C18.5263158,11.7719298 17.3684211,11.7719298 17.3684211,11 C17.3684211,10.2280702 18.5263158,10.2280702 18.5263158,11"></path>
        <path d="M18.5263158,6.36842105 C18.5263158,7.14035088 17.3684211,7.14035088 17.3684211,6.36842105 C17.3684211,5.59649123 18.5263158,5.59649123 18.5263158,6.36842105"></path>
        <path d="M18.5263158,4.05263158 C18.5263158,4.8245614 17.3684211,4.8245614 17.3684211,4.05263158 C17.3684211,3.28070175 18.5263158,3.28070175 18.5263158,4.05263158"></path>
        <path d="M17.3684211,5.21052632 C17.3684211,5.98245614 16.2105263,5.98245614 16.2105263,5.21052632 C16.2105263,4.43859649 17.3684211,4.43859649 17.3684211,5.21052632"></path>
        <path d="M15.0526316,5.21052632 C15.0526316,5.98245614 13.8947368,5.98245614 13.8947368,5.21052632 C13.8947368,4.43859649 15.0526316,4.43859649 15.0526316,5.21052632"></path>
        <path d="M12.7368421,5.21052632 C12.7368421,5.98245614 11.5789474,5.98245614 11.5789474,5.21052632 C11.5789474,4.43859649 12.7368421,4.43859649 12.7368421,5.21052632"></path>
        <path d="M10.4210526,5.21052632 C10.4210526,5.98245614 9.26315789,5.98245614 9.26315789,5.21052632 C9.26315789,4.43859649 10.4210526,4.43859649 10.4210526,5.21052632"></path>
        <path d="M8.10526316,5.21052632 C8.10526316,5.98245614 6.94736842,5.98245614 6.94736842,5.21052632 C6.94736842,4.43859649 8.10526316,4.43859649 8.10526316,5.21052632"></path>
        <path d="M5.78947368,5.21052632 C5.78947368,5.98245614 4.63157895,5.98245614 4.63157895,5.21052632 C4.63157895,4.43859649 5.78947368,4.43859649 5.78947368,5.21052632"></path>
        <path d="M3.47368421,5.21052632 C3.47368421,5.98245614 2.31578947,5.98245614 2.31578947,5.21052632 C2.31578947,4.43859649 3.47368421,4.43859649 3.47368421,5.21052632"></path>
        <path d="M16.2105263,4.05263158 C16.2105263,4.8245614 15.0526316,4.8245614 15.0526316,4.05263158 C15.0526316,3.28070175 16.2105263,3.28070175 16.2105263,4.05263158"></path>
        <path d="M13.8947368,4.05263158 C13.8947368,4.8245614 12.7368421,4.8245614 12.7368421,4.05263158 C12.7368421,3.28070175 13.8947368,3.28070175 13.8947368,4.05263158"></path>
        <path d="M11.5789474,4.05263158 C11.5789474,4.8245614 10.4210526,4.8245614 10.4210526,4.05263158 C10.4210526,3.28070175 11.5789474,3.28070175 11.5789474,4.05263158"></path>
        <path d="M9.26315789,4.05263158 C9.26315789,4.8245614 8.10526316,4.8245614 8.10526316,4.05263158 C8.10526316,3.28070175 9.26315789,3.28070175 9.26315789,4.05263158"></path>
        <path d="M6.94736842,4.05263158 C6.94736842,4.8245614 5.78947368,4.8245614 5.78947368,4.05263158 C5.78947368,3.28070175 6.94736842,3.28070175 6.94736842,4.05263158"></path>
        <path d="M4.63157895,4.05263158 C4.63157895,4.8245614 3.47368421,4.8245614 3.47368421,4.05263158 C3.47368421,3.28070175 4.63157895,3.28070175 4.63157895,4.05263158"></path>
        <path d="M19.6842105,2.89473684 C19.6842105,3.66666667 18.5263158,3.66666667 18.5263158,2.89473684 C18.5263158,2.12280702 19.6842105,2.12280702 19.6842105,2.89473684"></path>
        <path d="M17.3684211,2.89473684 C17.3684211,3.66666667 16.2105263,3.66666667 16.2105263,2.89473684 C16.2105263,2.12280702 17.3684211,2.12280702 17.3684211,2.89473684"></path>
        <path d="M15.0526316,2.89473684 C15.0526316,3.66666667 13.8947368,3.66666667 13.8947368,2.89473684 C13.8947368,2.12280702 15.0526316,2.12280702 15.0526316,2.89473684"></path>
        <path d="M12.7368421,2.89473684 C12.7368421,3.66666667 11.5789474,3.66666667 11.5789474,2.89473684 C11.5789474,2.12280702 12.7368421,2.12280702 12.7368421,2.89473684"></path>
        <path d="M10.4210526,2.89473684 C10.4210526,3.66666667 9.26315789,3.66666667 9.26315789,2.89473684 C9.26315789,2.12280702 10.4210526,2.12280702 10.4210526,2.89473684"></path>
        <path d="M8.10526316,2.89473684 C8.10526316,3.66666667 6.94736842,3.66666667 6.94736842,2.89473684 C6.94736842,2.12280702 8.10526316,2.12280702 8.10526316,2.89473684"></path>
        <path d="M5.78947368,2.89473684 C5.78947368,3.66666667 4.63157895,3.66666667 4.63157895,2.89473684 C4.63157895,2.12280702 5.78947368,2.12280702 5.78947368,2.89473684"></path>
        <path d="M3.47368421,2.89473684 C3.47368421,3.66666667 2.31578947,3.66666667 2.31578947,2.89473684 C2.31578947,2.12280702 3.47368421,2.12280702 3.47368421,2.89473684"></path>
        <path d="M20.8405614,0 L1.1594386,0 C0.517192982,0 0,0.518736842 0,1.1594386 L0,20.8405614 C0,21.482807 0.518736842,22 1.1594386,22 L20.8405614,22 C21.482807,22 22,21.4812632 22,20.8405614 L22,1.1594386 C22,0.517192982 21.4812632,0 20.8405614,0 M20.8405614,1.15789474 L20.8421053,1.1594386 L20.8405614,20.8421053 L1.15789474,20.8405614 L1.1594386,1.15789474 L20.8405614,1.15789474"></path>
        <path d="M14.4767719,6.94736842 L7.52322807,6.94736842 C7.2082807,6.94736842 6.94736842,7.20519298 6.94736842,7.52322807 L6.94736842,14.4767719 C6.94736842,14.7917193 7.20519298,15.0526316 7.52322807,15.0526316 L14.4767719,15.0526316 C14.7917193,15.0526316 15.0526316,14.794807 15.0526316,14.4767719 L15.0526316,7.52322807 C15.0526316,7.2082807 14.794807,6.94736842 14.4767719,6.94736842 Z M8.10526316,13.8947368 L13.8947368,13.8947368 L13.8947368,8.10526316 L8.10526316,8.10526316 L8.10526316,13.8947368 Z"></path>
    </g>
</svg>
