<?xml version="1.0" encoding="UTF-8"?>
<svg xmlns="http://www.w3.org/2000/svg" viewBox="0 0 24 24">
    <g stroke="none" stroke-width="1" fill-rule="evenodd">
        <path d="M21.4736842,20.8421053 C21.4736842,21.6842105 20.2105263,21.6842105 20.2105263,20.8421053 C20.2105263,20 21.4736842,20 21.4736842,20.8421053" id="Fill-1"></path>
        <path d="M18.9473684,20.8421053 C18.9473684,21.6842105 17.6842105,21.6842105 17.6842105,20.8421053 C17.6842105,20 18.9473684,20 18.9473684,20.8421053" id="Fill-2"></path>
        <path d="M16.4210526,20.8421053 C16.4210526,21.6842105 15.1578947,21.6842105 15.1578947,20.8421053 C15.1578947,20 16.4210526,20 16.4210526,20.8421053" id="Fill-3"></path>
        <path d="M13.8947368,20.8421053 C13.8947368,21.6842105 12.6315789,21.6842105 12.6315789,20.8421053 C12.6315789,20 13.8947368,20 13.8947368,20.8421053" id="Fill-4"></path>
        <path d="M11.3684211,20.8421053 C11.3684211,21.6842105 10.1052632,21.6842105 10.1052632,20.8421053 C10.1052632,20 11.3684211,20 11.3684211,20.8421053" id="Fill-5"></path>
        <path d="M8.84210526,20.8421053 C8.84210526,21.6842105 7.57894737,21.6842105 7.57894737,20.8421053 C7.57894737,20 8.84210526,20 8.84210526,20.8421053" id="Fill-6"></path>
        <path d="M6.31578947,20.8421053 C6.31578947,21.6842105 5.05263158,21.6842105 5.05263158,20.8421053 C5.05263158,20 6.31578947,20 6.31578947,20.8421053" id="Fill-7"></path>
        <path d="M3.78947368,20.8421053 C3.78947368,21.6842105 2.52631579,21.6842105 2.52631579,20.8421053 C2.52631579,20 3.78947368,20 3.78947368,20.8421053" id="Fill-8"></path>
        <path d="M17.6842105,19.5789474 C17.6842105,20.4210526 16.4210526,20.4210526 16.4210526,19.5789474 C16.4210526,18.7368421 17.6842105,18.7368421 17.6842105,19.5789474" id="Fill-9"></path>
        <path d="M20.2105263,19.5789474 C20.2105263,20.4210526 18.9473684,20.4210526 18.9473684,19.5789474 C18.9473684,18.7368421 20.2105263,18.7368421 20.2105263,19.5789474" id="Fill-10"></path>
        <path d="M15.1578947,19.5789474 C15.1578947,20.4210526 13.8947368,20.4210526 13.8947368,19.5789474 C13.8947368,18.7368421 15.1578947,18.7368421 15.1578947,19.5789474" id="Fill-11"></path>
        <path d="M12.6315789,19.5789474 C12.6315789,20.4210526 11.3684211,20.4210526 11.3684211,19.5789474 C11.3684211,18.7368421 12.6315789,18.7368421 12.6315789,19.5789474" id="Fill-12"></path>
        <path d="M10.1052632,19.5789474 C10.1052632,20.4210526 8.84210526,20.4210526 8.84210526,19.5789474 C8.84210526,18.7368421 10.1052632,18.7368421 10.1052632,19.5789474" id="Fill-13"></path>
        <path d="M7.57894737,19.5789474 C7.57894737,20.4210526 6.31578947,20.4210526 6.31578947,19.5789474 C6.31578947,18.7368421 7.57894737,18.7368421 7.57894737,19.5789474" id="Fill-14"></path>
        <path d="M5.05263158,19.5789474 C5.05263158,20.4210526 3.78947368,20.4210526 3.78947368,19.5789474 C3.78947368,18.7368421 5.05263158,18.7368421 5.05263158,19.5789474" id="Fill-15"></path>
        <path d="M21.4736842,18.3157895 C21.4736842,19.1578947 20.2105263,19.1578947 20.2105263,18.3157895 C20.2105263,17.4736842 21.4736842,17.4736842 21.4736842,18.3157895" id="Fill-16"></path>
        <path d="M18.9473684,18.3157895 C18.9473684,19.1578947 17.6842105,19.1578947 17.6842105,18.3157895 C17.6842105,17.4736842 18.9473684,17.4736842 18.9473684,18.3157895" id="Fill-17"></path>
        <path d="M16.4210526,18.3157895 C16.4210526,19.1578947 15.1578947,19.1578947 15.1578947,18.3157895 C15.1578947,17.4736842 16.4210526,17.4736842 16.4210526,18.3157895" id="Fill-18"></path>
        <path d="M13.8947368,18.3157895 C13.8947368,19.1578947 12.6315789,19.1578947 12.6315789,18.3157895 C12.6315789,17.4736842 13.8947368,17.4736842 13.8947368,18.3157895" id="Fill-19"></path>
        <path d="M11.3684211,18.3157895 C11.3684211,19.1578947 10.1052632,19.1578947 10.1052632,18.3157895 C10.1052632,17.4736842 11.3684211,17.4736842 11.3684211,18.3157895" id="Fill-20"></path>
        <path d="M8.84210526,18.3157895 C8.84210526,19.1578947 7.57894737,19.1578947 7.57894737,18.3157895 C7.57894737,17.4736842 8.84210526,17.4736842 8.84210526,18.3157895" id="Fill-21"></path>
        <path d="M6.31578947,18.3157895 C6.31578947,19.1578947 5.05263158,19.1578947 5.05263158,18.3157895 C5.05263158,17.4736842 6.31578947,17.4736842 6.31578947,18.3157895" id="Fill-22"></path>
        <path d="M3.78947368,18.3157895 C3.78947368,19.1578947 2.52631579,19.1578947 2.52631579,18.3157895 C2.52631579,17.4736842 3.78947368,17.4736842 3.78947368,18.3157895" id="Fill-23"></path>
        <path d="M21.4736842,15.7894737 C21.4736842,16.6315789 20.2105263,16.6315789 20.2105263,15.7894737 C20.2105263,14.9473684 21.4736842,14.9473684 21.4736842,15.7894737" id="Fill-24"></path>
        <path d="M18.9473684,15.7894737 C18.9473684,16.6315789 17.6842105,16.6315789 17.6842105,15.7894737 C17.6842105,14.9473684 18.9473684,14.9473684 18.9473684,15.7894737" id="Fill-25"></path>
        <path d="M6.31578947,15.7894737 C6.31578947,16.6315789 5.05263158,16.6315789 5.05263158,15.7894737 C5.05263158,14.9473684 6.31578947,14.9473684 6.31578947,15.7894737" id="Fill-26"></path>
        <path d="M5.05263158,17.0526316 C5.05263158,17.8947368 3.78947368,17.8947368 3.78947368,17.0526316 C3.78947368,16.2105263 5.05263158,16.2105263 5.05263158,17.0526316" id="Fill-27"></path>
        <path d="M3.78947368,15.7894737 C3.78947368,16.6315789 2.52631579,16.6315789 2.52631579,15.7894737 C2.52631579,14.9473684 3.78947368,14.9473684 3.78947368,15.7894737" id="Fill-28"></path>
        <path d="M21.4736842,13.2631579 C21.4736842,14.1052632 20.2105263,14.1052632 20.2105263,13.2631579 C20.2105263,12.4210526 21.4736842,12.4210526 21.4736842,13.2631579" id="Fill-29"></path>
        <path d="M18.9473684,13.2631579 C18.9473684,14.1052632 17.6842105,14.1052632 17.6842105,13.2631579 C17.6842105,12.4210526 18.9473684,12.4210526 18.9473684,13.2631579" id="Fill-30"></path>
        <path d="M6.31578947,13.2631579 C6.31578947,14.1052632 5.05263158,14.1052632 5.05263158,13.2631579 C5.05263158,12.4210526 6.31578947,12.4210526 6.31578947,13.2631579" id="Fill-31"></path>
        <path d="M3.78947368,13.2631579 C3.78947368,14.1052632 2.52631579,14.1052632 2.52631579,13.2631579 C2.52631579,12.4210526 3.78947368,12.4210526 3.78947368,13.2631579" id="Fill-32"></path>
        <path d="M21.4736842,10.7368421 C21.4736842,11.5789474 20.2105263,11.5789474 20.2105263,10.7368421 C20.2105263,9.89473684 21.4736842,9.89473684 21.4736842,10.7368421" id="Fill-33"></path>
        <path d="M20.2105263,9.47368421 C20.2105263,10.3157895 18.9473684,10.3157895 18.9473684,9.47368421 C18.9473684,8.63157895 20.2105263,8.63157895 20.2105263,9.47368421" id="Fill-34"></path>
        <path d="M18.9473684,10.7368421 C18.9473684,11.5789474 17.6842105,11.5789474 17.6842105,10.7368421 C17.6842105,9.89473684 18.9473684,9.89473684 18.9473684,10.7368421" id="Fill-35"></path>
        <path d="M6.31578947,10.7368421 C6.31578947,11.5789474 5.05263158,11.5789474 5.05263158,10.7368421 C5.05263158,9.89473684 6.31578947,9.89473684 6.31578947,10.7368421" id="Fill-36"></path>
        <path d="M3.78947368,10.7368421 C3.78947368,11.5789474 2.52631579,11.5789474 2.52631579,10.7368421 C2.52631579,9.89473684 3.78947368,9.89473684 3.78947368,10.7368421" id="Fill-37"></path>
        <path d="M21.4736842,8.21052632 C21.4736842,9.05263158 20.2105263,9.05263158 20.2105263,8.21052632 C20.2105263,7.36842105 21.4736842,7.36842105 21.4736842,8.21052632" id="Fill-38"></path>
        <path d="M18.9473684,8.21052632 C18.9473684,9.05263158 17.6842105,9.05263158 17.6842105,8.21052632 C17.6842105,7.36842105 18.9473684,7.36842105 18.9473684,8.21052632" id="Fill-39"></path>
        <path d="M6.31578947,8.21052632 C6.31578947,9.05263158 5.05263158,9.05263158 5.05263158,8.21052632 C5.05263158,7.36842105 6.31578947,7.36842105 6.31578947,8.21052632" id="Fill-40"></path>
        <path d="M3.78947368,8.21052632 C3.78947368,9.05263158 2.52631579,9.05263158 2.52631579,8.21052632 C2.52631579,7.36842105 3.78947368,7.36842105 3.78947368,8.21052632" id="Fill-41"></path>
        <path d="M5.05263158,14.5263158 C5.05263158,15.3684211 3.78947368,15.3684211 3.78947368,14.5263158 C3.78947368,13.6842105 5.05263158,13.6842105 5.05263158,14.5263158" id="Fill-42"></path>
        <path d="M5.05263158,12 C5.05263158,12.8421053 3.78947368,12.8421053 3.78947368,12 C3.78947368,11.1578947 5.05263158,11.1578947 5.05263158,12" id="Fill-43"></path>
        <path d="M5.05263158,9.47368421 C5.05263158,10.3157895 3.78947368,10.3157895 3.78947368,9.47368421 C3.78947368,8.63157895 5.05263158,8.63157895 5.05263158,9.47368421" id="Fill-44"></path>
        <path d="M5.05263158,6.94736842 C5.05263158,7.78947368 3.78947368,7.78947368 3.78947368,6.94736842 C3.78947368,6.10526316 5.05263158,6.10526316 5.05263158,6.94736842" id="Fill-45"></path>
        <path d="M21.4736842,5.68421053 C21.4736842,6.52631579 20.2105263,6.52631579 20.2105263,5.68421053 C20.2105263,4.84210526 21.4736842,4.84210526 21.4736842,5.68421053" id="Fill-46"></path>
        <path d="M20.2105263,17.0526316 C20.2105263,17.8947368 18.9473684,17.8947368 18.9473684,17.0526316 C18.9473684,16.2105263 20.2105263,16.2105263 20.2105263,17.0526316" id="Fill-47"></path>
        <path d="M20.2105263,14.5263158 C20.2105263,15.3684211 18.9473684,15.3684211 18.9473684,14.5263158 C18.9473684,13.6842105 20.2105263,13.6842105 20.2105263,14.5263158" id="Fill-48"></path>
        <path d="M20.2105263,12 C20.2105263,12.8421053 18.9473684,12.8421053 18.9473684,12 C18.9473684,11.1578947 20.2105263,11.1578947 20.2105263,12" id="Fill-49"></path>
        <path d="M20.2105263,6.94736842 C20.2105263,7.78947368 18.9473684,7.78947368 18.9473684,6.94736842 C18.9473684,6.10526316 20.2105263,6.10526316 20.2105263,6.94736842" id="Fill-50"></path>
        <path d="M20.2105263,4.42105263 C20.2105263,5.26315789 18.9473684,5.26315789 18.9473684,4.42105263 C18.9473684,3.57894737 20.2105263,3.57894737 20.2105263,4.42105263" id="Fill-51"></path>
        <path d="M18.9473684,5.68421053 C18.9473684,6.52631579 17.6842105,6.52631579 17.6842105,5.68421053 C17.6842105,4.84210526 18.9473684,4.84210526 18.9473684,5.68421053" id="Fill-52"></path>
        <path d="M16.4210526,5.68421053 C16.4210526,6.52631579 15.1578947,6.52631579 15.1578947,5.68421053 C15.1578947,4.84210526 16.4210526,4.84210526 16.4210526,5.68421053" id="Fill-53"></path>
        <path d="M13.8947368,5.68421053 C13.8947368,6.52631579 12.6315789,6.52631579 12.6315789,5.68421053 C12.6315789,4.84210526 13.8947368,4.84210526 13.8947368,5.68421053" id="Fill-54"></path>
        <path d="M11.3684211,5.68421053 C11.3684211,6.52631579 10.1052632,6.52631579 10.1052632,5.68421053 C10.1052632,4.84210526 11.3684211,4.84210526 11.3684211,5.68421053" id="Fill-55"></path>
        <path d="M8.84210526,5.68421053 C8.84210526,6.52631579 7.57894737,6.52631579 7.57894737,5.68421053 C7.57894737,4.84210526 8.84210526,4.84210526 8.84210526,5.68421053" id="Fill-56"></path>
        <path d="M6.31578947,5.68421053 C6.31578947,6.52631579 5.05263158,6.52631579 5.05263158,5.68421053 C5.05263158,4.84210526 6.31578947,4.84210526 6.31578947,5.68421053" id="Fill-57"></path>
        <path d="M3.78947368,5.68421053 C3.78947368,6.52631579 2.52631579,6.52631579 2.52631579,5.68421053 C2.52631579,4.84210526 3.78947368,4.84210526 3.78947368,5.68421053" id="Fill-58"></path>
        <path d="M17.6842105,4.42105263 C17.6842105,5.26315789 16.4210526,5.26315789 16.4210526,4.42105263 C16.4210526,3.57894737 17.6842105,3.57894737 17.6842105,4.42105263" id="Fill-59"></path>
        <path d="M15.1578947,4.42105263 C15.1578947,5.26315789 13.8947368,5.26315789 13.8947368,4.42105263 C13.8947368,3.57894737 15.1578947,3.57894737 15.1578947,4.42105263" id="Fill-60"></path>
        <path d="M12.6315789,4.42105263 C12.6315789,5.26315789 11.3684211,5.26315789 11.3684211,4.42105263 C11.3684211,3.57894737 12.6315789,3.57894737 12.6315789,4.42105263" id="Fill-61"></path>
        <path d="M10.1052632,4.42105263 C10.1052632,5.26315789 8.84210526,5.26315789 8.84210526,4.42105263 C8.84210526,3.57894737 10.1052632,3.57894737 10.1052632,4.42105263" id="Fill-62"></path>
        <path d="M7.57894737,4.42105263 C7.57894737,5.26315789 6.31578947,5.26315789 6.31578947,4.42105263 C6.31578947,3.57894737 7.57894737,3.57894737 7.57894737,4.42105263" id="Fill-63"></path>
        <path d="M5.05263158,4.42105263 C5.05263158,5.26315789 3.78947368,5.26315789 3.78947368,4.42105263 C3.78947368,3.57894737 5.05263158,3.57894737 5.05263158,4.42105263" id="Fill-64"></path>
        <path d="M21.4736842,3.15789474 C21.4736842,4 20.2105263,4 20.2105263,3.15789474 C20.2105263,2.31578947 21.4736842,2.31578947 21.4736842,3.15789474" id="Fill-65"></path>
        <path d="M18.9473684,3.15789474 C18.9473684,4 17.6842105,4 17.6842105,3.15789474 C17.6842105,2.31578947 18.9473684,2.31578947 18.9473684,3.15789474" id="Fill-66"></path>
        <path d="M16.4210526,3.15789474 C16.4210526,4 15.1578947,4 15.1578947,3.15789474 C15.1578947,2.31578947 16.4210526,2.31578947 16.4210526,3.15789474" id="Fill-67"></path>
        <path d="M13.8947368,3.15789474 C13.8947368,4 12.6315789,4 12.6315789,3.15789474 C12.6315789,2.31578947 13.8947368,2.31578947 13.8947368,3.15789474" id="Fill-68"></path>
        <path d="M11.3684211,3.15789474 C11.3684211,4 10.1052632,4 10.1052632,3.15789474 C10.1052632,2.31578947 11.3684211,2.31578947 11.3684211,3.15789474" id="Fill-69"></path>
        <path d="M8.84210526,3.15789474 C8.84210526,4 7.57894737,4 7.57894737,3.15789474 C7.57894737,2.31578947 8.84210526,2.31578947 8.84210526,3.15789474" id="Fill-70"></path>
        <path d="M6.31578947,3.15789474 C6.31578947,4 5.05263158,4 5.05263158,3.15789474 C5.05263158,2.31578947 6.31578947,2.31578947 6.31578947,3.15789474" id="Fill-71"></path>
        <path d="M3.78947368,3.15789474 C3.78947368,4 2.52631579,4 2.52631579,3.15789474 C2.52631579,2.31578947 3.78947368,2.31578947 3.78947368,3.15789474" id="Fill-72"></path>
        <path d="M22.7351579,0 L1.26484211,0 C0.564210526,0 0,0.565894737 0,1.26484211 L0,22.7351579 C0,23.4357895 0.565894737,24 1.26484211,24 L22.7351579,24 C23.4357895,24 24,23.4341053 24,22.7351579 L24,1.26484211 C24,0.564210526 23.4341053,0 22.7351579,0 M22.7351579,1.26315789 L22.7368421,1.26484211 L22.7351579,22.7368421 L1.26315789,22.7351579 L1.26484211,1.26315789 L22.7351579,1.26315789" id="Fill-73"></path>
        <path d="M15.7928421,7.57894737 L8.20715789,7.57894737 C7.86357895,7.57894737 7.57894737,7.86021053 7.57894737,8.20715789 L7.57894737,15.7928421 C7.57894737,16.1364211 7.86021053,16.4210526 8.20715789,16.4210526 L15.7928421,16.4210526 C16.1364211,16.4210526 16.4210526,16.1397895 16.4210526,15.7928421 L16.4210526,8.20715789 C16.4210526,7.86357895 16.1397895,7.57894737 15.7928421,7.57894737 Z M8.84210526,15.1578947 L15.1578947,15.1578947 L15.1578947,8.84210526 L8.84210526,8.84210526 L8.84210526,15.1578947 Z" id="Fill-74"></path>
    </g>
</svg>
