
<svg viewBox="0 0 24 24" version="1.1" xmlns="http://www.w3.org/2000/svg">
    <g stroke-width="1" fill-rule="evenodd">
        <path d="M21.5508362,12.0192929 C21.5508362,11.7874486 21.4736647,11.6327759 21.3189919,11.5556044 L17.7634975,9.23650255 L21.3189919,6.91773048 C21.4736647,6.68588625 21.5508362,6.5312135 21.5508362,6.29936927 C21.5508362,6.06752504 21.4736647,5.91285229 21.3189919,5.83568082 L12.5847636,0.115757218 C12.3525896,-0.0385857392 12.1207453,-0.0385857392 11.9660726,0.115757218 L3.23184423,5.83568082 C3.07717148,5.91285229 3,6.14502631 3,6.29936927 C3,6.5312135 3.07717148,6.68588625 3.23184423,6.76305773 L6.78733871,9.08215959 L3.23184423,11.4009317 C3.07717148,11.6327759 3,11.7874486 3,12.0192929 C3,12.2511371 3.07717148,12.4058098 3.23184423,12.4829813 L6.78733871,14.8020832 L3.23184423,17.1208553 C3.07717148,17.3526995 3,17.5073722 3,17.7392165 C3,17.9710607 3.07717148,18.1257334 3.23184423,18.2029049 L11.8889011,23.9228285 C11.9660726,24 12.1207453,24 12.1982466,24 C12.2754181,24 12.4300908,24 12.5072623,23.9228285 L21.3189919,18.2029049 C21.4736647,18.1257334 21.5508362,17.8935594 21.5508362,17.7392165 C21.5508362,17.5845437 21.4736647,17.3526995 21.3189919,17.275528 L17.7634975,14.9564261 L21.3189919,12.6376541 C21.4736647,12.4058098 21.5508362,12.2511371 21.5508362,12.0192929 Z M16.6039465,15.5747874 L19.8504253,17.7392165 L12.2754181,22.6861061 L4.70041087,17.6617152 L7.94688964,15.4976159 L11.9660726,18.1257334 C12.0435739,18.2029049 12.1982466,18.2029049 12.2754181,18.2029049 C12.3525896,18.2029049 12.5072623,18.2029049 12.5847636,18.1257334 L16.6039465,15.5747874 Z M12.2754181,17.043354 L4.70041087,12.0192929 L7.94688964,9.85519355 L11.9660726,12.4829813 C12.0435739,12.5604826 12.1982466,12.5604826 12.2754181,12.5604826 C12.3525896,12.5604826 12.5072623,12.5604826 12.5847636,12.4829813 L16.6039465,9.85519355 L19.8504253,12.0192929 L12.2754181,17.043354 Z" ></path>
    </g>
</svg>
