<svg xmlns="http://www.w3.org/2000/svg" viewBox="0 0 24 24">
    <g stroke="none" stroke-width="1" fill-rule="evenodd" transform="translate(1.000000, 0.000000)">
        <path xmlns="http://www.w3.org/2000/svg" d="M21.65152,10.51488 C20.84896,6.40736 17.59264,3.15104 13.48512,2.34848 C13.40768,1.5936 12.77632,0.99968 12,0.99968 L11.00032,0.99968 C10.224,0.99968 9.59264,1.5936 9.5152,2.34848 C5.40768,3.14976 2.15136,6.40736 1.3488,10.51488 C0.59392,10.59232 0,11.22368 0,12 L0,12.99968 C0,13.776 0.59392,14.40736 1.3488,14.4848 C2.15136,18.59232 5.40768,21.84864 9.5152,22.6512 C9.59264,23.40736 10.224,24 11.00032,24 L12,24 C12.77632,24 13.40768,23.40608 13.48512,22.6512 C17.59264,21.84864 20.84896,18.59232 21.65152,14.4848 C22.40768,14.40736 23.00032,13.776 23.00032,12.99968 L23.00032,12 C23.00032,11.22496 22.4064,10.59232 21.65152,10.51488 Z M13.50016,3.36736 C17.04512,4.14368 19.85632,6.95488 20.63264,10.49984 L17.14528,10.49984 C16.54272,8.80608 15.19392,7.45728 13.50016,6.85472 L13.50016,3.36736 Z M10.50016,2.49984 C10.50016,2.22368 10.72384,2 11.00032,2 L12,2 C12.27648,2 12.50016,2.22368 12.50016,2.49984 L12.50016,6.99968 C12.50016,7.27616 12.27648,7.49984 12,7.49984 L11.00032,7.49984 C10.72384,7.49984 10.50016,7.27616 10.50016,6.99968 L10.50016,2.49984 Z M9.50016,3.36736 L9.50016,6.85472 C7.8064,7.45728 6.4576,8.80608 5.85504,10.49984 L2.36768,10.49984 C3.144,6.95488 5.9552,4.14368 9.50016,3.36736 Z M1.00032,12.99968 L1.00032,12 C1.00032,11.72352 1.224,11.49984 1.50016,11.49984 L6,11.49984 C6.27648,11.49984 6.50016,11.72352 6.50016,12 L6.50016,12.99968 C6.50016,13.27616 6.27648,13.49984 6,13.49984 L1.50016,13.49984 C1.224,13.49984 1.00032,13.27616 1.00032,12.99968 Z M9.50016,21.63232 C5.9552,20.856 3.144,18.0448 2.36768,14.49984 L5.85504,14.49984 C6.4576,16.1936 7.8064,17.5424 9.50016,18.14496 L9.50016,21.63232 Z M12.50016,22.49984 C12.50016,22.776 12.27648,22.99968 12,22.99968 L11.00032,22.99968 C10.72384,22.99968 10.50016,22.776 10.50016,22.49984 L10.50016,18 C10.50016,17.72352 10.72384,17.49984 11.00032,17.49984 L12,17.49984 C12.27648,17.49984 12.50016,17.72352 12.50016,18 L12.50016,22.49984 Z M13.25024,17.17344 C12.98272,16.76864 12.52256,16.49984 12,16.49984 L11.00032,16.49984 C10.47776,16.49984 10.0176,16.76864 9.75008,17.17472 C8.40512,16.66848 7.3328,15.59616 6.82656,14.2512 C7.23136,13.9824 7.50016,13.52224 7.50016,12.99968 L7.50016,12 C7.50016,11.47744 7.23136,11.01728 6.82528,10.74976 C7.33152,9.4048 8.40384,8.3312 9.7488,7.82624 C10.0176,8.23104 10.47776,8.49984 11.00032,8.49984 L12,8.49984 C12.52256,8.49984 12.98272,8.23104 13.25024,7.82496 C14.5952,8.3312 15.6688,9.40352 16.17376,10.74848 C15.76896,11.01728 15.50016,11.47744 15.50016,12 L15.50016,12.99968 C15.50016,13.52224 15.76896,13.9824 16.17504,14.24992 C15.6688,15.59488 14.59648,16.66848 13.25024,17.17344 Z M13.50016,21.63232 L13.50016,18.14496 C15.19392,17.5424 16.54272,16.1936 17.14528,14.49984 L20.63264,14.49984 C19.85632,18.0448 17.04512,20.856 13.50016,21.63232 Z M22,12.99968 C22,13.27616 21.77632,13.49984 21.50016,13.49984 L17.00032,13.49984 C16.72384,13.49984 16.50016,13.27616 16.50016,12.99968 L16.50016,12 C16.50016,11.72352 16.72384,11.49984 17.00032,11.49984 L21.50016,11.49984 C21.77632,11.49984 22,11.72352 22,12 L22,12.99968 Z"/>
    </g>
</svg>
