<svg viewBox="0 0 24 24" version="1.1" xmlns="http://www.w3.org/2000/svg">
    <g  stroke-width="1" fill-rule="evenodd">
        <path d="M0.545454545,0 C0.244363636,0 0,0.244363636 0,0.545454545 L0,23.4545455 C0,23.7556364 0.244363636,24 0.545454545,24 L23.4545455,24 C23.7556364,24 24,23.7556364 24,23.4545455 C24,23.1534545 23.7556364,22.9090909 23.4545455,22.9090909 L1.09090909,22.9090909 L1.09090909,0.545454545 C1.09090909,0.244363636 0.846545455,0 0.545454545,0 Z M20.1818182,5.18181818 C19.284,5.18181818 18.5454545,5.92036364 18.5454545,6.81818182 C18.5454545,7.18618182 18.6690909,7.524 18.8778182,7.79818182 L15.6138182,12.9374545 C15.4232727,12.8592727 15.2174545,12.8181818 15,12.8181818 C14.5454545,12.8181818 14.1392727,13.0083636 13.8407273,13.3123636 L11.1305455,11.5654545 C11.1618182,11.4403636 11.1818182,11.3152727 11.1818182,11.1818182 C11.1818182,10.284 10.4432727,9.54545455 9.54545455,9.54545455 C8.64763636,9.54545455 7.90909091,10.284 7.90909091,11.1818182 C7.90909091,11.5538182 8.03709091,11.8934545 8.25018182,12.1705455 L5.13927273,17.1989091 C5.064,17.1890909 4.98727273,17.1818182 4.90909091,17.1818182 C4.01127273,17.1818182 3.27272727,17.9203636 3.27272727,18.8181818 C3.27272727,19.716 4.01127273,20.4545455 4.90909091,20.4545455 C5.80690909,20.4545455 6.54545455,19.716 6.54545455,18.8181818 C6.54545455,18.3905455 6.37490909,17.9941818 6.10218182,17.7018182 L9.16181818,12.7669091 C9.28545455,12.7981818 9.412,12.8181818 9.54545455,12.8181818 C9.91636364,12.8181818 10.2585455,12.6890909 10.5341818,12.4770909 L13.372,14.3010909 C13.368,14.3509091 13.3636364,14.4032727 13.3636364,14.4545455 C13.3636364,15.3523636 14.1021818,16.0909091 15,16.0909091 C15.8978182,16.0909091 16.6363636,15.3523636 16.6363636,14.4545455 C16.6363636,14.1745455 16.5669091,13.9018182 16.4403636,13.6705455 L19.7898182,8.40327273 C19.9163636,8.43454545 20.0454545,8.45454545 20.1818182,8.45454545 C21.0796364,8.45454545 21.8181818,7.716 21.8181818,6.81818182 C21.8181818,5.76545455 20.9276364,5.18181818 20.1818182,5.18181818 Z"></path>
    </g>
</svg>
