<svg xmlns="http://www.w3.org/2000/svg" viewBox="0 0 24 24">
    <g stroke="none" stroke-width="1" fill-rule="evenodd">
        <path xmlns="http://www.w3.org/2000/svg" d="M11.3146871,13.368375 L12.3434308,14.3964949 C13.2869943,15.3402285 13.2823481,16.8766019 12.3356872,17.8230452 L6.87293052,23.2845451 C5.92317206,24.2340851 4.39380154,24.2402786 3.44559182,23.292287 L0.705114712,20.5524403 C-0.238448824,19.6087067 -0.234189817,18.0727204 0.71285836,17.12589 L6.17561499,11.6643901 C7.12537345,10.7148501 8.65435679,10.7086566 9.60295369,11.6566482 L10.6313102,12.6851552 L12.6853129,10.631625 L11.6565692,9.60350511 C10.7130057,8.65977154 10.7176519,7.12339807 11.6643128,6.17695484 L17.1270695,0.715454866 C18.0768279,-0.234085105 19.6061985,-0.240278598 20.5544082,0.707712999 L23.2948853,3.44755968 C24.2384488,4.39129325 24.2341898,5.92727964 23.2871416,6.87410995 L17.824385,12.3356099 C16.8746266,13.2851499 15.3456432,13.2913434 14.3970463,12.3433518 L13.3686898,11.3148448 L11.3146871,13.368375 Z M9.94599731,13.368375 L8.91918956,12.340255 C8.34886987,11.7716149 7.43395783,11.7747117 6.86092786,12.3476098 L1.39623531,17.8110453 C0.827851536,18.3792983 0.824754077,19.3032901 1.39042758,19.8672851 L4.13090468,22.6071318 C4.69967564,23.1773203 5.61613641,23.1726752 6.18761765,22.6013254 L11.6523102,17.1378899 C12.220694,16.5680885 12.2237914,15.6456451 11.6596667,15.0801017 L10.6313102,14.0535302 L9.60411524,15.0785534 C9.41517023,15.2674549 9.1096833,15.2674549 8.92073829,15.0785534 C8.73179327,14.8896518 8.73179327,14.5842352 8.92073829,14.3953336 L9.94599731,13.368375 Z M14.0540027,10.631625 L15.0808104,11.659745 C15.6511301,12.2283851 16.5660422,12.2252883 17.1390721,11.6523902 L22.6037647,6.18895474 C23.1721485,5.62070171 23.1752459,4.6967099 22.6095724,4.1327149 L19.8690953,1.39286822 C19.3003244,0.822679722 18.3838636,0.827324842 17.8123824,1.39867462 L12.3476898,6.86211006 C11.779306,7.43191146 11.7762086,8.3543549 12.3403333,8.91989827 L13.3686898,9.94646982 L14.3958848,8.92144664 C14.5848298,8.73254509 14.8903167,8.73254509 15.0792617,8.92144664 C15.2682067,9.11034819 15.2682067,9.41576484 15.0792617,9.60466639 L14.0540027,10.631625 Z" />
    </g>
</svg>
