<svg xmlns="http://www.w3.org/2000/svg" viewBox="0 0 71 24">
  <g>
    <path d="m14.89707,13.2653c1.44031,0 3.5242,-0.29704 3.5242,-2.01021a1.61185,1.61185 0 0 0 -0.03569,-0.39375l-0.85774,-3.72568c-0.19803,-0.81974 -0.37188,-1.19162 -1.81103,-1.9112c-1.11678,-0.57106 -3.54953,-1.51399 -4.26911,-1.51399c-0.67007,0 -0.86464,0.86349 -1.66366,0.86349c-0.76908,0 -1.34014,-0.64474 -2.05972,-0.64474c-0.69079,0 -1.14096,0.47089 -1.48866,1.43915c0,0 -0.96826,2.73094 -1.09261,3.12699a0.7403,0.7403 0 0 0 -0.02533,0.22336c0,1.06152 4.1793,4.54197 9.77934,4.54197m3.74525,-1.31021c0.19918,0.94293 0.19918,1.04195 0.19918,1.16629c0,1.61185 -1.81218,2.50643 -4.19427,2.50643c-5.38359,0.00345 -10.09941,-3.15117 -10.09941,-5.23622a2.12419,2.12419 0 0 1 0.17385,-0.84392c-1.93653,0.09671 -4.44296,0.44211 -4.44296,2.65495c0,3.62437 8.58772,8.0915 15.38744,8.0915c5.21319,0 6.528,-2.35791 6.528,-4.2196c0,-1.46448 -1.26646,-3.12699 -3.54953,-4.11943" fill="#e00"/>
    <path d="m18.64232,11.95049c0.19918,0.94293 0.19918,1.04195 0.19918,1.16629c0,1.61185 -1.81218,2.50643 -4.19427,2.50643c-5.38359,0.00345 -10.09941,-3.15117 -10.09941,-5.23622a2.12419,2.12419 0 0 1 0.17385,-0.84392l0.42138,-1.0431a0.7403,0.7403 0 0 0 -0.02533,0.21875c0,1.06152 4.1793,4.54197 9.77934,4.54197c1.44031,0 3.5242,-0.29704 3.5242,-2.01021a1.61185,1.61185 0 0 0 -0.03569,-0.39375l0.25675,1.09376z" fill="#000"/>
    <path d="m66.96797,14.33719c0,1.36892 0.8232,2.03439 2.32452,2.03439a5.99955,5.99955 0 0 0 1.36892,-0.19342l0,-1.58767a2.85989,2.85989 0 0 1 -0.88422,0.13355c-0.61826,0 -0.84737,-0.19342 -0.84737,-0.77484l0,-2.43275l1.79146,0l0,-1.63488l-1.79146,0l0,-2.07238l-1.95725,0.42369l0,1.6487l-1.29984,0l0,1.63488l1.29524,0l0,2.82074zm-6.10201,0.03684c0,-0.42369 0.42484,-0.62977 1.06613,-0.62977a4.96451,4.96451 0 0 1 1.16284,0.14507l0,0.8232a2.4765,2.4765 0 0 1 -1.22386,0.3028c-0.62862,0 -1.00511,-0.24178 -1.00511,-0.64129m0.59869,2.02172c0.69079,0 1.24803,-0.14507 1.76843,-0.49622l0,0.388l1.93653,0l0,-4.10562c0,-1.56119 -1.05231,-2.41778 -2.80808,-2.41778c-0.98093,0 -1.95034,0.23026 -2.99344,0.70231l0.70231,1.44146c0.75066,-0.31546 1.38159,-0.50888 1.93768,-0.50888c0.80593,0 1.22271,0.31431 1.22271,0.95675l0,0.31431a5.7025,5.7025 0 0 0 -1.45297,-0.18191c-1.64754,0 -2.63998,0.69079 -2.63998,1.92616c0,1.12599 0.89573,1.98488 2.32452,1.98488m-10.64283,-0.10822l2.08274,0l0,-3.32157l3.48736,0l0,3.31811l2.0885,0l0,-8.47604l-2.08044,0l0,3.25709l-3.48736,0l0,-3.25709l-2.08274,0l-0.00806,8.4795zm-7.92801,-3.21219c0,-0.92106 0.72649,-1.62337 1.68323,-1.62337a1.98258,1.98258 0 0 1 1.35396,0.49737l0,2.23932a1.88356,1.88356 0 0 1 -1.35396,0.51349c-0.94409,0 -1.68323,-0.70231 -1.68323,-1.62221m3.06367,3.20874l1.93768,0l0,-8.90433l-1.95725,0.42369l0,2.40972a3.25825,3.25825 0 0 0 -1.63488,-0.42369c-1.86399,0 -3.32963,1.44031 -3.32963,3.28127a3.25249,3.25249 0 0 0 3.26976,3.29278a2.89212,2.89212 0 0 0 1.71893,-0.55609l-0.00461,0.47665zm-8.89167,-4.92536c0.61711,0 1.13751,0.39951 1.34359,1.01662l-2.67107,0c0.19342,-0.63668 0.67813,-1.01662 1.32748,-1.01662m-3.30084,1.72699c0,1.86514 1.5255,3.31811 3.48621,3.31811c1.07764,0 1.86514,-0.29128 2.67683,-0.96941l-1.29639,-1.15132c-0.3028,0.31546 -0.75066,0.48471 -1.28257,0.48471a1.65675,1.65675 0 0 1 -1.57501,-1.01662l4.565,0l0,-0.48701c0,-2.03439 -1.36777,-3.49887 -3.23292,-3.49887a3.28933,3.28933 0 0 0 -3.33884,3.31696m-3.37913,-3.49887c0.69079,0 1.07764,0.4352 1.07764,0.95675s-0.38684,0.95675 -1.07764,0.95675l-2.05972,0l0,-1.9135l2.05972,0zm-4.14476,6.6961l2.08274,0l0,-3.08785l1.58537,0l1.59919,3.08785l2.33143,0l-1.86514,-3.39065a2.564,2.564 0 0 0 1.59804,-2.38554c0,-1.5255 -1.19853,-2.69985 -2.99344,-2.69985l-4.33819,0l0,8.47604z" fill="#fff"/>
  </g>
</svg>
