<svg viewBox="0 0 44 24" version="1.1" xmlns="http://www.w3.org/2000/svg">
    <g stroke-width="1" fill-rule="evenodd" fill="#FAFAFA">
        <path d="M5.3357304,6 L4.1753712,6 L3.2744712,4.1837856 L2.258256,4.1837856 L2.258256,6 L1.249248,6 L1.249248,0.95496 L3.5987952,0.95496 C3.83423158,0.95496 4.05765254,0.987392076 4.2690648,1.0522572 C4.48047706,1.11712232 4.66546001,1.21682093 4.8240192,1.351356 C4.98257839,1.48589107 5.10750194,1.6528562 5.1987936,1.8522564 C5.29008526,2.0516566 5.3357304,2.28588825 5.3357304,2.5549584 C5.3357304,2.9345395 5.2552508,3.24564719 5.0942892,3.4882908 C4.9333276,3.73093441 4.69188881,3.91471618 4.3699656,4.0396416 L5.3357304,6 Z M4.2978936,2.57658 C4.2978936,2.34594845 4.23423064,2.18138569 4.1069028,2.0828868 C3.97957496,1.98438791 3.80300033,1.9351392 3.5771736,1.9351392 L2.258256,1.9351392 L2.258256,3.2324352 L3.5771736,3.2324352 C4.057656,3.2324352 4.2978936,3.01381899 4.2978936,2.57658 Z M10.005996,6 L6.3951888,6 L6.3951888,0.95496 L9.897888,0.95496 L9.897888,1.9423464 L7.4041968,1.9423464 L7.4041968,2.8144176 L8.852844,2.8144176 L8.852844,3.7945968 L7.4041968,3.7945968 L7.4041968,5.0126136 L10.005996,5.0126136 L10.005996,6 Z M15.1663512,3.47748 C15.1663512,3.91952381 15.0930787,4.3003004 14.9465316,4.6198212 C14.7999845,4.939342 14.605392,5.20120098 14.3627484,5.405406 C14.1201048,5.60961102 13.8438315,5.75975952 13.5339204,5.855856 C13.2240093,5.95195248 12.9080968,6 12.5861736,6 L11.0798688,6 L11.0798688,0.95496 L12.6582456,0.95496 C13.0186074,0.95496 13.3513365,0.999403956 13.6564428,1.0882932 C13.9615491,1.17718244 14.2258105,1.32252619 14.4492348,1.5243288 C14.6726591,1.72613141 14.8480326,1.9867892 14.9753604,2.30631 C15.1026882,2.6258308 15.1663512,3.01621689 15.1663512,3.47748 Z M14.1285144,3.47748 C14.1285144,2.96336383 14.010798,2.57778249 13.7753616,2.3207244 C13.5399252,2.06366631 13.1555451,1.9351392 12.6222096,1.9351392 L12.0888768,1.9351392 L12.0888768,5.0198208 L12.5861736,5.0198208 C12.8504389,5.0198208 13.0798658,4.98258397 13.2744612,4.9081092 C13.4690566,4.83363443 13.6288146,4.72913107 13.75374,4.594596 C13.8786654,4.46006093 13.9723581,4.29790055 14.0348208,4.10811 C14.0972835,3.91831945 14.1285144,3.70811155 14.1285144,3.47748 Z M22.3519296,6 L21.3429216,6 L21.3429216,3.8810832 L19.2744552,3.8810832 L19.2744552,6 L18.2654472,6 L18.2654472,0.95496 L19.2744552,0.95496 L19.2744552,2.8864896 L21.3429216,2.8864896 L21.3429216,0.95496 L22.3519296,0.95496 L22.3519296,6 Z M28.1176896,6 L27.0077808,6 L26.6113848,4.8756768 L24.7663416,4.8756768 L24.3699456,6 L23.2888656,6 L25.2203952,0.95496 L26.2005744,0.95496 L28.1176896,6 Z M26.2654392,3.9171192 L25.9411152,3.0018048 C25.8882621,2.85285526 25.8390134,2.7087127 25.7933676,2.5693728 C25.7477218,2.4300329 25.7128873,2.31231648 25.6888632,2.21622 C25.6648391,2.31231648 25.6300046,2.4300329 25.5843588,2.5693728 C25.538713,2.7087127 25.4894643,2.85285526 25.4366112,3.0018048 L25.1122872,3.9171192 L26.2654392,3.9171192 Z M32.636604,1.9495536 L31.1879568,1.9495536 L31.1879568,6 L30.1789488,6 L30.1789488,1.9495536 L28.7303016,1.9495536 L28.7303016,0.95496 L32.636604,0.95496 L32.636604,1.9495536 Z"></path>
        <path d="M36,2.5 C36,2.71329747 35.9619117,2.91135643 35.8857341,3.09418283 C35.8095564,3.27700922 35.7042943,3.4355949 35.5699446,3.5699446 C35.4355949,3.7042943 35.2770092,3.80955641 35.0941828,3.88573407 C34.9113564,3.96191174 34.7132975,4 34.5,4 C34.2867025,4 34.0886436,3.96191174 33.9058172,3.88573407 C33.7229908,3.80955641 33.5644051,3.7042943 33.4300554,3.5699446 C33.2957057,3.4355949 33.1904436,3.27700922 33.1142659,3.09418283 C33.0380883,2.91135643 33,2.71329747 33,2.5 C33,2.28670253 33.0380883,2.08864357 33.1142659,1.90581717 C33.1904436,1.72299078 33.2957057,1.5644051 33.4300554,1.4300554 C33.5644051,1.2957057 33.7229908,1.19044359 33.9058172,1.11426593 C34.0886436,1.03808826 34.2867025,1 34.5,1 C34.7132975,1 34.9113564,1.03808826 35.0941828,1.11426593 C35.2770092,1.19044359 35.4355949,1.2957057 35.5699446,1.4300554 C35.7042943,1.5644051 35.8095564,1.72299078 35.8857341,1.90581717 C35.9619117,2.08864357 36,2.28670253 36,2.5 Z M35.7590028,2.5 C35.7590028,2.3227138 35.7271471,2.15720298 35.6634349,2.0034626 C35.5997227,1.84972222 35.5110809,1.71606705 35.3975069,1.60249307 C35.283933,1.4889191 35.1502778,1.40027733 34.9965374,1.3365651 C34.842797,1.27285287 34.6772862,1.24099723 34.5,1.24099723 C34.3199437,1.24099723 34.1537404,1.27285287 34.001385,1.3365651 C33.8490297,1.40027733 33.716067,1.4889191 33.6024931,1.60249307 C33.4889191,1.71606705 33.4002773,1.84972222 33.3365651,2.0034626 C33.2728529,2.15720298 33.2409972,2.3227138 33.2409972,2.5 C33.2409972,2.6800563 33.2728529,2.84625963 33.3365651,2.99861496 C33.4002773,3.15097029 33.4889191,3.28393295 33.6024931,3.39750693 C33.716067,3.5110809 33.8490297,3.59972267 34.001385,3.6634349 C34.1537404,3.72714713 34.3199437,3.75900277 34.5,3.75900277 C34.6772862,3.75900277 34.842797,3.72714713 34.9965374,3.6634349 C35.1502778,3.59972267 35.283933,3.5110809 35.3975069,3.39750693 C35.5110809,3.28393295 35.5997227,3.15097029 35.6634349,2.99861496 C35.7271471,2.84625963 35.7590028,2.6800563 35.7590028,2.5 Z M35.1855956,2.1468144 C35.1855956,2.27700896 35.1537399,2.38227107 35.0900277,2.46260388 C35.0263155,2.54293669 34.9418288,2.5983378 34.8365651,2.62880886 L35.1731302,3.28947368 L34.8448753,3.28947368 L34.5249307,2.65789474 L34.2091413,2.65789474 L34.2091413,3.28947368 L33.9307479,3.28947368 L33.9307479,1.65235457 L34.6495845,1.65235457 C34.721607,1.65235457 34.7901659,1.66204976 34.8552632,1.68144044 C34.9203604,1.70083112 34.9771466,1.73060922 35.0256233,1.77077562 C35.0741,1.81094203 35.1128807,1.86218805 35.1419668,1.92451524 C35.1710528,1.98684242 35.1855956,2.0609414 35.1855956,2.1468144 Z M34.9030471,2.15512465 C34.9030471,2.07756194 34.8781166,2.01939078 34.8282548,1.98060942 C34.7783931,1.94182806 34.7160669,1.92243767 34.6412742,1.92243767 L34.2091413,1.92243767 L34.2091413,2.38781163 L34.6412742,2.38781163 C34.7160669,2.38781163 34.7783931,2.36911376 34.8282548,2.33171745 C34.8781166,2.29432114 34.9030471,2.23545747 34.9030471,2.15512465 Z"></path>
        <path d="M6.4432368,17.1081 L5.6540484,17.1081 L2.3459436,11.9297268 C2.30270018,11.8648617 2.25585385,11.7873851 2.2054032,11.6972946 L2.054052,11.4270246 C2.00360135,11.3369341 1.95495323,11.2522504 1.9081062,11.1729708 C1.86125917,11.0936912 1.82702531,11.0288271 1.8054036,10.9783764 L1.8054036,17.1081 L0.9945936,17.1081 L0.9945936,9.54054 L1.8162144,9.54054 L5.0918868,14.8162104 C5.13513022,14.8810755 5.18197655,14.9585521 5.2324272,15.0486426 L5.3837784,15.3189126 C5.43422905,15.4090031 5.48287717,15.4936868 5.5297242,15.5729664 C5.57657123,15.652246 5.61080509,15.7171101 5.6324268,15.7675608 L5.6324268,9.54054 L6.4432368,9.54054 L6.4432368,17.1081 Z M14.3891748,13.3135092 C14.3891748,13.8828808 14.3135,14.4071994 14.162148,14.8864806 C14.010796,15.3657618 13.796384,15.7783699 13.5189054,16.1243172 C13.2414268,16.4702645 12.9080971,16.7405318 12.5189064,16.9351272 C12.1297157,17.1297226 11.7008915,17.2270188 11.2324212,17.2270188 C10.7639509,17.2270188 10.3369285,17.1315244 9.9513414,16.9405326 C9.56575427,16.7495408 9.23602817,16.4810753 8.9621532,16.135128 C8.68827823,15.7891807 8.47746974,15.3783744 8.3297214,14.9026968 C8.18197306,14.4270192 8.1081,13.9045024 8.1081,13.3351308 C8.1081,12.7657592 8.18377484,12.2414406 8.3351268,11.7621594 C8.48647876,11.2828782 8.69908903,10.8702701 8.972964,10.5243228 C9.24683897,10.1783755 9.57836685,9.90810817 9.9675576,9.7135128 C10.3567483,9.51891743 10.7855725,9.4216212 11.2540428,9.4216212 C11.7225131,9.4216212 12.1495355,9.51711565 12.5351226,9.7081074 C12.9207097,9.89909915 13.2504358,10.1675647 13.5243108,10.513512 C13.7981858,10.8594593 14.010796,11.2702656 14.162148,11.7459432 C14.3135,12.2216208 14.3891748,12.7441376 14.3891748,13.3135092 Z M13.5459324,13.3351308 C13.5459324,12.8594532 13.4864736,12.4288273 13.3675542,12.0432402 C13.2486348,11.6576531 13.0846726,11.3261252 12.8756628,11.0486466 C12.666653,10.771168 12.4216106,10.5585577 12.1405284,10.4108094 C11.8594462,10.2630611 11.5531433,10.189188 11.2216104,10.189188 C10.8972848,10.189188 10.5963872,10.2630611 10.3189086,10.4108094 C10.04143,10.5585577 9.80179301,10.7675644 9.5999904,11.0378358 C9.39818779,11.3081072 9.23963098,11.6360315 9.1243152,12.0216186 C9.00899942,12.4072057 8.9513424,12.8378316 8.9513424,13.3135092 C8.9513424,13.7891868 9.01080121,14.2198127 9.1297206,14.6053998 C9.24863999,14.9909869 9.41080037,15.3225148 9.6162066,15.5999934 C9.82161283,15.877472 10.0648534,16.0900823 10.3459356,16.2378306 C10.6270178,16.3855789 10.9333207,16.459452 11.2648536,16.459452 C11.5891792,16.459452 11.8918786,16.3855789 12.1729608,16.2378306 C12.454043,16.0900823 12.6954818,15.8810756 12.8972844,15.6108042 C13.099087,15.3405328 13.2576438,15.0126085 13.3729596,14.6270214 C13.4882754,14.2414343 13.5459324,13.8108084 13.5459324,13.3351308 Z M22.0107888,13.3135092 C22.0107888,13.8828808 21.935114,14.4071994 21.783762,14.8864806 C21.63241,15.3657618 21.417998,15.7783699 21.1405194,16.1243172 C20.8630408,16.4702645 20.5297111,16.7405318 20.1405204,16.9351272 C19.7513297,17.1297226 19.3225055,17.2270188 18.8540352,17.2270188 C18.3855649,17.2270188 17.9585425,17.1315244 17.5729554,16.9405326 C17.1873683,16.7495408 16.8576422,16.4810753 16.5837672,16.135128 C16.3098922,15.7891807 16.0990837,15.3783744 15.9513354,14.9026968 C15.8035871,14.4270192 15.729714,13.9045024 15.729714,13.3351308 C15.729714,12.7657592 15.8053888,12.2414406 15.9567408,11.7621594 C16.1080928,11.2828782 16.320703,10.8702701 16.594578,10.5243228 C16.868453,10.1783755 17.1999809,9.90810817 17.5891716,9.7135128 C17.9783623,9.51891743 18.4071865,9.4216212 18.8756568,9.4216212 C19.3441271,9.4216212 19.7711495,9.51711565 20.1567366,9.7081074 C20.5423237,9.89909915 20.8720498,10.1675647 21.1459248,10.513512 C21.4197998,10.8594593 21.63241,11.2702656 21.783762,11.7459432 C21.935114,12.2216208 22.0107888,12.7441376 22.0107888,13.3135092 Z M21.1675464,13.3351308 C21.1675464,12.8594532 21.1080876,12.4288273 20.9891682,12.0432402 C20.8702488,11.6576531 20.7062866,11.3261252 20.4972768,11.0486466 C20.288267,10.771168 20.0432246,10.5585577 19.7621424,10.4108094 C19.4810602,10.2630611 19.1747573,10.189188 18.8432244,10.189188 C18.5188988,10.189188 18.2180012,10.2630611 17.9405226,10.4108094 C17.663044,10.5585577 17.423407,10.7675644 17.2216044,11.0378358 C17.0198018,11.3081072 16.861245,11.6360315 16.7459292,12.0216186 C16.6306134,12.4072057 16.5729564,12.8378316 16.5729564,13.3135092 C16.5729564,13.7891868 16.6324152,14.2198127 16.7513346,14.6053998 C16.870254,14.9909869 17.0324144,15.3225148 17.2378206,15.5999934 C17.4432268,15.877472 17.6864674,16.0900823 17.9675496,16.2378306 C18.2486318,16.3855789 18.5549347,16.459452 18.8864676,16.459452 C19.2107932,16.459452 19.5134926,16.3855789 19.7945748,16.2378306 C20.075657,16.0900823 20.3170958,15.8810756 20.5188984,15.6108042 C20.720701,15.3405328 20.8792578,15.0126085 20.9945736,14.6270214 C21.1098894,14.2414343 21.1675464,13.8108084 21.1675464,13.3351308 Z M28.8540252,14.8702644 C28.8540252,15.6198169 28.6432167,16.1801711 28.2215934,16.5513438 C27.7999701,16.9225165 27.189166,17.1081 26.3891628,17.1081 L23.675652,17.1081 L23.675652,9.54054 L26.4432168,9.54054 C26.7459207,9.54054 27.0215934,9.57837742 27.270243,9.6540534 C27.5188926,9.72972938 27.7351065,9.84504343 27.918891,9.999999 C28.1026755,10.1549546 28.2450163,10.3513488 28.3459176,10.5891876 C28.4468189,10.8270264 28.4972688,11.1081044 28.4972688,11.43243 C28.4972688,11.8504497 28.396369,12.1837794 28.1945664,12.432429 C27.9927638,12.6810786 27.7297036,12.8630586 27.405378,12.9783744 C27.5783517,13.0216178 27.7513227,13.0882837 27.9242964,13.1783742 C28.0972701,13.2684647 28.2522233,13.3873823 28.3891608,13.5351306 C28.5260983,13.6828789 28.6378088,13.8666607 28.7242956,14.0864814 C28.8107824,14.3063021 28.8540252,14.5675605 28.8540252,14.8702644 Z M27.6540264,11.4648624 C27.6540264,11.1189151 27.5531266,10.8396389 27.351324,10.6270254 C27.1495214,10.4144119 26.8360113,10.3081068 26.4107844,10.3081068 L24.5188944,10.3081068 L24.5188944,12.6648612 L26.3459196,12.6648612 C26.8143899,12.6648612 27.1495214,12.5477454 27.351324,12.3135102 C27.5531266,12.079275 27.6540264,11.7963953 27.6540264,11.4648624 Z M28.0107828,14.9135076 C28.0107828,14.43783 27.8666402,14.0702665 27.5783508,13.810806 C27.2900614,13.5513455 26.8972729,13.4216172 26.3999736,13.4216172 L24.5188944,13.4216172 L24.5188944,16.3405332 L26.4432168,16.3405332 C27.0125884,16.3405332 27.4161876,16.2108049 27.6540264,15.9513444 C27.8918652,15.6918839 28.0107828,15.3459418 28.0107828,14.9135076 Z M36.2053692,17.1081 L35.3188836,17.1081 L34.6702356,15.1837776 L31.5459144,15.1837776 L30.8864556,17.1081 L30.0215916,17.1081 L32.648616,9.54054 L33.5783448,9.54054 L36.2053692,17.1081 Z M34.4107764,14.4162108 L33.5783448,11.9297268 C33.5351014,11.8072038 33.4900568,11.6738719 33.4432098,11.5297272 C33.3963628,11.3855825 33.3513182,11.2468453 33.3080748,11.1135114 C33.2648314,10.9801775 33.226994,10.8540528 33.1945614,10.7351334 L33.1134804,10.4378364 C33.0918587,10.517116 33.064832,10.6144122 33.0323994,10.729728 C32.9999668,10.8450438 32.9621294,10.9711685 32.918886,11.108106 C32.8756426,11.2450435 32.8287963,11.3873843 32.7783456,11.5351326 C32.7278949,11.6828809 32.6810486,11.8216182 32.6378052,11.9513484 L31.8053736,14.4162108 L34.4107764,14.4162108 Z M43.5350916,17.1081 L42.648606,17.1081 L41.999958,15.1837776 L38.8756368,15.1837776 L38.216178,17.1081 L37.351314,17.1081 L39.9783384,9.54054 L40.9080672,9.54054 L43.5350916,17.1081 Z M41.7404988,14.4162108 L40.9080672,11.9297268 C40.8648238,11.8072038 40.8197792,11.6738719 40.7729322,11.5297272 C40.7260852,11.3855825 40.6810406,11.2468453 40.6377972,11.1135114 C40.5945538,10.9801775 40.5567164,10.8540528 40.5242838,10.7351334 L40.4432028,10.4378364 C40.4215811,10.517116 40.3945544,10.6144122 40.3621218,10.729728 C40.3296892,10.8450438 40.2918518,10.9711685 40.2486084,11.108106 C40.205365,11.2450435 40.1585187,11.3873843 40.108068,11.5351326 C40.0576173,11.6828809 40.010771,11.8216182 39.9675276,11.9513484 L39.135096,14.4162108 L41.7404988,14.4162108 Z"></path>
    </g>
</svg>
