<svg xmlns="http://www.w3.org/2000/svg" viewBox="0 0 71 24">
  <g fill="none" fill-rule="evenodd">
    <g fill="#FAFAFA" fill-rule="nonzero" transform="translate(28 7)">
      <path d="M9.70005453,3.92263231 L8.56765996,5.61230799 L9.70005453,7.3018701 L11.9648437,7.3018701 L13.0972383,5.61230799 L11.9648437,3.92269544 L9.70005453,3.92263231 Z M7.14673409,5.61230799 L8.98965825,2.86256095 L12.6753132,2.86262405 L14.5181627,5.61230799 L12.6753132,8.36192884 L8.98965825,8.36192884 L7.14673409,5.61230799 Z" transform="rotate(-90 10.832 5.612)"/>
      <polygon points="28.698 5.55 30.304 3.057 33.859 3.057 35.637 5.816 33.859 8.575 28.954 8.575 28.954 7.512 33.174 7.512 34.266 5.816 33.174 4.121 30.99 4.121 29.726 6.082" transform="rotate(-90 32.168 5.816)"/>
      <polygon points="36.055 5.55 37.661 3.057 41.216 3.058 42.994 5.816 41.216 8.575 36.311 8.575 36.311 7.512 40.531 7.512 41.623 5.816 40.531 4.121 38.347 4.121 37.083 6.082" transform="rotate(-90 39.524 5.816)"/>
      <polygon points=".006 8.167 .006 7.103 4.388 7.103 5.522 5.408 4.388 3.713 .006 3.713 .006 2.649 5.099 2.649 6.945 5.408 5.099 8.167" transform="rotate(-90 3.476 5.408)"/>
      <path d="M16.6891401,3.92263231 L15.5567455,5.6122449 L16.6891401,7.3018701 L18.9539292,7.3018701 L20.0863238,5.61230799 L18.9539292,3.92263231 L16.6891401,3.92263231 Z M14.1358196,5.6122449 L15.9787438,2.86256095 L19.6643988,2.86256095 L21.5072482,5.61230799 L19.6643988,8.36192884 L15.9787438,8.36192884 L14.1358196,5.6122449 Z" transform="rotate(-90 17.822 5.612)"/>
      <polygon points="20.893 5 22.697 2.241 29.464 2.241 29.464 3.305 23.392 3.305 22.284 5 23.392 6.695 25.61 6.695 26.892 4.734 27.935 5.266 26.305 7.759 22.697 7.759" transform="rotate(-90 25.178 5)"/>
    </g>
    <polyline fill="#000" points=".099 4.11 .098 12.119 2.819 10.609 2.819 5.619 7.314 3.125 7.314 .106 .099 4.11"/>
    <polyline fill="#000" points="16.539 18.482 12.043 20.977 7.549 18.483 4.828 19.992 12.043 23.996 19.259 19.992 16.539 18.482"/>
    <polyline fill="#000" points="16.773 .106 16.773 3.126 21.268 5.62 21.268 10.608 23.988 12.117 23.988 4.11 16.773 .106"/>
    <polyline fill="#000" points="12.043 10.74 12.045 10.739 12.043 10.738 12.043 10.74"/>
    <polyline fill="#505052" points="16.773 3.126 16.773 5.355 12.043 7.98 7.313 5.355 7.314 3.125 2.819 5.619 12.043 10.738 21.268 5.62 16.773 3.126"/>
    <polyline fill="#000" points="12.044 10.739 12.043 20.977 16.539 18.482 14.529 17.367 14.529 12.118 19.259 9.493 21.268 10.608 21.268 5.62 12.044 10.739"/>
    <polyline fill="#3C3B3C" points="2.819 5.619 2.819 10.609 4.828 9.494 9.558 12.119 9.558 17.368 7.549 18.483 12.043 20.977 12.043 10.739 2.819 5.619"/>
    <polyline fill="#000" points="16.773 3.126 12.043 5.75 12.043 7.98 16.773 5.355 16.773 3.126"/>
    <polyline fill="#000" points="7.314 3.125 7.313 5.355 12.043 7.98 12.043 5.75 7.314 3.125"/>
    <polyline fill="#000" points="21.268 10.608 21.268 10.608 21.268 10.608 21.268 10.608"/>
    <polyline fill="#000" points="16.538 13.233 14.529 12.118 14.529 17.367 16.539 18.482 16.538 13.233"/>
    <polyline fill="#D92681" points="14.529 12.118 16.538 13.233 21.268 10.608 19.259 9.493 14.529 12.118"/>
    <polyline fill="#000" points="7.549 18.483 7.549 18.483 7.549 18.482 7.549 18.483"/>
    <polyline fill="#D92681" points="7.548 13.234 9.557 12.119 4.828 9.494 2.819 10.609 7.548 13.234"/>
    <polyline fill="#0B0B0A" points="9.557 12.119 7.549 13.234 7.549 18.483 9.558 17.368 9.557 12.119"/>
  </g>
</svg>
