<svg xmlns="http://www.w3.org/2000/svg" viewBox="0 0 71 24">
  <path fill="#FAFAFA" d="M4.94179267 5.93534118L3.53856759 5.93534118 2.44910713 3.79861835 1.22019572 3.79861835 1.22019572 5.93534118 0 5.93534118 0 0 2.84131289 0C3.12602665 0 3.39621014.0381553831 3.65187148.114467294 3.90753281.190779205 4.13123312.308071679 4.32297913.466348235 4.51472513.624624791 4.66579547.821054356 4.77619468 1.05564282 4.88659389 1.29023129 4.94179267 1.56579795 4.94179267 1.88235106 4.94179267 2.32891706 4.84446851 2.6949261 4.64981727 2.98038918 4.45516602 3.26585225 4.16319354 3.48206609 3.77389105 3.62903718L4.94179267 5.93534118zM3.68673421 1.90778824C3.68673421 1.636457 3.60974644 1.44285376 3.4557686 1.32697271 3.30179075 1.21109166 3.08825863 1.153152 2.81516584 1.153152L1.22019572 1.153152 1.22019572 2.67938259 2.81516584 2.67938259C3.39621433 2.67938259 3.68673421 2.42218704 3.68673421 1.90778824zM10.5895557 5.93534118L6.22299818 5.93534118 6.22299818 0 10.4588205 0 10.4588205 1.16163106 7.4431939 1.16163106 7.4431939 2.18759718 9.19504633 2.18759718 9.19504633 3.34074918 7.4431939 3.34074918 7.4431939 4.77371012 10.5895557 4.77371012 10.5895557 5.93534118zM16.8299853 2.96767059C16.8299853 3.48772213 16.7413767 3.93569459 16.5641569 4.31160141 16.3869371 4.68750823 16.151616 4.99557762 15.8581865 5.23581882 15.564757 5.47606002 15.2306592 5.65270532 14.8558829 5.76576 14.4811066 5.87881468 14.099073 5.93534118 13.7097705 5.93534118L11.8881926 5.93534118 11.8881926 0 13.7969273 0C14.2327137 0 14.6350837.0522870065 15.0040495.156862588 15.3730153.26143817 15.6925872.432430813 15.9627747.669845647 16.2329623.907260481 16.4450418 1.21391671 16.5990196 1.58982353 16.7529975 1.96573035 16.8299853 2.42500811 16.8299853 2.96767059zM15.5749268 2.96767059C15.5749268 2.36282803 15.4325721 1.90920292 15.1478583 1.60678165 14.8631445 1.30436037 14.3983127 1.153152 13.7533489 1.153152L13.1083883 1.153152 13.1083883 4.78218918 13.7097705 4.78218918C14.0293472 4.78218918 14.3067937 4.73838114 14.5421183 4.65076376 14.7774429 4.56314639 14.9706386 4.44020126 15.1217113 4.28192471 15.2727839 4.12364815 15.3860866 3.93287123 15.4616229 3.70958824 15.5371592 3.48630524 15.5749268 3.23900183 15.5749268 2.96767059zM25.5195219 5.93534118L24.2993262 5.93534118 24.2993262 3.44249788 21.797925 3.44249788 21.797925 5.93534118 20.5777293 5.93534118 20.5777293 0 21.797925 0 21.797925 2.27238776 24.2993262 2.27238776 24.2993262 0 25.5195219 0 25.5195219 5.93534118zM32.4920689 5.93534118L31.1498536 5.93534118 30.670491 4.612608 28.439276 4.612608 27.9599134 5.93534118 26.6525608 5.93534118 28.9883641 0 30.173697 0 32.4920689 5.93534118zM30.2521382 3.48489318L29.8599324 2.40805271C29.7960171 2.23281795 29.7364605 2.06323847 29.6812609 1.89930918 29.6260613 1.73537989 29.5839359 1.59688998 29.5548835 1.48383529 29.5258311 1.59688998 29.4837057 1.73537989 29.4285061 1.89930918 29.3733065 2.06323847 29.3137499 2.23281795 29.2498346 2.40805271L28.8576288 3.48489318 30.2521382 3.48489318zM37.9568026 1.17011012L36.2049502 1.17011012 36.2049502 5.93534118 34.9847545 5.93534118 34.9847545 1.17011012 33.232902 1.17011012 33.232902 0 37.9568026 0 37.9568026 1.17011012zM41.2876481 1.35347059C41.2876481 1.54593182 41.2523214 1.72464314 41.1816671 1.88960991 41.1110127 2.05457668 41.0133827 2.1976707 40.888774 2.31889628 40.7641654 2.44012187 40.6170781 2.53510131 40.4475076 2.60383746 40.2779371 2.67257362 40.0942385 2.70694118 39.8964062 2.70694118 39.698574 2.70694118 39.5148754 2.67257362 39.3453049 2.60383746 39.1757344 2.53510131 39.028647 2.44012187 38.9040384 2.31889628 38.7794298 2.1976707 38.6817998 2.05457668 38.6111454 1.88960991 38.540491 1.72464314 38.5051644 1.54593182 38.5051644 1.35347059 38.5051644 1.16100936 38.540491.982298038 38.6111454.817331269 38.6817998.6523645 38.7794298.509270472 38.9040384.388044892 39.028647.266819311 39.1757344.171839869 39.3453049.103103715 39.5148754.0343675614 39.698574 6.43929354e-15 39.8964062 6.43929354e-15 40.0942385 6.43929354e-15 40.2779371.0343675614 40.4475076.103103715 40.6170781.171839869 40.7641654.266819311 40.888774.388044892 41.0133827.509270472 41.1110127.6523645 41.1816671.817331269 41.2523214.982298038 41.2876481 1.16100936 41.2876481 1.35347059zM41.0641245 1.35347059C41.0641245 1.19350281 41.0345785 1.04416014 40.9754858.90543808 40.916393.766716025 40.8341783.646117127 40.728839.543637771 40.6234998.441158414 40.4995353.361175726 40.356942.303687307 40.2143486.246198887 40.0608382.217455108 39.8964062.217455108 39.729405.217455108 39.5752523.246198887 39.4339436.303687307 39.2926348.361175726 39.1693127.441158414 39.0639734.543637771 38.9586342.646117127 38.8764194.766716025 38.8173267.90543808 38.7582339 1.04416014 38.728688 1.19350281 38.728688 1.35347059 38.728688 1.51593786 38.7582339 1.6659054 38.8173267 1.80337771 38.8764194 1.94085002 38.9586342 2.06082405 39.0639734 2.16330341 39.1693127 2.26578276 39.2926348 2.34576545 39.4339436 2.40325387 39.5752523 2.46074229 39.729405 2.48948607 39.8964062 2.48948607 40.0608382 2.48948607 40.2143486 2.46074229 40.356942 2.40325387 40.4995353 2.34576545 40.6234998 2.26578276 40.728839 2.16330341 40.8341783 2.06082405 40.916393 1.94085002 40.9754858 1.80337771 41.0345785 1.6659054 41.0641245 1.51593786 41.0641245 1.35347059zM40.5322924 1.03478638C40.5322924 1.15226271 40.5027465 1.24724216 40.4436537 1.31972755 40.384561 1.39221295 40.3062 1.44220213 40.2085685 1.46969659L40.5207308 2.06582353 40.2162762 2.06582353 39.9195294 1.49594118 39.6266363 1.49594118 39.6266363 2.06582353 39.368428 2.06582353 39.368428.588628483 40.035145.588628483C40.1019455.588628483 40.1655335.59737659 40.2259109.614873065 40.2862883.632369541 40.3389571.659238725 40.383919.695481424 40.4288808.731724123 40.4648498.777964115 40.4918269.834202786 40.518804.890441458 40.5322924.957301986 40.5322924 1.03478638zM40.2702302 1.04228483C40.2702302.972298928 40.2471073.919810288 40.2008608.884817337 40.1546143.849824386 40.0968071.832328173 40.0274373.832328173L39.6266363.832328173 39.6266363 1.25224149 40.0274373 1.25224149C40.0968071 1.25224149 40.1546143 1.23537014 40.2008608 1.20162693 40.2471073 1.16788373 40.2702302 1.11477023 40.2702302 1.04228483zM6.58905689 19.4429162L5.63468953 19.4429162 1.6341907 13.3507125C1.58189633 13.2744006 1.52524496 13.1832516 1.46423487 13.0772628L1.28120551 12.7592981C1.22019542 12.6533094 1.16136514 12.5536814 1.10471291 12.4604113 1.04806068 12.3671412 1.0066616 12.2908304.980514419 12.2314767L.980514419 19.4429162 0 19.4429162 0 10.5399045.993587944 10.5399045 4.9548662 16.7465755C5.00716056 16.8228874 5.06381194 16.9140364 5.12482203 17.0200252L5.30785139 17.3379899C5.36886148 17.4439786 5.42769175 17.5436066 5.48434398 17.6368767 5.54099621 17.7301468 5.58239529 17.8064576 5.60854247 17.8658113L5.60854247 10.5399045 6.58905689 10.5399045 6.58905689 19.4429162zM16.1980982 14.9786918C16.1980982 15.6485408 16.1065844 16.2653861 15.9235542 16.8292464 15.7405239 17.3931066 15.4812349 17.8785278 15.1456794 18.2855247 14.8101239 18.6925216 14.4070275 19.0104831 13.9363783 19.2394188 13.465729 19.4683546 12.947151 19.5828207 12.3806287 19.5828207 11.8141065 19.5828207 11.2977074 19.4704743 10.8314159 19.2457781 10.3651245 19.0210819 9.96638599 18.7052402 9.63518835 18.2982433 9.30399072 17.8912464 9.04905952 17.4079449 8.87038711 16.8483242 8.6917147 16.2887036 8.60237983 15.6739779 8.60237983 15.0041289 8.60237983 14.3342799 8.6938936 13.7174346 8.87692387 13.1535744 9.05995414 12.5897141 9.31706424 12.1042929 9.64826188 11.697296 9.97945952 11.2902991 10.380377 10.9723376 10.8510262 10.7434019 11.3216755 10.5144661 11.8402535 10.4 12.4067758 10.4 12.9732981 10.4 13.4896971 10.5123464 13.9559886 10.7370426 14.42228 10.9617388 14.8210185 11.2775806 15.1522161 11.6845774 15.4834138 12.0915743 15.7405239 12.5748758 15.9235542 13.1344965 16.1065844 13.6941172 16.1980982 14.3088428 16.1980982 14.9786918zM15.1783632 15.0041289C15.1783632 14.4445083 15.1064595 13.9378896 14.96265 13.4842576 14.8188405 13.0306257 14.6205607 12.6405929 14.3678046 12.3141475 14.1150485 11.9877021 13.8187182 11.7375724 13.4788049 11.5637508 13.1388915 11.3899292 12.7684787 11.3030198 12.3675552 11.3030198 11.9753475 11.3030198 11.6114713 11.3899292 11.2759158 11.5637508 10.9403603 11.7375724 10.6505667 11.9834626 10.4065264 12.3014289 10.162486 12.6193952 9.97074287 13.0051886 9.83129124 13.4588205 9.6918396 13.9124524 9.62211483 14.4190711 9.62211483 14.9786918 9.62211483 15.5383124 9.6940185 16.0449311 9.837828 16.4985631 9.9816375 16.952195 10.1777384 17.3422278 10.4261367 17.6686732 10.6745349 17.9951186 10.9686863 18.2452483 11.3085996 18.4190699 11.648513 18.5928915 12.0189258 18.6798009 12.4198493 18.6798009 12.812057 18.6798009 13.1781121 18.5928915 13.5180255 18.4190699 13.8579388 18.2452483 14.1499113 17.9993581 14.3939517 17.6813918 14.637992 17.3634255 14.8297352 16.9776322 14.9691868 16.5240002 15.1086384 16.0703683 15.1783632 15.5637496 15.1783632 15.0041289zM25.4149337 14.9786918C25.4149337 15.6485408 25.32342 16.2653861 25.1403897 16.8292464 24.9573594 17.3931066 24.6980704 17.8785278 24.3625149 18.2855247 24.0269594 18.6925216 23.6238631 19.0104831 23.1532138 19.2394188 22.6825645 19.4683546 22.1639865 19.5828207 21.5974643 19.5828207 21.030942 19.5828207 20.5145429 19.4704743 20.0482515 19.2457781 19.5819601 19.0210819 19.1832215 18.7052402 18.8520239 18.2982433 18.5208263 17.8912464 18.2658951 17.4079449 18.0872226 16.8483242 17.9085502 16.2887036 17.8192154 15.6739779 17.8192154 15.0041289 17.8192154 14.3342799 17.9107291 13.7174346 18.0937594 13.1535744 18.2767897 12.5897141 18.5338998 12.1042929 18.8650974 11.697296 19.1962951 11.2902991 19.5972125 10.9723376 20.0678618 10.7434019 20.538511 10.5144661 21.057089 10.4 21.6236113 10.4 22.1901336 10.4 22.7065327 10.5123464 23.1728241 10.7370426 23.6391155 10.9617388 24.037854 11.2775806 24.3690517 11.6845774 24.7002493 12.0915743 24.9573594 12.5748758 25.1403897 13.1344965 25.32342 13.6941172 25.4149337 14.3088428 25.4149337 14.9786918zM24.3951987 15.0041289C24.3951987 14.4445083 24.3232951 13.9378896 24.1794856 13.4842576 24.0356761 13.0306257 23.8373962 12.6405929 23.5846401 12.3141475 23.3318841 11.9877021 23.0355538 11.7375724 22.6956404 11.5637508 22.355727 11.3899292 21.9853142 11.3030198 21.5843907 11.3030198 21.192183 11.3030198 20.8283068 11.3899292 20.4927513 11.5637508 20.1571958 11.7375724 19.8674023 11.9834626 19.6233619 12.3014289 19.3793215 12.6193952 19.1875784 13.0051886 19.0481268 13.4588205 18.9086751 13.9124524 18.8389504 14.4190711 18.8389504 14.9786918 18.8389504 15.5383124 18.910854 16.0449311 19.0546635 16.4985631 19.198473 16.952195 19.394574 17.3422278 19.6429722 17.6686732 19.8913704 17.9951186 20.1855218 18.2452483 20.5254352 18.4190699 20.8653485 18.5928915 21.2357614 18.6798009 21.6366848 18.6798009 22.0288926 18.6798009 22.3949476 18.5928915 22.734861 18.4190699 23.0747744 18.2452483 23.3667468 17.9993581 23.6107872 17.6813918 23.8548276 17.3634255 24.0465707 16.9776322 24.1860223 16.5240002 24.325474 16.0703683 24.3951987 15.5637496 24.3951987 15.0041289zM33.6904754 16.8101685C33.6904754 17.691995 33.4355442 18.3512352 32.9256742 18.7879089 32.4158041 19.2245827 31.6771573 19.4429162 30.7097116 19.4429162L27.4282567 19.4429162 27.4282567 10.5399045 30.7750792 10.5399045C31.1411398 10.5399045 31.4745113 10.5844191 31.7752039 10.6734496 32.0758965 10.7624802 32.3373644 10.8981438 32.5596155 11.0804445 32.7818665 11.2627451 32.9539995 11.4937972 33.0760197 11.7736075 33.1980399 12.0534179 33.2590491 12.3840979 33.2590491 12.7656574 33.2590491 13.2574453 33.1370307 13.6495978 32.8929904 13.9421268 32.64895 14.2346558 32.3308307 14.4487499 31.938623 14.5844155 32.1478005 14.6352901 32.3569748 14.7137206 32.5661522 14.8197094 32.7753297 14.9256982 32.962715 15.0656012 33.1283138 15.2394228 33.2939126 15.4132444 33.4290044 15.6294582 33.5335931 15.8880708 33.6381818 16.1466834 33.6904754 16.4540462 33.6904754 16.8101685zM32.2393141 12.8038132C32.2393141 12.3968163 32.1172957 12.0682561 31.8732554 11.8181226 31.629215 11.5679891 31.2500866 11.4429242 30.7358586 11.4429242L28.4479917 11.4429242 28.4479917 14.2155765 30.6574175 14.2155765C31.2239398 14.2155765 31.629215 14.0777931 31.8732554 13.8022224 32.1172957 13.5266516 32.2393141 13.1938518 32.2393141 12.8038132zM32.6707404 16.8610428C32.6707404 16.3014221 32.4964285 15.8689945 32.1477994 15.5637468 31.7991703 15.2584992 31.3241703 15.1058776 30.7227851 15.1058776L28.4479917 15.1058776 28.4479917 18.5398965 30.7750792 18.5398965C31.4636217 18.5398965 31.9516951 18.3872749 32.2393141 18.0820273 32.5269331 17.7767797 32.6707404 17.3697889 32.6707404 16.8610428zM42.5804728 19.4429162L41.5084437 19.4429162 40.7240322 17.1790075 36.9457833 17.1790075 36.1482982 19.4429162 35.1024162 19.4429162 38.2792829 10.5399045 39.4036061 10.5399045 42.5804728 19.4429162zM40.4102676 16.2759878L39.4036061 13.3507125C39.3513117 13.2065677 39.2968393 13.0497067 39.240187 12.8801247 39.1835348 12.7105427 39.1290623 12.5473224 39.076768 12.3904591 39.0244736 12.2335957 38.9787167 12.0852136 38.9394959 11.9453085L38.8414445 11.5955473C38.8152973 11.6888174 38.7826138 11.8032836 38.7433931 11.9389492 38.7041723 12.0746148 38.6584154 12.2229968 38.606121 12.3840998 38.5538267 12.5452027 38.4971753 12.7126624 38.4361652 12.886484 38.3751551 13.0603056 38.3185037 13.2235258 38.2662094 13.3761496L37.2595479 16.2759878 40.4102676 16.2759878zM51.4443232 19.4429162L50.3722941 19.4429162 49.5878825 17.1790075 45.8096336 17.1790075 45.0121486 19.4429162 43.9662665 19.4429162 47.1431332 10.5399045 48.2674564 10.5399045 51.4443232 19.4429162zM49.2741179 16.2759878L48.2674564 13.3507125C48.2151621 13.2065677 48.1606896 13.0497067 48.1040374 12.8801247 48.0473851 12.7105427 47.9929127 12.5473224 47.9406183 12.3904591 47.8883239 12.2335957 47.8425671 12.0852136 47.8033463 11.9453085L47.7052948 11.5955473C47.6791477 11.6888174 47.6464642 11.8032836 47.6072434 11.9389492 47.5680226 12.0746148 47.5222657 12.2229968 47.4699714 12.3840998 47.417677 12.5452027 47.3610256 12.7126624 47.3000156 12.886484 47.2390055 13.0603056 47.1823541 13.2235258 47.1300597 13.3761496L46.1233983 16.2759878 49.2741179 16.2759878z" transform="translate(3 2)"/>
</svg>
