<svg xmlns="http://www.w3.org/2000/svg" viewBox="0 0 24 24">
    <g stroke-width="1" fill-rule="evenodd">
        <path d="M8.05000906,3 L2,3 L2,4 L8.05000906,4 C8.28164422,5.14112016 9.29052104,6 10.5,6 C11.709479,6 12.7183558,5.14112016 12.9499909,4 L22,4 L22,3 L12.9499909,3 C12.7183558,1.85887984 11.709479,1 10.5,1 C9.29052104,1 8.28164422,1.85887984 8.05000906,3 Z M10.5,5 C11.3284271,5 12,4.32842712 12,3.5 C12,2.67157288 11.3284271,2 10.5,2 C9.67157288,2 9,2.67157288 9,3.5 C9,4.32842712 9.67157288,5 10.5,5 Z"></path>
        <path d="M3.05000906,19 L2,19 L2,20 L3.05000906,20 C3.28164422,21.1411202 4.29052104,22 5.5,22 C6.70947896,22 7.71835578,21.1411202 7.94999094,20 L22,20 L22,19 L7.94999094,19 C7.71835578,17.8588798 6.70947896,17 5.5,17 C4.29052104,17 3.28164422,17.8588798 3.05000906,19 Z M5.5,21 C6.32842712,21 7,20.3284271 7,19.5 C7,18.6715729 6.32842712,18 5.5,18 C4.67157288,18 4,18.6715729 4,19.5 C4,20.3284271 4.67157288,21 5.5,21 Z"></path>
        <path d="M15.0500091,11 L2,11 L2,12 L15.0500091,12 C15.2816442,13.1411202 16.290521,14 17.5,14 C18.709479,14 19.7183558,13.1411202 19.9499909,12 L22,12 L22,11 L19.9499909,11 C19.7183558,9.85887984 18.709479,9 17.5,9 C16.290521,9 15.2816442,9.85887984 15.0500091,11 Z M17.5,13 C18.3284271,13 19,12.3284271 19,11.5 C19,10.6715729 18.3284271,10 17.5,10 C16.6715729,10 16,10.6715729 16,11.5 C16,12.3284271 16.6715729,13 17.5,13 Z"></path>
    </g>
</svg>
