
<svg viewBox="0 0 24 24" version="1.1" xmlns="http://www.w3.org/2000/svg" >
    <g stroke-width="1" fill-rule="evenodd">
        <path d="M9.86624,3.92384 C9.86624,3.92384 11.3136,0.95264 14.66624,0.95264 C18.5136,0.95264 20.49504,4.53376 19.88512,7.39008 C19.88512,7.39008 22.81888,7.3136 23.04736,10.47616 C23.16128,12.15264 21.40992,13.6 20,13.52384 L16.19008,13.52384 L16.19008,14.2864 L20,14.2864 C22.09504,14.2864 23.80992,12.57248 23.80992,10.47616 C23.80992,8.64736 22.51488,7.0864 20.72384,6.7424 C21.06624,4.19008 18.9712,0.19008 14.66624,0.19008 C12.64736,0.19008 10.7424,1.21888 9.6,2.89504 C6.13376,1.40864 3.46624,4.3424 3.61888,6.66624 L3.61888,6.66624 C1.7136,6.85632 0.19008,8.49504 0.19008,10.47616 C0.19008,12.5712 1.90368,14.2864 4,14.2864 L7.80992,14.2864 L7.80992,13.52384 L4,13.52384 C2.32384,13.52384 0.95264,12.15264 0.95264,10.47616 C0.95264,8.8 2.32384,7.4288 4.03872,7.4288 L4.4576,7.4288 C3.84736,4.76256 6.70496,1.9424 9.86624,3.92384 Z"></path>
        <polygon points="10.09504 15.80992 13.90496 15.80992 13.90496 15.04736 10.09504 15.04736"></polygon>
        <path d="M20.38112,20.95264 C20.38112,22.09504 19.4288,23.04736 18.2864,23.04736 L14.47616,23.04736 C13.33376,23.04736 12.38112,22.09504 12.38112,20.95264 L12.38112,20 L13.52384,20 L13.52384,18.2864 C14.8576,17.8288 15.80992,16.53376 15.80992,15.04864 L15.80992,11.61984 L15.04736,11.61984 L15.04736,8.9536 C15.04736,8.34368 14.55264,7.8112 13.90496,7.8112 C13.2576,7.8112 12.76256,8.30624 12.76256,8.9536 L12.76256,11.61984 L11.2,11.61984 L11.2,8.9536 C11.2,8.34368 10.70496,7.8112 10.0576,7.8112 C9.40992,7.8112 8.91488,8.30624 8.91488,8.9536 L8.91488,11.61984 L8.15264,11.61984 L8.15264,15.04864 C8.15264,16.53504 9.10496,17.79136 10.43872,18.2864 L10.43872,20.03872 L11.58112,20.03872 L11.58112,20.95264 C11.58112,22.51488 12.87616,23.80992 14.43872,23.80992 L18.24864,23.80992 C19.8112,23.80992 21.10624,22.51488 21.10624,20.95264 C21.10624,19.80992 22.05888,18.8576 23.20128,18.8576 L23.77248,18.8576 L23.77248,18.09504 L23.23744,18.09504 C21.67616,18.09504 20.38112,19.39008 20.38112,20.95264 Z M13.56256,8.95264 C13.56256,8.76256 13.71488,8.5712 13.94368,8.5712 C14.17248,8.5712 14.32512,8.72384 14.32512,8.95264 L14.32512,11.61888 L13.60128,11.61888 L13.60128,8.95264 L13.56256,8.95264 Z M9.7136,8.95264 C9.7136,8.76256 9.86624,8.5712 10.09504,8.5712 C10.32384,8.5712 10.47616,8.72384 10.47616,8.95264 L10.47616,11.61888 L9.75264,11.61888 L9.75264,8.95264 L9.7136,8.95264 Z M8.95264,15.04736 L8.95264,12.38112 L15.04736,12.38112 L15.04736,15.04736 C15.04736,16.53376 13.86624,17.7136 12.38112,17.7136 L11.61888,17.7136 C10.13376,17.7136 8.95264,16.53376 8.95264,15.04736 Z M11.23744,18.43744 C11.50368,18.47488 12.60864,18.47488 12.76128,18.43744 L12.76128,19.23744 L11.23744,19.23744 L11.23744,18.43744 Z"></path>
    </g>
</svg>
