<svg xmlns="http://www.w3.org/2000/svg" viewBox="0 0 24 24">
  <g fill-rule="evenodd" transform="translate(4 4)">
    <polygon points="12.057 .29 12.08 .912 14.682 .816 7.724 7.775 8.163 8.213 15.122 1.254 15.026 3.858 15.647 3.88 15.782 .155"/>
    <path d="M11.1616552,15.3274483 L2.86427586,15.3274483 C1.38565517,15.3274483 0.183172414,14.1249655 0.183172414,12.6466207 L0.183172414,4.34924138 C0.183172414,2.87062069 1.38565517,1.66813793 2.86427586,1.66813793 L6.72524138,1.66813793 L6.72524138,2.28882759 L2.86427586,2.28882759 C1.72855172,2.28882759 0.803862069,3.21324138 0.803862069,4.34924138 L0.803862069,12.6466207 C0.803862069,13.7823448 1.72855172,14.7067586 2.86427586,14.7067586 L11.1616552,14.7067586 C12.2973793,14.7067586 13.222069,13.7823448 13.222069,12.6466207 L13.222069,9.09048276 L13.8427586,9.09048276 L13.8427586,12.6466207 C13.8427586,14.1249655 12.64,15.3274483 11.1616552,15.3274483 Z"/>
  </g>
</svg>
