<svg xmlns="http://www.w3.org/2000/svg" viewBox="0 0 24 24">
    <g stroke="none" stroke-width="1" fill-rule="nonzero" transform="translate(2.000000, 1.000000)">
        <path d="M11.1720053,21.5146684 C6.64226316,20.1309842 3.35048421,15.9473368 3.35048421,10.9997105 C3.35048421,5.99899474 6.71364737,1.77783158 11.3187684,0.441273684 C11.7894526,0.304931579 11.6657895,0 11.0988263,0 C4.97558947,-8.22733694e-16 0.0127368421,4.9247 0.0127368421,10.9997105 C0.0127368421,17.0753 4.97558947,22 11.0988842,22 C11.6660789,22 11.6889474,21.6727789 11.1720053,21.5146684 Z"></path>
        <path d="M5.44992105,13.5754474 C5.12322105,10.4373211 6.65858947,4.15817368 14.1381842,3.94697368 C18.6970474,3.81821579 20.0686316,5.98486842 20.2376842,5.85159474 C20.4237579,5.70506316 18.5829368,1.66852632 13.2273263,1.66852632 C8.40336316,1.66852632 4.49338421,5.57914211 4.49338421,10.4030474 C4.49338421,11.5171158 4.70255789,12.5815684 5.08344737,13.5612632 C5.24381579,13.9730105 5.49114211,13.9744 5.44992105,13.5754474 Z"></path>
        <path d="M9.10927368,7.28142105 C11.3784,6.29240526 14.2313947,6.26473158 17.0337895,7.24274737 C18.9155421,7.89973684 20.0079,8.83705263 20.0965368,8.79982632 C20.2450368,8.73550526 19.0011105,6.76586842 16.7568211,5.91493158 C14.0390684,4.88359474 11.1095947,5.42311579 8.97715789,7.09511579 C8.74135263,7.27910526 8.83085789,7.40305789 9.10927368,7.28142105 Z"></path>
    </g>
</svg>
