<svg xmlns="http://www.w3.org/2000/svg" viewBox="0 0 24 24">
    <g stroke="none" stroke-width="1" fill-rule="evenodd" transform="translate(0.000000, 4.000000)">
        <path d="M4.71572207,12.8227395 C1.49280753,10.9201059 0,8.30769231 0,8.30769231 C0,8.30769231 3.69230769,1.84615385 12,1.84615385 C13.2041637,1.84615385 14.3113617,1.98190584 15.324405,2.21405651 L14.540217,2.99824458 C13.7512139,2.85235809 12.9047011,2.76923077 12,2.76923077 C4.61538462,2.76923077 1.10764723,8.30769231 1.10764723,8.30769231 C1.10764723,8.30769231 2.50590284,10.5154362 5.39531735,12.1431442 L4.71572207,12.8227395 L4.71572207,12.8227395 L4.71572207,12.8227395 L4.71572207,12.8227395 Z M8.67559477,14.4013283 C9.68863809,14.633479 10.7958362,14.7692309 12,14.7692308 C20.3076923,14.7692298 24,8.30769231 24,8.30769231 C24,8.30769231 22.5071924,5.69527902 19.2842777,3.79264542 L18.6046825,4.47224058 C21.4940971,6.09994855 22.8923527,8.30769231 22.8923527,8.30769231 C22.8923527,8.30769231 19.3846154,13.8461529 12,13.8461538 C11.0952988,13.8461539 10.248786,13.7630266 9.45978286,13.6171402 L8.67559477,14.4013283 L8.67559477,14.4013283 L8.67559477,14.4013283 L8.67559477,14.4013283 Z M15.5987567,7.47816637 C15.6599684,7.74481062 15.6923077,8.02247483 15.6923077,8.30769231 C15.6923077,10.3468976 14.0392053,12 12,12 C11.7147825,12 11.4371183,11.9676607 11.1704741,11.906449 L12,11.0769231 C12.7087079,11.0769232 13.4174159,10.8065601 13.9581418,10.2658341 C14.4988678,9.72510822 14.7692309,9.01640022 14.7692308,8.30769231 L15.5987567,7.47816637 L15.5987567,7.47816637 L15.5987567,7.47816637 L15.5987567,7.47816637 Z M12.8295259,4.7089356 C12.5628817,4.64772388 12.2852175,4.61538462 12,4.61538462 C9.96079468,4.61538462 8.30769231,6.26848698 8.30769231,8.30769231 C8.30769231,8.59290978 8.34003157,8.870574 8.40124329,9.13721825 L9.23076923,8.30769231 C9.23076914,7.5989844 9.50113218,6.8902764 10.0418582,6.34955049 C10.5825841,5.80882449 11.2912921,5.53846145 12,5.53846154 L12.8295259,4.7089356 L12.8295259,4.7089356 L12.8295259,4.7089356 L12.8295259,4.7089356 Z M19.3846154,0 L3.69230769,15.6923077 L4.61538462,16.6153846 L20.3076923,0.923076923 L19.3846154,0 L19.3846154,0 L19.3846154,0 Z"></path>
    </g>
</svg>
