<svg xmlns="http://www.w3.org/2000/svg" viewBox="0 0 24 24">
    <g stroke="none" stroke-width="1" fill-rule="evenodd" transform="translate(2.000000, 4.000000)">
        <path d="M0.911652174,6.69843478 L19.0883478,6.69843478 C19.1874783,6.69843478 19.2852174,6.65773913 19.3558261,6.58713043 C19.4267826,6.51617391 19.4674783,6.41843478 19.4674783,6.31930435 L19.4674783,0.64 C19.4674783,0.540869565 19.4267826,0.442782609 19.3558261,0.372173913 C19.2852174,0.301565217 19.1874783,0.260869565 19.0883478,0.260869565 L0.911652174,0.260869565 C0.812521739,0.260869565 0.714782609,0.301565217 0.644173913,0.372173913 C0.573217391,0.442782609 0.532521739,0.540869565 0.532521739,0.64 L0.532521739,6.32069565 C0.532521739,6.41982609 0.573217391,6.51756522 0.644173913,6.58817391 C0.714782609,6.65773913 0.812521739,6.69843478 0.911652174,6.69843478 Z M1.29078261,1.01773913 L18.7106087,1.01773913 L18.7106087,5.94017391 L1.29078261,5.94017391 L1.29078261,1.01773913 Z"></path>
        <path d="M16.2486957,2.34365217 C15.6208696,2.34365217 15.1126957,2.85182609 15.1126957,3.47965217 C15.1126957,4.10747826 15.6208696,4.61565217 16.2486957,4.61565217 C16.8765217,4.61565217 17.3843478,4.10747826 17.3843478,3.47965217 C17.3843478,2.85182609 16.8765217,2.34365217 16.2486957,2.34365217 Z M16.2486957,3.85878261 C16.0393043,3.85878261 15.8695652,3.68869565 15.8695652,3.47965217 C15.8695652,3.27026087 16.0393043,3.10052174 16.2486957,3.10052174 C16.4577391,3.10052174 16.6278261,3.27026087 16.6278261,3.47965217 C16.6264348,3.68869565 16.4563478,3.85878261 16.2486957,3.85878261 Z"></path>
        <path d="M0.911652174,16.165913 L19.0883478,16.165913 C19.1874783,16.165913 19.2852174,16.1248696 19.3558261,16.0542609 C19.4267826,15.9836522 19.4674783,15.885913 19.4674783,15.7867826 L19.4674783,10.106087 C19.4674783,10.0069565 19.4267826,9.90886957 19.3558261,9.83826087 C19.2852174,9.76765217 19.1874783,9.72695652 19.0883478,9.72695652 L0.911652174,9.72695652 C0.812521739,9.72695652 0.714782609,9.76765217 0.644173913,9.83826087 C0.573217391,9.90886957 0.532521739,10.0069565 0.532521739,10.106087 L0.532521739,15.7867826 C0.532521739,15.885913 0.573217391,15.9836522 0.644173913,16.0542609 C0.714782609,16.1248696 0.812521739,16.165913 0.911652174,16.165913 Z M1.29078261,10.4852174 L18.7106087,10.4852174 L18.7106087,15.4076522 L1.29078261,15.4076522 L1.29078261,10.4852174 Z"></path>
        <path d="M16.2486957,11.8111304 C15.6208696,11.8111304 15.1126957,12.3193043 15.1126957,12.9471304 C15.1126957,13.5746087 15.6208696,14.0827826 16.2486957,14.0827826 C16.8765217,14.0827826 17.3843478,13.5746087 17.3843478,12.9471304 C17.3843478,12.3193043 16.8765217,11.8111304 16.2486957,11.8111304 Z M16.2486957,13.325913 C16.0393043,13.325913 15.8695652,13.1561739 15.8695652,12.9471304 C15.8695652,12.7377391 16.0393043,12.568 16.2486957,12.568 C16.4577391,12.568 16.6278261,12.7377391 16.6278261,12.9471304 C16.6264348,13.1547826 16.4563478,13.325913 16.2486957,13.325913 Z"></path>
    </g>
</svg>
