<svg xmlns="http://www.w3.org/2000/svg" viewBox="0 0 24 24">
    <g>
        <g>
            <path d="M13.9,15.1L12.5,16V9.8c0-0.3-0.1-0.5-0.4-0.7c-0.2-0.1-0.5-0.1-0.8,0l-2,1.1c-0.4,0.2-0.5,0.7-0.3,1
                c0.2,0.4,0.7,0.5,1,0.3l0.9-0.5v6.2c0,0.3,0.1,0.5,0.4,0.7c0.1,0.1,0.2,0.1,0.4,0.1c0.1,0,0.3,0,0.4-0.1l2.6-1.5
                c0.4-0.2,0.5-0.7,0.3-1C14.8,15,14.3,14.9,13.9,15.1z"/>
            <circle cx="11.7" cy="7" r="1.1"/>
        </g>
        <path d="M12,0C5.4,0,0,5.4,0,12s5.4,12,12,12s12-5.4,12-12C24,5.4,18.6,0,12,0z M12,22.1C6.4,22.1,1.9,17.6,1.9,12
            C1.9,6.4,6.4,1.9,12,1.9S22.1,6.4,22.1,12S17.6,22.1,12,22.1z"/>
    </g>
</svg>
