<svg xmlns="http://www.w3.org/2000/svg" viewBox="0 0 24 24">
    <g stroke="none" stroke-width="1" fill-rule="evenodd">
        <path d="M10.4261053,0.180210526 L9.70989474,0.180210526 L9.70989474,3.08 C4.32084211,3.45052632 0.0471578947,7.94105263 0.0471578947,13.4223158 C0.0471578947,19.1452632 4.70357895,23.8012632 10.4261053,23.8012632 C15.9065263,23.8012632 20.3974737,19.5267368 20.7675789,14.1385263 L23.6673684,14.1385263 L23.6673684,13.4223158 C23.6669474,6.12042105 17.7271579,0.180210526 10.4261053,0.180210526 L10.4261053,0.180210526 Z M10.4261053,22.3692632 C5.49178947,22.3692632 1.47873684,18.3553684 1.47873684,13.4218947 C1.47873684,8.72926316 5.10947368,4.86905263 9.70989474,4.50315789 L9.70989474,14.1381053 L19.344,14.1381053 C18.9776842,18.7381053 15.1183158,22.3692632 10.4261053,22.3692632 L10.4261053,22.3692632 Z M20.8033684,12.7065263 L11.1414737,12.7065263 L11.1414737,3.04378947 L11.1414737,1.63326316 C17.0846316,1.99031579 21.8568421,6.76336842 22.2138947,12.7065263 L20.8033684,12.7065263 L20.8033684,12.7065263 Z"></path>
    </g>
</svg>
