<svg viewBox="0 0 24 24" version="1.1" xmlns="http://www.w3.org/2000/svg">
    <g stroke-width="1" transform="translate(0.000000, 4.000000)" fill-rule="nonzero">
        <path d="M12.128,10.48032 C11.97248,10.48032 8.07616,11.24704 5.76768,11.70368 C5.65504,11.72608 5.5744,11.82464 5.5744,11.9392 C5.5744,12.05376 5.65536,12.15232 5.76768,12.17472 C8.07616,12.63168 11.97248,13.3984 12.128,13.3984 C12.93248,13.3984 13.5872,12.744 13.5872,11.9392 C13.58688,11.13472 12.93248,10.48032 12.128,10.48032 Z"></path>
        <path d="M20.40096,20.06208 C20.4144,20.0512 20.4304,20.04608 20.44256,20.0336 C22.58976,17.82816 23.77248,14.9184 23.77248,11.84 C23.77248,5.3632 18.50336,0.09408 12.02656,0.09408 C12.01984,0.09408 12.01344,0.0944 12.00672,0.0944 C12,0.0944 11.9936,0.09408 11.9872,0.09408 C7.552,0.09408 3.68672,2.5792 1.70944,6.22976 C0.79904,7.89792 0.28064,9.8096 0.28064,11.84 C0.28064,14.94016 1.47776,17.86496 3.6512,20.0752 C3.71584,20.1408 3.79584,20.17536 3.87904,20.19616 C3.93248,20.21568 3.98816,20.22752 4.04448,20.22752 C4.16064,20.22752 4.27712,20.1856 4.36928,20.1008 L5.63296,18.93952 C5.82816,18.76 5.84096,18.45664 5.66144,18.26112 C5.48192,18.06624 5.17856,18.05344 4.98304,18.23264 L4.0464,19.09344 C2.32768,17.20608 1.34656,14.80608 1.25056,12.25408 L2.60096,12.25408 C2.86624,12.25408 3.08096,12.03936 3.08096,11.77408 C3.08096,11.5088 2.86624,11.29408 2.60096,11.29408 L1.27936,11.29408 C1.35296,9.6336 1.80512,8.06976 2.55296,6.68768 C3.02432,5.82432 3.61216,5.03392 4.29216,4.33344 L5.24352,5.2848 C5.33728,5.37856 5.46016,5.42528 5.58304,5.42528 C5.70592,5.42528 5.8288,5.37856 5.92256,5.2848 C6.11008,5.0976 6.11008,4.79328 5.92256,4.60608 L4.99136,3.67488 C6.75904,2.14944 9.02368,1.1856 11.50752,1.0672 L11.50752,2.38784 C11.50752,2.65312 11.72224,2.86784 11.98752,2.86784 C12.2528,2.86784 12.46752,2.65312 12.46752,2.38784 L12.46752,1.06624 C15.008,1.17888 17.32064,2.17984 19.10336,3.76544 L18.15264,4.71616 C17.96512,4.90336 17.96512,5.20768 18.15264,5.39488 C18.2464,5.48864 18.36928,5.53536 18.49216,5.53536 C18.61504,5.53536 18.73792,5.48864 18.83168,5.39488 L19.79136,4.4352 C21.49536,6.24576 22.57824,8.64576 22.69568,11.29408 L21.37408,11.29408 C21.1088,11.29408 20.89408,11.5088 20.89408,11.77408 C20.89408,12.03936 21.1088,12.25408 21.37408,12.25408 L22.80288,12.25408 C22.70784,14.78048 21.74368,17.16128 20.05472,19.04096 L19.11808,18.224 C18.91872,18.05024 18.61536,18.0704 18.44096,18.2704 C18.26688,18.47008 18.28736,18.77344 18.48736,18.94752 L19.76992,20.06624 C19.8608,20.1456 19.97312,20.18464 20.08512,20.18464 C20.15296,20.18464 20.2208,20.16992 20.28384,20.14144 C20.28736,20.14016 20.29024,20.1376 20.29344,20.136 C20.33152,20.11712 20.36736,20.09184 20.40096,20.06208 Z"></path>
    </g>
</svg>
