<svg viewBox="0 0 24 24" version="1.1" xmlns="http://www.w3.org/2000/svg">
    <g stroke-width="1" fill-rule="evenodd">
        <path d="M17.4977652,1.33066188 L16.751905,2.07652209 C15.3135338,1.38650294 13.7019032,1 12,1 C5.92486775,1 1,5.92486775 1,12 C1,18.0751322 5.92486775,23 12,23 C18.0751322,23 23,18.0751322 23,12 C23,9.08586905 21.8668139,6.43640789 20.0170533,4.46822805 L20.7244737,3.76080763 C22.7550525,5.91022126 24,8.8097241 24,12 C24,18.627417 18.627417,24 12,24 C5.372583,24 0,18.627417 0,12 C0,5.372583 5.372583,0 12,0 C13.9814347,0 15.8507044,0.480235287 17.4977652,1.33066188 Z M19.1972752,2.01643142 C19.2832899,1.93492835 19.4239268,1.91753323 19.5288169,1.9768226 C19.6516854,2.04660696 19.7034227,2.2200368 19.6377679,2.34633256 C17.6894494,6.25268401 15.7526705,10.2201119 13.7610684,14.0826286 C12.9336407,15.1416749 11.3911592,15.3682924 10.2860567,14.576806 C9.16889673,13.7754469 8.91294791,12.2343724 9.70866055,11.1282175 C12.4561742,8.3216741 15.9738282,5.27879903 19.1972752,2.01643142 Z M18.8121964,3.09884437 C16.5761943,5.10745013 12.9247008,8.84116166 10.3142723,11.1928053 C9.70170595,11.9526425 9.56289613,13.4083957 10.4280316,14.0786492 C11.293167,14.7489027 12.7237475,14.5517727 13.3380297,13.8208913 C13.3753477,13.7574665 17.0299416,6.0851868 18.8121964,3.09884437 Z M12,13 C11.4477153,13 11,12.5522847 11,12 C11,11.4477153 11.4477153,11 12,11 C12.5522847,11 13,11.4477153 13,12 C13,12.5522847 12.5522847,13 12,13 Z" fill-rule="nonzero"></path>
    </g>
</svg>
