<svg viewBox="0 0 24 24" version="1.1" xmlns="http://www.w3.org/2000/svg">
    <g stroke="none" stroke-width="1" fill-rule="evenodd" transform="translate(12.000000, 12.000000) scale(-1, 1) translate(-12.000000, -12.000000)">
        <path d="M12.2242623,9.95134426 C12.250623,10.0528525 12.3304918,10.1327213 12.432,10.155541 C12.4532459,10.1602623 12.4748852,10.1634098 12.4965246,10.1634098 C12.5779672,10.1634098 12.6562623,10.128 12.7101639,10.0650492 L18.891541,2.82806557 C18.9422951,2.76786885 18.9666885,2.68957377 18.9560656,2.61127869 C18.946623,2.53298361 18.9037377,2.4637377 18.8407869,2.41770492 C16.8334426,0.983606557 14.4680656,0.225836066 12,0.225836066 C11.3744262,0.225836066 10.7445246,0.275016393 10.128,0.37495082 C10.0512787,0.387147541 9.98203279,0.432 9.93914754,0.498098361 C9.89586885,0.564196721 9.88209836,0.644065574 9.90059016,0.720786885 L12.2242623,9.95134426 Z M12,0.786885246 C14.2469508,0.786885246 16.4061639,1.44786885 18.2628197,2.69862295 L12.634623,9.28721311 L10.5198689,0.883672131 C11.0100984,0.819147541 11.506623,0.786885246 12,0.786885246 Z"></path>
        <path d="M10.2051148,9.8344918 C10.2539016,9.86990164 10.3109508,9.88681967 10.368,9.88681967 L10.3739016,9.88681967 C10.5293115,9.88681967 10.6536393,9.76091803 10.6536393,9.60708197 C10.6536393,9.56419672 10.6430164,9.5224918 10.6260984,9.4855082 L8.50819672,1.06977049 C8.48970492,0.992655738 8.43895082,0.928131148 8.36970492,0.891540984 C8.30085246,0.854557377 8.21940984,0.848262295 8.14544262,0.87304918 C6.17665574,1.55527869 4.41560656,2.7572459 3.05390164,4.34636066 C3.00314754,4.40616393 2.97836066,4.48445902 2.98937705,4.56314754 C2.99842623,4.64144262 3.04013115,4.7122623 3.10465574,4.75672131 L10.2051148,9.8344918 Z M8.04118033,1.50609836 L9.91121311,8.93390164 L3.68222951,4.48013115 C4.88104918,3.15659016 6.37652459,2.13481967 8.04118033,1.50609836 Z"></path>
        <path d="M11.5113443,12.5516066 C11.4928525,12.5256393 11.4712131,12.504 11.4452459,12.4855082 L2.26859016,5.92170492 C2.2052459,5.87567213 2.12380328,5.8587541 2.04708197,5.87567213 C1.97036066,5.89259016 1.9042623,5.93862295 1.86413115,6.00629508 C0.793180328,7.81180328 0.225836066,9.88367213 0.225836066,12 C0.225836066,18.4918033 5.50819672,23.7741639 12,23.7741639 C14.0994098,23.7741639 16.1586885,23.2162623 17.955541,22.1586885 C18.0232131,22.1189508 18.0708197,22.0528525 18.0877377,21.9757377 C18.1046557,21.8990164 18.0877377,21.8191475 18.0413115,21.754623 L11.5113443,12.5516066 Z M12,23.2131148 C5.81704918,23.2131148 0.786885246,18.1829508 0.786885246,12 C0.786885246,10.0882623 1.27239344,8.21311475 2.19304918,6.55790164 L11.0824918,12.9143607 L17.4051148,21.8270164 C15.7593443,22.735082 13.8979672,23.2131148 12,23.2131148 Z"></path>
        <path d="M20.3944918,3.74557377 C20.3390164,3.69009836 20.2638689,3.65940984 20.184,3.66255738 C20.1057049,3.66531148 20.0317377,3.70072131 19.9809836,3.76091803 L13.0497049,11.8756721 C12.9666885,11.9740328 12.9603934,12.1152787 13.0343607,12.2199344 L19.2094426,20.9248525 C19.2542951,20.989377 19.3247213,21.0306885 19.4030164,21.0401311 C19.4156066,21.0413115 19.4262295,21.0428852 19.4384262,21.0428852 C19.5045246,21.0428852 19.5690492,21.0200656 19.6198033,20.9752131 C22.2601967,18.7298361 23.7741639,15.4579672 23.7741639,12 C23.7741639,8.89259016 22.5737705,5.96144262 20.3944918,3.74557377 Z M19.4876066,20.3468852 L13.6182295,12.0739672 L20.2068197,4.36013115 C22.1480656,6.44262295 23.2131148,9.14281967 23.2131148,12 C23.2131148,15.1904262 21.8592787,18.2152131 19.4876066,20.3468852 Z"></path>
    </g>
</svg>
