<svg xmlns="http://www.w3.org/2000/svg" viewBox="0 0 24 24">
    <g stroke-width="1" fill-rule="evenodd">
            <path d="M11.9999997,23.9999995 C5.38008572,23.9999995 0,18.6199137 0,11.9999997 C0,5.38008572 5.38008572,0 11.9999997,0 C18.6199137,0 23.9999995,5.38008572 23.9999995,11.9999997 C24.0014504,18.6199137 18.6199137,23.9999995 11.9999997,23.9999995 Z M11.9999997,1.63085662 C6.28692326,1.63085662 1.63230756,6.28547232 1.63230756,11.9985488 C1.63230756,17.7116253 6.28692326,22.3662409 11.9999997,22.3662409 C17.7130762,22.3662409 22.3676919,17.7116253 22.3676919,11.9985488 C22.3691428,6.28692326 17.7130762,1.63085662 11.9999997,1.63085662 Z M11.9999997,15 C11.1724797,15 10.4998397,14.32992 10.4998397,13.50016 L10.4998397,6 C10.4998397,5.17248 11.1724797,4.49984 11.9999997,4.49984 C12.8275197,4.49984 13.5001597,5.17248 13.5001597,6 L13.5001597,13.50016 C13.5001597,14.32992 12.8275197,15 11.9999997,15 Z M11.9999997,19.50016 C11.6099197,19.50016 11.2198397,19.33504 10.9350397,19.06496 C10.6649597,18.78016 10.4998397,18.39008 10.4998397,18 C10.4998397,17.5936 10.6649597,17.21888 10.9350397,16.93504 C11.5049597,16.38016 12.5100797,16.38016 13.0649597,16.93504 C13.3350397,17.21888 13.5001597,17.60992 13.5001597,18 C13.5001597,18.39008 13.3350397,18.78016 13.0649597,19.06496 C12.7801597,19.33504 12.3900797,19.50016 11.9999997,19.50016 Z" ></path>
    </g>
</svg>
