<svg viewBox="0 0 24 24" xmlns="http://www.w3.org/2000/svg">
    <!-- Generator: Sketch 51.1 (57501) - http://www.bohemiancoding.com/sketch -->
    <g stroke-width="1" fill-rule="evenodd" transform="translate(0.000000, 1.000000)">
        <path d="M6.859584,0.1024 C6.777408,0.1024 6.703104,0.11392 6.6944,0.128 C6.685696,0.14208 6.644352,0.1536 6.602496,0.1536 C6.558464,0.1536 6.520192,0.169792 6.51168,0.192 C6.502976,0.214592 6.463744,0.23072 6.416448,0.231232 C6.372224,0.23168 6.314112,0.248576 6.287424,0.2688 C6.260736,0.289024 6.229056,0.29952 6.217024,0.292096 C6.1952,0.342592 6.172352,0.35872 6.1376,0.359232 C6.10592,0.35968 6.058112,0.376576 6.031424,0.3968 C6.004736,0.417024 5.973056,0.42752 5.961024,0.420096 C5.9392,0.47168 5.916288,0.4864 5.877056,0.4864 C5.842624,0.4864 5.794112,0.512832 5.768256,0.545664 C5.708352,0.621696 5.59456,0.696384 5.572352,0.67424 C5.5552,0.7232 5.53792,0.7424 5.5168,0.7424 C5.4784,0.804288 5.46688,0.815104 5.4528,0.8064 C5.4272,0.852416 5.40992,0.8704 5.3888,0.8704 C5.3504,0.932288 5.33888,0.943104 5.3248,0.9344 C5.2992,0.980416 5.28192,0.9984 5.2608,0.9984 C5.2224,1.060288 5.21088,1.071104 5.1968,1.0624 C5.1712,1.108416 5.15392,1.1264 5.1328,1.1264 C5.0944,1.205248 5.04832,1.271488 4.992064,1.32448 C4.935744,1.377472 4.889664,1.44096 4.889664,1.4656 C4.84992,1.5104 4.8384,1.534656 4.8384,1.564288 C4.8384,1.593984 4.8096,1.640896 4.7744,1.668544 C4.735488,1.699136 4.7104,1.74496 4.7104,1.785344 C4.673472,1.814848 4.5824,1.99328 4.5824,2.054912 C4.54272,2.077696 4.5312,2.088512 4.5312,2.110464 C4.469376,2.1504 4.4544,2.174272 4.4544,2.211648 C4.4544,2.245376 4.43712,2.279552 4.416,2.28768 C4.39488,2.295744 4.3776,2.325824 4.3776,2.354368 C4.33792,2.4064 4.3264,2.4256 4.3264,2.449088 C4.289472,2.454848 4.1984,2.63328 4.1984,2.694912 C4.162944,2.72032 4.145792,2.741376 4.137408,2.774848 C4.12896,2.80832 4.093376,2.862976 4.058304,2.896256 C4.023168,2.929536 3.994304,2.97696 3.994048,3.0016 C3.95392,3.0464 3.9424,3.073984 3.9424,3.107648 C3.9424,3.141376 3.92512,3.175552 3.904,3.18368 C3.88288,3.191744 3.8656,3.221824 3.8656,3.250368 C3.82592,3.3024 3.8144,3.3216 3.8144,3.345088 C3.777472,3.350848 3.6864,3.52928 3.6864,3.590912 C3.64672,3.613696 3.6352,3.624512 3.6352,3.646464 C3.573376,3.6864 3.5584,3.710272 3.5584,3.747648 C3.5584,3.781376 3.54112,3.815552 3.52,3.82368 C3.49888,3.831744 3.4816,3.861824 3.4816,3.890368 C3.44192,3.9424 3.4304,3.966656 3.4304,3.996288 C3.4304,4.025984 3.4016,4.072896 3.3664,4.100544 C3.327488,4.131136 3.3024,4.17696 3.3024,4.217344 C3.265472,4.246848 3.1744,4.42528 3.1744,4.486912 C3.13472,4.509696 3.1232,4.520512 3.1232,4.542464 C3.061376,4.5824 3.0464,4.606272 3.0464,4.643648 C3.0464,4.677376 3.02912,4.711552 3.008,4.71968 C2.98688,4.727744 2.9696,4.757824 2.9696,4.786368 C2.92992,4.8384 2.9184,4.8576 2.9184,4.881088 C2.881472,4.886848 2.7904,5.06528 2.7904,5.126912 C2.754944,5.15232 2.737792,5.173376 2.729408,5.206848 C2.72096,5.24032 2.685376,5.294976 2.650304,5.328256 C2.615168,5.361536 2.586304,5.40896 2.586048,5.4336 C2.54592,5.4784 2.5344,5.505984 2.5344,5.539648 C2.5344,5.573376 2.51712,5.607552 2.496,5.61568 C2.47488,5.623744 2.4576,5.653824 2.4576,5.682368 C2.41792,5.7344 2.4064,5.75168 2.4064,5.7728 C2.35744,5.811584 2.2784,5.962944 2.2784,6.019584 C2.23872,6.045696 2.2272,6.056512 2.2272,6.078464 C2.165376,6.1184 2.1504,6.142272 2.1504,6.179648 C2.1504,6.213376 2.13312,6.247552 2.112,6.25568 C2.09088,6.263744 2.0736,6.293824 2.0736,6.322368 C2.03392,6.3744 2.0224,6.398656 2.0224,6.428288 C2.0224,6.457984 1.9936,6.504896 1.9584,6.532544 C1.919488,6.563136 1.8944,6.60896 1.8944,6.649344 C1.857472,6.678848 1.7664,6.85728 1.7664,6.918912 C1.72672,6.941696 1.7152,6.952512 1.7152,6.974464 C1.653376,7.0144 1.6384,7.038272 1.6384,7.075648 C1.6384,7.109376 1.62112,7.143552 1.6,7.15168 C1.57888,7.159744 1.5616,7.189824 1.5616,7.218368 C1.52192,7.2704 1.5104,7.2896 1.5104,7.313088 C1.473472,7.318848 1.3824,7.49728 1.3824,7.558912 C1.346944,7.58432 1.329792,7.605376 1.321408,7.638848 C1.31296,7.67232 1.277376,7.726976 1.242304,7.760256 C1.207168,7.793536 1.178304,7.84096 1.178048,7.8656 C1.13792,7.9104 1.1264,7.937984 1.1264,7.971648 C1.1264,8.005376 1.10912,8.039552 1.088,8.04768 C1.06688,8.055744 1.0496,8.085824 1.0496,8.114368 C1.00992,8.1664 0.9984,8.1856 0.9984,8.209088 C0.961472,8.214848 0.8704,8.39328 0.8704,8.454912 C0.83072,8.477696 0.8192,8.488512 0.8192,8.510464 C0.757376,8.5504 0.7424,8.574272 0.7424,8.611648 C0.7424,8.645376 0.72512,8.679552 0.704,8.68768 C0.68288,8.695744 0.6656,8.725824 0.6656,8.754368 C0.62592,8.8064 0.6144,8.830656 0.6144,8.860288 C0.6144,8.889984 0.5856,8.936896 0.5504,8.964544 C0.511488,8.995136 0.4864,9.04096 0.4864,9.081344 C0.44896,9.110336 0.3584,9.289984 0.3584,9.353664 C0.321472,9.366848 0.2304,9.54528 0.2304,9.606912 C0.191296,9.630016 0.172864,9.668928 0.163648,9.726784 C0.154496,9.783808 0.137024,9.8304 0.124736,9.8304 C0.112448,9.8304 0.1024,9.886784 0.1024,9.955648 C0.1024,10.043392 0.09088,10.085312 0.064,10.09568 C0.007424,10.117376 0.006656,11.38272 0.063168,11.457536 C0.08384,11.484864 0.10112,11.555456 0.101568,11.614464 C0.102016,11.673472 0.11392,11.728896 0.128,11.7376 C0.14208,11.746304 0.1536,11.780736 0.1536,11.81408 C0.1536,11.847424 0.17088,11.892032 0.192,11.913152 C0.21312,11.934272 0.2304,11.975424 0.2304,12.004544 C0.265792,12.0576 0.283264,12.0864 0.292096,12.1216 C0.300928,12.1568 0.319488,12.1856 0.333312,12.1856 C0.347072,12.1856 0.3584,12.2144 0.3584,12.2496 C0.3584,12.2848 0.36864,12.3136 0.381248,12.3136 C0.393792,12.3136 0.411264,12.3424 0.420096,12.3776 C0.428928,12.4128 0.447488,12.4416 0.461312,12.4416 C0.475072,12.4416 0.4864,12.4704 0.4864,12.5056 C0.4864,12.541824 0.501184,12.5696 0.520448,12.5696 C0.5392,12.5696 0.5696,12.60128 0.588032,12.64 C0.684096,12.841728 0.707456,12.883968 0.745664,12.925312 C0.768576,12.95008 0.795264,12.995392 0.804992,13.025984 C0.81472,13.056576 0.833408,13.0816 0.846528,13.0816 C0.859648,13.0816 0.8704,13.1104 0.8704,13.1456 C0.8704,13.1808 0.88192,13.2096 0.896,13.2096 C0.9216,13.262976 0.947584,13.308672 0.979392,13.345664 C1.032704,13.407744 1.060608,13.457088 1.174656,13.691328 C1.197376,13.738048 1.234752,13.796544 1.257664,13.821312 C1.280576,13.84608 1.307264,13.891392 1.316992,13.921984 C1.32672,13.952576 1.345408,13.9776 1.358528,13.9776 C1.371648,13.9776 1.3824,14.0064 1.3824,14.0416 C1.3824,14.0768 1.39552,14.1056 1.411584,14.1056 C1.446784,14.1056 1.50848,14.182464 1.509568,14.227712 C1.510016,14.245568 1.5392,14.305856 1.5744,14.3616 C1.6096,14.417344 1.6384,14.478848 1.6384,14.498304 C1.6384,14.51776 1.6672,14.555264 1.7024,14.581696 C1.737664,14.608192 1.7664,14.655744 1.7664,14.68768 C1.801792,14.7456 1.819264,14.7744 1.828096,14.8096 C1.836928,14.8448 1.855488,14.8736 1.869312,14.8736 C1.883072,14.8736 1.8944,14.9024 1.8944,14.9376 C1.8944,14.973824 1.909184,15.0016 1.928448,15.0016 C1.9472,15.0016 1.9776,15.03328 1.996032,15.072 C2.092096,15.273728 2.115456,15.315968 2.153664,15.357312 C2.176576,15.38208 2.203264,15.427392 2.212992,15.457984 C2.22272,15.488576 2.241408,15.5136 2.254528,15.5136 C2.267648,15.5136 2.2784,15.5424 2.2784,15.5776 C2.2784,15.6128 2.28992,15.6416 2.304,15.6416 C2.3296,15.694976 2.355584,15.740672 2.387392,15.777664 C2.419136,15.814656 2.465216,15.885568 2.489792,15.935232 C2.514304,15.98496 2.55456,16.066688 2.5792,16.116928 C2.60384,16.167168 2.642752,16.228544 2.665664,16.253312 C2.688576,16.27808 2.715264,16.323392 2.724992,16.353984 C2.73472,16.384576 2.753408,16.4096 2.766528,16.4096 C2.779648,16.4096 2.7904,16.4384 2.7904,16.4736 C2.7904,16.5088 2.80352,16.5376 2.819584,16.5376 C2.854784,16.5376 2.91648,16.614464 2.917568,16.659712 C2.918016,16.677568 2.9472,16.737856 2.9824,16.7936 C3.0176,16.849344 3.0464,16.910848 3.0464,16.930304 C3.0464,16.94976 3.0752,16.987264 3.1104,17.013696 C3.145664,17.040192 3.1744,17.087744 3.1744,17.11968 C3.209792,17.1776 3.227264,17.2064 3.236096,17.2416 C3.244928,17.2768 3.263488,17.3056 3.277312,17.3056 C3.291072,17.3056 3.3024,17.3344 3.3024,17.3696 C3.3024,17.405824 3.317184,17.4336 3.336448,17.4336 C3.3552,17.4336 3.3856,17.46528 3.404032,17.504 C3.500096,17.705728 3.523456,17.747968 3.561664,17.789312 C3.584576,17.81408 3.611264,17.859392 3.620992,17.889984 C3.63072,17.920576 3.649408,17.9456 3.662528,17.9456 C3.675648,17.9456 3.6864,17.9744 3.6864,18.0096 C3.6864,18.0448 3.69792,18.0736 3.712,18.0736 C3.7376,18.126976 3.763584,18.172672 3.795392,18.209664 C3.827136,18.246656 3.873216,18.317568 3.897792,18.367232 C3.922304,18.41696 3.96256,18.498688 3.9872,18.548928 C4.01184,18.599168 4.050752,18.660544 4.073664,18.685312 C4.096576,18.71008 4.123264,18.755392 4.132992,18.785984 C4.14272,18.816576 4.161408,18.8416 4.174528,18.8416 C4.187648,18.8416 4.1984,18.8704 4.1984,18.9056 C4.1984,18.9408 4.21152,18.9696 4.227584,18.9696 C4.262784,18.9696 4.32448,19.046464 4.325568,19.091712 C4.326016,19.109568 4.3552,19.169856 4.3904,19.2256 C4.4256,19.281344 4.4544,19.342848 4.4544,19.362304 C4.4544,19.38176 4.4832,19.419264 4.5184,19.445696 C4.553664,19.472192 4.5824,19.519744 4.5824,19.55168 C4.617792,19.6096 4.635264,19.6384 4.644096,19.6736 C4.652928,19.7088 4.671488,19.7376 4.685312,19.7376 C4.699072,19.7376 4.7104,19.7664 4.7104,19.8016 C4.7104,19.8368 4.72352,19.8656 4.739584,19.8656 C4.774208,19.8656 4.836416,19.942144 4.837568,19.986176 C4.838784,20.03136 4.974784,20.2496 5.001792,20.2496 C5.032448,20.2496 5.092544,20.33056 5.093568,20.373248 C5.094848,20.426624 5.572608,20.8896 5.626432,20.8896 C5.652864,20.8896 5.689984,20.9184 5.7088,20.9536 C5.727616,20.9888 5.764672,21.0176 5.791168,21.0176 C5.8176,21.0176 5.86592,21.0464 5.89856,21.0816 C5.9312,21.1168 5.981248,21.1456 6.009792,21.1456 C6.038336,21.1456 6.068352,21.16288 6.07648,21.184 C6.084544,21.20512 6.114624,21.2224 6.143168,21.2224 C6.1952,21.26208 6.222784,21.2736 6.256448,21.2736 C6.290176,21.2736 6.324352,21.29088 6.33248,21.312 C6.341056,21.334464 6.379456,21.3504 6.424768,21.3504 C6.467456,21.3504 6.5024,21.36192 6.5024,21.376 C6.5024,21.39008 6.547264,21.4016 6.602048,21.4016 C6.667008,21.4016 6.70688,21.414976 6.71648,21.44 C6.727104,21.467712 6.77056,21.4784 6.872768,21.4784 C6.950656,21.4784 7.0144,21.489984 7.0144,21.504128 C7.0144,21.521216 7.998144,21.527616 9.952,21.523328 C12.870336,21.516864 12.8896,21.51648 12.8896,21.4656 C12.838848,21.424576 12.8256,21.400768 12.8256,21.3632 C12.8256,21.328 12.814848,21.2992 12.801728,21.2992 C12.788544,21.2992 12.774144,21.26752 12.769728,21.2288 C12.76512,21.189184 12.747584,21.161216 12.7296,21.1648 C12.6976,21.11168 12.68608,21.0944 12.672,21.0944 C12.6464,21.013824 12.62912,20.983744 12.608,20.97568 C12.58688,20.967552 12.5696,20.933376 12.5696,20.899648 C12.5696,20.865984 12.55808,20.8384 12.544,20.8384 C12.5184,20.77024 12.490752,20.726656 12.456896,20.6976 C12.423104,20.668544 12.391168,20.61632 12.38592,20.581568 C12.380672,20.546816 12.36224,20.52128 12.345024,20.5248 C12.3136,20.446464 12.2848,20.3952 12.2496,20.36256 C12.2144,20.32992 12.1856,20.27968 12.1856,20.250816 C12.14592,20.1984 12.1344,20.174976 12.1344,20.146368 C12.1344,20.117824 12.11712,20.087744 12.096,20.07968 C12.07488,20.071552 12.0576,20.043264 12.0576,20.016768 C12.0576,19.959808 11.980864,19.862528 11.950656,19.881216 C11.9296,19.792704 11.918848,19.7632 11.905728,19.7632 C11.892544,19.7632 11.878144,19.73152 11.873728,19.6928 C11.86912,19.653184 11.851584,19.625216 11.8336,19.6288 C11.8016,19.550464 11.7728,19.4992 11.7376,19.46656 C11.7024,19.43392 11.6736,19.38368 11.6736,19.354816 C11.63392,19.3024 11.6224,19.278976 11.6224,19.250368 C11.6224,19.221824 11.60512,19.191744 11.584,19.18368 C11.56288,19.175552 11.5456,19.147264 11.5456,19.120768 C11.5456,19.063808 11.468864,18.966528 11.438656,18.985216 C11.4176,18.896704 11.406848,18.8672 11.393728,18.8672 C11.380544,18.8672 11.366144,18.83552 11.361728,18.7968 C11.35712,18.757184 11.339584,18.729216 11.3216,18.7328 C11.2896,18.67968 11.27808,18.6624 11.264,18.6624 C11.2384,18.581824 11.22112,18.551744 11.2,18.54368 C11.17888,18.535552 11.1616,18.501376 11.1616,18.467648 C11.1616,18.433984 11.15008,18.4064 11.136,18.4064 C11.1104,18.33824 11.082752,18.294656 11.048896,18.2656 C11.015104,18.236544 10.983168,18.18432 10.97792,18.149568 C10.972672,18.114816 10.95424,18.08928 10.937024,18.0928 C10.9056,18 10.894848,17.9712 10.881728,17.9712 C10.868544,17.9712 10.854144,17.93952 10.849728,17.9008 C10.84512,17.861184 10.827584,17.833216 10.8096,17.8368 C10.7776,17.78368 10.76608,17.7664 10.752,17.7664 C10.7264,17.685824 10.70912,17.655744 10.688,17.64768 C10.66688,17.639552 10.6496,17.605376 10.6496,17.571648 C10.6496,17.537984 10.63808,17.5104 10.624,17.5104 C10.5984,17.44224 10.570752,17.398656 10.536896,17.3696 C10.503104,17.340544 10.471168,17.28832 10.46592,17.253568 C10.460672,17.218816 10.44224,17.19328 10.425024,17.1968 C10.3936,17.118464 10.3648,17.0672 10.3296,17.03456 C10.2944,17.00192 10.2656,16.95168 10.2656,16.922816 C10.22592,16.8704 10.2144,16.846976 10.2144,16.818368 C10.2144,16.789824 10.19712,16.759744 10.176,16.75168 C10.15488,16.743552 10.1376,16.715264 10.1376,16.688768 C10.1376,16.631808 10.060864,16.534528 10.030656,16.553216 C10.0096,16.464704 9.998848,16.4352 9.985728,16.4352 C9.972544,16.4352 9.958144,16.40352 9.953728,16.3648 C9.94912,16.325184 9.931584,16.297216 9.9136,16.3008 C9.8816,16.222464 9.8528,16.1712 9.8176,16.13856 C9.7824,16.10592 9.7536,16.05568 9.7536,16.026816 C9.71392,15.9744 9.7024,15.950976 9.7024,15.922368 C9.7024,15.893824 9.68512,15.863744 9.664,15.85568 C9.64288,15.847552 9.6256,15.819264 9.6256,15.792768 C9.6256,15.735808 9.548864,15.638528 9.518656,15.657216 C9.4976,15.568704 9.486848,15.5392 9.473728,15.5392 C9.460544,15.5392 9.446144,15.50752 9.441728,15.4688 C9.43712,15.429184 9.419584,15.401216 9.4016,15.4048 C9.3696,15.35168 9.35808,15.3344 9.344,15.3344 C9.3184,15.253824 9.30112,15.223744 9.28,15.21568 C9.25888,15.207552 9.2416,15.173376 9.2416,15.139648 C9.2416,15.105984 9.23008,15.0784 9.216,15.0784 C9.1904,15.01024 9.162752,14.966656 9.128896,14.9376 C9.095104,14.908544 9.063168,14.85632 9.05792,14.821568 C9.052672,14.786816 9.03424,14.76128 9.017024,14.7648 C8.9856,14.672 8.97408,14.6432 8.96,14.6432 C8.94592,14.6432 8.9344,14.6144 8.9344,14.5792 C8.9344,14.539392 8.919872,14.5152 8.896,14.5152 C8.8576,14.45568 8.84608,14.4384 8.832,14.4384 C8.8064,14.357824 8.78912,14.327744 8.768,14.31968 C8.74688,14.311552 8.7296,14.277376 8.7296,14.243648 C8.7296,14.209984 8.71808,14.1824 8.704,14.1824 C8.6784,14.11424 8.650752,14.070656 8.616896,14.0416 C8.583104,14.012544 8.551168,13.96032 8.54592,13.925568 C8.540672,13.890816 8.52224,13.86528 8.505024,13.8688 C8.4736,13.790464 8.4448,13.7392 8.4096,13.70656 C8.3744,13.67392 8.3456,13.62368 8.3456,13.594816 C8.30592,13.5424 8.2944,13.518976 8.2944,13.490368 C8.2944,13.461824 8.27712,13.431744 8.256,13.42368 C8.23488,13.415552 8.2176,13.387264 8.2176,13.360768 C8.2176,13.303808 8.140864,13.206528 8.110656,13.225216 C8.0896,13.136704 8.078848,13.1072 8.065728,13.1072 C8.052544,13.1072 8.038144,13.07552 8.033728,13.0368 C8.02912,12.997184 8.011584,12.969216 7.9936,12.9728 C7.9616,12.894464 7.9328,12.8432 7.8976,12.81056 C7.8624,12.77792 7.8336,12.72768 7.8336,12.698816 C7.79392,12.6464 7.7824,12.622976 7.7824,12.594368 C7.7824,12.565824 7.76512,12.535744 7.744,12.52768 C7.72288,12.519552 7.7056,12.491264 7.7056,12.464768 C7.7056,12.407808 7.628864,12.310528 7.598656,12.329216 C7.5776,12.240704 7.566848,12.2112 7.553728,12.2112 C7.540544,12.2112 7.526144,12.17952 7.521728,12.1408 C7.51712,12.101184 7.499584,12.073216 7.4816,12.0768 C7.4496,12.02368 7.43808,12.0064 7.424,12.0064 C7.3984,11.925824 7.38112,11.895744 7.36,11.88768 C7.33888,11.879552 7.3216,11.845376 7.3216,11.811648 C7.3216,11.777984 7.31008,11.7504 7.296,11.7504 C7.2704,11.68224 7.242752,11.638656 7.208896,11.6096 C7.175104,11.580544 7.143168,11.52832 7.13792,11.493568 C7.132672,11.458816 7.11424,11.43328 7.097024,11.4368 C7.0656,11.344 7.054848,11.3152 7.041728,11.3152 C7.028544,11.3152 7.014144,11.28352 7.009728,11.2448 C7.00512,11.205184 6.987584,11.177216 6.9696,11.1808 C6.9376,11.12768 6.92608,11.1104 6.912,11.1104 C6.8864,11.029824 6.86912,10.999744 6.848,10.99168 C6.82688,10.983552 6.8096,10.949376 6.8096,10.915648 C6.8096,10.881984 6.79808,10.8544 6.784,10.8544 C6.750656,10.8544 6.750656,10.734208 6.784,10.7136 C6.79808,10.704896 6.8096,10.676672 6.8096,10.650816 C6.8096,10.625024 6.82688,10.597248 6.848,10.58912 C6.86912,10.581056 6.8864,10.552192 6.8864,10.52512 C6.8864,10.497984 6.915008,10.44864 6.949952,10.415488 C6.984896,10.382336 7.013696,10.33504 7.013952,10.3104 C7.05408,10.2656 7.0656,10.238016 7.0656,10.204352 C7.0656,10.170624 7.08288,10.136448 7.104,10.12832 C7.12512,10.120256 7.1424,10.092928 7.1424,10.067648 C7.1424,10.042432 7.1712,10.000128 7.2064,9.973696 C7.2416,9.947264 7.2704,9.904896 7.2704,9.879552 C7.2704,9.854144 7.28192,9.826304 7.296,9.8176 C7.31008,9.808896 7.3216,9.780672 7.3216,9.754816 C7.3216,9.729024 7.33888,9.701248 7.36,9.69312 C7.38112,9.685056 7.3984,9.656192 7.3984,9.62912 C7.3984,9.601984 7.427008,9.55264 7.461952,9.519488 C7.496896,9.486336 7.525696,9.43904 7.525952,9.4144 C7.56608,9.3696 7.5776,9.345344 7.5776,9.315712 C7.5776,9.286016 7.6064,9.239104 7.6416,9.211456 C7.6768,9.183744 7.7056,9.140096 7.7056,9.114496 C7.7056,9.088832 7.72288,9.061248 7.744,9.05312 C7.76512,9.045056 7.7824,9.01568 7.7824,8.987904 C7.7824,8.960128 7.79392,8.930304 7.808,8.9216 C7.8336,8.84672 7.8624,8.80288 7.8976,8.77024 C7.9328,8.7376 7.9616,8.687552 7.9616,8.659008 C7.9616,8.630464 7.97888,8.600448 8,8.59232 C8.02112,8.584256 8.0384,8.554176 8.0384,8.525632 C8.07808,8.4736 8.0896,8.449344 8.0896,8.419712 C8.0896,8.390016 8.1184,8.343104 8.1536,8.315456 C8.1888,8.287744 8.2176,8.244096 8.2176,8.218496 C8.2176,8.192832 8.23488,8.165248 8.256,8.15712 C8.27712,8.149056 8.2944,8.120192 8.2944,8.09312 C8.2944,8.065984 8.323008,8.01664 8.357952,7.983488 C8.392896,7.950336 8.421696,7.90304 8.421952,7.8784 C8.46208,7.8336 8.4736,7.806016 8.4736,7.772352 C8.4736,7.738624 8.49088,7.704448 8.512,7.69632 C8.53312,7.688256 8.5504,7.660928 8.5504,7.635648 C8.5504,7.610432 8.5792,7.568128 8.6144,7.541696 C8.6496,7.515264 8.6784,7.472896 8.6784,7.447552 C8.6784,7.422144 8.68992,7.394304 8.704,7.3856 C8.71808,7.376896 8.7296,7.348672 8.7296,7.322816 C8.7296,7.297024 8.74688,7.269248 8.768,7.26112 C8.78912,7.253056 8.8064,7.224192 8.8064,7.19712 C8.8064,7.169984 8.835008,7.12064 8.869952,7.087488 C8.904896,7.054336 8.933696,7.00704 8.933952,6.9824 C8.97408,6.9376 8.9856,6.913344 8.9856,6.883712 C8.9856,6.854016 9.0144,6.807104 9.0496,6.779456 C9.0848,6.751744 9.1136,6.708096 9.1136,6.682496 C9.1136,6.656832 9.13088,6.629248 9.152,6.62112 C9.17312,6.613056 9.1904,6.58368 9.1904,6.555904 C9.1904,6.528128 9.20192,6.498304 9.216,6.4896 C9.2416,6.417984 9.275776,6.366784 9.317568,6.324096 L9.393472,6.2464 L11.979968,6.2464 C13.687168,6.2464 14.5664,6.255104 14.5664,6.272 C14.6192,6.2976 14.6496,6.32928 14.668032,6.368 C14.764096,6.569728 14.787456,6.611968 14.825664,6.653312 C14.848576,6.67808 14.875264,6.723392 14.884992,6.753984 C14.89472,6.784576 14.913408,6.8096 14.926528,6.8096 C14.939648,6.8096 14.9504,6.8384 14.9504,6.8736 C14.9504,6.9088 14.96192,6.9376 14.976,6.9376 C15.0016,6.990976 15.027584,7.036672 15.059392,7.073664 C15.091136,7.110656 15.13568,7.178688 15.158336,7.224832 C15.180992,7.27104 15.221248,7.352768 15.247744,7.406528 C15.274304,7.460288 15.314752,7.524544 15.337664,7.549312 C15.360576,7.57408 15.387264,7.619392 15.396992,7.649984 C15.40672,7.680576 15.425408,7.7056 15.438528,7.7056 C15.451648,7.7056 15.4624,7.7344 15.4624,7.7696 C15.4624,7.8048 15.47552,7.8336 15.491584,7.8336 C15.526784,7.8336 15.58848,7.910464 15.589568,7.955712 C15.590016,7.973568 15.6192,8.033856 15.6544,8.0896 C15.6896,8.145344 15.7184,8.206848 15.7184,8.226304 C15.7184,8.24576 15.7472,8.283264 15.7824,8.309696 C15.817664,8.336192 15.8464,8.383744 15.8464,8.41568 C15.881792,8.4736 15.899264,8.5024 15.908096,8.5376 C15.916928,8.5728 15.935488,8.6016 15.949312,8.6016 C15.963072,8.6016 15.9744,8.6304 15.9744,8.6656 C15.9744,8.701824 15.989184,8.7296 16.008448,8.7296 C16.0272,8.7296 16.0576,8.76128 16.076032,8.8 C16.172096,9.001728 16.195456,9.043968 16.233664,9.085312 C16.256576,9.11008 16.283264,9.155392 16.292992,9.185984 C16.30272,9.216576 16.321408,9.2416 16.334528,9.2416 C16.347648,9.2416 16.3584,9.2704 16.3584,9.3056 C16.3584,9.3408 16.36992,9.3696 16.384,9.3696 C16.4096,9.426304 16.425088,9.45824 16.443968,9.47712 C16.500416,9.533568 16.6144,9.724288 16.6144,9.762304 C16.6144,9.78176 16.6432,9.819264 16.6784,9.845696 C16.713664,9.872192 16.7424,9.919744 16.7424,9.95168 C16.777792,10.0096 16.795264,10.0384 16.804096,10.0736 C16.812928,10.1088 16.831488,10.1376 16.845312,10.1376 C16.859072,10.1376 16.8704,10.1664 16.8704,10.2016 C16.8704,10.237824 16.885184,10.2656 16.904448,10.2656 C16.9232,10.2656 16.953408,10.29728 16.971584,10.336 C16.98976,10.37472 17.022528,10.44096 17.044416,10.4832 C17.066304,10.52544 17.093696,10.58016 17.105344,10.6048 C17.116928,10.62944 17.13792,10.672512 17.152,10.70048 C17.16608,10.728448 17.1776,10.774528 17.1776,10.80288 C17.13792,10.8544 17.1264,10.881984 17.1264,10.915648 C17.1264,10.949376 17.10912,10.983552 17.088,10.99168 C17.06688,10.999744 17.0496,11.029824 17.0496,11.058368 C17.00992,11.1104 16.9984,11.1296 16.9984,11.153088 C16.961472,11.158848 16.8704,11.33728 16.8704,11.398912 C16.83072,11.421696 16.8192,11.432512 16.8192,11.454464 C16.757376,11.4944 16.7424,11.518272 16.7424,11.555648 C16.7424,11.589376 16.72512,11.623552 16.704,11.63168 C16.68288,11.639744 16.6656,11.669824 16.6656,11.698368 C16.62592,11.7504 16.6144,11.7696 16.6144,11.793088 C16.577472,11.798848 16.4864,11.97728 16.4864,12.038912 C16.44672,12.061696 16.4352,12.072512 16.4352,12.094464 C16.373376,12.1344 16.3584,12.158272 16.3584,12.195648 C16.3584,12.229376 16.34112,12.263552 16.32,12.27168 C16.29888,12.279744 16.2816,12.309824 16.2816,12.338368 C16.24192,12.3904 16.2304,12.4096 16.2304,12.433088 C16.193472,12.438848 16.1024,12.61728 16.1024,12.678912 C16.06272,12.701696 16.0512,12.712512 16.0512,12.734464 C15.989376,12.7744 15.9744,12.798272 15.9744,12.835648 C15.9744,12.869376 15.95712,12.903552 15.936,12.91168 C15.91488,12.919744 15.8976,12.949824 15.8976,12.978368 C15.85792,13.0304 15.8464,13.0496 15.8464,13.073088 C15.809472,13.078848 15.7184,13.25728 15.7184,13.318912 C15.682944,13.34432 15.665792,13.365376 15.657408,13.398848 C15.64896,13.43232 15.613376,13.486976 15.578304,13.520256 C15.543168,13.553536 15.514304,13.60096 15.514048,13.6256 C15.47392,13.6704 15.4624,13.694656 15.4624,13.724288 C15.4624,13.753984 15.4336,13.800896 15.3984,13.828544 C15.360768,13.858176 15.3344,13.905152 15.3344,13.942592 C15.298944,13.98432 15.281792,14.005376 15.273408,14.038848 C15.26496,14.07232 15.229376,14.126976 15.194304,14.160256 C15.159168,14.193536 15.130304,14.24096 15.130048,14.2656 C15.08992,14.3104 15.0784,14.334656 15.0784,14.364288 C15.0784,14.393984 15.0496,14.440896 15.0144,14.468544 C14.976768,14.498176 14.9504,14.545152 14.9504,14.582592 C14.914944,14.62432 14.897792,14.645376 14.889408,14.678848 C14.88096,14.71232 14.845376,14.766976 14.810304,14.800256 C14.775168,14.833536 14.746304,14.88096 14.746048,14.9056 C14.70592,14.9504 14.6944,14.974656 14.6944,15.004288 C14.6944,15.033984 14.6656,15.080896 14.6304,15.108544 C14.591488,15.139136 14.5664,15.18496 14.5664,15.225344 C14.529472,15.254848 14.4384,15.43328 14.4384,15.494912 C14.381184,15.50688 14.360832,15.617856 14.38944,15.67136 C14.424704,15.737344 19.95904,15.74592 19.98432,15.68 C19.99584,15.650112 20.0464,15.6416 20.212416,15.6416 C20.329792,15.6416 20.432896,15.63008 20.4416,15.616 C20.450304,15.60192 20.491648,15.5904 20.533504,15.5904 C20.577536,15.5904 20.615808,15.574208 20.62432,15.552 C20.633344,15.528512 20.672192,15.5136 20.724416,15.5136 C20.771392,15.5136 20.816896,15.50208 20.8256,15.488 C20.834304,15.47392 20.875648,15.4624 20.917504,15.4624 C20.961536,15.4624 20.999808,15.446208 21.00832,15.424 C21.016448,15.40288 21.050624,15.3856 21.084352,15.3856 C21.1456,15.34592 21.16576,15.334208 21.1904,15.333952 C21.21504,15.333696 21.262336,15.304896 21.295488,15.269952 C21.32864,15.235008 21.376,15.2064 21.400704,15.2064 C21.425408,15.2064 21.467264,15.1776 21.493696,15.1424 C21.520128,15.1072 21.55776,15.0784 21.57728,15.0784 C21.622016,15.0784 22.168512,14.539712 22.169152,14.494976 C22.169408,14.4768 22.21568,14.418112 22.272,14.364544 C22.32832,14.310976 22.3744,14.248768 22.3744,14.226304 C22.41408,14.160896 22.4256,14.13664 22.4256,14.115648 C22.4256,14.09472 22.4544,14.05088 22.4896,14.01824 C22.5248,13.9856 22.5536,13.93888 22.5536,13.914368 C22.5536,13.889856 22.5824,13.847104 22.6176,13.819456 C22.6528,13.791744 22.6816,13.748096 22.6816,13.722496 C22.6816,13.696832 22.69888,13.669248 22.72,13.66112 C22.74112,13.653056 22.7584,13.624192 22.7584,13.59712 C22.7584,13.569984 22.787008,13.52064 22.821952,13.487488 C22.856896,13.454336 22.885696,13.409792 22.885952,13.38848 C22.886208,13.367168 22.9152,13.328128 22.9504,13.301696 C22.9856,13.275264 23.0144,13.232896 23.0144,13.207552 C23.0144,13.182144 23.02592,13.154304 23.04,13.1456 C23.0656,13.07072 23.0944,13.02688 23.1296,12.99424 C23.1648,12.9616 23.1936,12.91488 23.1936,12.890368 C23.1936,12.865856 23.2224,12.823104 23.2576,12.795456 C23.2928,12.767744 23.3216,12.724096 23.3216,12.698496 C23.3216,12.672832 23.33888,12.645248 23.36,12.63712 C23.38112,12.629056 23.3984,12.600192 23.3984,12.57312 C23.3984,12.545984 23.427008,12.49664 23.461952,12.463488 C23.496896,12.430336 23.525696,12.38304 23.525952,12.3584 C23.56608,12.3136 23.5776,12.286016 23.5776,12.252352 C23.5776,12.218624 23.59488,12.184448 23.616,12.17632 C23.63712,12.168256 23.6544,12.138176 23.6544,12.109632 C23.69408,12.0576 23.7056,12.030016 23.7056,11.996352 C23.7056,11.962624 23.72288,11.928448 23.744,11.92032 C23.766208,11.911808 23.7824,11.873536 23.7824,11.829504 C23.7824,11.787648 23.79392,11.746304 23.808,11.7376 C23.82208,11.728896 23.8336,11.671872 23.8336,11.610816 C23.8336,11.535808 23.846016,11.495104 23.872,11.48512 C23.9024,11.473472 23.9104,11.41984 23.9104,11.227904 C23.9104,11.093888 23.921856,10.978368 23.936,10.9696 C23.969728,10.948736 23.969728,10.5472 23.936,10.5472 C23.92096,10.5472 23.9104,10.457344 23.9104,10.328768 C23.9104,10.158272 23.901952,10.107136 23.872,10.09568 C23.84512,10.085312 23.8336,10.043392 23.8336,9.955648 C23.8336,9.886784 23.822784,9.8304 23.809536,9.8304 C23.796288,9.8304 23.781888,9.7872 23.777536,9.7344 C23.772608,9.674368 23.757632,9.640768 23.7376,9.6448 C23.7056,9.552 23.694848,9.5232 23.681728,9.5232 C23.668544,9.5232 23.654144,9.49152 23.649728,9.4528 C23.64512,9.413184 23.627584,9.385216 23.6096,9.3888 C23.5776,9.296 23.566848,9.2672 23.553728,9.2672 C23.540544,9.2672 23.526144,9.23552 23.521728,9.1968 C23.51712,9.157184 23.499584,9.129216 23.4816,9.1328 C23.4496,9.054464 23.4208,9.0032 23.3856,8.97056 C23.3504,8.93792 23.3216,8.88768 23.3216,8.858816 C23.28192,8.8064 23.2704,8.782976 23.2704,8.754368 C23.2704,8.725824 23.25312,8.695744 23.232,8.68768 C23.21088,8.679552 23.1936,8.651264 23.1936,8.624768 C23.1936,8.567808 23.116864,8.470528 23.086656,8.489216 C23.0656,8.400704 23.054848,8.3712 23.041728,8.3712 C23.028544,8.3712 23.014144,8.33952 23.009728,8.3008 C23.00512,8.261184 22.987584,8.233216 22.9696,8.2368 C22.9376,8.158464 22.9088,8.1072 22.8736,8.07456 C22.8384,8.04192 22.8096,7.99168 22.8096,7.962816 C22.76992,7.9104 22.7584,7.890624 22.7584,7.866432 C22.7584,7.84224 22.730752,7.798656 22.696896,7.7696 C22.663104,7.740544 22.631168,7.68832 22.62592,7.653568 C22.620672,7.618816 22.60224,7.59328 22.585024,7.5968 C22.5536,7.504 22.542848,7.4752 22.529728,7.4752 C22.516544,7.4752 22.502144,7.44352 22.497728,7.4048 C22.49312,7.365184 22.475584,7.337216 22.4576,7.3408 C22.4256,7.28768 22.41408,7.2704 22.4,7.2704 C22.3744,7.189824 22.35712,7.159744 22.336,7.15168 C22.31488,7.143552 22.2976,7.109376 22.2976,7.075648 C22.2976,7.041984 22.28608,7.0144 22.272,7.0144 C22.2464,6.94624 22.218752,6.902656 22.184896,6.8736 C22.151104,6.844544 22.119168,6.79232 22.11392,6.757568 C22.108672,6.722816 22.09024,6.69728 22.073024,6.7008 C22.0416,6.622464 22.0128,6.5712 21.9776,6.53856 C21.9424,6.50592 21.9136,6.45568 21.9136,6.426816 C21.87392,6.3744 21.8624,6.350976 21.8624,6.322368 C21.8624,6.293824 21.84512,6.263744 21.824,6.25568 C21.80288,6.247552 21.7856,6.219264 21.7856,6.192768 C21.7856,6.135808 21.708864,6.038528 21.678656,6.057216 C21.6576,5.968704 21.646848,5.9392 21.633728,5.9392 C21.620544,5.9392 21.606144,5.90752 21.601728,5.8688 C21.59712,5.829184 21.579584,5.801216 21.5616,5.8048 C21.5296,5.726464 21.5008,5.6752 21.4656,5.64256 C21.4304,5.60992 21.4016,5.55968 21.4016,5.530816 C21.36192,5.4784 21.3504,5.454976 21.3504,5.426368 C21.3504,5.397824 21.33312,5.367744 21.312,5.35968 C21.29088,5.351552 21.2736,5.323264 21.2736,5.296768 C21.2736,5.239808 21.196864,5.142528 21.166656,5.161216 C21.1456,5.072704 21.134848,5.0432 21.121728,5.0432 C21.108544,5.0432 21.094144,5.01152 21.089728,4.9728 C21.08512,4.933184 21.067584,4.905216 21.0496,4.9088 C21.0176,4.85568 21.00608,4.8384 20.992,4.8384 C20.9664,4.757824 20.94912,4.727744 20.928,4.71968 C20.90688,4.711552 20.8896,4.677376 20.8896,4.643648 C20.8896,4.609984 20.87808,4.5824 20.864,4.5824 C20.8384,4.51424 20.810752,4.470656 20.776896,4.4416 C20.743104,4.412544 20.711168,4.36032 20.70592,4.325568 C20.700672,4.290816 20.68224,4.26528 20.665024,4.2688 C20.6336,4.176 20.622848,4.1472 20.609728,4.1472 C20.596544,4.1472 20.582144,4.11552 20.577728,4.0768 C20.57312,4.037184 20.555584,4.009216 20.5376,4.0128 C20.5056,3.95968 20.49408,3.9424 20.48,3.9424 C20.4544,3.861824 20.43712,3.831744 20.416,3.82368 C20.39488,3.815552 20.3776,3.787264 20.3776,3.760768 C20.3776,3.703808 20.300864,3.606528 20.270656,3.625216 C20.2496,3.536704 20.238848,3.5072 20.225728,3.5072 C20.212544,3.5072 20.198144,3.47552 20.193728,3.4368 C20.18912,3.397184 20.171584,3.369216 20.1536,3.3728 C20.1216,3.294464 20.0928,3.2432 20.0576,3.21056 C20.0224,3.17792 19.9936,3.12768 19.9936,3.098816 C19.95392,3.0464 19.9424,3.022976 19.9424,2.994368 C19.9424,2.965824 19.92512,2.935744 19.904,2.92768 C19.88288,2.919552 19.8656,2.891264 19.8656,2.864768 C19.8656,2.807808 19.788864,2.710528 19.758656,2.729216 C19.7376,2.640704 19.726848,2.6112 19.713728,2.6112 C19.700544,2.6112 19.686144,2.57952 19.681728,2.5408 C19.67712,2.501184 19.659584,2.473216 19.6416,2.4768 C19.6096,2.42368 19.59808,2.4064 19.584,2.4064 C19.5584,2.325824 19.54112,2.295744 19.52,2.28768 C19.49888,2.279552 19.4816,2.245376 19.4816,2.211648 C19.4816,2.177984 19.47008,2.1504 19.456,2.1504 C19.4304,2.08224 19.402752,2.038656 19.368896,2.0096 C19.335104,1.980544 19.303168,1.92832 19.29792,1.893568 C19.292672,1.858816 19.27424,1.83328 19.257024,1.8368 C19.2256,1.744 19.214848,1.7152 19.201728,1.7152 C19.188544,1.7152 19.174144,1.68352 19.169728,1.6448 C19.16512,1.605184 19.147584,1.577216 19.1296,1.5808 C19.0976,1.52768 19.08608,1.5104 19.072,1.5104 C19.0464,1.44224 19.018752,1.398656 18.984896,1.3696 C18.951104,1.340544 18.919168,1.28832 18.91392,1.253568 C18.908672,1.218816 18.89024,1.19328 18.873024,1.1968 C18.8416,1.13856 18.758144,1.050688 18.734656,1.065216 C18.7136,1.012608 18.649152,0.9472 18.613056,0.9472 C18.5856,0.88256 18.502144,0.794688 18.478656,0.809216 C18.4576,0.761472 18.384064,0.680256 18.350656,0.6752 C18.293888,0.667072 18.2432,0.62528 18.19392,0.576 C18.14464,0.52672 18.087104,0.4864 18.066112,0.4864 C18.004096,0.424384 17.987264,0.41248 17.975168,0.419968 C17.963072,0.427456 17.931264,0.417024 17.904576,0.3968 C17.877888,0.376576 17.837056,0.35968 17.813952,0.359232 C17.790784,0.358784 17.764992,0.340416 17.756544,0.3184 C17.707072,0.299456 17.675264,0.289024 17.648576,0.2688 C17.621888,0.248576 17.567488,0.23168 17.527744,0.231232 C17.488064,0.230784 17.438272,0.21312 17.417152,0.192 C17.396032,0.17088 17.351424,0.1536 17.31808,0.1536 C17.284736,0.1536 17.250304,0.14208 17.2416,0.128 C17.232896,0.11392 17.175872,0.1024 17.114816,0.1024 C17.040128,0.1024 16.999104,0.08992 16.989248,0.064256 C16.966848,0.005952 7.04608,0.005568 7.02368,0.063872 C7.012864,0.092096 6.96896,0.1024 6.859584,0.1024 Z"></path>
    </g>
</svg>
