<svg xmlns="http://www.w3.org/2000/svg" viewBox="0 0 24 24">
    <g stroke-width="1" fill-rule="evenodd" transform="translate(0.000000, -1.000000)">
        <path d="M12,0.955789474 C5.4,0.955789474 0,6.27621053 0,12.7789474 C0,19.2816842 5.4,24.6021053 12,24.6021053 C18.6,24.6021053 24,19.2816842 24,12.7789474 C24,6.27621053 18.6,0.955789474 12,0.955789474 L12,0.955789474 Z M12,22.7301053 C6.4,22.7301053 1.9,18.2964211 1.9,12.7789474 C1.9,7.26147368 6.4,2.82778947 12,2.82778947 C17.6,2.82778947 22.1,7.26147368 22.1,12.7789474 C22.1,18.2964211 17.6,22.7301053 12,22.7301053 Z M11.4267578,15.1530551 C11.4313151,14.4922445 11.4882807,14.0342413 11.5976563,13.7790317 C11.7070318,13.5238221 11.9941383,13.1865858 12.4589844,12.7673129 C12.9101585,12.2341071 13.2314444,11.823955 13.4228516,11.5368442 C13.6142588,11.2497334 13.7099609,10.9033826 13.7099609,10.4977817 C13.7099609,10.0147063 13.5812187,9.64329077 13.3237305,9.38352385 C13.0662422,9.12375692 12.6982446,8.99387541 12.2197266,8.99387541 C11.8050109,8.99387541 11.4518244,9.10666725 11.1601563,9.33225432 C10.8684881,9.55784138 10.7226563,9.88938104 10.7226563,10.3268832 L9.4375,10.3268832 L9.41699219,10.2858676 C9.40332024,9.55213997 9.66194396,8.96425523 10.1928711,8.52219572 C10.7237982,8.08013622 11.39941,7.85910979 12.2197266,7.85910979 C13.1175175,7.85910979 13.8147762,8.0881114 14.3115234,8.5461215 C14.8082707,9.00413161 15.0566406,9.64328537 15.0566406,10.463602 C15.0566406,11.0514955 14.8959977,11.5892506 14.574707,12.0768832 C14.2534164,12.5645159 13.8284532,13.0635343 13.2998047,13.5739535 C13.0537097,13.8200485 12.9044599,14.041075 12.8520508,14.2370395 C12.7996417,14.433004 12.7734375,14.7383395 12.7734375,15.1530551 L11.4267578,15.1530551 Z M12.8212891,17.9557895 L11.4130859,17.9557895 L11.4130859,16.5339145 L12.8212891,16.5339145 L12.8212891,17.9557895 Z"></path>
    </g>
</svg>
