<svg xmlns="http://www.w3.org/2000/svg" viewBox="0 0 24 24">
    <g stroke-width="1" fill-rule="evenodd">
        <path d="M21.9368322,7.47213808 C20.2183037,3.65556882 16.3941205,1 11.952381,1 C5.90354798,1 1,5.92486775 1,12 C1,18.0751322 5.90354798,23 11.952381,23 C16.0063081,23 19.5458101,20.7879075 21.4395283,17.5 L20.3684362,17.5 C18.5770821,20.2593585 15.4768155,22.0833333 11.952381,22.0833333 C6.40761739,22.0833333 1.91269841,17.5688712 1.91269841,12 C1.91269841,6.43112877 6.40761739,1.91666667 11.952381,1.91666667 C16.1470702,1.91666667 19.7409198,4.50035147 21.2423419,8.1696479 L18.5238095,10.9 L24,10.9 L24,5.4 L21.9368322,7.47213808 Z"></path>
    </g>
</svg>
