<svg xmlns="http://www.w3.org/2000/svg" viewBox="0 0 24 24">
    <g stroke-width="1" fill-rule="evenodd" transform="translate(2.000000, 0.000000)">
        <path d="M18.6535652,8.78121739 L0.476869565,8.78121739 C0.37773913,8.78121739 0.28,8.82191304 0.209391304,8.89252174 C0.138434783,8.96347826 0.0977391304,9.06121739 0.0977391304,9.16034783 L0.0977391304,14.8410435 C0.0977391304,14.9401739 0.138434783,15.037913 0.209391304,15.1088696 C0.28,15.1794783 0.37773913,15.2201739 0.476869565,15.2201739 L18.6535652,15.2201739 C18.7526957,15.2201739 18.8504348,15.1794783 18.9210435,15.1088696 C18.992,15.037913 19.0326957,14.9401739 19.0326957,14.8410435 L19.0326957,9.16034783 C19.0326957,9.06121739 18.992,8.96347826 18.9210435,8.89252174 C18.8504348,8.82191304 18.7526957,8.78121739 18.6535652,8.78121739 Z M0.856,9.53808696 L18.2758261,9.53808696 L18.2758261,14.4605217 L0.856,14.4605217 L0.856,9.53808696 Z"></path>
        <path d="M15.813913,10.864 C15.186087,10.864 14.677913,11.3721739 14.677913,12 C14.677913,12.6278261 15.186087,13.136 15.813913,13.136 C16.4417391,13.136 16.9495652,12.6278261 16.9495652,12 C16.9495652,11.3721739 16.4417391,10.864 15.813913,10.864 Z M15.813913,12.3791304 C15.6045217,12.3791304 15.4347826,12.2093913 15.4347826,12 C15.4347826,11.7906087 15.6045217,11.6208696 15.813913,11.6208696 C16.0229565,11.6208696 16.1930435,11.7906087 16.1930435,12 C16.1930435,12.2093913 16.0215652,12.3791304 15.813913,12.3791304 Z"></path>
        <path d="M18.6535652,0.260869565 L0.476869565,0.260869565 C0.37773913,0.260869565 0.28,0.301565217 0.209391304,0.372173913 C0.138434783,0.442782609 0.0977391304,0.540869565 0.0977391304,0.64 L0.0977391304,6.32069565 C0.0977391304,6.41982609 0.138434783,6.51756522 0.209391304,6.58817391 C0.28,6.65913043 0.37773913,6.69982609 0.476869565,6.69982609 L18.6535652,6.69982609 C18.7526957,6.69982609 18.8504348,6.65913043 18.9210435,6.58817391 C18.992,6.51756522 19.0326957,6.41982609 19.0326957,6.32069565 L19.0326957,0.64 C19.0326957,0.540869565 18.992,0.442782609 18.9210435,0.372173913 C18.8504348,0.301565217 18.7526957,0.260869565 18.6535652,0.260869565 Z M0.856,1.01773913 L18.2758261,1.01773913 L18.2758261,5.94017391 L0.856,5.94017391 L0.856,1.01773913 Z"></path>
        <path d="M15.813913,2.34365217 C15.186087,2.34365217 14.677913,2.85182609 14.677913,3.47965217 C14.677913,4.10747826 15.186087,4.61565217 15.813913,4.61565217 C16.4417391,4.61565217 16.9495652,4.10747826 16.9495652,3.47965217 C16.9495652,2.85182609 16.4417391,2.34365217 15.813913,2.34365217 Z M15.813913,3.85878261 C15.6045217,3.85878261 15.4347826,3.68869565 15.4347826,3.47965217 C15.4347826,3.27026087 15.6045217,3.10052174 15.813913,3.10052174 C16.0229565,3.10052174 16.1930435,3.27026087 16.1930435,3.47965217 C16.1916522,3.68869565 16.0215652,3.85878261 15.813913,3.85878261 Z"></path>
        <path d="M18.6535652,17.3015652 L0.476869565,17.3015652 C0.37773913,17.3015652 0.28,17.3422609 0.209391304,17.4128696 C0.138434783,17.4838261 0.0977391304,17.5815652 0.0977391304,17.6806957 L0.0977391304,23.3613913 C0.0977391304,23.4605217 0.138434783,23.5582609 0.209391304,23.6292174 C0.28,23.6998261 0.37773913,23.7405217 0.476869565,23.7405217 L18.6535652,23.7405217 C18.7526957,23.7405217 18.8504348,23.6998261 18.9210435,23.6292174 C18.992,23.5582609 19.0326957,23.4605217 19.0326957,23.3613913 L19.0326957,17.6806957 C19.0326957,17.5815652 18.992,17.4838261 18.9210435,17.4128696 C18.8504348,17.3422609 18.7526957,17.3015652 18.6535652,17.3015652 Z M0.856,18.0584348 L18.2758261,18.0584348 L18.2758261,22.9808696 L0.856,22.9808696 L0.856,18.0584348 Z"></path>
        <path d="M15.813913,19.3843478 C15.186087,19.3843478 14.677913,19.8925217 14.677913,20.5203478 C14.677913,21.1481739 15.186087,21.6563478 15.813913,21.6563478 C16.4417391,21.6563478 16.9495652,21.1481739 16.9495652,20.5203478 C16.9495652,19.8925217 16.4417391,19.3843478 15.813913,19.3843478 Z M15.813913,20.8994783 C15.6045217,20.8994783 15.4347826,20.7297391 15.4347826,20.5203478 C15.4347826,20.3113043 15.6045217,20.1412174 15.813913,20.1412174 C16.0229565,20.1412174 16.1930435,20.3113043 16.1930435,20.5203478 C16.1930435,20.7297391 16.0215652,20.8994783 15.813913,20.8994783 Z"></path>
    </g>
</svg>
