<svg xmlns="http://www.w3.org/2000/svg" width="48px" height="48px" viewBox="0 0 48 48">
    <g stroke-width="1" fill-rule="evenodd" transform="translate(8.000000, 0.000000)">
                <path d="M31.4112,30.5377391 L28.9777778,24.272 C28.9664,24.2525217 28.9528889,24.2253913 28.9386667,24.1926957 C28.8391111,23.9888696 28.6499556,23.6090435 28.2752,23.5165217 L24.1863111,22.1113043 C24.5802667,19.5026087 24.7388444,16.9126957 24.6165333,14.978087 C24.4892444,12.9836522 24.0696889,11.037913 23.3720889,9.18191304 L23.3777778,9.17634783 L23.3194667,9.02747826 C21.3276444,3.856 17.5054222,0.532869565 16.1692444,0.52173913 L16.1635556,0.52173913 C14.9112889,0.52173913 10.9859556,4.05147826 8.89173333,8.90504348 L8.82773333,9.0546087 L8.83057778,9.0573913 C8.02204444,10.9725217 7.5584,12.9182609 7.45813333,14.8452174 C7.35857778,16.7686957 7.53351111,19.3613913 7.936,21.986087 L3.872,23.309913 C3.4752,23.4024348 3.28035556,23.7801739 3.17511111,23.9812174 C3.15804444,24.0111304 3.14453333,24.0382609 3.11395556,24.0925217 L0.597333333,29.9561739 C0.455822222,30.2664348 0.527644444,30.4834783 0.613688889,30.6142609 C0.824888889,30.9321739 1.26933333,30.962087 1.40017778,30.962087 L1.41084444,30.962087 L10.2442667,30.3638261 C10.4945778,30.893913 10.6638222,31.2333913 10.9304889,31.6090435 C10.7776,31.7634783 10.6780444,31.970087 10.6780444,32.1926957 C10.6723556,32.6629565 11.0613333,33.0490435 11.5413333,33.0518261 L11.5996444,33.0518261 C11.5975111,33.0706087 11.5889778,33.0845217 11.5889778,33.1033043 C11.5889778,33.2556522 11.6472889,33.3968696 11.7553778,33.5053913 C11.8641778,33.613913 12.0085333,33.6737391 12.1635556,33.6737391 L14.7498667,33.696 L14.7640889,33.9457391 C13.5608889,34.3833043 12.2168889,35.6633043 12.1863111,39.2013913 C12.1585778,42.4834783 14.5635556,46.2121739 15.5719111,47.2146087 C15.7610667,47.4052174 15.8862222,47.4782609 16.0163556,47.4782609 L16.0192,47.4782609 C16.1443556,47.4782609 16.2666667,47.4073043 16.4636444,47.2173913 C17.3944889,46.3234783 19.9608889,42.7798261 19.9914667,39.2633043 C20.0163556,36.189913 19.1751111,34.4347826 17.4250667,33.9046957 L17.4385778,33.7175652 L19.7141333,33.7363478 L19.7191111,33.7363478 C20.0362667,33.7363478 20.2972444,33.4838261 20.3000889,33.1742609 C20.3000889,33.1492174 20.2887111,33.1304348 20.2858667,33.1088696 C20.4636444,33.0817391 20.6279111,33.0024348 20.7580444,32.877913 C20.9251556,32.7172174 21.0168889,32.5057391 21.0197333,32.2768696 C21.0218667,32.0813913 20.9528889,31.8970435 20.8305778,31.7446957 C21.1804444,31.4295652 21.3973333,31.0594783 21.7080889,30.5001739 L30.5891556,31.5213913 L30.5969778,31.5213913 L30.5969778,31.5213913 C30.7278222,31.5213913 31.1694222,31.4970435 31.3834667,31.1846957 C31.4666667,31.0573913 31.5413333,30.8396522 31.4112,30.5377391 Z M16.1664,1.03791304 C17.0360889,1.04626087 20.7331556,3.90191304 22.7669333,9.06226087 C22.0721778,9.7773913 21.2664889,10.3638261 20.3776,10.818087 C20.2695111,10.6984348 20.1557333,10.5815652 20.0391111,10.4730435 C19.1196444,9.63617391 17.9221333,9.15478261 16.6307556,9.12208696 L16.5191111,9.11930435 C14.8750222,9.11930435 13.408,9.88313043 12.4608,11.0650435 C11.328,10.5732174 10.2890667,9.85043478 9.44426667,8.95373913 C11.5776,4.12521739 15.3137778,1.01356522 16.1664,1.03791304 Z M16.5582222,9.6333913 L16.5610667,9.37530435 L16.6499556,9.63617391 C17.7777778,9.66608696 18.8529778,10.098087 19.6778667,10.848 C19.8691556,11.0246957 20.0497778,11.2173913 20.2112,11.4267826 C20.5553778,11.8692174 20.8085333,12.3617391 20.9664,12.8883478 C21.0944,13.3154783 21.1584,13.757913 21.1527111,14.2038261 C21.1306667,16.6845217 19.0528,18.7012174 16.5169778,18.7012174 L16.5169778,18.9593043 L16.4778667,18.7012174 C15.6501333,18.6928696 14.8416,18.4702609 14.1333333,18.0542609 C13.1669333,17.4866087 12.4444444,16.5947826 12.1002667,15.5464348 C11.9502222,15.0873043 11.8748444,14.6086957 11.8805333,14.1252174 C11.9054222,11.6521739 13.9832889,9.6333913 16.5582222,9.6333913 Z M1.39448889,30.445913 C1.22524444,30.4431304 1.09155556,30.386087 1.05528889,30.333913 C1.02755556,30.2935652 1.05813333,30.2093913 1.08088889,30.16 L3.58044444,24.3290435 C3.59751111,24.301913 3.61955556,24.2608696 3.6416,24.2149565 C3.71128889,24.0786087 3.83075556,23.8476522 4.01137778,23.8045217 L11.7831111,21.2772174 C11.8442667,21.2855652 11.9025778,21.3203478 11.9502222,21.3753043 C12.0142222,21.4483478 12.0497778,21.5492174 12.0497778,21.6577391 L11.9857778,29.3753043 C11.9836444,29.584 11.8471111,29.7530435 11.6586667,29.7530435 L1.39448889,30.445913 Z M11.2028444,32.1954783 C11.2028444,32.0653913 11.2832,31.9485217 11.4026667,31.8914783 C11.4503111,31.872 11.5086222,31.8476522 11.5498667,31.8615652 L14.6503111,31.885913 L14.6858667,32.56 L12.1720889,32.5377391 L12.1664,32.5377391 L12.1664,32.5377391 L11.5441778,32.5328696 C11.3557333,32.5356522 11.2028444,32.3805217 11.2028444,32.1954783 Z M16.6997333,36.317913 C16.6968889,36.5572174 16.4970667,36.7526957 16.2524444,36.7526957 L16.2524444,37.0107826 L16.2474667,36.7526957 L15.8641778,36.749913 C15.7447111,36.749913 15.6330667,36.704 15.5470222,36.6198261 C15.4638222,36.5356522 15.4197333,36.4264348 15.4197333,36.2935652 L14.7413333,24.0514783 C14.7441778,23.8121739 14.9447111,23.6166957 15.1943111,23.6166957 L17.2501333,23.6333913 C17.3696,23.6333913 17.4833778,23.6793043 17.5665778,23.7634783 C17.6497778,23.8476522 17.6945778,23.9568696 17.6945778,24.0570435 L16.6997333,36.317913 Z M14.8942222,36.301913 C14.8913778,36.5572174 14.9916444,36.7965217 15.1751111,36.978087 C15.3585778,37.1603478 15.6024889,37.2605217 15.8613333,37.2633043 L16.2524444,37.266087 C16.7857778,37.266087 17.2224,36.8424348 17.2280889,36.3394783 L17.2835556,35.6466087 C17.7969778,36.0786087 18.0501333,36.9210435 18.0359111,38.2226087 C18.0195556,40.2636522 16.5056,42.2664348 16.0554667,42.72 C15.5861333,42.2365217 14.1418667,40.1029565 14.1582222,38.189913 C14.1696,37.0518261 14.4085333,36.2448696 14.8636444,35.7746087 L14.8942222,36.301913 Z M12.1664,33.1603478 C12.1386667,33.1603478 12.1137778,33.1387826 12.1137778,33.1088696 L12.1664,33.0573913 L14.7136,33.0789565 L14.7192889,33.181913 L12.1664,33.1603478 Z M19.4638222,39.2612174 C19.4332444,42.7554783 16.6748444,46.3888696 16.0220444,46.9238261 C15.4026667,46.3888696 12.6862222,42.589913 12.7168,39.2062609 C12.7388444,36.6601739 13.4442667,35.0893913 14.7975111,34.5057391 L14.8302222,35.1332174 C14.0529778,35.6466087 13.6448,36.6685217 13.6334222,38.1878261 C13.6163556,40.2066087 15.0947556,42.4973913 15.7141333,43.1116522 C15.8279111,43.2257391 15.9303111,43.3015652 16.0554667,43.3015652 L16.0583111,43.3015652 C16.1806222,43.3015652 16.2808889,43.2313043 16.3996444,43.1144348 C16.9720889,42.5655652 18.5472,40.386087 18.5664,38.2253913 C18.5806222,36.5516522 18.1724444,35.5193043 17.3333333,35.0546087 L17.3831111,34.432 C18.3665778,34.7638261 19.4915556,35.728 19.4638222,39.2612174 Z M19.7191111,33.2229565 L19.7191111,33.2229565 L17.4805333,33.2034783 L17.4890667,33.1005217 L19.7191111,33.1193043 C19.7496889,33.1193043 19.7724444,33.1443478 19.7724444,33.1714783 C19.7724444,33.1958261 19.7447111,33.2229565 19.7191111,33.2229565 Z M20.3889778,32.5106087 C20.3249778,32.5732174 20.2389333,32.6003478 20.1443556,32.605913 L19.7248,32.6031304 L19.7248,32.6031304 L17.5303111,32.5843478 L17.5857778,31.9102609 L20.1500444,31.9318261 C20.2417778,31.9318261 20.3278222,31.970087 20.3946667,32.0326957 C20.4586667,32.098087 20.4942222,32.1822609 20.4913778,32.272 C20.4885333,32.3617391 20.4529778,32.445913 20.3889778,32.5106087 Z M20.3719111,31.4483478 C20.3000889,31.4295652 20.2275556,31.4156522 20.1528889,31.4156522 L17.6248889,31.394087 L18.2193778,24.0758261 C18.2222222,23.8205217 18.1219556,23.5812174 17.9392,23.3996522 C17.7557333,23.2173913 17.5111111,23.1165217 17.2529778,23.1144348 L15.1886222,23.0977391 C14.6552889,23.0977391 14.2193778,23.5213913 14.2136889,24.0598261 L14.6197333,31.3725217 L11.5527111,31.3474783 C11.4944,31.3474783 11.4446222,31.3530435 11.3941333,31.3641739 C11.1637333,31.0462609 11.0108444,30.7610435 10.8053333,30.3290435 L11.6778667,30.2692174 C12.1329778,30.2692174 12.5084444,29.869913 12.5112889,29.3773913 L12.5781333,21.6633043 C12.5802667,21.4295652 12.4999111,21.2090435 12.3527111,21.0406957 C12.1969778,20.8612174 11.9836444,20.7638261 11.7525333,20.7610435 L11.7084444,20.7610435 L8.43875556,21.8233043 C8.04977778,19.2612174 7.88337778,16.7415652 7.9808,14.8723478 C8.07466667,13.0761739 8.49422222,11.2584348 9.22808889,9.46434783 C10.0664889,10.3095652 11.0613333,11.0024348 12.1528889,11.4921739 C11.6586667,12.258087 11.3635556,13.1603478 11.3557333,14.128 C11.3500444,14.6657391 11.4332444,15.1958261 11.5996444,15.7092174 C11.9808,16.877913 12.7857778,17.869913 13.8638222,18.5029565 C14.6524444,18.9648696 15.5555556,19.2146087 16.4750222,19.2229565 L16.5191111,19.2229565 L16.5191111,19.2229565 C19.3415111,19.2229565 21.6583111,16.9753043 21.6832,14.2149565 C21.6888889,13.7203478 21.6163556,13.2257391 21.4748444,12.749913 C21.3112889,12.2038261 21.0524444,11.6932174 20.7082667,11.2285217 C21.536,10.7937391 22.2890667,10.2469565 22.9553778,9.59791304 C23.5832889,11.3370435 23.9694222,13.152 24.0888889,15.0135652 C24.2055111,16.8584348 24.0497778,19.4295652 23.6778667,21.9401739 L20.4970667,20.848 L20.4053333,20.834087 C19.9502222,20.834087 19.5747556,21.2333913 19.5719111,21.7252174 L19.5057778,29.44 C19.5029333,29.6737391 19.5832889,29.8942609 19.7333333,30.0626087 C19.8919111,30.242087 20.1031111,30.3394783 20.3029333,30.3394783 L21.1441778,30.4375652 C20.8696889,30.9182609 20.6862222,31.2013913 20.3719111,31.4483478 Z M30.9418667,30.8994783 C30.9056,30.9509565 30.7719111,31.0052174 30.6026667,31.0052174 L20.3363556,29.8233043 C20.2609778,29.8233043 20.1891556,29.7878261 20.1329778,29.7231304 C20.0696889,29.6493913 20.0334222,29.5492174 20.0334222,29.44 L20.1002667,21.7252174 C20.1031111,21.5325217 20.2197333,21.3725217 20.3719111,21.3502609 L28.1223111,24.0111304 C28.2808889,24.0514783 28.3946667,24.2824348 28.4636444,24.4208696 C28.4885333,24.4730435 28.5084444,24.5001739 28.5056,24.4973913 L30.9219556,30.7311304 C30.9361778,30.7666087 30.9724444,30.8556522 30.9418667,30.8994783 Z" id="Fill-1"></path>
                <path d="M14.4526222,17.5436522 C15.0670222,17.9046957 15.7696,18.098087 16.4864,18.1029565 L16.5191111,18.1029565 C18.7164444,18.1029565 20.5219556,16.3533913 20.5390222,14.2038261 C20.5418667,13.8177391 20.4864,13.4323478 20.3747556,13.0622609 C20.2389333,12.6031304 20.0163556,12.1766957 19.7191111,11.7933913 C19.5776,11.6111304 19.4218667,11.4427826 19.2554667,11.2904348 C18.5415111,10.6386087 17.6085333,10.2664348 16.5973333,10.2365217 L16.5169778,10.2337391 C14.3196444,10.2337391 12.5141333,11.984 12.4970667,14.1328696 C12.4942222,14.5516522 12.5582222,14.9648696 12.6890667,15.3641739 C12.9863111,16.2768696 13.6142222,17.0490435 14.4526222,17.5436522 Z M16.5496889,10.7526957 L16.5525333,10.4946087 L16.6193778,10.7554783 C17.4691556,10.7770435 18.2805333,11.1033043 18.9027556,11.6681739 C19.0471111,11.7989565 19.1836444,11.9457391 19.3052444,12.1029565 C19.5640889,12.4347826 19.7553778,12.8069565 19.8748444,13.2062609 C19.9722667,13.5269565 20.0192,13.8615652 20.0163556,14.1982609 C20,16.0681739 18.4334222,17.5867826 16.5248,17.5867826 L16.5248,17.8448696 L16.4942222,17.5867826 C15.872,17.5812174 15.2611556,17.4128696 14.7278222,17.1005217 C13.9975111,16.6713043 13.4556444,16 13.1975111,15.2118261 C13.0830222,14.864 13.0275556,14.5057391 13.0304,14.1412174 C13.0417778,12.272 14.6083556,10.7526957 16.5496889,10.7526957 Z" id="Fill-2"></path>
    </g>
</svg>
