<svg xmlns="http://www.w3.org/2000/svg" viewBox="0 0 24 24">
    <g stroke-width="1" fill-rule="evenodd" transform="translate(2.000000, 1.000000)">
        <path d="M21.3,10.5 L17.4,6.8 C17.1,6.5 16.6,6.5 16.4,6.8 C16.1,7.1 16.1,7.5 16.4,7.8 L19,10.3 L8.5,10.3 C8.1,10.3 7.8,10.6 7.8,11 C7.8,11.4 8.1,11.7 8.5,11.7 L19,11.7 L16.4,14.2 C16.1,14.5 16.1,14.9 16.4,15.2 C16.5,15.3 16.7,15.4 16.9,15.4 C17.1,15.4 17.3,15.3 17.4,15.2 L21.3,11.5 C21.4,11.4 21.5,11.2 21.5,11 C21.5,10.8 21.4,10.6 21.3,10.5 L21.3,10.5 L21.3,10.5 Z" ></path>
        <path d="M14.3416667,16.9583333 C13.975,16.9583333 13.7,17.2333333 13.7,17.6 L13.7,20.7166667 L1.875,20.7166667 L1.875,1.28333333 L13.7,1.28333333 L13.7,4.4 C13.7,4.76666667 13.975,5.04166667 14.3416667,5.04166667 C14.7083333,5.04166667 14.9833333,4.76666667 14.9833333,4.4 L14.9833333,0.641666667 C14.9833333,0.275 14.7083333,0 14.3416667,0 L1.14166667,0 C0.775,0 0.5,0.275 0.5,0.641666667 L0.5,21.3583333 C0.5,21.725 0.775,22 1.14166667,22 L14.25,22 C14.6166667,22 14.8916667,21.725 14.8916667,21.3583333 L14.8916667,17.6 C14.9833333,17.2333333 14.7083333,16.9583333 14.3416667,16.9583333 L14.3416667,16.9583333 L14.3416667,16.9583333 Z"></path>
    </g>
</svg>
