<svg xmlns="http://www.w3.org/2000/svg" viewBox="0 0 24 24">
    <g stroke="none" stroke-width="1" fill-rule="evenodd">
        <path xmlns="http://www.w3.org/2000/svg" d="M12,0.142608696 C5.52730435,0.142608696 0.260869565,4.44034783 0.260869565,9.7213913 C0.260869565,11.3436522 0.764869565,12.9443478 1.7186087,14.352 C2.41843478,15.3857391 4.02852174,16.7064348 4.20104348,16.8466087 C4.216,16.8626087 4.23791304,16.9144348 4.24034783,16.9252174 C4.23930435,16.9349565 4.16452174,17.957913 4.02573913,18.6045217 C3.59513043,20.6128696 2.95373913,21.9523478 2.94713043,21.965913 C2.74713043,22.3791304 2.864,22.6751304 2.95234783,22.8166957 C3.09113043,23.0365217 3.32591304,23.1631304 3.59930435,23.1631304 C3.7213913,23.1631304 3.85043478,23.1373913 3.98226087,23.0855652 C4.17113043,23.0107826 5.89530435,22.3165217 8.06643478,20.8737391 C8.89113043,20.3248696 10.0775652,19.2963478 10.1234783,19.2553043 C10.1495652,19.237913 10.2417391,19.2052174 10.3151304,19.1996522 C10.5109565,19.2187826 11.3370435,19.2987826 12.0027826,19.2987826 C18.4726957,19.2987826 23.7391304,15.0027826 23.7391304,9.7213913 C23.7391304,4.44034783 18.4726957,0.142608696 12,0.142608696 Z M12,18.0476522 C11.3422609,18.0476522 10.4375652,17.9537391 10.4253913,17.9523478 C10.0528696,17.9144348 9.58295652,18.0664348 9.30156522,18.309913 C9.17947826,18.4156522 8.08417391,19.3572174 7.37217391,19.8302609 C6.22434783,20.5937391 5.19026087,21.1426087 4.49321739,21.4810435 C4.7186087,20.8667826 5.01217391,19.957913 5.24730435,18.864 C5.40765217,18.1113043 5.48626087,17.021913 5.48626087,17.0135652 C5.51617391,16.6045217 5.31373913,16.1384348 4.99582609,15.8803478 C4.97947826,15.8681739 3.36834783,14.5572174 2.75269565,13.648 C1.94017391,12.4483478 1.50956522,11.0897391 1.50956522,9.7186087 C1.50956522,5.12626087 6.2146087,1.38991304 11.9986087,1.38991304 C17.7812174,1.38991304 22.4876522,5.12626087 22.4876522,9.7186087 C22.4890435,14.3123478 17.784,18.0476522 12,18.0476522 Z M11.8246957,6.424 C12.5137391,6.424 13.0149565,5.92 13.0135652,5.23791304 C13.0285217,4.91443478 12.9116522,4.59095652 12.7026087,4.37078261 C12.4973913,4.15617391 12.2104348,4.04208696 11.8765217,4.04208696 C11.0612174,4.04208696 10.6344348,4.64521739 10.6344348,5.24173913 C10.6344348,5.90608696 11.1561739,6.424 11.8246957,6.424 Z M12.6344348,7.31130435 L9.62504348,7.31130435 L9.62504348,8.58017391 L11.3422609,8.58017391 L11.3547826,13.2173913 L9.69008696,13.2173913 L9.69008696,14.4862609 L14.3749565,14.4862609 L14.3749565,13.2173913 L12.6250435,13.2173913 L12.6344348,7.31130435 Z" />
    </g>
</svg>
