<svg xmlns="http://www.w3.org/2000/svg" viewBox="0 0 48 48">
    <g stroke-width="1" fill-rule="evenodd">
        <path d="M23.8562124,2.33458407 C23.9186549,2.21033628 23.8791504,2.06315044 23.7721062,1.98350442 C22.7437168,1.22973451 21.4719292,0.813663717 20.2077876,0.82640708 C19.7299115,0.440283186 19.0901947,0.206442478 18.4606726,0.206442478 C17.9827965,0.206442478 17.5348673,0.335787611 17.1538407,0.587469027 C17.0244956,0.672212389 16.9894513,0.843610619 17.0690973,0.972955752 L17.420177,1.54067257 C16.6084248,1.97840708 15.9094513,2.60856637 15.3818761,3.36743363 C15.1250973,3.30562832 14.8492035,3.27823009 14.5350796,3.27823009 C13.9106549,3.27823009 13.2932389,3.39738053 12.7981593,3.49423009 L12.7707611,3.49932743 C12.6560708,3.52162832 12.5713274,3.60637168 12.5490265,3.7159646 C12.5267257,3.82300885 12.5668673,3.94279646 12.6560708,4.00460177 C13.627115,4.72651327 13.7736637,4.83355752 13.8208142,6.22959292 C13.8259115,6.33217699 13.8781593,6.4239292 13.968,6.46853097 C14.0126018,6.49146903 14.0572035,6.50357522 14.1049912,6.50357522 C14.1572389,6.50357522 14.2018407,6.49146903 14.2464425,6.4640708 C14.9212035,6.0779469 15.3990796,5.63511504 15.8119646,5.02789381 C16.6536637,5.4579823 17.5769204,5.68736283 18.5199292,5.68736283 C18.5995752,5.68736283 18.6843186,5.68736283 18.7639646,5.68226549 L18.7467611,5.93139823 C18.7340177,6.08559292 18.848708,6.2200354 19.0029027,6.23214159 C19.0551504,6.23723894 19.1003894,6.23723894 19.1500885,6.23723894 L19.1500885,6.23723894 C19.8815575,6.23723894 20.4613805,5.73706195 20.7799646,5.23943363 C22.119292,4.68637168 23.2145841,3.65861947 23.8562124,2.33458407 Z M20.4741239,4.74881416 C20.4116814,4.77111504 20.3670796,4.81635398 20.3320354,4.87306195 C20.1453451,5.19674336 19.7821593,5.57267257 19.3265841,5.65741593 L19.3437876,5.39617699 C19.348885,5.31143363 19.3163894,5.23178761 19.2596814,5.17444248 C19.1972389,5.11709735 19.1175929,5.08969912 19.0328496,5.09479646 C18.8633628,5.112 18.6868673,5.12219469 18.5103717,5.12219469 C17.579469,5.12219469 16.6606726,4.87815929 15.8470088,4.41302655 C15.7100177,4.33338053 15.5411681,4.3779823 15.4615221,4.51497345 C15.1550442,5.02024779 14.8090619,5.40127434 14.3534867,5.72941593 C14.2789381,4.79341593 14.0699469,4.42258407 13.4977699,3.95235398 C13.8259115,3.90010619 14.1846372,3.85550442 14.5306195,3.85550442 C14.8664071,3.85550442 15.1601416,3.89500885 15.4092743,3.97465487 C15.5335221,4.01479646 15.6654159,3.96254867 15.7323186,3.85550442 C16.2777345,3.01380531 17.0391504,2.33968142 17.9350088,1.9140531 C18.0101947,1.87900885 18.0649912,1.81720354 18.0898407,1.73755752 C18.1121416,1.6579115 18.1019469,1.57826549 18.0624425,1.50307965 L17.7037168,0.930902655 C17.9305487,0.828955752 18.1866903,0.776707965 18.4530265,0.776707965 C18.9755044,0.776707965 19.5304779,0.985699115 19.9064071,1.32148673 C19.9637522,1.37373451 20.031292,1.3960354 20.1058407,1.3960354 L20.247292,1.3960354 C21.3030796,1.3960354 22.3531327,1.71971681 23.2343363,2.30463717 C22.6322124,3.41968142 21.6611681,4.28368142 20.4741239,4.74881416 Z"/>
        <path d="M47.3970265,16.5313274 C47.3919292,16.3624779 47.3447788,16.1904425 47.2600354,16.0311504 C46.4986195,13.4079292 44.8980531,11.0306549 42.7425133,9.32877876 C42.7202124,9.31093805 42.6979115,9.28863717 42.6756106,9.27143363 C41.540177,8.41507965 38.2772389,7.83525664 34.5466195,7.83525664 C34.3127788,7.83525664 34.0808496,7.83525664 33.8546549,7.84035398 C30.4196814,7.90725664 27.4804248,8.46477876 26.4176283,9.27143363 L26.4176283,9.27143363 L26.4176283,9.27143363 C26.412531,9.27143363 26.412531,9.27653097 26.404885,9.27653097 C26.3876814,9.28863717 26.3704779,9.3039292 26.3526372,9.32113274 C24.1951858,11.023646 22.5895221,13.4028319 21.8281062,16.0311504 C21.7484602,16.1853451 21.7032212,16.3497345 21.6987611,16.5243186 C21.4419823,17.5616283 21.3075398,18.6422655 21.3075398,19.7197168 C21.3075398,23.2566372 22.6863717,26.5820177 25.1853451,29.0854513 C27.6894159,31.5895221 31.0147965,32.9632566 34.5517168,32.9632566 C38.088,32.9632566 41.4133805,31.5844248 43.9174513,29.0854513 C46.420885,26.5820177 47.7952566,23.2617345 47.7952566,19.7197168 C47.7825133,18.6422655 47.6506195,17.5692743 47.3970265,16.5313274 Z M22.3531327,16.2426903 C22.6940177,15.6628673 23.896354,15.0728496 25.7256637,14.6128142 C28.0749027,14.0227965 31.2084956,13.699115 34.5466195,13.699115 C37.8841062,13.699115 41.0126018,14.0227965 43.3669381,14.6128142 C45.1892389,15.0728496 46.3985841,15.6577699 46.7324602,16.2426903 C46.7719646,16.3796814 46.7993628,16.491823 46.8293097,16.6014159 C46.7898053,17.2704425 45.500177,17.992354 43.3669381,18.5250265 C41.0176991,19.1150442 37.8841062,19.4387257 34.5466195,19.4387257 C31.2084956,19.4387257 28.08,19.1150442 25.7256637,18.5250265 C23.5854159,17.9853451 22.2983363,17.2704425 22.263292,16.6014159 C22.2906903,16.4739823 22.3180885,16.3548319 22.3531327,16.2426903 Z M34.5389735,8.40297345 L34.8747611,8.40297345 C35.0913982,8.40297345 35.3131327,8.40743363 35.5221239,8.41507965 L35.5348673,8.41507965 C38.6780177,8.50492035 41.3936283,9.01720354 42.324531,9.7219115 C42.3417345,9.7340177 42.3589381,9.74930973 42.3767788,9.76141593 C42.4736283,9.84106195 42.5857699,9.96084956 42.5857699,10.0729912 C42.5857699,10.2889912 42.12,10.7719646 40.3658761,11.1803894 C38.8099115,11.5435752 36.7442124,11.7481062 34.5364248,11.7481062 C32.3337345,11.7481062 30.2629381,11.5486726 28.7076106,11.1803894 C26.9528496,10.7668673 26.4870796,10.2889912 26.4870796,10.0729912 C26.4870796,9.97040708 26.5769204,9.84615929 26.7483186,9.71426549 C27.7837168,8.94775221 30.9873982,8.40297345 34.5389735,8.40297345 Z M25.984354,10.3788319 C26.2111858,10.9338053 27.079646,11.3893805 28.5827257,11.7481062 C30.1781947,12.1233982 32.2942301,12.3323894 34.5364248,12.3323894 C36.7837168,12.3323894 38.9023009,12.1284956 40.4977699,11.7481062 C42.0008496,11.3970265 42.8693097,10.936354 43.0961416,10.3788319 C44.5323186,11.6952212 45.6569204,13.3410265 46.3590796,15.1473982 C44.2583363,13.8259115 39.2852389,13.1269381 34.5415221,13.1269381 C31.1587965,13.1269381 27.9806018,13.4550796 25.5835752,14.0572035 C24.5908673,14.3063363 23.4955752,14.6650619 22.7163186,15.1524956 C23.4261239,13.3410265 24.548177,11.6952212 25.984354,10.3788319 Z M43.5013805,28.6853097 C41.1075398,31.0791504 37.9261593,32.396177 34.5389735,32.396177 C31.1562478,32.396177 27.9704071,31.0791504 25.5765664,28.6853097 C23.1820885,26.2908319 21.8650619,23.1100885 21.8650619,19.7222655 C21.8650619,18.9608496 21.9326018,18.2013451 22.0695929,17.4571327 C23.5675752,19.1201416 29.1975929,20.0058053 34.5389735,20.0058053 C37.9216991,20.0058053 41.0998938,19.6776637 43.4969204,19.0755398 C44.8133097,18.7467611 46.3163894,18.2191858 47.0109027,17.4571327 C47.1478938,18.2013451 47.2154336,18.9608496 47.2154336,19.7222655 C47.2154336,23.1100885 45.8984071,26.2959292 43.5013805,28.6853097 Z"/>
        <path d="M17.6686726,21.459823 C17.1461947,19.6553628 16.0387965,18.0248496 14.547823,16.8677522 C13.771115,16.2828319 11.5512212,15.8846018 9.02484956,15.8846018 L8.7859115,15.8846018 C8.62661947,15.8846018 8.46732743,15.8896991 8.31568142,15.896708 C6.09069027,15.9642478 4.20658407,16.3350796 3.50187611,16.8677522 L3.50187611,16.8677522 L3.50187611,16.8677522 C2.01345133,18.0248496 0.90860177,19.6553628 0.385486726,21.459823 C0.328778761,21.5668673 0.301380531,21.6809204 0.296283186,21.8058053 C0.119787611,22.5098761 0.0350442478,23.236885 0.0350442478,23.9734513 C0.0350442478,28.9338053 4.06959292,32.9709027 9.03249558,32.9709027 C13.9928496,32.9709027 18.0299469,28.936354 18.0299469,23.9734513 C18.0299469,23.2419823 17.9401062,22.5149735 17.768708,21.8102655 C17.7559646,21.6809204 17.7209204,21.5668673 17.6686726,21.459823 Z M0.878654867,21.6465133 C1.33932743,20.8972035 4.35313274,19.9784071 9.02484956,19.9784071 C13.6965664,19.9784071 16.7110088,20.8921062 17.1710442,21.6465133 C17.1933451,21.7261593 17.2111858,21.800708 17.2334867,21.8676106 C17.1589381,22.6392212 14.055292,23.7020177 9.03249558,23.7020177 C4.00969912,23.7020177 0.903504425,22.6468673 0.831504425,21.8676106 C0.841061947,21.7930619 0.856353982,21.7185133 0.878654867,21.6465133 Z M9.02484956,16.412177 C9.20134513,16.412177 9.37083186,16.412177 9.53522124,16.4172743 C12.031646,16.4695221 13.7016637,16.8875044 14.2241416,17.2857345 C14.2292389,17.2908319 14.236885,17.2978407 14.2464425,17.3029381 C14.3362832,17.3774867 14.3713274,17.4399292 14.3713274,17.4673274 C14.3713274,17.5520708 14.1049912,17.8655575 12.9300531,18.1420885 C11.8921062,18.3854867 10.500531,18.5224779 9.01975221,18.5224779 C7.53897345,18.5224779 6.15249558,18.3854867 5.1100885,18.1420885 C3.93515044,17.8630088 3.66881416,17.5571681 3.66881416,17.4673274 C3.66881416,17.4322832 3.70831858,17.3704779 3.81536283,17.2857345 C4.37543363,16.8677522 6.24488496,16.412177 9.02484956,16.412177 Z M3.23553982,17.7910088 C3.45217699,18.1490973 4.04219469,18.4383717 4.99539823,18.6645664 C6.07284956,18.920708 7.50902655,19.0551504 9.02484956,19.0551504 C10.5457699,19.0551504 11.9768496,18.9136991 13.0543009,18.6645664 C14.0075044,18.4383717 14.5924248,18.1465487 14.8090619,17.7961062 C15.6826195,18.6199646 16.3745841,19.6177699 16.840354,20.7181593 C16.3299823,20.4390796 15.6756106,20.2300885 15.0753982,20.0758938 C13.452531,19.667469 11.3071858,19.4463717 9.01975221,19.4463717 C6.73741593,19.4463717 4.58697345,19.667469 2.96410619,20.0758938 C2.36962832,20.2224425 1.71461947,20.4339823 1.19978761,20.7181593 C1.66746903,19.6126726 2.3619823,18.6097699 3.23553982,17.7910088 Z M9.02484956,32.4305841 C4.35823009,32.4305841 0.554973451,28.6330619 0.554973451,23.960708 C0.554973451,23.5006726 0.595115044,23.0425487 0.669663717,22.5869735 C1.18704425,23.0578407 2.13323894,23.388531 2.96920354,23.5975221 C4.5920708,24.0059469 6.73741593,24.2270442 9.02484956,24.2270442 C11.3122832,24.2270442 13.4576283,24.0059469 15.0804956,23.5975221 C15.9145487,23.388531 16.8626549,23.0648496 17.3800354,22.5869735 C17.4552212,23.04 17.4947257,23.5006726 17.4947257,23.960708 C17.4870796,28.6330619 13.691469,32.4305841 9.02484956,32.4305841 Z"/>
        <path d="M21.7854159,2.55631858 C21.7854159,3.10874336 20.9570973,3.10874336 20.9570973,2.55631858 C20.9570973,2.00389381 21.7854159,2.00389381 21.7854159,2.55631858"/>
        <path d="M8.38258407,11.4244248 C8.25833628,11.508531 7.15539823,12.2705841 7.16304425,13.0995398 C7.16304425,13.3384779 7.26499115,13.6844602 7.70846018,13.968 L7.7479646,13.9903009 L7.79256637,14.0030442 C7.93465487,14.0374513 8.064,14.0597522 8.17869027,14.0597522 L8.17869027,14.0597522 C8.55971681,14.0597522 8.76870796,13.8730619 8.88276106,13.7188673 C9.32623009,13.0893451 8.90060177,11.8175575 8.80821239,11.5684248 L8.6839646,11.2275398 L8.38258407,11.4244248 Z M8.42272566,13.388177 C8.38768142,13.4327788 8.33288496,13.4850265 8.18378761,13.4850265 L8.18378761,13.4850265 C8.12644248,13.4850265 8.05890265,13.4729204 7.97925664,13.4627257 C7.73585841,13.2932389 7.73585841,13.1441416 7.73585841,13.0944425 C7.73076106,12.7981593 8.064,12.4196814 8.38768142,12.1361416 C8.51447788,12.6089204 8.57692035,13.1664425 8.42272566,13.388177 Z"/>
        <path d="M10.9216991,9.8340531 L10.9561062,9.86145133 C11.2052389,10.1003894 11.4613805,10.2246372 11.7105133,10.2246372 L11.7105133,10.2246372 C12.1533451,10.2246372 12.5120708,9.8659115 12.7828673,9.16438938 C12.96,8.70371681 13.032,8.25069027 13.039646,8.23348673 L13.0969912,7.87476106 L12.7331681,7.90215929 C12.5789735,7.91490265 11.2523894,8.03915044 10.8541593,8.77125664 C10.739469,8.98024779 10.6553628,9.32623009 10.9064071,9.79900885 L10.9216991,9.8340531 Z M11.3473274,9.04014159 C11.4887788,8.77826549 11.9717522,8.60941593 12.3922832,8.52212389 C12.2055929,9.25869027 11.8921062,9.65182301 11.7105133,9.65182301 C11.6206726,9.65182301 11.5110796,9.59511504 11.3817345,9.48297345 C11.2498407,9.2140885 11.3243894,9.08474336 11.3473274,9.04014159 Z"/>
        <path d="M6.77246018,7.97224779 L6.78966372,8.01175221 C7.03369912,8.57437168 7.39242478,8.69415929 7.6460177,8.69415929 L7.6460177,8.69415929 C8.42973451,8.69415929 9.18923894,7.54152212 9.33833628,7.31023009 L9.53267257,7.00375221 L9.18669027,6.88906195 C9.16438938,6.88460177 8.60176991,6.69536283 8.0340531,6.69536283 C7.5740177,6.69536283 7.2280354,6.81451327 7.01139823,7.05854867 C6.81706195,7.27518584 6.73231858,7.56382301 6.77246018,7.92700885 L6.77246018,7.97224779 Z M7.42938053,7.44467257 C7.55872566,7.29748673 7.83270796,7.26753982 8.03150442,7.26753982 C8.24113274,7.26753982 8.45267257,7.29493805 8.62661947,7.33507965 C8.32523894,7.72566372 7.91745133,8.12899115 7.64346903,8.12899115 C7.52877876,8.12899115 7.42173451,8.02704425 7.33253097,7.82761062 C7.31723894,7.66067257 7.34973451,7.52877876 7.42938053,7.44467257 Z"/>
    </g>
</svg>
