<svg xmlns="http://www.w3.org/2000/svg" viewBox="0 0 24 24">
    <g stroke-width="1" fill-rule="evenodd">
        <path d="M11.4736842,23.1111111 L4.10522126,23.1111111 C3.53127256,23.1111111 3.05263158,22.71495 3.05263158,22.2262604 L3.05263158,1.77373958 C3.05263158,1.293567 3.52182656,0.888888889 4.10060789,0.888888889 L14.6315789,0.888888889 L14.6315789,5.32807196 C14.6315789,6.3230624 15.5731539,7.11111111 16.7346454,7.11111111 L20.9473684,7.11111111 L20.9473684,22.2280909 C20.9473684,22.7156033 20.476108,23.1111111 19.8947787,23.1111111 L12.5263158,23.1111111 L12.5263158,14.2222222 L15.9473684,17.1111111 L16.7368421,16.4444444 L12,12.4444444 L7.26315789,16.4444444 L8.05263158,17.1111111 L11.4736842,14.2222222 L11.4736842,23.1111111 L11.4736842,23.1111111 L11.4736842,23.1111111 Z M15.1578947,0 L4.10816856,0 C2.94385921,0 2,0.798522951 2,1.78429328 L2,22.2157068 C2,23.2011447 2.9378162,24 4.10254938,24 L19.8974506,24 C21.0586566,24 22,23.201589 22,22.2304044 L22,6.66666667 L22,6.22222222 L15.6842105,0 L15.1578947,0 L15.1578947,0 L15.1578947,0 L15.1578947,0 Z M15.6842105,1.33333333 L15.6842105,5.32552465 C15.6842105,5.82075704 16.1585801,6.22222222 16.7334093,6.22222222 L20.6315276,6.22222222 L15.6842105,1.33333333 L15.6842105,1.33333333 L15.6842105,1.33333333 Z"></path>
    </g>
</svg>
