<svg xmlns="http://www.w3.org/2000/svg" viewBox="0 0 24 24">
    <g stroke="none" stroke-width="1" fill-rule="evenodd">
        <path xmlns="http://www.w3.org/2000/svg" d="M12,0.220210526 C5.50315789,0.220210526 0.217263158,5.50652632 0.217263158,12 C0.217263158,18.4951579 5.50315789,23.7797895 12,23.7797895 C18.4968421,23.7797895 23.7810526,18.4951579 23.7810526,12 C23.7810526,5.50652632 18.4968421,0.220210526 12,0.220210526 Z M22.9014737,12 C22.9014737,18.0096842 18.0113684,22.8997895 12,22.8997895 C5.98863158,22.8997895 1.09852632,18.0096842 1.09852632,12 C1.09852632,5.99031579 5.99031579,1.09852632 12,1.09852632 C18.0096842,1.09852632 22.9014737,5.99031579 22.9014737,12 Z M17.4442105,11.5246316 L9.38821053,7.49684211 C9.176,7.39452632 8.91957895,7.43073684 8.75326316,7.59368421 C8.64968421,7.69894737 8.592,7.83873684 8.592,7.99157895 L8.592,16.0096842 C8.592,16.3208421 8.82736842,16.5658947 9.12842105,16.5658947 C9.21726316,16.5658947 9.30610526,16.5444211 9.38989474,16.5031579 L17.4442105,12.4736842 C17.6383158,12.3781053 17.7549474,12.2008421 17.7549474,12 C17.7549474,11.7991579 17.64,11.6218947 17.4442105,11.5246316 Z M16.4244211,12 L9.47368421,15.4753684 L9.47368421,8.52631579 L16.4244211,12 Z" id="Combined-Shape"/>
    </g>
</svg>
