<svg xmlns="http://www.w3.org/2000/svg" viewBox="0 0 24 24">
    <g stroke="none" stroke-width="1" fill-rule="evenodd">
        <path d="M12,0 C5.37115385,0 0,5.37115385 0,12 C0,18.6288462 5.37115385,24 12,24 C18.6288462,24 24,18.6288462 24,12 C24,5.37115385 18.6288462,0 12,0 L12,0 Z M12,23.0019231 C5.93653846,23.0019231 0.998076923,18.0692308 0.998076923,12 C0.998076923,5.93653846 5.93076923,0.998076923 12,0.998076923 C18.0634615,0.998076923 23.0019231,5.93076923 23.0019231,12 C23.0019231,18.0634615 18.0634615,23.0019231 12,23.0019231 L12,23.0019231 Z"></path>
        <path d="M15.5333142,11.424127 L18.3275614,11.424127 L18.3275614,13.0678019 L15.5333142,13.0678019 L15.5333142,11.424127 Z M7.2296496,16.0819235 L9.20546184,14.1061113 L10.3677043,15.2683538 L8.39189209,17.244166 L7.2296496,16.0819235 Z M6,11.424127 L8.79424726,11.424127 L8.79424726,13.0678019 L6,13.0678019 L6,11.424127 Z M7.23176994,8.41205998 L8.39483427,7.25063933 L10.3692494,9.22784869 L9.20618505,10.3892693 L7.23176994,8.41205998 Z M13.9688973,15.1529349 L15.1311398,13.9906925 L17.1069521,15.9665047 L15.9447096,17.1287472 L13.9688973,15.1529349 Z M11.2597595,6 L12.9034344,6 L12.9034344,8.79424726 L11.2597595,8.79424726 L11.2597595,6 Z M11.2597595,15.5333142 L12.9034344,15.5333142 L12.9034344,18.3275614 L11.2597595,18.3275614 L11.2597595,15.5333142 Z"></path>
    </g>
</svg>
