<svg xmlns="http://www.w3.org/2000/svg">
    <symbol id="logo" viewBox="0 0 24 24">
        <g stroke="none" stroke-width="1" fill="none" fill-rule="evenodd">
            <g transform="translate(-570.000000, -106.000000)">
                <g transform="translate(570.000000, 106.000000)">
                    <path d="M0.0981060606,4.2809466 L0.0978650138,12.6237864 L2.80253099,11.051335 L2.80325413,5.85364078 L7.27202135,3.25570388 L7.27202135,0.110436893 L0.0981060606,4.2809466" fill-opacity="0.420000017" fill="#000000"></path>
                    <path d="M16.444697,19.2520631 L11.974604,21.8506068 L7.50607782,19.2527913 L4.80105028,20.8254854 L11.974604,24.9958738 L19.149845,20.8246359 L16.444697,19.2520631" fill-opacity="0.409999996" fill="#000000"></path>
                    <path d="M16.6775482,0.110558252 L16.6775482,3.25582524 L21.146918,5.85412621 L21.1467975,11.0497573 L23.8519456,12.6223301 L23.8520661,4.2815534 L16.6775482,0.110558252" fill="#000000"></path>
                    <path fill="#000000" d="M11.9747245,11.1867718 L11.9758092,11.1860437 L11.9747245,11.1854369 L11.9747245,11.1867718"></path>
                    <path d="M16.6775482,3.25582524 L16.6775482,5.57839806 L11.9747245,8.31237864 L7.27190083,5.57839806 L7.27202135,3.25570388 L2.80325413,5.85364078 L11.9747245,11.1854369 L21.146918,5.85412621 L16.6775482,3.25582524" fill="#505052"></path>
                    <path d="M11.9758092,11.1860437 L11.974604,21.8506068 L16.444697,19.2520631 L14.4467803,18.090534 L14.4469008,12.6226942 L19.149604,9.88859223 L21.1467975,11.0497573 L21.146918,5.85424757 L11.9758092,11.1860437" fill="#000000"></path>
                    <path d="M2.80325413,5.85364078 L2.80253099,11.051335 L4.80056818,9.88980583 L9.50327135,12.6237864 L9.50327135,18.0917476 L7.50607782,19.2527913 L11.974604,21.8506068 L11.9747245,11.1867718 L2.80325413,5.85364078" fill="#3C3B3C"></path>
                    <path d="M16.6775482,3.25582524 L11.9747245,5.98968447 L11.9747245,8.31237864 L16.6775482,5.57839806 L16.6775482,3.25582524" fill="#000000"></path>
                    <path d="M7.27202135,3.25570388 L7.27190083,5.57839806 L11.9747245,8.31237864 L11.9747245,5.98968447 L7.27202135,3.25570388" fill="#000000"></path>
                    <path fill="#000000"></path>
                    <path fill="#000000" d="M21.1471591,11.05 L21.1467975,11.0497573 L21.1467975,11.0501214 L21.1471591,11.05"></path>
                    <path d="M16.4444559,13.7839806 L14.4469008,12.6226942 L14.4467803,18.090534 L16.444697,19.2520631 L16.4444559,13.7839806" fill="#000000"></path>
                    <path d="M14.4469008,12.6226942 L16.4444559,13.7838592 L21.1467975,11.0501214 L19.149604,9.88859223 L14.4469008,12.6226942" fill="#DA2681"></path>
                    <path fill="#000000" d="M7.50571625,19.253034 L7.50607782,19.2527913 L7.50571625,19.2525485 L7.50571625,19.253034"></path>
                    <path d="M7.50547521,13.7849515 L9.5030303,12.623665 L4.80056818,9.88980583 L2.80253099,11.051335 L7.50547521,13.7849515" fill="#DA2681"></path>
                    <path d="M9.5030303,12.623665 L7.50571625,13.7850728 L7.50607782,19.2527913 L9.50327135,18.0917476 L9.5030303,12.623665" fill="#0A0B09"></path>
                </g>
            </g>
        </g>
    </symbol>

    <symbol id="refresh" viewBox="0 0 24 24">
        <g stroke-width="1" fill-rule="evenodd">
            <path d="M21.9368322,7.47213808 C20.2183037,3.65556882 16.3941205,1 11.952381,1 C5.90354798,1 1,5.92486775 1,12 C1,18.0751322 5.90354798,23 11.952381,23 C16.0063081,23 19.5458101,20.7879075 21.4395283,17.5 L20.3684362,17.5 C18.5770821,20.2593585 15.4768155,22.0833333 11.952381,22.0833333 C6.40761739,22.0833333 1.91269841,17.5688712 1.91269841,12 C1.91269841,6.43112877 6.40761739,1.91666667 11.952381,1.91666667 C16.1470702,1.91666667 19.7409198,4.50035147 21.2423419,8.1696479 L18.5238095,10.9 L24,10.9 L24,5.4 L21.9368322,7.47213808 Z"></path>
        </g>
    </symbol>

    <symbol id="manage" viewBox="0 0 24 24">
        <g   stroke-width="1" fill-rule="evenodd">
            <path d="M8.05000906,3 L2,3 L2,4 L8.05000906,4 C8.28164422,5.14112016 9.29052104,6 10.5,6 C11.709479,6 12.7183558,5.14112016 12.9499909,4 L22,4 L22,3 L12.9499909,3 C12.7183558,1.85887984 11.709479,1 10.5,1 C9.29052104,1 8.28164422,1.85887984 8.05000906,3 Z M10.5,5 C11.3284271,5 12,4.32842712 12,3.5 C12,2.67157288 11.3284271,2 10.5,2 C9.67157288,2 9,2.67157288 9,3.5 C9,4.32842712 9.67157288,5 10.5,5 Z"></path>
            <path d="M3.05000906,19 L2,19 L2,20 L3.05000906,20 C3.28164422,21.1411202 4.29052104,22 5.5,22 C6.70947896,22 7.71835578,21.1411202 7.94999094,20 L22,20 L22,19 L7.94999094,19 C7.71835578,17.8588798 6.70947896,17 5.5,17 C4.29052104,17 3.28164422,17.8588798 3.05000906,19 Z M5.5,21 C6.32842712,21 7,20.3284271 7,19.5 C7,18.6715729 6.32842712,18 5.5,18 C4.67157288,18 4,18.6715729 4,19.5 C4,20.3284271 4.67157288,21 5.5,21 Z"></path>
            <path d="M15.0500091,11 L2,11 L2,12 L15.0500091,12 C15.2816442,13.1411202 16.290521,14 17.5,14 C18.709479,14 19.7183558,13.1411202 19.9499909,12 L22,12 L22,11 L19.9499909,11 C19.7183558,9.85887984 18.709479,9 17.5,9 C16.290521,9 15.2816442,9.85887984 15.0500091,11 Z M17.5,13 C18.3284271,13 19,12.3284271 19,11.5 C19,10.6715729 18.3284271,10 17.5,10 C16.6715729,10 16,10.6715729 16,11.5 C16,12.3284271 16.6715729,13 17.5,13 Z"></path>
        </g>
    </symbol>

    <symbol id="audit" viewBox="0 0 24 24">
         <g stroke-width="1" fill-rule="evenodd" transform="translate(3.000000, 0.000000)">
            <path d="M13.5,1.8 L5.4,10.1 C5.3,10.2 5.3,10.2 5.3,10.3 L4.6,13 C4.6,13.2 4.6,13.4 4.7,13.5 C4.8,13.6 4.9,13.7 5.1,13.7 L5.2,13.7 L7.9,13 C8,13 8.1,12.9 8.1,12.9 L16.2,4.6 L16.2,4.6 L16.2,4.6 L17.8,2.9 C18,2.7 18,2.4 17.8,2.2 L15.8,0.2 C15.8,0.1 15.7,0 15.5,0 C15.4,0 15.2,0.1 15.1,0.2 L13.5,1.8 L13.5,1.8 L13.5,1.8 L13.5,1.8 L13.5,1.8 Z M7.5,12 L5.8,12.5 L6.2,10.8 L13.8,3 L15.1,4.3 L7.5,12 L7.5,12 Z M15.5,1.3 L16.8,2.6 L15.9,3.5 L14.6,2.2 L15.5,1.3 L15.5,1.3 Z"></path>
            <path d="M17.5,5.53181818 C17.2,5.53181818 17,5.72272727 17,6.00909091 L17,22.0454545 L1,22.0454545 L1,2.95454545 L10.4,2.95454545 C10.7,2.95454545 10.9,2.76363636 10.9,2.47727273 C10.9,2.19090909 10.7,2 10.4,2 L0.5,2 C0.2,2 0,2.19090909 0,2.47727273 L0,22.5227273 C0,22.8090909 0.2,23 0.5,23 L17.5,23 C17.8,23 18,22.8090909 18,22.5227273 L18,6.00909091 C18,5.72272727 17.8,5.53181818 17.5,5.53181818 L17.5,5.53181818 L17.5,5.53181818 Z"></path>
        </g>
    </symbol>

    <symbol id="signout" viewBox="0 0 24 24">
        <g stroke-width="1" fill-rule="evenodd" transform="translate(2.000000, 1.000000)">
            <path d="M21.3,10.5 L17.4,6.8 C17.1,6.5 16.6,6.5 16.4,6.8 C16.1,7.1 16.1,7.5 16.4,7.8 L19,10.3 L8.5,10.3 C8.1,10.3 7.8,10.6 7.8,11 C7.8,11.4 8.1,11.7 8.5,11.7 L19,11.7 L16.4,14.2 C16.1,14.5 16.1,14.9 16.4,15.2 C16.5,15.3 16.7,15.4 16.9,15.4 C17.1,15.4 17.3,15.3 17.4,15.2 L21.3,11.5 C21.4,11.4 21.5,11.2 21.5,11 C21.5,10.8 21.4,10.6 21.3,10.5 L21.3,10.5 L21.3,10.5 Z" ></path>
            <path d="M14.3416667,16.9583333 C13.975,16.9583333 13.7,17.2333333 13.7,17.6 L13.7,20.7166667 L1.875,20.7166667 L1.875,1.28333333 L13.7,1.28333333 L13.7,4.4 C13.7,4.76666667 13.975,5.04166667 14.3416667,5.04166667 C14.7083333,5.04166667 14.9833333,4.76666667 14.9833333,4.4 L14.9833333,0.641666667 C14.9833333,0.275 14.7083333,0 14.3416667,0 L1.14166667,0 C0.775,0 0.5,0.275 0.5,0.641666667 L0.5,21.3583333 C0.5,21.725 0.775,22 1.14166667,22 L14.25,22 C14.6166667,22 14.8916667,21.725 14.8916667,21.3583333 L14.8916667,17.6 C14.9833333,17.2333333 14.7083333,16.9583333 14.3416667,16.9583333 L14.3416667,16.9583333 L14.3416667,16.9583333 Z"></path>
        </g>
    </symbol>

    <symbol id="x" viewBox="0 0 24 24">
        <path d="M15.7,12l8.1-8.1c0.2-0.2,0.2-0.5,0-0.7l-3-3C20.8,0.1,20.6,0,20.5,0c-0.1,0-0.3,0.1-0.4,0.1L12,8.3L3.9,0.1
        C3.7,0,3.3,0,3.2,0.1l-3,3C0,3.3,0,3.7,0.1,3.9L8.3,12l-8.1,8.1c-0.2,0.2-0.2,0.5,0,0.7l3,3C3.2,23.9,3.4,24,3.5,24
        c0.1,0,0.3-0.1,0.4-0.1l8.1-8.1l8.1,8.1c0.1,0.1,0.2,0.1,0.4,0.1c0.1,0,0.3-0.1,0.4-0.1l3-3c0.2-0.2,0.2-0.5,0-0.7L15.7,12z
         M15.7,12"/>
    </symbol>

    <symbol id="chevron" viewBox="0 0 24 24">
        <g>
            <path d="M11.7,18.8c-0.3,0-0.7-0.1-0.9-0.4L0.4,8.2c-0.5-0.5-0.5-1.4,0-1.9c0.5-0.5,1.4-0.5,1.9,0l9.4,9.2l10.1-9.9
                c0.5-0.5,1.4-0.5,1.9,0c0.5,0.5,0.5,1.4,0,1.9l-11,10.8C12.3,18.6,12,18.8,11.7,18.8z"/>
        </g>
    </symbol>

    <symbol id="bin-closed" viewBox="0 0 24 24">
        <g stroke-width="1" fill-rule="evenodd">
            <path d="M15.5583333,21.25 C15.925,21.25 16.2,20.975 16.2,20.6083333 L16.2,12.3583333 C16.2,11.9916667 15.925,11.625 15.5583333,11.625 C15.1916667,11.625 14.9166667,11.9 14.9166667,12.3583333 L14.9166667,20.6083333 C14.825,20.975 15.1,21.25 15.5583333,21.25 L15.5583333,21.25 L15.5583333,21.25 Z M15.4666667,4.75 L15.4666667,3.375 C15.5583333,2.64166667 14.9166667,2 14.1833333,2 L10.15,2 C9.41666667,2 8.775,2.64166667 8.775,3.375 L8.775,4.75 L4.83333333,4.75 C4.1,4.75 3.45833333,5.39166667 3.45833333,6.125 L3.45833333,7.5 C3.45833333,8.23333333 4.1,8.875 4.83333333,8.875 L4.83333333,21.25 C4.83333333,22.8083333 6.025,24 7.49166667,24 L16.8416667,24 C18.3083333,24 19.5,22.8083333 19.5,21.25 L19.5,8.875 C20.2333333,8.875 20.875,8.23333333 20.875,7.5 L20.875,6.125 C20.875,5.39166667 20.2333333,4.75 19.5,4.75 L15.4666667,4.75 Z M10.15,4.01666667 C10.15,3.65 10.425,3.375 10.7916667,3.375 L13.45,3.375 C13.8166667,3.375 14.0916667,3.65 14.0916667,4.01666667 L14.0916667,4.75 L10.15,4.75 L10.15,4.01666667 L10.15,4.01666667 Z M18.2166667,21.25 C18.2166667,21.9833333 17.575,22.625 16.8416667,22.625 L7.49166667,22.625 C6.75833333,22.625 6.11666667,21.9833333 6.11666667,21.25 L6.11666667,8.875 L18.2166667,8.875 L18.2166667,21.25 L18.2166667,21.25 Z M18.8583333,7.5 L5.475,7.5 C5.10833333,7.5 4.83333333,7.225 4.83333333,6.85833333 C4.83333333,6.49166667 5.10833333,6.125 5.475,6.125 L18.8583333,6.125 C19.225,6.125 19.5,6.4 19.5,6.85833333 C19.5,7.225 19.225,7.5 18.8583333,7.5 L18.8583333,7.5 L18.8583333,7.5 Z M8.775,21.25 C9.14166667,21.25 9.41666667,20.975 9.41666667,20.6083333 L9.41666667,12.3583333 C9.41666667,11.9916667 9.14166667,11.625 8.775,11.625 C8.40833333,11.625 8.13333333,11.9 8.13333333,12.3583333 L8.13333333,20.6083333 C8.13333333,20.975 8.40833333,21.25 8.775,21.25 L8.775,21.25 L8.775,21.25 Z M12.1666667,21.25 C12.5333333,21.25 12.8083333,20.975 12.8083333,20.6083333 L12.8083333,12.3583333 C12.8083333,11.9916667 12.5333333,11.625 12.1666667,11.625 C11.8,11.625 11.525,11.9 11.525,12.3583333 L11.525,20.6083333 C11.525,20.975 11.8,21.25 12.1666667,21.25 L12.1666667,21.25 L12.1666667,21.25 Z"></path>
        </g>
    </symbol>

    <symbol id="bin-opened" viewBox="0 0 24 24">
        <g stroke-width="1" fill-rule="evenodd">
            <path transform="translate(3.000000, 8.000000)" d="M12.33,13.5 C12.69,13.5 12.96,13.23 12.96,12.87 L12.96,4.77 C12.96,4.41 12.69,4.05 12.33,4.05 C11.97,4.05 11.7,4.32 11.7,4.77 L11.7,12.87 C11.61,13.23 11.88,13.5 12.33,13.5 L12.33,13.5 L12.33,13.5 Z M0.45,3.17967874e-14 C0.45,0.72 1.08,1.35 1.8,1.35 L1.8,13.5 C1.8,15.03 2.97,16.2 4.41,16.2 L13.59,16.2 C15.03,16.2 16.2,15.03 16.2,13.5 L16.2,1.35 C16.92,1.35 17.55,0.72 17.55,3.17967874e-14 L0.45,3.17967874e-14 Z M14.94,13.5 C14.94,14.22 14.31,14.85 13.59,14.85 L4.41,14.85 C3.69,14.85 3.06,14.22 3.06,13.5 L3.06,1.35 L14.94,1.35 L14.94,13.5 L14.94,13.5 Z M5.67,13.5 C6.03,13.5 6.3,13.23 6.3,12.87 L6.3,4.77 C6.3,4.41 6.03,4.05 5.67,4.05 C5.31,4.05 5.04,4.32 5.04,4.77 L5.04,12.87 C5.04,13.23 5.31,13.5 5.67,13.5 L5.67,13.5 L5.67,13.5 Z M9,13.5 C9.36,13.5 9.63,13.23 9.63,12.87 L9.63,4.77 C9.63,4.41 9.36,4.05 9,4.05 C8.64,4.05 8.37,4.32 8.37,4.77 L8.37,12.87 C8.37,13.23 8.64,13.5 9,13.5 L9,13.5 L9,13.5 Z"></path>
            <path d="M15.24,2.7 L15.24,1.35 C15.33,0.63 14.7,0 13.98,0 L10.02,0 C9.3,0 8.67,0.63 8.67,1.35 L8.67,2.7 L4.8,2.7 C4.08,2.7 3.45,3.33 3.45,4.05 L3.45,5.4 C3.45,6.12 4.08,6.75 4.8,6.75 L19.2,6.75 C19.92,6.75 20.55,6.12 20.55,5.4 L20.55,4.05 C20.55,3.33 19.92,2.7 19.2,2.7 L15.24,2.7 Z M10.02,1.98 C10.02,1.62 10.29,1.35 10.65,1.35 L13.26,1.35 C13.62,1.35 13.89,1.62 13.89,1.98 L13.89,2.7 L10.02,2.7 L10.02,1.98 L10.02,1.98 Z M18.57,5.4 L5.43,5.4 C5.07,5.4 4.8,5.13 4.8,4.77 C4.8,4.41 5.07,4.05 5.43,4.05 L18.57,4.05 C18.93,4.05 19.2,4.32 19.2,4.77 C19.2,5.13 18.93,5.4 18.57,5.4 L18.57,5.4 L18.57,5.4 Z"></path>
        </g>
    </symbol>

    <symbol id="healthy" viewBox="0 0 24 24">
        <path d="M12,0C5.4,0,0,5.4,0,12s5.4,12,12,12s12-5.4,12-12C24,5.4,18.6,0,12,0z M12,22.9C6,22.9,1.2,18,1.2,12S6,1.1,12,1.1
            S22.8,6,22.8,12S18,22.9,12,22.9z"/>
        <path d="M15.1,8.9l-4.6,4.6l-1.7-1.7c-0.3-0.3-0.8-0.3-1.1,0c-0.3,0.3-0.3,0.8,0,1.1l2.2,2.2c0.2,0.2,0.4,0.2,0.6,0.2
        s0.4-0.1,0.6-0.2l5.2-5.2c0.3-0.3,0.3-0.8,0-1.1C15.9,8.6,15.4,8.6,15.1,8.9z"/>
    </symbol>

    <symbol id="problem" viewBox="0 0 24 24">
        <path d="M12,0C5.4,0,0,5.4,0,12s5.4,12,12,12s12-5.4,12-12C24,5.4,18.6,0,12,0z M12,22.8C6,22.8,1.2,18,1.2,12S6,1.2,12,1.2
            S22.8,6,22.8,12S18,22.8,12,22.8z M12.6,16.9c0,0.3-0.3,0.6-0.6,0.6c-0.3,0-0.6-0.3-0.6-0.6c0-0.3,0.3-0.6,0.6-0.6
            C12.3,16.3,12.6,16.6,12.6,16.9z M11.4,13.8V6.8c0-0.3,0.3-0.6,0.6-0.6c0.3,0,0.6,0.2,0.6,0.6v7.1c0,0.3-0.3,0.6-0.6,0.6
            C11.6,14.4,11.4,14.1,11.4,13.8z"/>
    </symbol>

    <symbol id="working" viewBox="0 0 24 24">
        <g stroke="none" stroke-width="1" fill-rule="evenodd">
            <path d="M12,0 C5.37115385,0 0,5.37115385 0,12 C0,18.6288462 5.37115385,24 12,24 C18.6288462,24 24,18.6288462 24,12 C24,5.37115385 18.6288462,0 12,0 L12,0 Z M12,23.0019231 C5.93653846,23.0019231 0.998076923,18.0692308 0.998076923,12 C0.998076923,5.93653846 5.93076923,0.998076923 12,0.998076923 C18.0634615,0.998076923 23.0019231,5.93076923 23.0019231,12 C23.0019231,18.0634615 18.0634615,23.0019231 12,23.0019231 L12,23.0019231 Z"></path>
            <path d="M15.5333142,11.424127 L18.3275614,11.424127 L18.3275614,13.0678019 L15.5333142,13.0678019 L15.5333142,11.424127 Z M7.2296496,16.0819235 L9.20546184,14.1061113 L10.3677043,15.2683538 L8.39189209,17.244166 L7.2296496,16.0819235 Z M6,11.424127 L8.79424726,11.424127 L8.79424726,13.0678019 L6,13.0678019 L6,11.424127 Z M7.23176994,8.41205998 L8.39483427,7.25063933 L10.3692494,9.22784869 L9.20618505,10.3892693 L7.23176994,8.41205998 Z M13.9688973,15.1529349 L15.1311398,13.9906925 L17.1069521,15.9665047 L15.9447096,17.1287472 L13.9688973,15.1529349 Z M11.2597595,6 L12.9034344,6 L12.9034344,8.79424726 L11.2597595,8.79424726 L11.2597595,6 Z M11.2597595,15.5333142 L12.9034344,15.5333142 L12.9034344,18.3275614 L11.2597595,18.3275614 L11.2597595,15.5333142 Z"></path>
        </g>
    </symbol>

    <symbol id="copy-to-clipboard" viewBox="0 0 24 24">
        <g>
            <path d="M22.9,4.4h-3.3V1.1c0-0.6-0.5-1.1-1.1-1.1H1.1C0.5,0,0,0.5,0,1.1v17.5c0,0.6,0.5,1.1,1.1,1.1h3.3v3.3
                c0,0.6,0.5,1.1,1.1,1.1h17.5c0.6,0,1.1-0.5,1.1-1.1V5.5C24,4.9,23.5,4.4,22.9,4.4L22.9,4.4z M2.2,2.2h15.3v15.3h-12h0c0,0,0,0,0,0
                H2.2V2.2z M21.8,21.8H6.5v-2.2h12c0.6,0,1.1-0.5,1.1-1.1v-12h2.2V21.8z M21.8,21.8"/>
        </g>
    </symbol>

    <symbol id="notif-info" viewBox="0 0 24 24">
        <g>
            <g>
                <path d="M13.9,15.1L12.5,16V9.8c0-0.3-0.1-0.5-0.4-0.7c-0.2-0.1-0.5-0.1-0.8,0l-2,1.1c-0.4,0.2-0.5,0.7-0.3,1
                    c0.2,0.4,0.7,0.5,1,0.3l0.9-0.5v6.2c0,0.3,0.1,0.5,0.4,0.7c0.1,0.1,0.2,0.1,0.4,0.1c0.1,0,0.3,0,0.4-0.1l2.6-1.5
                    c0.4-0.2,0.5-0.7,0.3-1C14.8,15,14.3,14.9,13.9,15.1z"/>
                <circle cx="11.7" cy="7" r="1.1"/>
            </g>
            <path d="M12,0C5.4,0,0,5.4,0,12s5.4,12,12,12s12-5.4,12-12C24,5.4,18.6,0,12,0z M12,22.1C6.4,22.1,1.9,17.6,1.9,12
                C1.9,6.4,6.4,1.9,12,1.9S22.1,6.4,22.1,12S17.6,22.1,12,22.1z"/>
        </g>
    </symbol>

    <symbol id="notif-success" viewBox="0 0 24 24">
        <g>
            <path d="M12,0C5.4,0,0,5.4,0,12s5.4,12,12,12s12-5.4,12-12C24,5.4,18.6,0,12,0z M12,22.1C6.4,22.1,1.9,17.6,1.9,12
                C1.9,6.4,6.4,1.9,12,1.9S22.1,6.4,22.1,12C22.1,17.6,17.6,22.1,12,22.1z"/>
            <path d="M15.8,8.2l-5.6,5.6l-2-2c-0.4-0.4-1-0.4-1.4,0c-0.4,0.4-0.4,1,0,1.4l2.7,2.7c0.2,0.2,0.4,0.3,0.7,0.3
                c0.2,0,0.5-0.1,0.7-0.3l6.3-6.3c0.4-0.4,0.4-1,0-1.4C16.8,7.8,16.2,7.8,15.8,8.2z"/>
        </g>
    </symbol>

    <symbol id="notif-warning" viewBox="0 0 24 24">
        <g>
            <path d="M23.8,22.4L12.9,0.6c-0.5-0.9-1.6-0.5-1.8,0l-11,22C-0.3,23.4,0.5,24,1,24h22c0,0,0,0,0,0C23.8,24,24.3,23.1,23.8,22.4z
                 M2.6,22L12,3.2L21.4,22H2.6z"/>
            <path d="M11,9.4v6.2c0,0.6,0.4,1,1,1s1-0.4,1-1V9.4c0-0.6-0.4-1-1-1C11.4,8.4,11,8.9,11,9.4L11,9.4z"/>
            <ellipse cx="12" cy="19.1" rx="1" ry="1"/>
        </g>
    </symbol>

    <symbol id="notif-error" viewBox="0 0 24 24">
        <g>
            <path d="M10.1,9C9.8,8.6,9.3,8.6,8.9,9s-0.3,0.9,0,1.2l1.9,1.9l-1.9,1.9c-0.3,0.3-0.3,0.9,0,1.2c0.2,0.2,0.4,0.2,0.6,0.2
                s0.4-0.1,0.6-0.2l1.9-1.9l1.9,1.9c0.2,0.2,0.4,0.2,0.6,0.2c0.2,0,0.4-0.1,0.6-0.2c0.3-0.3,0.3-0.9,0-1.2L13.2,12l1.9-1.9
                c0.3-0.3,0.3-0.9,0-1.2s-0.9-0.3-1.2,0L12,10.8L10.1,9z"/>
            <path d="M0,12c0,6.6,5.4,12,12,12s12-5.4,12-12S18.6,0,12,0S0,5.4,0,12z M22.3,12c0,5.7-4.6,10.3-10.3,10.3S1.7,17.7,1.7,12
                S6.3,1.7,12,1.7S22.3,6.3,22.3,12z"/>
        </g>
    </symbol>

    <symbol id="export" viewBox="0 0 24 24">
        <path d="M20.6,21H3.4c-0.5,0-0.9,0.4-0.9,0.9v1.2c0,0.5,0.4,0.9,0.9,0.9h17.1c0.5,0,0.9-0.4,0.9-0.9v-1.2C21.5,21.4,21.1,21,20.6,21
            L20.6,21z M20.6,21"/>
        <path d="M11.4,18.7c0.2,0.2,0.4,0.3,0.6,0.3c0.2,0,0.5-0.1,0.6-0.3l6.1-6.4c0.3-0.4,0.3-1,0-1.3l-0.8-0.9c-0.3-0.4-0.9-0.4-1.3,0
            l-3.1,3.3V0.9c0-0.5-0.4-0.9-0.9-0.9h-1.2c-0.5,0-0.9,0.4-0.9,0.9v12.4l-3.1-3.3c-0.3-0.4-0.9-0.4-1.3,0L5.3,11
            c-0.3,0.4-0.3,1,0,1.3L11.4,18.7z M11.4,18.7"/>
    </symbol>

    <symbol id="in-progress" viewBox="0 0 24 24">
        <g stroke-width="1" fill="#F2009B" fill-rule="evenodd">
            <path d="M12,0 C11.172,0 10.5,0.672 10.5,1.5 L10.5,4.5 C10.5,5.328 11.172,6 12,6 C12.828,6 13.5,5.328 13.5,4.5 L13.5,1.5 C13.5,0.672 12.828,0 12,0 L12,0 Z M12,18 C11.172,18 10.5,18.6705 10.5,19.5 L10.5,22.5 C10.5,23.3295 11.172,24 12,24 C12.828,24 13.5,23.3295 13.5,22.5 L13.5,19.5 C13.5,18.6705 12.828,18 12,18 L12,18 Z M18.363,7.758 L20.484,5.6355 C21.0705,5.0505 21.0705,4.0995 20.484,3.5145 C19.899,2.928 18.9495,2.928 18.363,3.5145 L16.242,5.6355 C15.6555,6.222 15.6555,7.1715 16.242,7.758 C16.8285,8.343 17.778,8.343 18.363,7.758 L18.363,7.758 Z M5.6355,16.242 L3.5145,18.363 C2.928,18.9495 2.928,19.899 3.5145,20.484 C4.0995,21.0705 5.049,21.0705 5.6355,20.484 L7.7565,18.363 C8.343,17.7765 8.343,16.8285 7.7565,16.242 C7.1715,15.657 6.222,15.657 5.6355,16.242 L5.6355,16.242 Z M5.6355,3.5145 C5.049,2.928 4.0995,2.928 3.5145,3.5145 C2.928,4.0995 2.928,5.0505 3.5145,5.6355 L5.6355,7.758 C6.222,8.343 7.1715,8.343 7.7565,7.758 C8.343,7.1715 8.343,6.222 7.7565,5.6355 L5.6355,3.5145 L5.6355,3.5145 Z M18.363,16.242 C17.7765,15.6555 16.8285,15.6555 16.242,16.242 C15.6555,16.8285 15.6555,17.7765 16.242,18.363 L18.363,20.484 C18.9495,21.0705 19.899,21.0705 20.484,20.484 C21.0705,19.899 21.0705,18.9495 20.484,18.363 L18.363,16.242 L18.363,16.242 Z M22.5,10.5 L19.5,10.5 C18.6705,10.5 18,11.172 18,12 C18,12.828 18.6705,13.5 19.5,13.5 L22.5,13.5 C23.3295,13.5 24,12.828 24,12 C24,11.172 23.3295,10.5 22.5,10.5 L22.5,10.5 Z M6,12 C6,11.172 5.328,10.5 4.5,10.5 L1.5,10.5 C0.672,10.5 0,11.172 0,12 C0,12.828 0.672,13.5 1.5,13.5 L4.5,13.5 C5.328,13.5 6,12.828 6,12 L6,12 Z"></path>
        </g>
    </symbol>

    <symbol id="aws-s3-resource" viewBox="0 0 24 24">
        <g stroke="none" stroke-width="1" fill="none" fill-rule="evenodd" style="mix-blend-mode: luminosity;" transform="translate(2.000000, 0.000000)">
            <polygon fill="#2C2F32" points="1.82857143 4.31428571 0.257142857 5.11428571 0.257142857 18.8571429 1.82857143 19.6571429 5.68571429 11.9714286"></polygon>
            <polygon fill="#88898A" points="10 17.6571429 1.82857143 19.6571429 1.82857143 4.31428571 10 6.28571429 13.8571429 12"></polygon>
            <polygon fill="#2C2F32" points="10 17.6571429 18.1714286 19.6571429 19.5714286 12.1714286 18.1714286 4.31428571 10 6.28571429"></polygon>
            <polygon fill="#88898A" points="18.1714286 4.31428571 19.7428571 5.11428571 19.7428571 18.8571429 18.1714286 19.6571429"></polygon>
            <polygon fill="#2C2F32" points="6.42857143 14.5142857 10 14.9714286 12.8285714 12 10 9.02857143 6.42857143 9.48571429"></polygon>
            <polygon fill="#2C2F32" points="13.5714286 7.05714286 10 7.71428571 6.42857143 7.05714286 10 0.228571429"></polygon>
            <polygon fill="#2C2F32" points="13.5714286 16.9428571 10 16.2857143 6.42857143 16.9428571 10 23.7714286"></polygon>
            <polygon fill="#88898A" points="13.5714286 7.05714286 10 6.17142857 10 0.228571429 13.5714286 2.02857143"></polygon>
            <polygon fill="#2C2F32" points="6.42857143 7.05714286 10 6.17142857 10 0.228571429 6.42857143 2.02857143"></polygon>
            <polygon fill="#88898A" points="10 23.7714286 13.5714286 21.9714286 13.5714286 16.9428571 10 17.8285714"></polygon>
            <polygon fill="#2C2F32" points="10 23.7714286 6.42857143 21.9714286 6.42857143 16.9428571 10 17.8285714"></polygon>
            <polygon fill="#88898A" points="13.5714286 14.5142857 10 14.9714286 10 9.02857143 13.5714286 9.48571429"></polygon>
        </g>
    </symbol>

    <symbol id="aws-s3-resource-colored" viewBox="0 0 24 24">
        <g stroke="none" stroke-width="1" fill="none" fill-rule="evenodd" transform="translate(2.000000, 0.000000)">
            <polygon fill="#2C2F32" points="1.82857143 4.31428571 0.257142857 5.11428571 0.257142857 18.8571429 1.82857143 19.6571429 5.68571429 11.9714286"></polygon>
            <polygon fill="#F2009B" points="10 17.6571429 1.82857143 19.6571429 1.82857143 4.31428571 10 6.28571429 13.8571429 12"></polygon>
            <polygon fill="#2C2F32" points="10 17.6571429 18.1714286 19.6571429 19.5714286 12.1714286 18.1714286 4.31428571 10 6.28571429"></polygon>
            <polygon fill="#F2009B" points="18.1714286 4.31428571 19.7428571 5.11428571 19.7428571 18.8571429 18.1714286 19.6571429"></polygon>
            <polygon fill="#2C2F32" points="6.42857143 14.5142857 10 14.9714286 12.8285714 12 10 9.02857143 6.42857143 9.48571429"></polygon>
            <polygon fill="#2C2F32" points="13.5714286 7.05714286 10 7.71428571 6.42857143 7.05714286 10 0.228571429"></polygon>
            <polygon fill="#2C2F32" points="13.5714286 16.9428571 10 16.2857143 6.42857143 16.9428571 10 23.7714286"></polygon>
            <polygon fill="#F2009B" points="13.5714286 7.05714286 10 6.17142857 10 0.228571429 13.5714286 2.02857143"></polygon>
            <polygon fill="#2C2F32" points="6.42857143 7.05714286 10 6.17142857 10 0.228571429 6.42857143 2.02857143"></polygon>
            <polygon fill="#F2009B" points="10 23.7714286 13.5714286 21.9714286 13.5714286 16.9428571 10 17.8285714"></polygon>
            <polygon fill="#2C2F32" points="10 23.7714286 6.42857143 21.9714286 6.42857143 16.9428571 10 17.8285714"></polygon>
            <polygon fill="#F2009B" points="13.5714286 14.5142857 10 14.9714286 10 9.02857143 13.5714286 9.48571429"></polygon>
        </g>
    </symbol>

    <symbol id="azure-resource" viewBox="0 0 24 24">
        <g stroke="none" stroke-width="1" fill="#88898A" fill-rule="evenodd">
            <path d="M0,20.18064 L9.52128,21.55968 L9.52128,12.45024 L0,12.45024 L0,20.18064 L0,20.18064 Z M0,11.14896 L9.52128,11.14896 L9.52128,2.03856 L0,3.4176 L0,11.14896 L0,11.14896 Z M10.82256,21.74832 L23.59824,23.59872 L23.59824,12.45024 L10.82256,12.45024 L10.82256,21.74832 L10.82256,21.74832 Z M10.82256,1.84944 L10.82256,11.14896 L23.59824,11.14896 L23.59824,0 L10.82256,1.84944 L10.82256,1.84944 Z"></path>
        </g>
    </symbol>

    <symbol id="azure-resource-colored" viewBox="0 0 24 24">
        <g stroke="none" stroke-width="1" fill="#F2009B" fill-rule="evenodd">
            <path d="M0,20.18064 L9.52128,21.55968 L9.52128,12.45024 L0,12.45024 L0,20.18064 L0,20.18064 Z M0,11.14896 L9.52128,11.14896 L9.52128,2.03856 L0,3.4176 L0,11.14896 L0,11.14896 Z M10.82256,21.74832 L23.59824,23.59872 L23.59824,12.45024 L10.82256,12.45024 L10.82256,21.74832 L10.82256,21.74832 Z M10.82256,1.84944 L10.82256,11.14896 L23.59824,11.14896 L23.59824,0 L10.82256,1.84944 L10.82256,1.84944 Z"></path>
        </g>
    </symbol>

    <symbol id="cloud-resource" viewBox="0 0 24 24">
        <g stroke="none" stroke-width="1" fill-rule="evenodd" fill="#88898A" transform="translate(0.000000, 4.000000)">
            <path d="M19.3,6.5 C18.9,2.9 15.8,0 12,0 C8.2,0 5.1,2.8 4.7,6.5 C2.1,6.5 0,8.6 0,11.2 C0,13.8 2.1,16 4.7,16 L19.3,16 C21.9,16 24,13.9 24,11.3 C24,8.6 21.9,6.5 19.3,6.5 L19.3,6.5 L19.3,6.5 Z"></path>
        </g>
    </symbol>

    <symbol id="cloud-resource-colored" viewBox="0 0 24 24">
        <g stroke="none" stroke-width="1"  fill="#F2009B" fill-rule="evenodd" transform="translate(0.000000, 4.000000)">
            <path d="M19.3,6.5 C18.9,2.9 15.8,0 12,0 C8.2,0 5.1,2.8 4.7,6.5 C2.1,6.5 0,8.6 0,11.2 C0,13.8 2.1,16 4.7,16 L19.3,16 C21.9,16 24,13.9 24,11.3 C24,8.6 21.9,6.5 19.3,6.5 L19.3,6.5 L19.3,6.5 Z"></path>
        </g>
    </symbol>

    <symbol id="eye" viewBox="0 0 24 24">
        <g stroke-width="1" fill-rule="evenodd">
            <path d="M12,6 C3.69230769,6 0,12.4615385 0,12.4615385 C0,12.4615385 3.69230769,18.9230778 12,18.9230769 C20.3076923,18.923076 24,12.4615385 24,12.4615385 C24,12.4615385 20.3076923,6 12,6 L12,6 L12,6 L12,6 Z M12,6.92307692 C4.61538462,6.92307692 1.10764723,12.4615385 1.10764723,12.4615385 C1.10764723,12.4615385 4.61538462,18.0000006 12,18 C19.3846154,17.9999991 22.8923527,12.4615385 22.8923527,12.4615385 C22.8923527,12.4615385 19.3846154,6.92307692 12,6.92307692 L12,6.92307692 L12,6.92307692 L12,6.92307692 Z M12,16.1538462 C14.0392053,16.1538462 15.6923077,14.5007438 15.6923077,12.4615385 C15.6923077,10.4223331 14.0392053,8.76923077 12,8.76923077 C9.96079468,8.76923077 8.30769231,10.4223331 8.30769231,12.4615385 C8.30769231,14.5007438 9.96079468,16.1538462 12,16.1538462 L12,16.1538462 L12,16.1538462 L12,16.1538462 Z M12,15.2307692 C13.529404,15.2307692 14.7692308,13.9909424 14.7692308,12.4615385 C14.7692308,10.9321345 13.529404,9.69230769 12,9.69230769 C10.470596,9.69230769 9.23076923,10.9321345 9.23076923,12.4615385 C9.23076923,13.9909424 10.470596,15.2307692 12,15.2307692 L12,15.2307692 L12,15.2307692 L12,15.2307692 Z"></path>
        </g>
    </symbol>

    <symbol id="no-eye" viewBox="0 0 24 24">
        <g stroke="none" stroke-width="1" fill-rule="evenodd" transform="translate(0.000000, 4.000000)">
            <path d="M4.71572207,12.8227395 C1.49280753,10.9201059 0,8.30769231 0,8.30769231 C0,8.30769231 3.69230769,1.84615385 12,1.84615385 C13.2041637,1.84615385 14.3113617,1.98190584 15.324405,2.21405651 L14.540217,2.99824458 C13.7512139,2.85235809 12.9047011,2.76923077 12,2.76923077 C4.61538462,2.76923077 1.10764723,8.30769231 1.10764723,8.30769231 C1.10764723,8.30769231 2.50590284,10.5154362 5.39531735,12.1431442 L4.71572207,12.8227395 L4.71572207,12.8227395 L4.71572207,12.8227395 L4.71572207,12.8227395 Z M8.67559477,14.4013283 C9.68863809,14.633479 10.7958362,14.7692309 12,14.7692308 C20.3076923,14.7692298 24,8.30769231 24,8.30769231 C24,8.30769231 22.5071924,5.69527902 19.2842777,3.79264542 L18.6046825,4.47224058 C21.4940971,6.09994855 22.8923527,8.30769231 22.8923527,8.30769231 C22.8923527,8.30769231 19.3846154,13.8461529 12,13.8461538 C11.0952988,13.8461539 10.248786,13.7630266 9.45978286,13.6171402 L8.67559477,14.4013283 L8.67559477,14.4013283 L8.67559477,14.4013283 L8.67559477,14.4013283 Z M15.5987567,7.47816637 C15.6599684,7.74481062 15.6923077,8.02247483 15.6923077,8.30769231 C15.6923077,10.3468976 14.0392053,12 12,12 C11.7147825,12 11.4371183,11.9676607 11.1704741,11.906449 L12,11.0769231 C12.7087079,11.0769232 13.4174159,10.8065601 13.9581418,10.2658341 C14.4988678,9.72510822 14.7692309,9.01640022 14.7692308,8.30769231 L15.5987567,7.47816637 L15.5987567,7.47816637 L15.5987567,7.47816637 L15.5987567,7.47816637 Z M12.8295259,4.7089356 C12.5628817,4.64772388 12.2852175,4.61538462 12,4.61538462 C9.96079468,4.61538462 8.30769231,6.26848698 8.30769231,8.30769231 C8.30769231,8.59290978 8.34003157,8.870574 8.40124329,9.13721825 L9.23076923,8.30769231 C9.23076914,7.5989844 9.50113218,6.8902764 10.0418582,6.34955049 C10.5825841,5.80882449 11.2912921,5.53846145 12,5.53846154 L12.8295259,4.7089356 L12.8295259,4.7089356 L12.8295259,4.7089356 L12.8295259,4.7089356 Z M19.3846154,0 L3.69230769,15.6923077 L4.61538462,16.6153846 L20.3076923,0.923076923 L19.3846154,0 L19.3846154,0 L19.3846154,0 Z"></path>
        </g>
    </symbol>

    <symbol id="overview" viewBox="0 0 24 24">
        <g stroke="none" stroke-width="1" fill-rule="evenodd">
            <path d="M10.4261053,0.180210526 L9.70989474,0.180210526 L9.70989474,3.08 C4.32084211,3.45052632 0.0471578947,7.94105263 0.0471578947,13.4223158 C0.0471578947,19.1452632 4.70357895,23.8012632 10.4261053,23.8012632 C15.9065263,23.8012632 20.3974737,19.5267368 20.7675789,14.1385263 L23.6673684,14.1385263 L23.6673684,13.4223158 C23.6669474,6.12042105 17.7271579,0.180210526 10.4261053,0.180210526 L10.4261053,0.180210526 Z M10.4261053,22.3692632 C5.49178947,22.3692632 1.47873684,18.3553684 1.47873684,13.4218947 C1.47873684,8.72926316 5.10947368,4.86905263 9.70989474,4.50315789 L9.70989474,14.1381053 L19.344,14.1381053 C18.9776842,18.7381053 15.1183158,22.3692632 10.4261053,22.3692632 L10.4261053,22.3692632 Z M20.8033684,12.7065263 L11.1414737,12.7065263 L11.1414737,3.04378947 L11.1414737,1.63326316 C17.0846316,1.99031579 21.8568421,6.76336842 22.2138947,12.7065263 L20.8033684,12.7065263 L20.8033684,12.7065263 Z"></path>
        </g>
    </symbol>

    <symbol id="buckets" viewBox="0 0 24 24">
        <g stroke="none" stroke-width="1" fill-rule="evenodd">
            <path d="M12.1916667,0.258333333 C12.0982648,0.259405333 12.0052677,0.285561307 11.925,0.333333333 L1.4,4.54166667 C1.1703164,4.60095733 0.99620056,4.82948427 1,5.06666667 L1,18.4 C0.995614133,18.6488533 1.18885203,18.8866845 1.43333333,18.9333333 L11.8916667,23.65 C12.0737843,23.7780176 12.3380272,23.7744944 12.5166667,23.6416667 L22.9833333,18.9333333 C23.2218157,18.8799248 23.4058829,18.6443187 23.4,18.4 L23.4,5.06666667 C23.4022133,4.8538968 23.2639195,4.6464616 23.0666667,4.56666667 C19.1619339,3.00787387 16.2814163,1.8525664 12.4,0.3 C12.3342733,0.272374027 12.2629627,0.25811192 12.1916667,0.258333333 L12.1916667,0.258333333 Z M21.425,5.06666667 L17.5333333,6.61666667 L8.30833333,2.93333333 L12.2,1.375 L16,2.89166667 L21.425,5.06666667 Z M6.86666667,3.50833333 L16.0916667,7.2 L12.2,8.75 L2.975,5.06666667 L6.86666667,3.50833333 Z M2.06666667,5.85 L11.6666667,9.69166667 L11.6666667,22.3666667 L2.06666667,18.0583333 L2.06666667,5.85 Z M22.3333333,5.85 L22.3333333,18.0583333 L18.0666667,19.975 L18.0666667,16.5333333 C18.073184,16.2307867 17.7757973,15.9585312 17.475,15.9916667 C17.2129328,16.0204653 16.9943296,16.2697493 17,16.5333333 L17,20.4583333 L12.7333333,22.3666667 L12.7333333,9.69166667 L17,7.98333333 L17,11.4666667 C16.9960213,11.7484301 17.2515416,12.0075861 17.5333333,12.0075861 C17.8151251,12.0075861 18.0706464,11.7484301 18.0666667,11.4666667 L18.0666667,7.55833333 L22.3333333,5.85 Z"></path>
        </g>
    </symbol>

    <symbol id="resources" viewBox="0 0 24 24">
        <g stroke="none" stroke-width="1" fill-rule="evenodd">
            <path d="M4.08152941,2.89623529 C3.74235294,2.89623529 3.46670588,3.17223529 3.46670588,3.51105882 C3.46670588,3.85023529 3.74235294,4.12588235 4.08152941,4.12588235 C4.42070588,4.12588235 4.69635294,3.85023529 4.69635294,3.51105882 C4.69670588,3.17223529 4.42070588,2.89623529 4.08152941,2.89623529 L4.08152941,2.89623529 Z M3.99082353,3.51105882 C3.99082353,3.46094118 4.03141176,3.42 4.08188235,3.42 C4.13235294,3.42 4.17294118,3.46094118 4.17294118,3.51105882 C4.17258824,3.61129412 3.99082353,3.61129412 3.99082353,3.51105882 L3.99082353,3.51105882 Z M18.7801176,3.15811765 L13.5594118,3.15811765 C13.3642353,3.15811765 13.2064706,3.31623529 13.2064706,3.51105882 C13.2064706,3.70623529 13.3642353,3.864 13.5594118,3.864 L18.7801176,3.864 C18.9752941,3.864 19.1330588,3.70623529 19.1330588,3.51105882 C19.1330588,3.31623529 18.9752941,3.15811765 18.7801176,3.15811765 L18.7801176,3.15811765 Z M6.64035294,2.89623529 C6.30117647,2.89623529 6.02552941,3.17223529 6.02552941,3.51105882 C6.02552941,3.85023529 6.30117647,4.12588235 6.64035294,4.12588235 C6.97952941,4.12588235 7.25517647,3.85023529 7.25517647,3.51105882 C7.25552941,3.17223529 6.97952941,2.89623529 6.64035294,2.89623529 L6.64035294,2.89623529 Z M6.54964706,3.51105882 C6.54964706,3.46094118 6.59023529,3.42 6.64070588,3.42 C6.69117647,3.42 6.73176471,3.46094118 6.73176471,3.51105882 C6.73141176,3.61129412 6.54964706,3.61129412 6.54964706,3.51105882 L6.54964706,3.51105882 Z M18.7801176,8.81717647 L13.5594118,8.81717647 C13.3642353,8.81717647 13.2064706,8.97494118 13.2064706,9.17011765 C13.2064706,9.36529412 13.3642353,9.52305882 13.5594118,9.52305882 L18.7801176,9.52305882 C18.9752941,9.52305882 19.1330588,9.36529412 19.1330588,9.17011765 C19.1330588,8.97494118 18.9752941,8.81717647 18.7801176,8.81717647 L18.7801176,8.81717647 Z M4.08152941,8.55529412 C3.74235294,8.55529412 3.46670588,8.83094118 3.46670588,9.17011765 C3.46670588,9.50929412 3.74235294,9.78494118 4.08152941,9.78494118 C4.42070588,9.78494118 4.69635294,9.50929412 4.69635294,9.17011765 C4.69635294,8.83094118 4.42070588,8.55529412 4.08152941,8.55529412 L4.08152941,8.55529412 Z M3.99082353,9.17011765 C3.99082353,9.11964706 4.03141176,9.07905882 4.08188235,9.07905882 C4.13235294,9.07905882 4.17294118,9.11964706 4.17294118,9.17011765 C4.17258824,9.27105882 3.99082353,9.27105882 3.99082353,9.17011765 L3.99082353,9.17011765 Z M21.9276471,1.50741176 C21.9276471,0.857647059 21.3989412,0.328941176 20.7488235,0.328941176 L2.42729412,0.328941176 C1.77752941,0.328941176 1.24882353,0.857647059 1.24882353,1.50741176 L1.24882353,5.51505882 C1.24882353,5.83658824 1.37905882,6.12776471 1.58835294,6.34094118 C1.37905882,6.55376471 1.24882353,6.84494118 1.24882353,7.16647059 L1.24882353,11.1741176 C1.24882353,11.4956471 1.37905882,11.7868235 1.58835294,12 C1.37905882,12.2128235 1.24882353,12.504 1.24882353,12.8255294 L1.24882353,16.8331765 C1.24882353,17.1547059 1.37905882,17.4458824 1.58835294,17.6587059 C1.37905882,17.8718824 1.24882353,18.1630588 1.24882353,18.4845882 L1.24882353,22.4922353 C1.24882353,23.1423529 1.77752941,23.6710588 2.42729412,23.6710588 L20.7488235,23.6710588 C21.3989412,23.6710588 21.9276471,23.1423529 21.9276471,22.4922353 L21.9276471,18.4845882 C21.9276471,18.1630588 21.7977647,17.8718824 21.5881176,17.6587059 C21.7977647,17.4458824 21.9276471,17.1547059 21.9276471,16.8331765 L21.9276471,12.8255294 C21.9276471,12.504 21.7977647,12.2128235 21.5881176,12 C21.7977647,11.7868235 21.9276471,11.4956471 21.9276471,11.1741176 L21.9276471,7.16647059 C21.9276471,6.84494118 21.7977647,6.55376471 21.5881176,6.34094118 C21.7977647,6.12776471 21.9276471,5.83658824 21.9276471,5.51505882 L21.9276471,1.50741176 L21.9276471,1.50741176 Z M21.2217647,22.4925882 C21.2217647,22.7534118 21.0096471,22.9655294 20.7488235,22.9655294 L2.42729412,22.9655294 C2.16682353,22.9655294 1.95470588,22.7534118 1.95470588,22.4925882 L1.95470588,18.4845882 C1.95470588,18.2237647 2.16682353,18.0116471 2.42729412,18.0116471 L20.7488235,18.0116471 C21.0096471,18.0116471 21.2217647,18.2237647 21.2217647,18.4845882 L21.2217647,22.4925882 L21.2217647,22.4925882 Z M21.2217647,16.8331765 C21.2217647,17.0936471 21.0096471,17.3057647 20.7488235,17.3057647 L2.42729412,17.3057647 C2.16682353,17.3057647 1.95470588,17.0936471 1.95470588,16.8331765 L1.95470588,12.8255294 C1.95470588,12.5650588 2.16682353,12.3529412 2.42729412,12.3529412 L20.7488235,12.3529412 C21.0096471,12.3529412 21.2217647,12.5650588 21.2217647,12.8255294 L21.2217647,16.8331765 L21.2217647,16.8331765 Z M21.2217647,11.1741176 C21.2217647,11.4349412 21.0096471,11.6470588 20.7488235,11.6470588 L2.42729412,11.6470588 C2.16682353,11.6470588 1.95470588,11.4349412 1.95470588,11.1741176 L1.95470588,7.16647059 C1.95470588,6.906 2.16682353,6.69388235 2.42729412,6.69388235 L20.7488235,6.69388235 C21.0096471,6.69388235 21.2217647,6.906 21.2217647,7.16647059 L21.2217647,11.1741176 L21.2217647,11.1741176 Z M21.2217647,5.51505882 C21.2217647,5.77588235 21.0096471,5.988 20.7488235,5.988 L2.42729412,5.988 C2.16682353,5.988 1.95470588,5.77588235 1.95470588,5.51505882 L1.95470588,1.50741176 C1.95470588,1.24694118 2.16682353,1.03482353 2.42729412,1.03482353 L20.7488235,1.03482353 C21.0096471,1.03482353 21.2217647,1.24694118 21.2217647,1.50741176 L21.2217647,5.51505882 L21.2217647,5.51505882 Z M6.64035294,8.55529412 C6.30117647,8.55529412 6.02552941,8.83094118 6.02552941,9.17011765 C6.02552941,9.50929412 6.30117647,9.78494118 6.64035294,9.78494118 C6.97952941,9.78494118 7.25517647,9.50929412 7.25517647,9.17011765 C7.25517647,8.83094118 6.97952941,8.55529412 6.64035294,8.55529412 L6.64035294,8.55529412 Z M6.54964706,9.17011765 C6.54964706,9.11964706 6.59023529,9.07905882 6.64070588,9.07905882 C6.69117647,9.07905882 6.73176471,9.11964706 6.73176471,9.17011765 C6.73141176,9.27105882 6.54964706,9.27105882 6.54964706,9.17011765 L6.54964706,9.17011765 Z M6.64035294,14.2143529 C6.30117647,14.2143529 6.02552941,14.49 6.02552941,14.8291765 C6.02552941,15.1683529 6.30117647,15.444 6.64035294,15.444 C6.97952941,15.444 7.25517647,15.1683529 7.25517647,14.8291765 C7.25517647,14.49 6.97952941,14.2143529 6.64035294,14.2143529 L6.64035294,14.2143529 Z M6.54964706,14.8295294 C6.54964706,14.7790588 6.59023529,14.7384706 6.64070588,14.7384706 C6.69117647,14.7384706 6.73176471,14.7790588 6.73176471,14.8295294 C6.73141176,14.9301176 6.54964706,14.9301176 6.54964706,14.8295294 L6.54964706,14.8295294 Z M4.08152941,14.2143529 C3.74235294,14.2143529 3.46670588,14.49 3.46670588,14.8291765 C3.46670588,15.1683529 3.74235294,15.444 4.08152941,15.444 C4.42070588,15.444 4.69635294,15.1683529 4.69635294,14.8291765 C4.69635294,14.49 4.42070588,14.2143529 4.08152941,14.2143529 L4.08152941,14.2143529 Z M3.99082353,14.8295294 C3.99082353,14.7790588 4.03141176,14.7384706 4.08188235,14.7384706 C4.13235294,14.7384706 4.17294118,14.7790588 4.17294118,14.8295294 C4.17258824,14.9301176 3.99082353,14.9301176 3.99082353,14.8295294 L3.99082353,14.8295294 Z M18.7801176,14.4765882 L13.5594118,14.4765882 C13.3642353,14.4765882 13.2064706,14.6343529 13.2064706,14.8295294 C13.2064706,15.0247059 13.3642353,15.1824706 13.5594118,15.1824706 L18.7801176,15.1824706 C18.9752941,15.1824706 19.1330588,15.0247059 19.1330588,14.8295294 C19.1330588,14.6343529 18.9752941,14.4765882 18.7801176,14.4765882 L18.7801176,14.4765882 Z M4.08152941,19.8737647 C3.74235294,19.8737647 3.46670588,20.1494118 3.46670588,20.4885882 C3.46670588,20.8277647 3.74235294,21.1034118 4.08152941,21.1034118 C4.42070588,21.1034118 4.69635294,20.8277647 4.69635294,20.4885882 C4.69635294,20.1494118 4.42070588,19.8737647 4.08152941,19.8737647 L4.08152941,19.8737647 Z M3.99082353,20.4885882 C3.99082353,20.4381176 4.03141176,20.3975294 4.08188235,20.3975294 C4.13235294,20.3975294 4.17294118,20.4381176 4.17294118,20.4885882 C4.17258824,20.5891765 3.99082353,20.5891765 3.99082353,20.4885882 L3.99082353,20.4885882 Z M18.7801176,20.1356471 L13.5594118,20.1356471 C13.3642353,20.1356471 13.2064706,20.2934118 13.2064706,20.4885882 C13.2064706,20.6837647 13.3642353,20.8415294 13.5594118,20.8415294 L18.7801176,20.8415294 C18.9752941,20.8415294 19.1330588,20.6837647 19.1330588,20.4885882 C19.1330588,20.2934118 18.9752941,20.1356471 18.7801176,20.1356471 L18.7801176,20.1356471 Z M6.64035294,19.8737647 C6.30117647,19.8737647 6.02552941,20.1494118 6.02552941,20.4885882 C6.02552941,20.8277647 6.30117647,21.1034118 6.64035294,21.1034118 C6.97952941,21.1034118 7.25517647,20.8277647 7.25517647,20.4885882 C7.25517647,20.1494118 6.97952941,19.8737647 6.64035294,19.8737647 L6.64035294,19.8737647 Z M6.54964706,20.4885882 C6.54964706,20.4381176 6.59023529,20.3975294 6.64070588,20.3975294 C6.69117647,20.3975294 6.73176471,20.4381176 6.73176471,20.4885882 C6.73141176,20.5891765 6.54964706,20.5891765 6.54964706,20.4885882 L6.54964706,20.4885882 Z"></path>
        </g>
    </symbol>

    <symbol id="cluster" viewBox="0 0 24 24">
        <g stroke="none" stroke-width="1" fill-rule="evenodd">
            <path d="M20.1,23.475 C19.2,23.475 18.375,23.1 17.7,22.5 C17.1,21.9 16.725,21 16.725,20.1 C16.725,19.2 17.1,18.375 17.7,17.7 C18.3,17.1 19.2,16.725 20.1,16.725 C21,16.725 21.825,17.1 22.5,17.7 C23.775,18.975 23.775,21.15 22.5,22.425 C21.825,23.1 21,23.475 20.1,23.475 L20.1,23.475 Z M20.1,17.85 C19.5,17.85 18.975,18.075 18.525,18.525 C18.075,18.975 17.85,19.5 17.85,20.1 C17.85,20.7 18.075,21.225 18.525,21.675 C19.35,22.5 20.85,22.5 21.675,21.675 C22.575,20.775 22.575,19.425 21.675,18.525 C21.225,18.075 20.7,17.85 20.1,17.85 L20.1,17.85 Z"></path>
            <path d="M20.1,7.275 C19.2,7.275 18.375,6.9 17.7,6.3 C17.1,5.7 16.725,4.8 16.725,3.9 C16.725,3 17.1,2.175 17.7,1.5 C18.3,0.9 19.2,0.525 20.1,0.525 C21,0.525 21.825,0.9 22.5,1.5 C23.775,2.775 23.775,4.95 22.5,6.225 C21.825,6.9 21,7.275 20.1,7.275 L20.1,7.275 Z M20.1,1.725 C19.5,1.725 18.975,1.95 18.525,2.4 C18.075,2.85 17.85,3.375 17.85,3.975 C17.85,4.575 18.075,5.1 18.525,5.55 C19.35,6.375 20.85,6.375 21.675,5.55 C22.575,4.65 22.575,3.3 21.675,2.4 C21.225,1.95 20.7,1.725 20.1,1.725 L20.1,1.725 Z"></path>
            <rect transform="translate(12.776359, 16.993001) rotate(205.042853) translate(-12.776359, -16.993001) " x="7.63881023" y="16.4304959" width="10.275097" height="1.12501063"></rect>
            <rect transform="translate(12.775935, 7.036657) rotate(244.969954) translate(-12.775935, -7.036657) " x="12.2134263" y="1.89907833" width="1.12501734" height="10.2751583"></rect>
            <path d="M5.25,16.65 C3.975,16.65 2.85,16.2 1.95,15.3 C0.15,13.5 0.15,10.5 1.95,8.7 C2.775,7.8 3.975,7.35 5.25,7.35 C6.525,7.35 7.65,7.8 8.55,8.7 C9.45,9.6 9.9,10.725 9.9,12 C9.9,13.275 9.45,14.4 8.55,15.3 C7.65,16.2 6.45,16.65 5.25,16.65 L5.25,16.65 Z M5.25,8.475 C4.275,8.475 3.45,8.85 2.775,9.525 C1.425,10.875 1.425,13.125 2.775,14.55 C3.45,15.225 4.35,15.6 5.25,15.6 C6.15,15.6 7.05,15.225 7.725,14.55 C8.4,13.875 8.775,12.975 8.775,12.075 C8.775,11.1 8.4,10.275 7.725,9.6 C7.05,8.85 6.15,8.475 5.25,8.475 L5.25,8.475 Z"></path>
        </g>
    </symbol>

    <symbol id="upload" viewBox="0 0 24 24">
        <g stroke-width="1" fill-rule="evenodd">
            <path d="M11.4736842,23.1111111 L4.10522126,23.1111111 C3.53127256,23.1111111 3.05263158,22.71495 3.05263158,22.2262604 L3.05263158,1.77373958 C3.05263158,1.293567 3.52182656,0.888888889 4.10060789,0.888888889 L14.6315789,0.888888889 L14.6315789,5.32807196 C14.6315789,6.3230624 15.5731539,7.11111111 16.7346454,7.11111111 L20.9473684,7.11111111 L20.9473684,22.2280909 C20.9473684,22.7156033 20.476108,23.1111111 19.8947787,23.1111111 L12.5263158,23.1111111 L12.5263158,14.2222222 L15.9473684,17.1111111 L16.7368421,16.4444444 L12,12.4444444 L7.26315789,16.4444444 L8.05263158,17.1111111 L11.4736842,14.2222222 L11.4736842,23.1111111 L11.4736842,23.1111111 L11.4736842,23.1111111 Z M15.1578947,0 L4.10816856,0 C2.94385921,0 2,0.798522951 2,1.78429328 L2,22.2157068 C2,23.2011447 2.9378162,24 4.10254938,24 L19.8974506,24 C21.0586566,24 22,23.201589 22,22.2304044 L22,6.66666667 L22,6.22222222 L15.6842105,0 L15.1578947,0 L15.1578947,0 L15.1578947,0 L15.1578947,0 Z M15.6842105,1.33333333 L15.6842105,5.32552465 C15.6842105,5.82075704 16.1585801,6.22222222 16.7334093,6.22222222 L20.6315276,6.22222222 L15.6842105,1.33333333 L15.6842105,1.33333333 L15.6842105,1.33333333 Z"></path>
        </g>
    </symbol>

    <!-- <symbol id="<name>" viewBox="0 0 24 24">
    </symbol>  -->
</svg>
