<svg xmlns="http://www.w3.org/2000/svg">
    <symbol id="logo" viewBox="0 0 24 24">
        <g stroke="none" stroke-width="1" fill="none" fill-rule="evenodd">
            <g transform="translate(-570.000000, -106.000000)">
                <g transform="translate(570.000000, 106.000000)">
                    <path d="M0.0981060606,4.2809466 L0.0978650138,12.6237864 L2.80253099,11.051335 L2.80325413,5.85364078 L7.27202135,3.25570388 L7.27202135,0.110436893 L0.0981060606,4.2809466" fill-opacity="0.420000017" fill="#000000"></path>
                    <path d="M16.444697,19.2520631 L11.974604,21.8506068 L7.50607782,19.2527913 L4.80105028,20.8254854 L11.974604,24.9958738 L19.149845,20.8246359 L16.444697,19.2520631" fill-opacity="0.409999996" fill="#000000"></path>
                    <path d="M16.6775482,0.110558252 L16.6775482,3.25582524 L21.146918,5.85412621 L21.1467975,11.0497573 L23.8519456,12.6223301 L23.8520661,4.2815534 L16.6775482,0.110558252" fill="#000000"></path>
                    <path fill="#000000" d="M11.9747245,11.1867718 L11.9758092,11.1860437 L11.9747245,11.1854369 L11.9747245,11.1867718"></path>
                    <path d="M16.6775482,3.25582524 L16.6775482,5.57839806 L11.9747245,8.31237864 L7.27190083,5.57839806 L7.27202135,3.25570388 L2.80325413,5.85364078 L11.9747245,11.1854369 L21.146918,5.85412621 L16.6775482,3.25582524" fill="#505052"></path>
                    <path d="M11.9758092,11.1860437 L11.974604,21.8506068 L16.444697,19.2520631 L14.4467803,18.090534 L14.4469008,12.6226942 L19.149604,9.88859223 L21.1467975,11.0497573 L21.146918,5.85424757 L11.9758092,11.1860437" fill="#000000"></path>
                    <path d="M2.80325413,5.85364078 L2.80253099,11.051335 L4.80056818,9.88980583 L9.50327135,12.6237864 L9.50327135,18.0917476 L7.50607782,19.2527913 L11.974604,21.8506068 L11.9747245,11.1867718 L2.80325413,5.85364078" fill="#3C3B3C"></path>
                    <path d="M16.6775482,3.25582524 L11.9747245,5.98968447 L11.9747245,8.31237864 L16.6775482,5.57839806 L16.6775482,3.25582524" fill="#000000"></path>
                    <path d="M7.27202135,3.25570388 L7.27190083,5.57839806 L11.9747245,8.31237864 L11.9747245,5.98968447 L7.27202135,3.25570388" fill="#000000"></path>
                    <path fill="#000000"></path>
                    <path fill="#000000" d="M21.1471591,11.05 L21.1467975,11.0497573 L21.1467975,11.0501214 L21.1471591,11.05"></path>
                    <path d="M16.4444559,13.7839806 L14.4469008,12.6226942 L14.4467803,18.090534 L16.444697,19.2520631 L16.4444559,13.7839806" fill="#000000"></path>
                    <path d="M14.4469008,12.6226942 L16.4444559,13.7838592 L21.1467975,11.0501214 L19.149604,9.88859223 L14.4469008,12.6226942" fill="#DA2681"></path>
                    <path fill="#000000" d="M7.50571625,19.253034 L7.50607782,19.2527913 L7.50571625,19.2525485 L7.50571625,19.253034"></path>
                    <path d="M7.50547521,13.7849515 L9.5030303,12.623665 L4.80056818,9.88980583 L2.80253099,11.051335 L7.50547521,13.7849515" fill="#DA2681"></path>
                    <path d="M9.5030303,12.623665 L7.50571625,13.7850728 L7.50607782,19.2527913 L9.50327135,18.0917476 L9.5030303,12.623665" fill="#0A0B09"></path>
                </g>
            </g>
        </g>
    </symbol>

    <symbol id="refresh" viewBox="0 0 24 24">
        <g stroke-width="1" fill-rule="evenodd">
            <path d="M21.9368322,7.47213808 C20.2183037,3.65556882 16.3941205,1 11.952381,1 C5.90354798,1 1,5.92486775 1,12 C1,18.0751322 5.90354798,23 11.952381,23 C16.0063081,23 19.5458101,20.7879075 21.4395283,17.5 L20.3684362,17.5 C18.5770821,20.2593585 15.4768155,22.0833333 11.952381,22.0833333 C6.40761739,22.0833333 1.91269841,17.5688712 1.91269841,12 C1.91269841,6.43112877 6.40761739,1.91666667 11.952381,1.91666667 C16.1470702,1.91666667 19.7409198,4.50035147 21.2423419,8.1696479 L18.5238095,10.9 L24,10.9 L24,5.4 L21.9368322,7.47213808 Z"></path>
        </g>
    </symbol>

    <symbol id="manage" viewBox="0 0 24 24">
        <g   stroke-width="1" fill-rule="evenodd">
            <path d="M8.05000906,3 L2,3 L2,4 L8.05000906,4 C8.28164422,5.14112016 9.29052104,6 10.5,6 C11.709479,6 12.7183558,5.14112016 12.9499909,4 L22,4 L22,3 L12.9499909,3 C12.7183558,1.85887984 11.709479,1 10.5,1 C9.29052104,1 8.28164422,1.85887984 8.05000906,3 Z M10.5,5 C11.3284271,5 12,4.32842712 12,3.5 C12,2.67157288 11.3284271,2 10.5,2 C9.67157288,2 9,2.67157288 9,3.5 C9,4.32842712 9.67157288,5 10.5,5 Z"></path>
            <path d="M3.05000906,19 L2,19 L2,20 L3.05000906,20 C3.28164422,21.1411202 4.29052104,22 5.5,22 C6.70947896,22 7.71835578,21.1411202 7.94999094,20 L22,20 L22,19 L7.94999094,19 C7.71835578,17.8588798 6.70947896,17 5.5,17 C4.29052104,17 3.28164422,17.8588798 3.05000906,19 Z M5.5,21 C6.32842712,21 7,20.3284271 7,19.5 C7,18.6715729 6.32842712,18 5.5,18 C4.67157288,18 4,18.6715729 4,19.5 C4,20.3284271 4.67157288,21 5.5,21 Z"></path>
            <path d="M15.0500091,11 L2,11 L2,12 L15.0500091,12 C15.2816442,13.1411202 16.290521,14 17.5,14 C18.709479,14 19.7183558,13.1411202 19.9499909,12 L22,12 L22,11 L19.9499909,11 C19.7183558,9.85887984 18.709479,9 17.5,9 C16.290521,9 15.2816442,9.85887984 15.0500091,11 Z M17.5,13 C18.3284271,13 19,12.3284271 19,11.5 C19,10.6715729 18.3284271,10 17.5,10 C16.6715729,10 16,10.6715729 16,11.5 C16,12.3284271 16.6715729,13 17.5,13 Z"></path>
        </g>
    </symbol>

    <symbol id="audit" viewBox="0 0 24 24">
         <g stroke-width="1" fill-rule="evenodd" transform="translate(3.000000, 0.000000)">
            <path d="M13.5,1.8 L5.4,10.1 C5.3,10.2 5.3,10.2 5.3,10.3 L4.6,13 C4.6,13.2 4.6,13.4 4.7,13.5 C4.8,13.6 4.9,13.7 5.1,13.7 L5.2,13.7 L7.9,13 C8,13 8.1,12.9 8.1,12.9 L16.2,4.6 L16.2,4.6 L16.2,4.6 L17.8,2.9 C18,2.7 18,2.4 17.8,2.2 L15.8,0.2 C15.8,0.1 15.7,0 15.5,0 C15.4,0 15.2,0.1 15.1,0.2 L13.5,1.8 L13.5,1.8 L13.5,1.8 L13.5,1.8 L13.5,1.8 Z M7.5,12 L5.8,12.5 L6.2,10.8 L13.8,3 L15.1,4.3 L7.5,12 L7.5,12 Z M15.5,1.3 L16.8,2.6 L15.9,3.5 L14.6,2.2 L15.5,1.3 L15.5,1.3 Z"></path>
            <path d="M17.5,5.53181818 C17.2,5.53181818 17,5.72272727 17,6.00909091 L17,22.0454545 L1,22.0454545 L1,2.95454545 L10.4,2.95454545 C10.7,2.95454545 10.9,2.76363636 10.9,2.47727273 C10.9,2.19090909 10.7,2 10.4,2 L0.5,2 C0.2,2 0,2.19090909 0,2.47727273 L0,22.5227273 C0,22.8090909 0.2,23 0.5,23 L17.5,23 C17.8,23 18,22.8090909 18,22.5227273 L18,6.00909091 C18,5.72272727 17.8,5.53181818 17.5,5.53181818 L17.5,5.53181818 L17.5,5.53181818 Z"></path>
        </g>
    </symbol>

    <symbol id="signout" viewBox="0 0 24 24">
        <g stroke-width="1" fill-rule="evenodd" transform="translate(2.000000, 1.000000)">
            <path d="M21.3,10.5 L17.4,6.8 C17.1,6.5 16.6,6.5 16.4,6.8 C16.1,7.1 16.1,7.5 16.4,7.8 L19,10.3 L8.5,10.3 C8.1,10.3 7.8,10.6 7.8,11 C7.8,11.4 8.1,11.7 8.5,11.7 L19,11.7 L16.4,14.2 C16.1,14.5 16.1,14.9 16.4,15.2 C16.5,15.3 16.7,15.4 16.9,15.4 C17.1,15.4 17.3,15.3 17.4,15.2 L21.3,11.5 C21.4,11.4 21.5,11.2 21.5,11 C21.5,10.8 21.4,10.6 21.3,10.5 L21.3,10.5 L21.3,10.5 Z" ></path>
            <path d="M14.3416667,16.9583333 C13.975,16.9583333 13.7,17.2333333 13.7,17.6 L13.7,20.7166667 L1.875,20.7166667 L1.875,1.28333333 L13.7,1.28333333 L13.7,4.4 C13.7,4.76666667 13.975,5.04166667 14.3416667,5.04166667 C14.7083333,5.04166667 14.9833333,4.76666667 14.9833333,4.4 L14.9833333,0.641666667 C14.9833333,0.275 14.7083333,0 14.3416667,0 L1.14166667,0 C0.775,0 0.5,0.275 0.5,0.641666667 L0.5,21.3583333 C0.5,21.725 0.775,22 1.14166667,22 L14.25,22 C14.6166667,22 14.8916667,21.725 14.8916667,21.3583333 L14.8916667,17.6 C14.9833333,17.2333333 14.7083333,16.9583333 14.3416667,16.9583333 L14.3416667,16.9583333 L14.3416667,16.9583333 Z"></path>
        </g>
    </symbol>

    <symbol id="x" viewBox="0 0 24 24">
        <path d="M15.7,12l8.1-8.1c0.2-0.2,0.2-0.5,0-0.7l-3-3C20.8,0.1,20.6,0,20.5,0c-0.1,0-0.3,0.1-0.4,0.1L12,8.3L3.9,0.1
        C3.7,0,3.3,0,3.2,0.1l-3,3C0,3.3,0,3.7,0.1,3.9L8.3,12l-8.1,8.1c-0.2,0.2-0.2,0.5,0,0.7l3,3C3.2,23.9,3.4,24,3.5,24
        c0.1,0,0.3-0.1,0.4-0.1l8.1-8.1l8.1,8.1c0.1,0.1,0.2,0.1,0.4,0.1c0.1,0,0.3-0.1,0.4-0.1l3-3c0.2-0.2,0.2-0.5,0-0.7L15.7,12z
         M15.7,12"/>
    </symbol>

    <symbol id="chevron" viewBox="0 0 24 24">
        <g>
            <path d="M11.7,18.8c-0.3,0-0.7-0.1-0.9-0.4L0.4,8.2c-0.5-0.5-0.5-1.4,0-1.9c0.5-0.5,1.4-0.5,1.9,0l9.4,9.2l10.1-9.9
                c0.5-0.5,1.4-0.5,1.9,0c0.5,0.5,0.5,1.4,0,1.9l-11,10.8C12.3,18.6,12,18.8,11.7,18.8z"/>
        </g>
    </symbol>

    <symbol id="bin-closed" viewBox="0 0 24 24">
        <g stroke-width="1" fill-rule="evenodd">
            <path d="M15.5583333,21.25 C15.925,21.25 16.2,20.975 16.2,20.6083333 L16.2,12.3583333 C16.2,11.9916667 15.925,11.625 15.5583333,11.625 C15.1916667,11.625 14.9166667,11.9 14.9166667,12.3583333 L14.9166667,20.6083333 C14.825,20.975 15.1,21.25 15.5583333,21.25 L15.5583333,21.25 L15.5583333,21.25 Z M15.4666667,4.75 L15.4666667,3.375 C15.5583333,2.64166667 14.9166667,2 14.1833333,2 L10.15,2 C9.41666667,2 8.775,2.64166667 8.775,3.375 L8.775,4.75 L4.83333333,4.75 C4.1,4.75 3.45833333,5.39166667 3.45833333,6.125 L3.45833333,7.5 C3.45833333,8.23333333 4.1,8.875 4.83333333,8.875 L4.83333333,21.25 C4.83333333,22.8083333 6.025,24 7.49166667,24 L16.8416667,24 C18.3083333,24 19.5,22.8083333 19.5,21.25 L19.5,8.875 C20.2333333,8.875 20.875,8.23333333 20.875,7.5 L20.875,6.125 C20.875,5.39166667 20.2333333,4.75 19.5,4.75 L15.4666667,4.75 Z M10.15,4.01666667 C10.15,3.65 10.425,3.375 10.7916667,3.375 L13.45,3.375 C13.8166667,3.375 14.0916667,3.65 14.0916667,4.01666667 L14.0916667,4.75 L10.15,4.75 L10.15,4.01666667 L10.15,4.01666667 Z M18.2166667,21.25 C18.2166667,21.9833333 17.575,22.625 16.8416667,22.625 L7.49166667,22.625 C6.75833333,22.625 6.11666667,21.9833333 6.11666667,21.25 L6.11666667,8.875 L18.2166667,8.875 L18.2166667,21.25 L18.2166667,21.25 Z M18.8583333,7.5 L5.475,7.5 C5.10833333,7.5 4.83333333,7.225 4.83333333,6.85833333 C4.83333333,6.49166667 5.10833333,6.125 5.475,6.125 L18.8583333,6.125 C19.225,6.125 19.5,6.4 19.5,6.85833333 C19.5,7.225 19.225,7.5 18.8583333,7.5 L18.8583333,7.5 L18.8583333,7.5 Z M8.775,21.25 C9.14166667,21.25 9.41666667,20.975 9.41666667,20.6083333 L9.41666667,12.3583333 C9.41666667,11.9916667 9.14166667,11.625 8.775,11.625 C8.40833333,11.625 8.13333333,11.9 8.13333333,12.3583333 L8.13333333,20.6083333 C8.13333333,20.975 8.40833333,21.25 8.775,21.25 L8.775,21.25 L8.775,21.25 Z M12.1666667,21.25 C12.5333333,21.25 12.8083333,20.975 12.8083333,20.6083333 L12.8083333,12.3583333 C12.8083333,11.9916667 12.5333333,11.625 12.1666667,11.625 C11.8,11.625 11.525,11.9 11.525,12.3583333 L11.525,20.6083333 C11.525,20.975 11.8,21.25 12.1666667,21.25 L12.1666667,21.25 L12.1666667,21.25 Z"></path>
        </g>
    </symbol>

    <symbol id="bin-opened" viewBox="0 0 24 24">
        <g stroke-width="1" fill-rule="evenodd">
            <path transform="translate(3.000000, 8.000000)" d="M12.33,13.5 C12.69,13.5 12.96,13.23 12.96,12.87 L12.96,4.77 C12.96,4.41 12.69,4.05 12.33,4.05 C11.97,4.05 11.7,4.32 11.7,4.77 L11.7,12.87 C11.61,13.23 11.88,13.5 12.33,13.5 L12.33,13.5 L12.33,13.5 Z M0.45,3.17967874e-14 C0.45,0.72 1.08,1.35 1.8,1.35 L1.8,13.5 C1.8,15.03 2.97,16.2 4.41,16.2 L13.59,16.2 C15.03,16.2 16.2,15.03 16.2,13.5 L16.2,1.35 C16.92,1.35 17.55,0.72 17.55,3.17967874e-14 L0.45,3.17967874e-14 Z M14.94,13.5 C14.94,14.22 14.31,14.85 13.59,14.85 L4.41,14.85 C3.69,14.85 3.06,14.22 3.06,13.5 L3.06,1.35 L14.94,1.35 L14.94,13.5 L14.94,13.5 Z M5.67,13.5 C6.03,13.5 6.3,13.23 6.3,12.87 L6.3,4.77 C6.3,4.41 6.03,4.05 5.67,4.05 C5.31,4.05 5.04,4.32 5.04,4.77 L5.04,12.87 C5.04,13.23 5.31,13.5 5.67,13.5 L5.67,13.5 L5.67,13.5 Z M9,13.5 C9.36,13.5 9.63,13.23 9.63,12.87 L9.63,4.77 C9.63,4.41 9.36,4.05 9,4.05 C8.64,4.05 8.37,4.32 8.37,4.77 L8.37,12.87 C8.37,13.23 8.64,13.5 9,13.5 L9,13.5 L9,13.5 Z"></path>
            <path d="M15.24,2.7 L15.24,1.35 C15.33,0.63 14.7,0 13.98,0 L10.02,0 C9.3,0 8.67,0.63 8.67,1.35 L8.67,2.7 L4.8,2.7 C4.08,2.7 3.45,3.33 3.45,4.05 L3.45,5.4 C3.45,6.12 4.08,6.75 4.8,6.75 L19.2,6.75 C19.92,6.75 20.55,6.12 20.55,5.4 L20.55,4.05 C20.55,3.33 19.92,2.7 19.2,2.7 L15.24,2.7 Z M10.02,1.98 C10.02,1.62 10.29,1.35 10.65,1.35 L13.26,1.35 C13.62,1.35 13.89,1.62 13.89,1.98 L13.89,2.7 L10.02,2.7 L10.02,1.98 L10.02,1.98 Z M18.57,5.4 L5.43,5.4 C5.07,5.4 4.8,5.13 4.8,4.77 C4.8,4.41 5.07,4.05 5.43,4.05 L18.57,4.05 C18.93,4.05 19.2,4.32 19.2,4.77 C19.2,5.13 18.93,5.4 18.57,5.4 L18.57,5.4 L18.57,5.4 Z"></path>
        </g>
    </symbol>

    <symbol id="healthy" viewBox="0 0 24 24">
        <path d="M12,0C5.4,0,0,5.4,0,12s5.4,12,12,12s12-5.4,12-12C24,5.4,18.6,0,12,0z M12,22.9C6,22.9,1.2,18,1.2,12S6,1.1,12,1.1
            S22.8,6,22.8,12S18,22.9,12,22.9z"/>
        <path d="M15.1,8.9l-4.6,4.6l-1.7-1.7c-0.3-0.3-0.8-0.3-1.1,0c-0.3,0.3-0.3,0.8,0,1.1l2.2,2.2c0.2,0.2,0.4,0.2,0.6,0.2
        s0.4-0.1,0.6-0.2l5.2-5.2c0.3-0.3,0.3-0.8,0-1.1C15.9,8.6,15.4,8.6,15.1,8.9z"/>
    </symbol>

    <symbol id="problem" viewBox="0 0 24 24">
        <g stroke-width="1" fill-rule="evenodd">
                <path d="M11.9999997,23.9999995 C5.38008572,23.9999995 0,18.6199137 0,11.9999997 C0,5.38008572 5.38008572,0 11.9999997,0 C18.6199137,0 23.9999995,5.38008572 23.9999995,11.9999997 C24.0014504,18.6199137 18.6199137,23.9999995 11.9999997,23.9999995 Z M11.9999997,1.63085662 C6.28692326,1.63085662 1.63230756,6.28547232 1.63230756,11.9985488 C1.63230756,17.7116253 6.28692326,22.3662409 11.9999997,22.3662409 C17.7130762,22.3662409 22.3676919,17.7116253 22.3676919,11.9985488 C22.3691428,6.28692326 17.7130762,1.63085662 11.9999997,1.63085662 Z M11.9999997,15 C11.1724797,15 10.4998397,14.32992 10.4998397,13.50016 L10.4998397,6 C10.4998397,5.17248 11.1724797,4.49984 11.9999997,4.49984 C12.8275197,4.49984 13.5001597,5.17248 13.5001597,6 L13.5001597,13.50016 C13.5001597,14.32992 12.8275197,15 11.9999997,15 Z M11.9999997,19.50016 C11.6099197,19.50016 11.2198397,19.33504 10.9350397,19.06496 C10.6649597,18.78016 10.4998397,18.39008 10.4998397,18 C10.4998397,17.5936 10.6649597,17.21888 10.9350397,16.93504 C11.5049597,16.38016 12.5100797,16.38016 13.0649597,16.93504 C13.3350397,17.21888 13.5001597,17.60992 13.5001597,18 C13.5001597,18.39008 13.3350397,18.78016 13.0649597,19.06496 C12.7801597,19.33504 12.3900797,19.50016 11.9999997,19.50016 Z" ></path>
        </g>
    </symbol>

    <symbol id="working" viewBox="0 0 24 24">
        <g stroke="none" stroke-width="1" fill-rule="evenodd">
            <path d="M12,0 C5.37115385,0 0,5.37115385 0,12 C0,18.6288462 5.37115385,24 12,24 C18.6288462,24 24,18.6288462 24,12 C24,5.37115385 18.6288462,0 12,0 L12,0 Z M12,23.0019231 C5.93653846,23.0019231 0.998076923,18.0692308 0.998076923,12 C0.998076923,5.93653846 5.93076923,0.998076923 12,0.998076923 C18.0634615,0.998076923 23.0019231,5.93076923 23.0019231,12 C23.0019231,18.0634615 18.0634615,23.0019231 12,23.0019231 L12,23.0019231 Z"></path>
            <path d="M15.5333142,11.424127 L18.3275614,11.424127 L18.3275614,13.0678019 L15.5333142,13.0678019 L15.5333142,11.424127 Z M7.2296496,16.0819235 L9.20546184,14.1061113 L10.3677043,15.2683538 L8.39189209,17.244166 L7.2296496,16.0819235 Z M6,11.424127 L8.79424726,11.424127 L8.79424726,13.0678019 L6,13.0678019 L6,11.424127 Z M7.23176994,8.41205998 L8.39483427,7.25063933 L10.3692494,9.22784869 L9.20618505,10.3892693 L7.23176994,8.41205998 Z M13.9688973,15.1529349 L15.1311398,13.9906925 L17.1069521,15.9665047 L15.9447096,17.1287472 L13.9688973,15.1529349 Z M11.2597595,6 L12.9034344,6 L12.9034344,8.79424726 L11.2597595,8.79424726 L11.2597595,6 Z M11.2597595,15.5333142 L12.9034344,15.5333142 L12.9034344,18.3275614 L11.2597595,18.3275614 L11.2597595,15.5333142 Z"></path>
        </g>
    </symbol>

    <symbol id="copy-to-clipboard" viewBox="0 0 24 24">
        <g>
            <path d="M22.9,4.4h-3.3V1.1c0-0.6-0.5-1.1-1.1-1.1H1.1C0.5,0,0,0.5,0,1.1v17.5c0,0.6,0.5,1.1,1.1,1.1h3.3v3.3
                c0,0.6,0.5,1.1,1.1,1.1h17.5c0.6,0,1.1-0.5,1.1-1.1V5.5C24,4.9,23.5,4.4,22.9,4.4L22.9,4.4z M2.2,2.2h15.3v15.3h-12h0c0,0,0,0,0,0
                H2.2V2.2z M21.8,21.8H6.5v-2.2h12c0.6,0,1.1-0.5,1.1-1.1v-12h2.2V21.8z M21.8,21.8"/>
        </g>
    </symbol>

    <symbol id="notif-info" viewBox="0 0 24 24">
        <g>
            <g>
                <path d="M13.9,15.1L12.5,16V9.8c0-0.3-0.1-0.5-0.4-0.7c-0.2-0.1-0.5-0.1-0.8,0l-2,1.1c-0.4,0.2-0.5,0.7-0.3,1
                    c0.2,0.4,0.7,0.5,1,0.3l0.9-0.5v6.2c0,0.3,0.1,0.5,0.4,0.7c0.1,0.1,0.2,0.1,0.4,0.1c0.1,0,0.3,0,0.4-0.1l2.6-1.5
                    c0.4-0.2,0.5-0.7,0.3-1C14.8,15,14.3,14.9,13.9,15.1z"/>
                <circle cx="11.7" cy="7" r="1.1"/>
            </g>
            <path d="M12,0C5.4,0,0,5.4,0,12s5.4,12,12,12s12-5.4,12-12C24,5.4,18.6,0,12,0z M12,22.1C6.4,22.1,1.9,17.6,1.9,12
                C1.9,6.4,6.4,1.9,12,1.9S22.1,6.4,22.1,12S17.6,22.1,12,22.1z"/>
        </g>
    </symbol>

    <symbol id="notif-success" viewBox="0 0 24 24">
        <g>
            <path d="M12,0C5.4,0,0,5.4,0,12s5.4,12,12,12s12-5.4,12-12C24,5.4,18.6,0,12,0z M12,22.1C6.4,22.1,1.9,17.6,1.9,12
                C1.9,6.4,6.4,1.9,12,1.9S22.1,6.4,22.1,12C22.1,17.6,17.6,22.1,12,22.1z"/>
            <path d="M15.8,8.2l-5.6,5.6l-2-2c-0.4-0.4-1-0.4-1.4,0c-0.4,0.4-0.4,1,0,1.4l2.7,2.7c0.2,0.2,0.4,0.3,0.7,0.3
                c0.2,0,0.5-0.1,0.7-0.3l6.3-6.3c0.4-0.4,0.4-1,0-1.4C16.8,7.8,16.2,7.8,15.8,8.2z"/>
        </g>
    </symbol>

    <symbol id="notif-warning" viewBox="0 0 24 24">
        <g>
            <path d="M23.8,22.4L12.9,0.6c-0.5-0.9-1.6-0.5-1.8,0l-11,22C-0.3,23.4,0.5,24,1,24h22c0,0,0,0,0,0C23.8,24,24.3,23.1,23.8,22.4z
                 M2.6,22L12,3.2L21.4,22H2.6z"/>
            <path d="M11,9.4v6.2c0,0.6,0.4,1,1,1s1-0.4,1-1V9.4c0-0.6-0.4-1-1-1C11.4,8.4,11,8.9,11,9.4L11,9.4z"/>
            <ellipse cx="12" cy="19.1" rx="1" ry="1"/>
        </g>
    </symbol>

    <symbol id="notif-error" viewBox="0 0 24 24">
        <path d="M12,0C5.4,0,0,5.4,0,12s5.4,12,12,12s12-5.4,12-12C24,5.4,18.6,0,12,0z M12,22.8C6,22.8,1.2,18,1.2,12S6,1.2,12,1.2
            S22.8,6,22.8,12S18,22.8,12,22.8z M12.6,16.9c0,0.3-0.3,0.6-0.6,0.6c-0.3,0-0.6-0.3-0.6-0.6c0-0.3,0.3-0.6,0.6-0.6
            C12.3,16.3,12.6,16.6,12.6,16.9z M11.4,13.8V6.8c0-0.3,0.3-0.6,0.6-0.6c0.3,0,0.6,0.2,0.6,0.6v7.1c0,0.3-0.3,0.6-0.6,0.6
            C11.6,14.4,11.4,14.1,11.4,13.8z"/>
    </symbol>

    <symbol id="export" viewBox="0 0 24 24">
        <path d="M20.6,21H3.4c-0.5,0-0.9,0.4-0.9,0.9v1.2c0,0.5,0.4,0.9,0.9,0.9h17.1c0.5,0,0.9-0.4,0.9-0.9v-1.2C21.5,21.4,21.1,21,20.6,21
            L20.6,21z M20.6,21"/>
        <path d="M11.4,18.7c0.2,0.2,0.4,0.3,0.6,0.3c0.2,0,0.5-0.1,0.6-0.3l6.1-6.4c0.3-0.4,0.3-1,0-1.3l-0.8-0.9c-0.3-0.4-0.9-0.4-1.3,0
            l-3.1,3.3V0.9c0-0.5-0.4-0.9-0.9-0.9h-1.2c-0.5,0-0.9,0.4-0.9,0.9v12.4l-3.1-3.3c-0.3-0.4-0.9-0.4-1.3,0L5.3,11
            c-0.3,0.4-0.3,1,0,1.3L11.4,18.7z M11.4,18.7"/>
    </symbol>

    <symbol id="in-progress" viewBox="0 0 24 24">
        <g stroke-width="1" fill="#F2009B" fill-rule="evenodd">
            <path d="M12,0 C11.172,0 10.5,0.672 10.5,1.5 L10.5,4.5 C10.5,5.328 11.172,6 12,6 C12.828,6 13.5,5.328 13.5,4.5 L13.5,1.5 C13.5,0.672 12.828,0 12,0 L12,0 Z M12,18 C11.172,18 10.5,18.6705 10.5,19.5 L10.5,22.5 C10.5,23.3295 11.172,24 12,24 C12.828,24 13.5,23.3295 13.5,22.5 L13.5,19.5 C13.5,18.6705 12.828,18 12,18 L12,18 Z M18.363,7.758 L20.484,5.6355 C21.0705,5.0505 21.0705,4.0995 20.484,3.5145 C19.899,2.928 18.9495,2.928 18.363,3.5145 L16.242,5.6355 C15.6555,6.222 15.6555,7.1715 16.242,7.758 C16.8285,8.343 17.778,8.343 18.363,7.758 L18.363,7.758 Z M5.6355,16.242 L3.5145,18.363 C2.928,18.9495 2.928,19.899 3.5145,20.484 C4.0995,21.0705 5.049,21.0705 5.6355,20.484 L7.7565,18.363 C8.343,17.7765 8.343,16.8285 7.7565,16.242 C7.1715,15.657 6.222,15.657 5.6355,16.242 L5.6355,16.242 Z M5.6355,3.5145 C5.049,2.928 4.0995,2.928 3.5145,3.5145 C2.928,4.0995 2.928,5.0505 3.5145,5.6355 L5.6355,7.758 C6.222,8.343 7.1715,8.343 7.7565,7.758 C8.343,7.1715 8.343,6.222 7.7565,5.6355 L5.6355,3.5145 L5.6355,3.5145 Z M18.363,16.242 C17.7765,15.6555 16.8285,15.6555 16.242,16.242 C15.6555,16.8285 15.6555,17.7765 16.242,18.363 L18.363,20.484 C18.9495,21.0705 19.899,21.0705 20.484,20.484 C21.0705,19.899 21.0705,18.9495 20.484,18.363 L18.363,16.242 L18.363,16.242 Z M22.5,10.5 L19.5,10.5 C18.6705,10.5 18,11.172 18,12 C18,12.828 18.6705,13.5 19.5,13.5 L22.5,13.5 C23.3295,13.5 24,12.828 24,12 C24,11.172 23.3295,10.5 22.5,10.5 L22.5,10.5 Z M6,12 C6,11.172 5.328,10.5 4.5,10.5 L1.5,10.5 C0.672,10.5 0,11.172 0,12 C0,12.828 0.672,13.5 1.5,13.5 L4.5,13.5 C5.328,13.5 6,12.828 6,12 L6,12 Z"></path>
        </g>
    </symbol>

    <symbol id="aws-s3-resource" viewBox="0 0 24 24">
        <g stroke="none" stroke-width="1" fill="none" fill-rule="evenodd" style="mix-blend-mode: luminosity;" transform="translate(2.000000, 0.000000)">
            <polygon fill="#2C2F32" points="1.82857143 4.31428571 0.257142857 5.11428571 0.257142857 18.8571429 1.82857143 19.6571429 5.68571429 11.9714286"></polygon>
            <polygon fill="#88898A" points="10 17.6571429 1.82857143 19.6571429 1.82857143 4.31428571 10 6.28571429 13.8571429 12"></polygon>
            <polygon fill="#2C2F32" points="10 17.6571429 18.1714286 19.6571429 19.5714286 12.1714286 18.1714286 4.31428571 10 6.28571429"></polygon>
            <polygon fill="#88898A" points="18.1714286 4.31428571 19.7428571 5.11428571 19.7428571 18.8571429 18.1714286 19.6571429"></polygon>
            <polygon fill="#2C2F32" points="6.42857143 14.5142857 10 14.9714286 12.8285714 12 10 9.02857143 6.42857143 9.48571429"></polygon>
            <polygon fill="#2C2F32" points="13.5714286 7.05714286 10 7.71428571 6.42857143 7.05714286 10 0.228571429"></polygon>
            <polygon fill="#2C2F32" points="13.5714286 16.9428571 10 16.2857143 6.42857143 16.9428571 10 23.7714286"></polygon>
            <polygon fill="#88898A" points="13.5714286 7.05714286 10 6.17142857 10 0.228571429 13.5714286 2.02857143"></polygon>
            <polygon fill="#2C2F32" points="6.42857143 7.05714286 10 6.17142857 10 0.228571429 6.42857143 2.02857143"></polygon>
            <polygon fill="#88898A" points="10 23.7714286 13.5714286 21.9714286 13.5714286 16.9428571 10 17.8285714"></polygon>
            <polygon fill="#2C2F32" points="10 23.7714286 6.42857143 21.9714286 6.42857143 16.9428571 10 17.8285714"></polygon>
            <polygon fill="#88898A" points="13.5714286 14.5142857 10 14.9714286 10 9.02857143 13.5714286 9.48571429"></polygon>
        </g>
    </symbol>

    <symbol id="aws-s3-resource-colored" viewBox="0 0 24 24">
        <g stroke="none" stroke-width="1" fill="none" fill-rule="evenodd" transform="translate(2.000000, 0.000000)">
            <polygon fill="#2C2F32" points="1.82857143 4.31428571 0.257142857 5.11428571 0.257142857 18.8571429 1.82857143 19.6571429 5.68571429 11.9714286"></polygon>
            <polygon fill="#F2009B" points="10 17.6571429 1.82857143 19.6571429 1.82857143 4.31428571 10 6.28571429 13.8571429 12"></polygon>
            <polygon fill="#2C2F32" points="10 17.6571429 18.1714286 19.6571429 19.5714286 12.1714286 18.1714286 4.31428571 10 6.28571429"></polygon>
            <polygon fill="#F2009B" points="18.1714286 4.31428571 19.7428571 5.11428571 19.7428571 18.8571429 18.1714286 19.6571429"></polygon>
            <polygon fill="#2C2F32" points="6.42857143 14.5142857 10 14.9714286 12.8285714 12 10 9.02857143 6.42857143 9.48571429"></polygon>
            <polygon fill="#2C2F32" points="13.5714286 7.05714286 10 7.71428571 6.42857143 7.05714286 10 0.228571429"></polygon>
            <polygon fill="#2C2F32" points="13.5714286 16.9428571 10 16.2857143 6.42857143 16.9428571 10 23.7714286"></polygon>
            <polygon fill="#F2009B" points="13.5714286 7.05714286 10 6.17142857 10 0.228571429 13.5714286 2.02857143"></polygon>
            <polygon fill="#2C2F32" points="6.42857143 7.05714286 10 6.17142857 10 0.228571429 6.42857143 2.02857143"></polygon>
            <polygon fill="#F2009B" points="10 23.7714286 13.5714286 21.9714286 13.5714286 16.9428571 10 17.8285714"></polygon>
            <polygon fill="#2C2F32" points="10 23.7714286 6.42857143 21.9714286 6.42857143 16.9428571 10 17.8285714"></polygon>
            <polygon fill="#F2009B" points="13.5714286 14.5142857 10 14.9714286 10 9.02857143 13.5714286 9.48571429"></polygon>
        </g>
    </symbol>

    <symbol id="azure-resource" viewBox="0 0 24 24">
        <g stroke="none" stroke-width="1" fill="#88898A" fill-rule="evenodd">
            <path d="M0,20.18064 L9.52128,21.55968 L9.52128,12.45024 L0,12.45024 L0,20.18064 L0,20.18064 Z M0,11.14896 L9.52128,11.14896 L9.52128,2.03856 L0,3.4176 L0,11.14896 L0,11.14896 Z M10.82256,21.74832 L23.59824,23.59872 L23.59824,12.45024 L10.82256,12.45024 L10.82256,21.74832 L10.82256,21.74832 Z M10.82256,1.84944 L10.82256,11.14896 L23.59824,11.14896 L23.59824,0 L10.82256,1.84944 L10.82256,1.84944 Z"></path>
        </g>
    </symbol>

    <symbol id="azure-resource-colored" viewBox="0 0 24 24">
        <g stroke="none" stroke-width="1" fill="#F2009B" fill-rule="evenodd">
            <path d="M0,20.18064 L9.52128,21.55968 L9.52128,12.45024 L0,12.45024 L0,20.18064 L0,20.18064 Z M0,11.14896 L9.52128,11.14896 L9.52128,2.03856 L0,3.4176 L0,11.14896 L0,11.14896 Z M10.82256,21.74832 L23.59824,23.59872 L23.59824,12.45024 L10.82256,12.45024 L10.82256,21.74832 L10.82256,21.74832 Z M10.82256,1.84944 L10.82256,11.14896 L23.59824,11.14896 L23.59824,0 L10.82256,1.84944 L10.82256,1.84944 Z"></path>
        </g>
    </symbol>

    <symbol id="cloud-resource" viewBox="0 0 24 24">
        <g stroke="none" stroke-width="1" fill-rule="evenodd" fill="#88898A" transform="translate(0.000000, 4.000000)">
            <path d="M19.3,6.5 C18.9,2.9 15.8,0 12,0 C8.2,0 5.1,2.8 4.7,6.5 C2.1,6.5 0,8.6 0,11.2 C0,13.8 2.1,16 4.7,16 L19.3,16 C21.9,16 24,13.9 24,11.3 C24,8.6 21.9,6.5 19.3,6.5 L19.3,6.5 L19.3,6.5 Z"></path>
        </g>
    </symbol>

    <symbol id="cloud-resource-colored" viewBox="0 0 24 24">
        <g stroke="none" stroke-width="1"  fill="#F2009B" fill-rule="evenodd" transform="translate(0.000000, 4.000000)">
            <path d="M19.3,6.5 C18.9,2.9 15.8,0 12,0 C8.2,0 5.1,2.8 4.7,6.5 C2.1,6.5 0,8.6 0,11.2 C0,13.8 2.1,16 4.7,16 L19.3,16 C21.9,16 24,13.9 24,11.3 C24,8.6 21.9,6.5 19.3,6.5 L19.3,6.5 L19.3,6.5 Z"></path>
        </g>
    </symbol>

    <symbol id="eye" viewBox="0 0 24 24">
        <g stroke-width="1" fill-rule="evenodd">
            <path d="M12,6 C3.69230769,6 0,12.4615385 0,12.4615385 C0,12.4615385 3.69230769,18.9230778 12,18.9230769 C20.3076923,18.923076 24,12.4615385 24,12.4615385 C24,12.4615385 20.3076923,6 12,6 L12,6 L12,6 L12,6 Z M12,6.92307692 C4.61538462,6.92307692 1.10764723,12.4615385 1.10764723,12.4615385 C1.10764723,12.4615385 4.61538462,18.0000006 12,18 C19.3846154,17.9999991 22.8923527,12.4615385 22.8923527,12.4615385 C22.8923527,12.4615385 19.3846154,6.92307692 12,6.92307692 L12,6.92307692 L12,6.92307692 L12,6.92307692 Z M12,16.1538462 C14.0392053,16.1538462 15.6923077,14.5007438 15.6923077,12.4615385 C15.6923077,10.4223331 14.0392053,8.76923077 12,8.76923077 C9.96079468,8.76923077 8.30769231,10.4223331 8.30769231,12.4615385 C8.30769231,14.5007438 9.96079468,16.1538462 12,16.1538462 L12,16.1538462 L12,16.1538462 L12,16.1538462 Z M12,15.2307692 C13.529404,15.2307692 14.7692308,13.9909424 14.7692308,12.4615385 C14.7692308,10.9321345 13.529404,9.69230769 12,9.69230769 C10.470596,9.69230769 9.23076923,10.9321345 9.23076923,12.4615385 C9.23076923,13.9909424 10.470596,15.2307692 12,15.2307692 L12,15.2307692 L12,15.2307692 L12,15.2307692 Z"></path>
        </g>
    </symbol>

    <symbol id="no-eye" viewBox="0 0 24 24">
        <g stroke="none" stroke-width="1" fill-rule="evenodd" transform="translate(0.000000, 4.000000)">
            <path d="M4.71572207,12.8227395 C1.49280753,10.9201059 0,8.30769231 0,8.30769231 C0,8.30769231 3.69230769,1.84615385 12,1.84615385 C13.2041637,1.84615385 14.3113617,1.98190584 15.324405,2.21405651 L14.540217,2.99824458 C13.7512139,2.85235809 12.9047011,2.76923077 12,2.76923077 C4.61538462,2.76923077 1.10764723,8.30769231 1.10764723,8.30769231 C1.10764723,8.30769231 2.50590284,10.5154362 5.39531735,12.1431442 L4.71572207,12.8227395 L4.71572207,12.8227395 L4.71572207,12.8227395 L4.71572207,12.8227395 Z M8.67559477,14.4013283 C9.68863809,14.633479 10.7958362,14.7692309 12,14.7692308 C20.3076923,14.7692298 24,8.30769231 24,8.30769231 C24,8.30769231 22.5071924,5.69527902 19.2842777,3.79264542 L18.6046825,4.47224058 C21.4940971,6.09994855 22.8923527,8.30769231 22.8923527,8.30769231 C22.8923527,8.30769231 19.3846154,13.8461529 12,13.8461538 C11.0952988,13.8461539 10.248786,13.7630266 9.45978286,13.6171402 L8.67559477,14.4013283 L8.67559477,14.4013283 L8.67559477,14.4013283 L8.67559477,14.4013283 Z M15.5987567,7.47816637 C15.6599684,7.74481062 15.6923077,8.02247483 15.6923077,8.30769231 C15.6923077,10.3468976 14.0392053,12 12,12 C11.7147825,12 11.4371183,11.9676607 11.1704741,11.906449 L12,11.0769231 C12.7087079,11.0769232 13.4174159,10.8065601 13.9581418,10.2658341 C14.4988678,9.72510822 14.7692309,9.01640022 14.7692308,8.30769231 L15.5987567,7.47816637 L15.5987567,7.47816637 L15.5987567,7.47816637 L15.5987567,7.47816637 Z M12.8295259,4.7089356 C12.5628817,4.64772388 12.2852175,4.61538462 12,4.61538462 C9.96079468,4.61538462 8.30769231,6.26848698 8.30769231,8.30769231 C8.30769231,8.59290978 8.34003157,8.870574 8.40124329,9.13721825 L9.23076923,8.30769231 C9.23076914,7.5989844 9.50113218,6.8902764 10.0418582,6.34955049 C10.5825841,5.80882449 11.2912921,5.53846145 12,5.53846154 L12.8295259,4.7089356 L12.8295259,4.7089356 L12.8295259,4.7089356 L12.8295259,4.7089356 Z M19.3846154,0 L3.69230769,15.6923077 L4.61538462,16.6153846 L20.3076923,0.923076923 L19.3846154,0 L19.3846154,0 L19.3846154,0 Z"></path>
        </g>
    </symbol>

    <symbol id="overview" viewBox="0 0 24 24">
        <g stroke="none" stroke-width="1" fill-rule="evenodd">
            <path d="M10.4261053,0.180210526 L9.70989474,0.180210526 L9.70989474,3.08 C4.32084211,3.45052632 0.0471578947,7.94105263 0.0471578947,13.4223158 C0.0471578947,19.1452632 4.70357895,23.8012632 10.4261053,23.8012632 C15.9065263,23.8012632 20.3974737,19.5267368 20.7675789,14.1385263 L23.6673684,14.1385263 L23.6673684,13.4223158 C23.6669474,6.12042105 17.7271579,0.180210526 10.4261053,0.180210526 L10.4261053,0.180210526 Z M10.4261053,22.3692632 C5.49178947,22.3692632 1.47873684,18.3553684 1.47873684,13.4218947 C1.47873684,8.72926316 5.10947368,4.86905263 9.70989474,4.50315789 L9.70989474,14.1381053 L19.344,14.1381053 C18.9776842,18.7381053 15.1183158,22.3692632 10.4261053,22.3692632 L10.4261053,22.3692632 Z M20.8033684,12.7065263 L11.1414737,12.7065263 L11.1414737,3.04378947 L11.1414737,1.63326316 C17.0846316,1.99031579 21.8568421,6.76336842 22.2138947,12.7065263 L20.8033684,12.7065263 L20.8033684,12.7065263 Z"></path>
        </g>
    </symbol>

    <symbol id="buckets" viewBox="0 0 24 24">
        <g stroke-width="1" fill-rule="evenodd"  transform="translate(1.000000, 0.000000)">
            <path d="M21.6738824,4.5629589 C21.7534706,4.46531507 21.7913235,4.33676712 21.7787059,4.21117808 L21.5147059,1.50115068 C21.4364118,0.696 20.7437353,0.100273973 19.9300588,0.181150685 L1.38502941,2.04723288 C0.588823529,2.12679452 0.00744117647,2.84843836 0.0860588235,3.65621918 L0.320941176,6.07693151 C0.279205882,6.14893151 0.247823529,6.22849315 0.247823529,6.31857534 L0.247823529,22.2867945 C0.247823529,23.0985205 0.897147059,23.7586849 1.69594118,23.7586849 L20.3331765,23.7586849 C21.1316471,23.7586849 21.7812941,23.0985205 21.7812941,22.2867945 L21.7812941,6.31857534 C21.7812941,6.05260274 21.5690588,5.83824658 21.3073235,5.83824658 L10.406,5.83824658 L21.3542353,4.73621918 C21.4794412,4.72339726 21.5942941,4.66191781 21.6738824,4.5629589 Z M20.8346471,22.2867945 C20.8346471,22.5682192 20.6097941,22.7953973 20.3344706,22.7953973 L1.69594118,22.7953973 C1.42061765,22.7953973 1.19414706,22.5669041 1.19414706,22.2867945 L1.19414706,6.80021918 L20.8336765,6.80021918 L20.8336765,22.2867945 L20.8346471,22.2867945 Z M1.24623529,5.79320548 L1.02882353,3.56120548 C1.001,3.28241096 1.20320588,3.03221918 1.47723529,3.00394521 L20.0248529,1.13786301 C20.0410294,1.13523288 20.0575294,1.13523288 20.0740294,1.13523288 C20.3331765,1.13523288 20.5467059,1.33315068 20.5719412,1.59517808 L20.7893529,3.82717808 L1.24623529,5.79320548 Z"></path>
            <path d="M13.0246471,20.9934247 L19.1186471,20.9934247 C19.3800588,20.9934247 19.5926176,20.7777534 19.5926176,20.5121096 L19.5926176,17.2050411 C19.5926176,16.9390685 19.3800588,16.7233973 19.1186471,16.7233973 L13.0246471,16.7233973 C12.7629118,16.7233973 12.5506765,16.9390685 12.5506765,17.2050411 L12.5506765,20.5121096 C12.5506765,20.7777534 12.7616176,20.9934247 13.0246471,20.9934247 Z M13.4973235,17.6853699 L18.6459706,17.6853699 L18.6459706,20.0304658 L13.4973235,20.0304658 L13.4973235,17.6853699 Z"></path>
        </g>
    </symbol>

    <symbol id="resources" viewBox="0 0 24 24">
        <g stroke-width="1" fill-rule="evenodd" transform="translate(2.000000, 0.000000)">
            <path d="M18.6535652,8.78121739 L0.476869565,8.78121739 C0.37773913,8.78121739 0.28,8.82191304 0.209391304,8.89252174 C0.138434783,8.96347826 0.0977391304,9.06121739 0.0977391304,9.16034783 L0.0977391304,14.8410435 C0.0977391304,14.9401739 0.138434783,15.037913 0.209391304,15.1088696 C0.28,15.1794783 0.37773913,15.2201739 0.476869565,15.2201739 L18.6535652,15.2201739 C18.7526957,15.2201739 18.8504348,15.1794783 18.9210435,15.1088696 C18.992,15.037913 19.0326957,14.9401739 19.0326957,14.8410435 L19.0326957,9.16034783 C19.0326957,9.06121739 18.992,8.96347826 18.9210435,8.89252174 C18.8504348,8.82191304 18.7526957,8.78121739 18.6535652,8.78121739 Z M0.856,9.53808696 L18.2758261,9.53808696 L18.2758261,14.4605217 L0.856,14.4605217 L0.856,9.53808696 Z"></path>
            <path d="M15.813913,10.864 C15.186087,10.864 14.677913,11.3721739 14.677913,12 C14.677913,12.6278261 15.186087,13.136 15.813913,13.136 C16.4417391,13.136 16.9495652,12.6278261 16.9495652,12 C16.9495652,11.3721739 16.4417391,10.864 15.813913,10.864 Z M15.813913,12.3791304 C15.6045217,12.3791304 15.4347826,12.2093913 15.4347826,12 C15.4347826,11.7906087 15.6045217,11.6208696 15.813913,11.6208696 C16.0229565,11.6208696 16.1930435,11.7906087 16.1930435,12 C16.1930435,12.2093913 16.0215652,12.3791304 15.813913,12.3791304 Z"></path>
            <path d="M18.6535652,0.260869565 L0.476869565,0.260869565 C0.37773913,0.260869565 0.28,0.301565217 0.209391304,0.372173913 C0.138434783,0.442782609 0.0977391304,0.540869565 0.0977391304,0.64 L0.0977391304,6.32069565 C0.0977391304,6.41982609 0.138434783,6.51756522 0.209391304,6.58817391 C0.28,6.65913043 0.37773913,6.69982609 0.476869565,6.69982609 L18.6535652,6.69982609 C18.7526957,6.69982609 18.8504348,6.65913043 18.9210435,6.58817391 C18.992,6.51756522 19.0326957,6.41982609 19.0326957,6.32069565 L19.0326957,0.64 C19.0326957,0.540869565 18.992,0.442782609 18.9210435,0.372173913 C18.8504348,0.301565217 18.7526957,0.260869565 18.6535652,0.260869565 Z M0.856,1.01773913 L18.2758261,1.01773913 L18.2758261,5.94017391 L0.856,5.94017391 L0.856,1.01773913 Z"></path>
            <path d="M15.813913,2.34365217 C15.186087,2.34365217 14.677913,2.85182609 14.677913,3.47965217 C14.677913,4.10747826 15.186087,4.61565217 15.813913,4.61565217 C16.4417391,4.61565217 16.9495652,4.10747826 16.9495652,3.47965217 C16.9495652,2.85182609 16.4417391,2.34365217 15.813913,2.34365217 Z M15.813913,3.85878261 C15.6045217,3.85878261 15.4347826,3.68869565 15.4347826,3.47965217 C15.4347826,3.27026087 15.6045217,3.10052174 15.813913,3.10052174 C16.0229565,3.10052174 16.1930435,3.27026087 16.1930435,3.47965217 C16.1916522,3.68869565 16.0215652,3.85878261 15.813913,3.85878261 Z"></path>
            <path d="M18.6535652,17.3015652 L0.476869565,17.3015652 C0.37773913,17.3015652 0.28,17.3422609 0.209391304,17.4128696 C0.138434783,17.4838261 0.0977391304,17.5815652 0.0977391304,17.6806957 L0.0977391304,23.3613913 C0.0977391304,23.4605217 0.138434783,23.5582609 0.209391304,23.6292174 C0.28,23.6998261 0.37773913,23.7405217 0.476869565,23.7405217 L18.6535652,23.7405217 C18.7526957,23.7405217 18.8504348,23.6998261 18.9210435,23.6292174 C18.992,23.5582609 19.0326957,23.4605217 19.0326957,23.3613913 L19.0326957,17.6806957 C19.0326957,17.5815652 18.992,17.4838261 18.9210435,17.4128696 C18.8504348,17.3422609 18.7526957,17.3015652 18.6535652,17.3015652 Z M0.856,18.0584348 L18.2758261,18.0584348 L18.2758261,22.9808696 L0.856,22.9808696 L0.856,18.0584348 Z"></path>
            <path d="M15.813913,19.3843478 C15.186087,19.3843478 14.677913,19.8925217 14.677913,20.5203478 C14.677913,21.1481739 15.186087,21.6563478 15.813913,21.6563478 C16.4417391,21.6563478 16.9495652,21.1481739 16.9495652,20.5203478 C16.9495652,19.8925217 16.4417391,19.3843478 15.813913,19.3843478 Z M15.813913,20.8994783 C15.6045217,20.8994783 15.4347826,20.7297391 15.4347826,20.5203478 C15.4347826,20.3113043 15.6045217,20.1412174 15.813913,20.1412174 C16.0229565,20.1412174 16.1930435,20.3113043 16.1930435,20.5203478 C16.1930435,20.7297391 16.0215652,20.8994783 15.813913,20.8994783 Z"></path>
        </g>
    </symbol>

    <symbol id="cluster" viewBox="0 0 24 24">
        <g stroke-width="1" fill-rule="evenodd">
            <path d="M22.47616,15.6576 C22.65984,14.8624 22.75872,14.05248 22.75872,13.24128 C22.75872,9.47744 20.84256,6.0512 17.63264,4.07488 C17.43616,3.95488 17.1824,4.01632 17.0624,4.20992 C16.9424,4.40512 17.00384,4.65984 17.19744,4.78016 C20.16128,6.60384 21.9312,9.76736 21.9312,13.24128 C21.9312,13.95488 21.84864,14.6688 21.69376,15.3712 C21.50368,15.3312 21.30624,15.31008 21.10368,15.31008 C19.50624,15.31008 18.20736,16.60992 18.20736,18.2064 C18.20736,19.80256 19.50624,21.1024 21.10368,21.1024 C22.70112,21.1024 24,19.80256 24,18.2064 C24,17.10624 23.3824,16.14752 22.47616,15.6576 Z M21.10368,20.27616 C19.96256,20.27616 19.03488,19.34752 19.03488,18.20736 C19.03488,17.06624 19.96384,16.13888 21.10368,16.13888 C22.24512,16.13888 23.17248,17.06752 23.17248,18.20736 C23.17248,19.3488 22.24384,20.27616 21.10368,20.27616 Z"></path>
            <path d="M15.79488,22.41984 C14.5888,22.91872 13.31264,23.17248 12,23.17248 C9.35744,23.17248 6.81632,22.10752 4.95872,20.23744 C5.4736,19.7136 5.79264,18.99744 5.79264,18.20736 C5.79264,16.6112 4.49376,15.31136 2.89632,15.31136 C1.29888,15.31136 0,16.6112 0,18.20736 C0,19.80384 1.29888,21.10368 2.89632,21.10368 C3.40384,21.10368 3.88,20.9712 4.29504,20.74112 C6.31488,22.81504 9.10112,24 12,24 C13.42112,24 14.80512,23.7264 16.11136,23.18496 C16.32256,23.0976 16.4224,22.85504 16.33504,22.64384 C16.24864,22.43264 16.0064,22.33248 15.79488,22.41984 Z M0.82752,18.20736 C0.82752,17.06624 1.75616,16.13888 2.89632,16.13888 C4.03744,16.13888 4.96512,17.06752 4.96512,18.20736 C4.96512,19.3488 4.03616,20.27616 2.89632,20.27616 C1.75488,20.27616 0.82752,19.34752 0.82752,18.20736 Z"></path>
            <path d="M1.65504,12.91616 C1.66496,12.91744 1.67488,12.91744 1.68512,12.91744 C1.90016,12.91744 2.08128,12.75136 2.0976,12.53248 C2.39264,8.35744 5.23616,4.8688 9.2224,3.71264 C9.57632,4.9136 10.6864,5.79264 12,5.79264 C13.59744,5.79264 14.89632,4.49248 14.89632,2.89632 C14.89632,1.29984 13.59744,0 12,0 C10.4064,0 9.11008,1.29376 9.10368,2.8864 C4.72512,4.10624 1.5936,7.91136 1.27136,12.4736 C1.25504,12.70112 1.42752,12.89984 1.65504,12.91616 Z M12,0.82752 C13.14112,0.82752 14.0688,1.75616 14.0688,2.89632 C14.0688,4.03744 13.13984,4.96512 12,4.96512 C10.85888,4.96512 9.9312,4.03616 9.9312,2.89632 C9.9312,1.75488 10.85888,0.82752 12,0.82752 Z"></path>
        </g>
    </symbol>

    <symbol id="upload" viewBox="0 0 24 24">
        <g stroke-width="1" fill-rule="evenodd">
            <path d="M11.4736842,23.1111111 L4.10522126,23.1111111 C3.53127256,23.1111111 3.05263158,22.71495 3.05263158,22.2262604 L3.05263158,1.77373958 C3.05263158,1.293567 3.52182656,0.888888889 4.10060789,0.888888889 L14.6315789,0.888888889 L14.6315789,5.32807196 C14.6315789,6.3230624 15.5731539,7.11111111 16.7346454,7.11111111 L20.9473684,7.11111111 L20.9473684,22.2280909 C20.9473684,22.7156033 20.476108,23.1111111 19.8947787,23.1111111 L12.5263158,23.1111111 L12.5263158,14.2222222 L15.9473684,17.1111111 L16.7368421,16.4444444 L12,12.4444444 L7.26315789,16.4444444 L8.05263158,17.1111111 L11.4736842,14.2222222 L11.4736842,23.1111111 L11.4736842,23.1111111 L11.4736842,23.1111111 Z M15.1578947,0 L4.10816856,0 C2.94385921,0 2,0.798522951 2,1.78429328 L2,22.2157068 C2,23.2011447 2.9378162,24 4.10254938,24 L19.8974506,24 C21.0586566,24 22,23.201589 22,22.2304044 L22,6.66666667 L22,6.22222222 L15.6842105,0 L15.1578947,0 L15.1578947,0 L15.1578947,0 L15.1578947,0 Z M15.6842105,1.33333333 L15.6842105,5.32552465 C15.6842105,5.82075704 16.1585801,6.22222222 16.7334093,6.22222222 L20.6315276,6.22222222 L15.6842105,1.33333333 L15.6842105,1.33333333 L15.6842105,1.33333333 Z"></path>
        </g>
    </symbol>

    <symbol id="account" viewBox="0 0 24 24">
        <g stroke-width="1" fill-rule="evenodd">
            <path d="M12.1760582,0.17136 C5.93058909,0.17136 0.846894545,5.31310154 0.846894545,11.6232923 C0.846894545,17.9537262 5.93058909,23.0935846 12.1760582,23.0935846 C18.4122182,23.0935846 23.4935855,17.9537262 23.4935855,11.6232923 C23.4935855,5.31310154 18.4122182,0.17136 12.1760582,0.17136 L12.1760582,0.17136 Z M12.1760582,6.72399692 C14.1607564,6.72399692 15.7540073,8.34956308 15.7540073,10.3446831 C15.7540073,10.8309877 15.6502109,11.3026985 15.4807855,11.7230954 C15.4617018,11.7800585 15.42912,11.8224277 15.4198109,11.8699754 C14.8491636,13.1000954 13.6096582,13.9634862 12.1765236,13.9634862 C10.7433891,13.9634862 9.50853818,13.1000954 8.93370182,11.8699754 C8.91973818,11.8219569 8.88901818,11.7800585 8.87505455,11.7273323 C8.70283636,11.3074062 8.59950545,10.8309877 8.59950545,10.3442123 C8.59857455,8.34956308 10.19136,6.72399692 12.1760582,6.72399692 L12.1760582,6.72399692 Z M12.1760582,21.9110123 C9.49178182,21.9110123 7.05466182,20.8527231 5.23985455,19.1461846 C5.68529455,16.5616615 7.91482182,14.5976123 10.5972364,14.5976123 L11.14368,14.5976123 L12.1760582,16.1808092 L13.2084364,14.5976123 L13.75488,14.5976123 C16.42752,14.5976123 18.6761309,16.5715477 19.10016,19.1461846 C17.2900073,20.8720246 14.8486982,21.9110123 12.1760582,21.9110123 L12.1760582,21.9110123 Z"></path>
        </g>
    </symbol>

    <symbol id="functions" viewBox="0 0 24 24">
        <g stroke-width="1" fill-rule="evenodd">
            <path d="M0,1.00069463 C0,0.448026248 0.44746922,0 1.00069463,0 L22.9993054,0 C23.5519738,0 24,0.44746922 24,1.00069463 L24,22.9993054 C24,23.5519738 23.5525308,24 22.9993054,24 L1.00069463,24 C0.448026248,24 0,23.5525308 0,22.9993054 L0,1.00069463 Z M1,2.00246167 C1,1.44881738 1.43945834,1 2.00246167,1 L21.9975383,1 C22.5511826,1 23,1.43945834 23,2.00246167 L23,21.9975383 C23,22.5511826 22.5605417,23 21.9975383,23 L2.00246167,23 C1.44881738,23 1,22.5605417 1,21.9975383 L1,2.00246167 Z M10.2602155,9.27796296 L9.42529274,12.5363889 C9.03511007,14.074 8.65466979,15.1883889 8.28348478,15.8795556 C7.91229977,16.5707222 7.47827635,17.0820556 6.98117096,17.4135556 C6.48406557,17.7450556 5.91437939,17.9106852 5.27211241,17.9106852 C4.86780328,17.9106852 4.57041686,17.8341296 4.38019672,17.6815 C4.18997658,17.5286296 4.09474473,17.3487963 4.09474473,17.142 C4.09474473,16.9491667 4.17317096,16.7823333 4.33026698,16.6412593 C4.487363,16.5001852 4.6941452,16.4296481 4.9511007,16.4296481 C5.1651897,16.4296481 5.32934895,16.4838148 5.44333489,16.5919074 C5.55732084,16.7 5.61455738,16.8365 5.61455738,17.0009259 C5.61455738,17.1513889 5.57899766,17.2628519 5.50763466,17.336037 C5.43627166,17.4089815 5.40071194,17.4571296 5.40071194,17.4807222 L5.43627166,17.5300741 C5.46476815,17.5536667 5.49813583,17.5652222 5.53613115,17.5652222 C5.67885714,17.5652222 5.80014988,17.5204444 5.90000937,17.4311296 C6.15233724,17.2101296 6.34012178,16.9421852 6.46360656,16.6270556 C6.54933958,16.4108704 6.71325527,15.8395926 6.95584075,14.9132222 L8.41159719,9.27796296 L7.41982201,9.27796296 L7.65534426,8.4527037 C8.01215925,8.45751852 8.27130679,8.41274074 8.43303044,8.31861111 C8.5947541,8.22448148 8.76597658,8.01287037 8.94669789,7.68377778 C9.46986417,6.72924074 10.0217705,6.04505556 10.6021733,5.63146296 C11.1825761,5.21787037 11.8294707,5.01083333 12.5431007,5.01083333 C12.9997752,5.01083333 13.3315035,5.09798148 13.5385293,5.2717963 C13.745555,5.44585185 13.8488244,5.67142593 13.8488244,5.949 C13.8488244,6.19359259 13.779897,6.38738889 13.6417986,6.53087037 C13.5039438,6.67435185 13.3324778,6.74609259 13.1281311,6.74609259 C12.937911,6.74609259 12.780815,6.68735185 12.6570867,6.56987037 C12.5333583,6.45238889 12.4714941,6.31131481 12.4714941,6.14664815 C12.4714941,6.02916667 12.5107073,5.90446296 12.5891335,5.77277778 C12.6675597,5.64133333 12.7067728,5.55177778 12.7067728,5.50483333 C12.7067728,5.45307407 12.688993,5.4107037 12.6531897,5.37796296 C12.61763,5.34522222 12.5711101,5.32861111 12.5141171,5.32861111 C12.2335363,5.32861111 11.9456487,5.50025926 11.6506979,5.84355556 C11.1655269,6.39364815 10.7753443,7.26368519 10.4803934,8.45318519 L11.5150351,8.45318519 L11.2653864,9.27844444 L10.2602155,9.27844444 L10.2602155,9.27796296 Z M11.9656206,8.67827778 L14.4560187,8.25505556 C14.907822,8.95585185 15.2266417,9.7267037 15.4122342,10.5683333 C15.8784075,9.88655556 16.2303513,9.40940741 16.4683091,9.13664815 C16.7871288,8.77 17.0499297,8.53118519 17.2567119,8.42068519 C17.4637377,8.31042593 17.6836721,8.25505556 17.9167588,8.25505556 C18.1783419,8.25505556 18.3792787,8.32559259 18.5198126,8.46666667 C18.6598595,8.60774074 18.7302482,8.79816667 18.7302482,9.03794444 C18.7302482,9.26375926 18.6598595,9.44816667 18.5198126,9.59164815 C18.3795222,9.73512963 18.2046464,9.80687037 17.9954286,9.80687037 C17.8432037,9.80687037 17.6680843,9.77990741 17.4710445,9.72574074 C17.2735176,9.67181481 17.1368806,9.64461111 17.0606464,9.64461111 C16.8609274,9.64461111 16.6704637,9.71514815 16.4897424,9.85622222 C16.2422857,10.0490556 15.9378361,10.4604815 15.5763934,11.0905 C15.9807026,12.501 16.3041499,13.3616481 16.5467354,13.671963 C16.6894614,13.8554074 16.834623,13.9471296 16.9819766,13.9471296 C17.1057049,13.9471296 17.2126276,13.9165556 17.3029883,13.8554074 C17.4408431,13.7567037 17.65274,13.5097037 17.9379485,13.1148889 L18.194904,13.2629444 C17.7762248,13.9305185 17.3672881,14.4009259 16.9676066,14.6734444 C16.6631569,14.8850556 16.3635785,14.9907407 16.0686276,14.9907407 C15.764178,14.9907407 15.5108759,14.9238148 15.3087213,14.7897222 C15.1063232,14.6556296 14.9270632,14.437037 14.7699672,14.1337037 C14.6128712,13.8303704 14.4275222,13.345037 14.2134333,12.6772222 C13.6568993,13.3777778 13.2204403,13.8893519 12.9040562,14.2112222 C12.5874286,14.5333333 12.3248712,14.7437407 12.1156534,14.8424444 C11.9064356,14.9411481 11.6826042,14.9907407 11.4446464,14.9907407 C11.1974333,14.9907407 11.0011241,14.9202037 10.8559625,14.7791296 C10.7108009,14.6380556 10.6382201,14.4546111 10.6382201,14.229037 C10.6382201,13.9892593 10.7166464,13.7918519 10.8737424,13.6365741 C11.0308384,13.4812963 11.2305574,13.4037778 11.4731429,13.4037778 C11.6014988,13.4037778 11.7466604,13.4413333 11.9083841,13.5166852 C12.1463419,13.6295926 12.3175644,13.6859259 12.4220515,13.6859259 C12.5599063,13.6859259 12.6836347,13.6577593 12.792993,13.6011852 C12.935719,13.5306481 13.1164403,13.3777778 13.3354005,13.1428148 C13.4686276,12.9971667 13.7136487,12.6866111 14.0704637,12.2118704 C13.6137892,10.538 13.2569742,9.53651852 13.0000187,9.20742593 C12.8382951,8.99581481 12.6337049,8.89012963 12.3862482,8.89012963 C12.2578923,8.89012963 12.1007963,8.90890741 11.9152037,8.94646296 L11.9656206,8.67827778 Z"></path>
        </g>
    </symbol>

    <symbol id="nodes-pool" viewBox="0 0 24 24">
        <g stroke="none" stroke-width="1" fill-rule="evenodd" transform="translate(2.000000, 4.000000)">
            <path d="M0.911652174,6.69843478 L19.0883478,6.69843478 C19.1874783,6.69843478 19.2852174,6.65773913 19.3558261,6.58713043 C19.4267826,6.51617391 19.4674783,6.41843478 19.4674783,6.31930435 L19.4674783,0.64 C19.4674783,0.540869565 19.4267826,0.442782609 19.3558261,0.372173913 C19.2852174,0.301565217 19.1874783,0.260869565 19.0883478,0.260869565 L0.911652174,0.260869565 C0.812521739,0.260869565 0.714782609,0.301565217 0.644173913,0.372173913 C0.573217391,0.442782609 0.532521739,0.540869565 0.532521739,0.64 L0.532521739,6.32069565 C0.532521739,6.41982609 0.573217391,6.51756522 0.644173913,6.58817391 C0.714782609,6.65773913 0.812521739,6.69843478 0.911652174,6.69843478 Z M1.29078261,1.01773913 L18.7106087,1.01773913 L18.7106087,5.94017391 L1.29078261,5.94017391 L1.29078261,1.01773913 Z"></path>
            <path d="M16.2486957,2.34365217 C15.6208696,2.34365217 15.1126957,2.85182609 15.1126957,3.47965217 C15.1126957,4.10747826 15.6208696,4.61565217 16.2486957,4.61565217 C16.8765217,4.61565217 17.3843478,4.10747826 17.3843478,3.47965217 C17.3843478,2.85182609 16.8765217,2.34365217 16.2486957,2.34365217 Z M16.2486957,3.85878261 C16.0393043,3.85878261 15.8695652,3.68869565 15.8695652,3.47965217 C15.8695652,3.27026087 16.0393043,3.10052174 16.2486957,3.10052174 C16.4577391,3.10052174 16.6278261,3.27026087 16.6278261,3.47965217 C16.6264348,3.68869565 16.4563478,3.85878261 16.2486957,3.85878261 Z"></path>
            <path d="M0.911652174,16.165913 L19.0883478,16.165913 C19.1874783,16.165913 19.2852174,16.1248696 19.3558261,16.0542609 C19.4267826,15.9836522 19.4674783,15.885913 19.4674783,15.7867826 L19.4674783,10.106087 C19.4674783,10.0069565 19.4267826,9.90886957 19.3558261,9.83826087 C19.2852174,9.76765217 19.1874783,9.72695652 19.0883478,9.72695652 L0.911652174,9.72695652 C0.812521739,9.72695652 0.714782609,9.76765217 0.644173913,9.83826087 C0.573217391,9.90886957 0.532521739,10.0069565 0.532521739,10.106087 L0.532521739,15.7867826 C0.532521739,15.885913 0.573217391,15.9836522 0.644173913,16.0542609 C0.714782609,16.1248696 0.812521739,16.165913 0.911652174,16.165913 Z M1.29078261,10.4852174 L18.7106087,10.4852174 L18.7106087,15.4076522 L1.29078261,15.4076522 L1.29078261,10.4852174 Z"></path>
            <path d="M16.2486957,11.8111304 C15.6208696,11.8111304 15.1126957,12.3193043 15.1126957,12.9471304 C15.1126957,13.5746087 15.6208696,14.0827826 16.2486957,14.0827826 C16.8765217,14.0827826 17.3843478,13.5746087 17.3843478,12.9471304 C17.3843478,12.3193043 16.8765217,11.8111304 16.2486957,11.8111304 Z M16.2486957,13.325913 C16.0393043,13.325913 15.8695652,13.1561739 15.8695652,12.9471304 C15.8695652,12.7377391 16.0393043,12.568 16.2486957,12.568 C16.4577391,12.568 16.6278261,12.7377391 16.6278261,12.9471304 C16.6264348,13.1547826 16.4563478,13.325913 16.2486957,13.325913 Z"></path>
        </g>
    </symbol>

    <!-- <symbol id="<name>" viewBox="0 0 24 24">
    </symbol>  -->
</svg>
