<svg xmlns="http://www.w3.org/2000/svg">
	<symbol id="logo" viewBox="0 0 25 25">
		<g stroke="none" stroke-width="1" fill="none" fill-rule="evenodd">
	        <g transform="translate(-570.000000, -106.000000)">
	            <g transform="translate(570.000000, 106.000000)">
	                <path d="M0.0981060606,4.2809466 L0.0978650138,12.6237864 L2.80253099,11.051335 L2.80325413,5.85364078 L7.27202135,3.25570388 L7.27202135,0.110436893 L0.0981060606,4.2809466" fill-opacity="0.420000017" fill="#000000"></path>
	                <path d="M16.444697,19.2520631 L11.974604,21.8506068 L7.50607782,19.2527913 L4.80105028,20.8254854 L11.974604,24.9958738 L19.149845,20.8246359 L16.444697,19.2520631" fill-opacity="0.409999996" fill="#000000"></path>
	                <path d="M16.6775482,0.110558252 L16.6775482,3.25582524 L21.146918,5.85412621 L21.1467975,11.0497573 L23.8519456,12.6223301 L23.8520661,4.2815534 L16.6775482,0.110558252" fill="#000000"></path>
	                <path id="Fill-4" fill="#000000" d="M11.9747245,11.1867718 L11.9758092,11.1860437 L11.9747245,11.1854369 L11.9747245,11.1867718"></path>
	                <path d="M16.6775482,3.25582524 L16.6775482,5.57839806 L11.9747245,8.31237864 L7.27190083,5.57839806 L7.27202135,3.25570388 L2.80325413,5.85364078 L11.9747245,11.1854369 L21.146918,5.85412621 L16.6775482,3.25582524" fill="#505052"></path>
	                <path d="M11.9758092,11.1860437 L11.974604,21.8506068 L16.444697,19.2520631 L14.4467803,18.090534 L14.4469008,12.6226942 L19.149604,9.88859223 L21.1467975,11.0497573 L21.146918,5.85424757 L11.9758092,11.1860437" fill="#000000"></path>
	                <path d="M2.80325413,5.85364078 L2.80253099,11.051335 L4.80056818,9.88980583 L9.50327135,12.6237864 L9.50327135,18.0917476 L7.50607782,19.2527913 L11.974604,21.8506068 L11.9747245,11.1867718 L2.80325413,5.85364078" fill="#3C3B3C"></path>
	                <path d="M16.6775482,3.25582524 L11.9747245,5.98968447 L11.9747245,8.31237864 L16.6775482,5.57839806 L16.6775482,3.25582524" fill="#000000"></path>
	                <path d="M7.27202135,3.25570388 L7.27190083,5.57839806 L11.9747245,8.31237864 L11.9747245,5.98968447 L7.27202135,3.25570388" fill="#000000"></path>
	                <path fill="#000000"></path>
	                <path fill="#000000" d="M21.1471591,11.05 L21.1467975,11.0497573 L21.1467975,11.0501214 L21.1471591,11.05"></path>
	                <path d="M16.4444559,13.7839806 L14.4469008,12.6226942 L14.4467803,18.090534 L16.444697,19.2520631 L16.4444559,13.7839806" fill="#000000"></path>
	                <path d="M14.4469008,12.6226942 L16.4444559,13.7838592 L21.1467975,11.0501214 L19.149604,9.88859223 L14.4469008,12.6226942" fill="#DA2681"></path>
	                <path fill="#000000" d="M7.50571625,19.253034 L7.50607782,19.2527913 L7.50571625,19.2525485 L7.50571625,19.253034"></path>
	                <path d="M7.50547521,13.7849515 L9.5030303,12.623665 L4.80056818,9.88980583 L2.80253099,11.051335 L7.50547521,13.7849515" fill="#DA2681"></path>
	                <path d="M9.5030303,12.623665 L7.50571625,13.7850728 L7.50607782,19.2527913 L9.50327135,18.0917476 L9.5030303,12.623665" fill="#0A0B09"></path>
	            </g>
	        </g>
	    </g>
	</symbol>

	<symbol id="logo-silhouette" viewBox="0 0 25 25">
	    <g stroke="none" stroke-width="1" fill="none" fill-rule="evenodd">
	        <g fill="#161D22">
	            <path d="M7.96969697,0 L1,3.87323944 L1,12.6760563 L3.43939394,11.2676056 L7.96969697,14.084507 L7.96969697,19.3661972 L5.53030303,20.7746479 L12.5,25 L19.469697,21.1267606 L17.3787879,19.3661972 L17.3787879,14.084507 L21.9090909,11.6197183 L24,12.6760563 L24,3.87323944 L17.3787879,0 L17.3787879,3.16901408 L12.8484848,5.63380282 L8.31818182,3.16901408 L7.96969697,0 Z"></path>
	        </g>
	    </g>
	</symbol>

	<symbol id="menu-toggle" viewBox="0 0 25 25">
		<title>Menu Toggle</title>
	    <g stroke="none" stroke-width="1" fill="none" fill-rule="evenodd">
	        <g transform="translate(-13.000000, -17.000000)" fill="#607D8B">
	            <g>
	                <path d="M13,17 L35,17 L35,19.5 L13,19.5 L13,17 Z M13,23.25 L35,23.25 L35,25.75 L13,25.75 L13,23.25 Z M13,29.5 L35,29.5 L35,32 L13,32 L13,29.5 Z"></path>
	            </g>
	        </g>
	    </g>
	</symbol>

    <symbol id="refresh" viewBox="0 0 25 25" fill-rule="evenodd">
	  	<title>Refresh</title>
  		<g transform="translate(-841.000000, -22.000000)" fill="#607D8B">
			<g transform="translate(0.000000, 16.000000)">
  				<path d="M844.108831,20.0625 L841.092534,20.0625 L841,20.0625 L841,27.875 L843.21036,25.7484375 C845.375945,28.9265625 848.926549,31 852.939822,31 C859.029131,31 864.052811,26.228125 864.78711,20.0625 L861.770813,20.0625 C861.060393,24.496875 857.376958,27.875 852.939822,27.875 C849.796664,27.875 847.02961,26.178125 845.432659,23.6109375 L849.120571,20.0625 L844.108831,20.0625 Z M852.939822,6 C846.850513,6 841.826833,10.771875 841.092534,16.9375 L844.108831,16.9375 C844.819251,12.503125 848.502686,9.125 852.939822,9.125 C856.177006,9.125 859.014206,10.9234375 860.587278,13.61875 L857.417255,16.9375 L860.402211,16.9375 L861.770813,16.9375 L864.78711,16.9375 L864.879644,16.9375 L864.879644,9.125 L862.742416,11.3625 C860.585785,8.1203125 856.999361,6 852.939822,6 Z"></path>
  			</g>
  		</g>
	</symbol>

	<symbol id="help" viewBox="0 0 25 25">
	    <title>Help</title>
	    <g stroke="none" stroke-width="1" fill="none" fill-rule="evenodd">
	        <g transform="translate(-887.000000, -22.000000)" fill="#6D8EA1">
	            <g transform="translate(0.000000, 16.000000)">
	                <path d="M899.333015,6.001136 C892.429975,6.09352697 886.909281,11.7649736 887.00113,18.6682093 C887.093522,25.5684558 892.764488,31.0907182 899.667257,30.9988707 C906.568939,30.9059363 912.090719,25.2344896 911.998871,18.3317974 C911.906479,11.4310075 906.235241,5.90901678 899.333015,6.001136 Z M899.363173,8.25848623 C893.706852,8.33419098 889.183221,12.9813492 889.258481,18.6378299 C889.334187,24.2918613 893.980951,28.8167787 899.637049,28.7415193 C905.292257,28.6653692 909.816779,24.0182109 909.741519,18.3621756 C909.665814,12.7076988 905.018826,8.18300414 899.363173,8.25848623 Z M899.322207,27.1647212 L899.243776,27.1634861 C898.035815,27.1276676 897.184191,26.2377639 897.218466,25.0477262 C897.252123,23.878068 898.124436,23.0289232 899.292564,23.0289232 L899.362657,23.0301584 C900.604275,23.0669032 901.446327,23.9478522 901.411435,25.1721645 C901.376851,26.3452193 900.518125,27.1647212 899.322207,27.1647212 Z M904.238949,17.4644624 C903.954869,17.8680377 903.3302,18.3691875 902.543111,18.9824243 L901.676356,19.5808398 C901.200521,19.9507581 900.913353,20.298753 900.805587,20.64119 C900.720672,20.9107548 900.678986,20.982083 900.671576,21.5304761 L900.67034,21.6697358 L897.360801,21.6697358 L897.370373,21.3896724 C897.410824,20.238541 897.439232,19.5613867 897.916302,19.0018775 C898.664793,18.1230899 900.315857,17.0599607 900.385951,17.0148788 C900.622479,16.8367128 900.821953,16.6338445 900.970478,16.417081 C901.317859,15.9381633 901.471633,15.5611431 901.471633,15.1906072 C901.471633,14.6764887 901.319094,14.2009677 901.017413,13.7776304 C900.727465,13.3691146 900.176596,13.1622321 899.379935,13.1622321 C898.589758,13.1622321 898.04877,13.4129614 897.725165,13.9273887 C897.392297,14.4563286 897.22401,15.0118237 897.22401,15.5793611 L897.22401,15.7204735 L893.811645,15.7204735 L893.817821,15.5731855 C893.905824,13.4830544 894.651844,11.9780612 896.034267,11.0998911 C896.902875,10.5406908 897.983617,10.2572308 899.244688,10.2572308 C900.895443,10.2572308 902.288983,10.6583359 903.38609,11.44943 C904.49771,12.2510226 905.061548,13.4515588 905.061548,15.0176905 C905.061548,15.893699 904.784878,16.7165975 904.238949,17.4644624 Z"></path>
	            </g>
	        </g>
	    </g>		
	</symbol>

	<symbol id="manage" viewBox="0 0 25 25">
		<g  stroke="none" stroke-width="1" fill="none" fill-rule="evenodd" >
	        <g fill="#607D8B">
	            <path d="M24.8993689,11.1023052 C24.8598708,10.7511899 24.4504842,10.4873424 24.0964879,10.4873424 C22.9519711,10.4873424 21.9363578,9.81531633 21.5104284,8.77600406 C21.0752983,7.71150592 21.3558745,6.47005611 22.2088485,5.68762116 C22.4773429,5.44217507 22.5099637,5.03130146 22.2847778,4.74589254 C21.6989972,4.00202637 21.0331979,3.33009328 20.3062462,2.74775127 C20.0215808,2.51931261 19.6039228,2.551097 19.3570827,2.82442414 C18.6126589,3.64886652 17.2754842,3.95527916 16.2422128,3.52414533 C15.166934,3.07182191 14.4888671,1.98223083 14.5552239,0.812621163 C14.5770641,0.445241981 14.3085697,0.125818189 13.9423057,0.0831601968 C13.0094061,-0.0247394315 12.068328,-0.0280851564 11.1326403,0.0757252526 C10.7705585,0.115688078 10.5020641,0.427583989 10.5142388,0.790316331 C10.5549451,1.94840183 9.86869977,3.01894087 8.80410869,3.45500035 C7.78319791,3.87200778 6.4554098,3.56819737 5.712473,2.751097 C5.46693397,2.48195202 5.05606036,2.44886652 4.77000088,2.67182191 C4.02148787,3.25908956 3.34072579,3.93158027 2.74955479,4.66931261 C2.51897858,4.95611559 2.55290051,5.37182191 2.8240901,5.61856912 C3.69332802,6.40574384 3.97399716,7.65797432 3.52241724,8.73474012 C3.09128341,9.76132005 2.02529828,10.4229371 0.80494512,10.4229371 C0.408941402,10.4102048 0.126878205,10.6760041 0.0835696552,11.0360412 C-0.0262816459,11.9743312 -0.0275827611,12.9303721 0.0781793207,13.8762829 C0.117398652,14.2288851 0.5392388,14.4904093 0.897138428,14.4904093 C1.9846849,14.4626212 3.02882988,15.1359483 3.46684103,16.2018405 C3.90345813,17.2663386 3.62278899,18.507045 2.76851389,19.2901305 C2.50132058,19.5355766 2.46739865,19.9457996 2.69258453,20.2312085 C3.27288192,20.9703349 3.93877412,21.6429186 4.66832802,22.2300933 C4.95448044,22.4606695 5.37083731,22.4281416 5.61888564,22.1548145 C6.36609754,21.3283275 7.70317932,21.0224725 8.73236148,21.4544427 C9.81033545,21.9053721 10.4884024,22.9948702 10.4220455,24.1651305 C10.4003912,24.5326955 10.6701868,24.8526769 11.0349637,24.8946844 C11.5121942,24.9503535 11.9923057,24.9781416 12.4737184,24.9781416 C12.9306886,24.9781416 13.3877518,24.9530487 13.8447221,24.9022122 C14.2068968,24.8622494 14.4752053,24.5503535 14.4630306,24.1869706 C14.4211161,23.0295357 15.1085697,21.9589966 16.1717667,21.5236806 C17.1995548,21.1038851 18.5217667,21.4111342 19.2647964,22.2273981 C19.5117295,22.4959855 19.9197221,22.5284204 20.2073615,22.3062085 C20.9544804,21.7203349 21.6338485,21.0484018 22.2278076,20.3086249 C22.4582908,20.0224725 22.425763,19.6061156 22.1531793,19.3594613 C21.2839414,18.5722866 21.0018782,17.3198702 21.4534581,16.2438479 C21.8779934,15.2309297 22.9043875,14.5508182 24.0083838,14.5508182 L24.1628447,14.5548145 C24.5209303,14.5839037 24.8503912,14.3080673 24.8937927,13.9425468 C25.0038299,13.0034204 25.005131,12.048216 24.8993689,11.1023052 L24.8993689,11.1023052 Z M5.3427704,12.5147828 C5.3427704,8.56379052 8.55669812,5.34970295 12.5078503,5.34970295 C16.4588426,5.34970295 19.6727703,8.56379052 19.6727703,12.5147828 C19.6727703,16.465935 16.4588426,19.6798627 12.5078503,19.6798627 C8.55669812,19.6798627 5.3427704,16.465935 5.3427704,12.5147828 Z" ></path>
	        </g>
	    </g>
    </symbol>

    <symbol id="log" viewBox="0 0 25 25">
	    <g stroke="none" stroke-width="1" fill="none" fill-rule="evenodd">
	        <g transform="translate(-987.000000, -22.000000)" fill="#607D8B">
	            <g id="header" transform="translate(0.000000, 16.000000)">
	                <path d="M995.342718,19.3080924 C995.450382,20.5233373 996.471059,21.4761905 997.714286,21.4761905 C999.029249,21.4761905 1000.09524,20.4102018 1000.09524,19.0952381 C1000.09524,17.7802744 999.029249,16.7142857 997.714286,16.7142857 C997.481696,16.7142857 997.256895,16.7476366 997.044406,16.809817 L989.287257,13.25108 L988.953924,13.8284303 L995.342718,19.3080924 Z M999.337662,8.42705721 C1005.10192,8.94650239 1009.61905,13.7909736 1009.61905,19.6904762 C1009.61905,25.9365537 1004.5556,31 998.309524,31 C992.063446,31 987,25.9365537 987,19.6904762 C987,18.7905788 987.105104,17.9152296 987.303705,17.0760346 L987.303705,17.0760346 L989.661966,17.6664414 C989.527533,18.2836951 989.45671,18.9247023 989.45671,19.5822511 C989.45671,24.5312962 993.468704,28.54329 998.417749,28.54329 C1003.36679,28.54329 1007.37879,24.5312962 1007.37879,19.5822511 C1007.37879,14.9437874 1003.85455,11.1284546 999.337662,10.6678534 L999.337662,14.2251082 L991.112554,10.1125541 L999.337662,6 L999.337662,8.42705721 L999.337662,8.42705721 Z"></path>
	            </g>
	        </g>
	    </g>
    </symbol>

    <symbol id="pool" viewBox="0 0 25 25">
    	<title>Pool</title>
	    <g stroke="none" stroke-width="1" fill="none" fill-rule="evenodd">
	        <g transform="translate(-243.000000, -35.000000)">
	            <g transform="translate(19.000000, 35.000000)">
	                <g transform="translate(224.000000, 0.000000)">
	                    <path d="M10.4822878,22.0943077 L5.80333278,24.8158633 L1.2509389,22.1679231 L3.55241263,20.8391666 L5.93036614,22.2223243 L8.30831964,20.8391666 L10.4822878,22.0943077 Z M11.3040385,19.9087029 L11.3040385,15.2172607 L5.80333278,12.0177265 L0.302627037,15.2172607 L0.302627037,20.0553884 L2.7545322,18.6397803 L2.7545322,16.6805685 L5.93036614,14.8333166 L9.10620008,16.6805685 L9.10620008,18.6397803 L11.3040385,19.9087029 Z" fill="#C3CFF0"></path>
	                    <path d="M17.2224986,10.2850488 L12.5435436,13.0066044 L7.99114972,10.3586642 L10.2926235,9.02990769 L12.670577,10.4130654 L15.0485305,9.02990769 L17.2224986,10.2850488 Z M18.0442493,8.09944401 L18.0442493,3.40800179 L12.5435436,0.208467596 L7.04283786,3.40800179 L7.04283786,8.2461295 L9.49474302,6.83052139 L9.49474302,4.87130961 L12.670577,3.02405769 L15.8464109,4.87130961 L15.8464109,6.83052139 L18.0442493,8.09944401 Z" fill="#C3CFF0"></path>
	                    <path d="M23.9627094,22.0943077 L19.2837544,24.8158633 L14.7313605,22.1679231 L17.0328343,20.8391666 L19.4107878,22.2223243 L21.7887413,20.8391666 L23.9627094,22.0943077 Z M24.7844602,19.9087029 L24.7844602,15.2172607 L19.2837544,12.0177265 L13.7830487,15.2172607 L13.7830487,20.0553884 L16.2349538,18.6397803 L16.2349538,16.6805685 L19.4107878,14.8333166 L22.5866217,16.6805685 L22.5866217,18.6397803 L24.7844602,19.9087029 Z" fill="#C3CFF0"></path>
	                    <polygon fill="#8B97B8" points="19.4544026 16.2630245 21.2967492 17.3346417 21.2967492 19.4778761 19.4544026 20.5494933 17.612056 19.4778761 17.612056 17.3346417 "></polygon>
	                </g>
	            </g>
	        </g>
	    </g>
    </symbol>    

    <symbol id="trash-closed" viewBox="0 0 25 25">
	    <g stroke="none" stroke-width="1" fill="none" fill-rule="evenodd">
	        <g fill="#6D8EA1">
	            <path d="M6,10 L19,10 L19,25 L6,25 L6,10 Z M4,6 L21,6 L21,8 L4,8 L4,6 Z M10,4 L15,4 L15,6 L10,6 L10,4 Z" ></path>
	        </g>
	    </g>
    </symbol>

    <symbol id="trash-opened" viewBox="0 0 25 25">
	    <g stroke="none" stroke-width="1" fill="none" fill-rule="evenodd">
	        <g transform="translate(-3.000000, -1.000000)">
	            <g >
	                <rect fill="#526D7C" transform="translate(12.000000, 18.500000) scale(-1, 1) translate(-12.000000, -18.500000) " x="6" y="12" width="12" height="13"></rect>
	                <path d="M7.92820323,5.73205081 L1.92820323,5.73205081 L1.92820323,7.73205081 L17.9282032,7.73205081 L17.9282032,5.73205081 L11.9282032,5.73205081 L11.9282032,3.73205081 L7.92820323,3.73205081 L7.92820323,5.73205081 Z" fill="#526D7C" transform="translate(9.928203, 5.732051) scale(-1, 1) rotate(-330.000000) translate(-9.928203, -5.732051) "></path>
	                <rect fill-opacity="0" fill="#D8D8D8" x="0" y="0" width="25" height="25"></rect>
	            </g>
	        </g>
	    </g>
    </symbol>

	<symbol id="trash-disabled" viewBox="0 0 25 25">
	    <g stroke="none" stroke-width="1" fill="none" fill-rule="evenodd" >
	        <g transform="translate(-2.000000, -2.000000)" fill="#2E3D46">
	            <path d="M11,8 L19,8 L19,16 L11,8 Z M14.9153977,23 L6,23 L6,14.0846023 L14.9153977,23 Z M7,4 L21,4 L21,6 L9,6 L7,4 Z M10,2 L15,2 L15,4 L10,4 L10,2 Z M4.65802182,5.73824199 L22.2105107,22.1062026 L20.1645156,24.3002637 L2.61202674,7.9323031 L4.65802182,5.73824199 Z"></path>
	        </g>
	    </g>		
	</symbol>

	<symbol id="bucket" viewBox="0 0 25 25">
    	<title>Bucket</title>
	    <g stroke="none" stroke-width="1" fill="none" fill-rule="evenodd">
	        <g transform="translate(-488.000000, -517.000000)">
	            <g transform="translate(488.000000, 517.000000)">
	                <path d="M11.0646723,0 L21.8899898,6.25 L21.8899898,18.75 L11.0646723,25 L0.239354721,18.75 L0.239354721,6.25 L11.0646723,0 Z M11.0646723,1.1738521 L20.289831,6.5 L11.0646723,11.8261479 L1.83951349,6.5 L11.0646723,1.1738521 Z" fill="#C3CEEF"></path>
	                <polygon id="Polygon-1800-Copy-4" fill="#8B97B8" points="11.337276 3.35104795 16.7914209 6.5 11.337276 9.64895205 "></polygon>
	            </g>
	        </g>
	    </g>
    </symbol>        

    <symbol id="bucket-healthy" viewBox="0 0 25 25">
    	<g stroke="none" stroke-width="1" fill="none" fill-rule="evenodd">
	        <g transform="translate(-248.000000, -555.000000)">
	            <g transform="translate(18.000000, 499.000000)">
	                <g transform="translate(230.000000, 56.000000)">
	                    <path d="M11.4813389,0 L22.3066565,6.25 L22.3066565,18.75 L11.4813389,25 L0.656021388,18.75 L0.656021388,6.25 L11.4813389,0 Z M11.4813389,1.1738521 L20.7064977,6.5 L11.4813389,11.8261479 L2.25618016,6.5 L11.4813389,1.1738521 Z" id="Polygon-1800-Copy-2" fill="#C3CEEF"></path>
	                    <polygon fill="#7EE058" points="11.4813389 3.40950669 16.8342304 6.5 11.4813389 9.59049331 6.12844751 6.5 "></polygon>
	                </g>
	            </g>
	        </g>
	    </g>
    </symbol>

    <symbol id="bucket-problam" viewBox="0 0 25 25">
	    <g stroke-width="1" fill="none" fill-rule="evenodd">
	        <g transform="translate(-249.000000, -612.000000)" fill="#FF2246">
	            <g transform="translate(18.000000, 499.000000)">
	                <g transform="translate(231.000000, 113.000000)">
	                    <path d="M10.8253175,0 L21.6506351,6.22102865 L21.6506351,18.6630859 L10.8253175,24.8841146 L-5.79314374e-13,18.6630859 L-5.86419802e-13,6.22102865 L10.8253175,0 Z M10.8253175,1.16841081 L20.0504763,6.46986979 L10.8253175,11.7713288 L1.60015877,6.46986979 L10.8253175,1.16841081 Z"></path>
	                    <path d="M9.81374933,6.90316933 L9.692292,3.2245279 L11.7917686,3.2245279 L11.6703113,6.90316933 L9.81374933,6.90316933 Z M9.692292,9.75059923 L9.692292,8.04080814 L11.6703113,8.04080814 L11.6703113,9.75059923 L9.692292,9.75059923 Z"></path>
	                </g>
	            </g>
	        </g>
	    </g>
    </symbol>

    <symbol id="bucket-unselected" viewBox="0 0 25 25">
	    <g stroke="none" stroke-width="1" fill="none" fill-rule="evenodd">
	        <g fill="#6D8EA1">
	            <g transform="translate(1.000000, 0.000000)">
	                <path d="M11.4813389,0 L22.3066565,6.25 L22.3066565,18.75 L11.4813389,25 L0.656021388,18.75 L0.656021388,6.25 L11.4813389,0 Z M11.4813389,1.1738521 L20.7064977,6.5 L11.4813389,11.8261479 L2.25618016,6.5 L11.4813389,1.1738521 Z" ></path>
	                <polygon points="11.4813389 3.40950669 16.8342304 6.5 11.4813389 9.59049331 6.12844751 6.5 "></polygon>
	            </g>
	        </g>
	    </g>    	
    </symbol>

    <symbol id="bucket-selected" viewBox="0 0 25 25">
	    <g stroke="none" stroke-width="1" fill="none" fill-rule="evenodd">
	        <g fill="#3494D9">
	            <g transform="translate(1.000000, 0.000000)">
	                <path d="M11.4813389,0 L22.3066565,6.25 L22.3066565,18.75 L11.4813389,25 L0.656021388,18.75 L0.656021388,6.25 L11.4813389,0 Z M11.4813389,1.1738521 L20.7064977,6.5 L11.4813389,11.8261479 L2.25618016,6.5 L11.4813389,1.1738521 Z" ></path>
	                <polygon points="11.4813389 3.40950669 16.8342304 6.5 11.4813389 9.59049331 6.12844751 6.5 "></polygon>
	            </g>
	        </g>
	    </g>    	
    </symbol>

	<symbol id="node-dark" viewBox="0 0 25 25">
	    <g stroke="none" stroke-width="1" fill="none" fill-rule="evenodd">
	        <g >
	            <path d="M21.9907649,19.6591677 L12.3269958,24.9891115 L3.06943277,19.8832061 L7.75797048,17.1762776 L12.5835492,19.8377716 L17.5529146,17.0969736 L21.9907649,19.6591677 Z M23.6539915,15.4255427 L23.6539915,6.24727787 L12.3269958,0 L1,6.24727787 L1,15.8841044 L6.04390512,12.9720044 L6.04390512,9.01716891 L12.5835492,5.41030134 L19.1231932,9.01716891 L19.1231932,12.8096851 L23.6539915,15.4255427 Z" fill="#35434E"></path>
	            <polygon fill="#35434E" points="12.7713593 8.74618902 16.169458 10.6203724 16.169458 14.3687391 12.7713593 16.2429225 9.37326057 14.3687391 9.37326057 10.6203724 "></polygon>
	        </g>
	    </g>		
	</symbol>

	<symbol id="node-light" viewBox="0 0 25 25">
	    <g stroke="none" stroke-width="1" fill="none" fill-rule="evenodd">
	        <g fill="#3494D9">
	            <path d="M21.9907649,19.6591677 L12.3269958,24.9891115 L3.06943277,19.8832061 L7.75797048,17.1762776 L12.5835492,19.8377716 L17.5529146,17.0969736 L21.9907649,19.6591677 Z M23.6539915,15.4255427 L23.6539915,6.24727787 L12.3269958,0 L1,6.24727787 L1,15.8841044 L6.04390512,12.9720044 L6.04390512,9.01716891 L12.5835492,5.41030134 L19.1231932,9.01716891 L19.1231932,12.8096851 L23.6539915,15.4255427 Z"></path>
	            <polygon points="12.7713593 8.74618902 16.169458 10.6203724 16.169458 14.3687391 12.7713593 16.2429225 9.37326057 14.3687391 9.37326057 10.6203724 "></polygon>
	        </g>
	    </g>		
	</symbol>	

    <symbol id="node" viewBox="0 0 25 25">
    	<title>Node</title>
		
		<g stroke-width="1" fill-rule="evenodd" fill="#8B97B8">
	        <g transform="translate(-544.000000, -240.000000)">
	            <g transform="translate(19.000000, 230.000000)">
	                <g transform="translate(525.000000, 10.000000)">
	                    <path d="M21.8345374,19.6754982 L11.7989539,24.9891115 L2.19493577,19.9040022 L2.19493577,19.9040022 L6.97692654,17.1431186 L12.0661971,19.8377716 L17.3082309,17.0622339 L21.8345374,19.6754982 Z M23.5979079,15.4996913 L23.5979079,6.24727787 L11.7989539,0 L6.77236045e-14,6.24727787 L7.37756745e-14,15.9773597 L5.25406783,12.9439222 L5.25406783,9.01716891 L12.0661971,5.41030134 L18.8783263,9.01716891 L18.8783263,12.7748396 L23.5979079,15.4996913 Z"></path>
	                    <g transform="translate(7.291667, 2.000000)">
	                        <g class="normal" transform="translate(0.000000, 6.000000)">
	                            <polygon points="4.97016594 0.746189024 8.50985212 2.62037239 8.50985212 6.36873911 4.97016594 8.24292247 1.43047976 6.36873911 1.43047976 2.62037239 "></polygon>
	                        </g>
	                    </g>
	                </g>
	            </g>
	        </g>
	    </g>
    </symbol>

    <symbol id="node-offline" viewBox="0 0 25 25">
		<g stroke="none" stroke-width="1" fill="none" fill-rule="evenodd">
	        <g transform="translate(-463.000000, -282.000000)">
	            <g transform="translate(19.000000, 230.000000)">
	                <g transform="translate(444.000000, 52.000000)">
	                    <path d="M20.9907649,19.6591677 L11.3269958,24.9891115 L2.06943277,19.8832061 L6.75797048,17.1762776 L11.5835492,19.8377716 L16.5529146,17.0969736 L20.9907649,19.6591677 Z M22.6539915,15.4255427 L22.6539915,6.24727787 L11.3269958,0 L6.39488462e-14,6.24727787 L6.96003938e-14,15.8841044 L5.04390512,12.9720044 L5.04390512,9.01716891 L11.5835492,5.41030134 L18.1231932,9.01716891 L18.1231932,12.8096851 L22.6539915,15.4255427 Z" fill="#526D7C"></path>
	                    <path d="M11.0695697,12.9685887 L10.9519079,9.38830877 L12.9857759,9.38830877 L12.8681141,12.9685887 L11.0695697,12.9685887 Z M11.8419238,7.8125 L15.8713475,10.15625 L15.8713475,14.84375 L11.8419238,17.1875 L7.8125,14.84375 L7.8125,10.15625 L11.8419238,7.8125 Z M11.0107388,15.5136428 L11.0107388,13.849569 L12.926945,13.849569 L12.926945,15.5136428 L11.0107388,15.5136428 Z" fill="#FF2246"></path>
	                </g>
	            </g>
	        </g>
	    </g>    	
    </symbol>

    <symbol id="node-online" viewBox="0 0 25 25">
	    <g stroke="none" stroke-width="1" fill="none" fill-rule="evenodd">
	        <g transform="translate(-463.000000, -239.000000)">
	            <g transform="translate(19.000000, 230.000000)">
	                <g transform="translate(444.000000, 9.000000)">
	                    <path d="M20.9907649,19.6591677 L11.3269958,24.9891115 L2.06943277,19.8832061 L6.75797048,17.1762776 L11.5835492,19.8377716 L16.5529146,17.0969736 L20.9907649,19.6591677 Z M22.6539915,15.4255427 L22.6539915,6.24727787 L11.3269958,0 L6.55031585e-14,6.24727787 L7.0983447e-14,15.8841044 L5.04390512,12.9720044 L5.04390512,9.01716891 L11.5835492,5.41030134 L18.1231932,9.01716891 L18.1231932,12.8096851 L22.6539915,15.4255427 Z" fill="#5B6172"></path>
	                    <polygon fill="#84F757" points="11.7713593 8.74618902 15.169458 10.6203724 15.169458 14.3687391 11.7713593 16.2429225 8.37326057 14.3687391 8.37326057 10.6203724 "></polygon>
	                </g>
	            </g>
	        </g>
	    </g>    	
    </symbol>

    <symbol id="decommision-node" viewBox="0 0 25 25">
	    <g stroke="none" stroke-width="1" fill="none" fill-rule="evenodd">
	        <g transform="translate(-40.000000, -1544.000000)" fill="#6D8EA1">
	            <g transform="translate(40.000000, 1544.000000)">
	                <path d="M20.9907649,19.6591677 L11.3269958,24.9891115 L2.06943277,19.8832061 L6.75797048,17.1762776 L11.5835492,19.8377716 L16.5529146,17.0969736 L20.9907649,19.6591677 Z M22.6539915,15.4255427 L22.6539915,6.24727787 L11.3269958,0 L6.39488462e-14,6.24727787 L6.96003938e-14,15.8841044 L5.04390512,12.9720044 L5.04390512,9.01716891 L11.5835492,5.41030134 L18.1231932,9.01716891 L18.1231932,12.8096851 L22.6539915,15.4255427 Z"></path>
	                <path d="M10.6138957,12.5 L8.40418696,14.7097087 L9.50904131,15.814563 L11.71875,13.6048543 L13.9284587,15.814563 L15.033313,14.7097087 L12.8236043,12.5 L15.033313,10.2902913 L13.9284587,9.18543696 L11.71875,11.3951457 L9.50904131,9.18543696 L8.40418696,10.2902913 L10.6138957,12.5 L10.6138957,12.5 Z"></path>
	            </g>
	        </g>
	    </g> 	
    </symbol>    

    <symbol id="disconnect-node" viewBox="0 0 25 25">
    </symbol>

    <symbol id="diagnose-node" viewBox="0 0 25 25">
    </symbol>

    <symbol id="test-node" viewBox="0 0 25 25">
    </symbol>    

    <symbol id="cloud" viewBox="0 0 25 25">
	    <g stroke="none" stroke-width="1" fill="none" fill-rule="evenodd">
	        <g transform="translate(-246.000000, -1215.000000)" fill="#FFFFFF">
	            <g transform="translate(19.000000, 1212.000000)">
	                <g transform="translate(227.000000, 3.000000)">
	                    <g >
	                        <path d="M20.3191654,5.54634998 L20.3061852,5.54634998 C20.1063162,2.45006194 17.4791515,0 14.2703963,0 C11.3083426,0 8.84467635,2.08624174 8.32289863,4.83906315 C8.25537567,4.83651895 8.1853086,4.83397475 8.1178116,4.83397475 C5.91117909,4.83397475 4.04981967,6.2663578 3.44234672,8.23302227 C3.34888934,8.22541512 3.25283593,8.22030128 3.15678251,8.22030128 C1.41484085,8.22030128 0,9.60434458 0,11.3140451 C0,13.0237711 1.41224481,14.4078144 3.15418647,14.4078144 L20.3165953,14.4078144 C22.8140101,14.4078144 24.8362979,12.4233406 24.8362979,9.97831613 C24.836272,7.53336803 22.8165802,5.54634998 20.3191654,5.54634998 L20.3191654,5.54634998 Z"></path>
	                    </g>
	                </g>
	            </g>
	        </g>
	    </g>
    </symbol>

 	<symbol id="cloud-not-set" viewBox="0 0 25 25">
	    <g stroke="none" stroke-width="1" fill="none" fill-rule="evenodd">
	        <g transform="translate(-246.000000, -1407.000000)" fill="#6D8EA1">
	            <g transform="translate(19.000000, 1180.000000)">
	                <g transform="translate(227.000000, 226.000000)">
	                    <g >
	                        <path d="M10.460202,2.37887375 C11.5170891,1.51820772 12.8784666,1 14.3644559,1 C17.5943608,1 20.2388419,3.45006194 20.4400282,6.54634998 L20.453094,6.54634998 C22.9669698,6.54634998 24.9999739,8.53336803 25,10.9783161 C25,12.5732947 24.1337577,13.9722892 22.8335913,14.752263 L10.460202,2.37887375 Z M4.31669154,7.64957685 C3.93793846,8.11497483 3.64613361,8.65056678 3.46503606,9.23302227 C3.37096268,9.22541512 3.27427616,9.22030128 3.17758963,9.22030128 C1.42416641,9.22030128 0,10.6043446 0,12.3140451 C0,14.0237711 1.42155326,15.4078144 3.17497648,15.4078144 L12.0749291,15.4078144 L4.31669154,7.64957685 Z M4.438648,0.944071449 L21.5210679,18.0264913 L20.1068543,19.4407049 L3.02443444,2.35828501 L4.438648,0.944071449 Z"></path>
	                    </g>
	                </g>
	            </g>
	        </g>
	    </g>  	
    </symbol>

    <symbol id="cloud-unsynced" viewBox="0 0 25 25">
	    <g stroke="none" stroke-width="1" fill="none" fill-rule="evenodd">
	        <g transform="translate(-246.000000, -1250.000000)">
	            <g transform="translate(19.000000, 1212.000000)">
	                <g transform="translate(227.000000, 38.000000)">
	                    <path d="M20.453094,5.55702822 L20.4400282,5.55702822 C20.2388419,2.45477898 17.5943608,0 14.3644559,0 C11.3828786,0 8.90297376,2.09025832 8.37775687,4.84837967 C8.30978886,4.84583057 8.23925996,4.84328148 8.17131807,4.84328148 C5.95014111,4.84328148 4.07651301,6.27842225 3.46503606,8.24887308 C3.37096268,8.24125129 3.27427616,8.23612761 3.17758963,8.23612761 C1.42416641,8.23612761 0,9.62283556 0,11.3358277 C0,13.0488454 1.42155326,14.4355534 3.17497648,14.4355534 L20.450507,14.4355534 C22.9643828,14.4355534 25,12.4472589 25,9.99752711 C24.9999739,7.54787182 22.9669698,5.55702822 20.453094,5.55702822 L20.453094,5.55702822 Z" stroke="#607D8B"></path>
	                    <path d="M10.3365385,10.3189025 L11.6185897,11.6009538 L14.1826923,9.03685121 L16.7467949,11.6009538 L18.0288462,10.3189025 L15.4647436,7.75479993 L18.0288462,5.19069737 L16.7467949,3.90864608 C16.7467949,3.90864608 15.4647436,6.47274865 14.1826923,6.47274865 C12.900641,6.47274865 11.6185897,3.90864608 11.6185897,3.90864608 L10.3365385,5.19069737 L12.900641,7.75479993 L10.3365385,10.3189025 Z" fill="#607D8B"></path>
	                </g>
	            </g>
	        </g>
	    </g>
    </symbol>

    <symbol id="cloud-syncing" viewBox="0 0 25 25">
	 	<g stroke="none" stroke-width="1" fill="none" fill-rule="evenodd">
	        <g transform="translate(-246.000000, -1322.000000)">
	            <g transform="translate(19.000000, 1212.000000)">
	                <g transform="translate(227.000000, 110.000000)">
	                    <path d="M20.3191654,6.50788844 L20.3061852,6.50788844 C20.1063162,3.4116004 17.4791515,0.961538462 14.2703963,0.961538462 C11.3083426,0.961538462 8.84467635,3.0477802 8.32289863,5.80060161 C8.25537567,5.79805741 8.1853086,5.79551322 8.1178116,5.79551322 C5.91117909,5.79551322 4.04981967,7.22789626 3.44234672,9.19456073 C3.34888934,9.18695358 3.25283593,9.18183974 3.15678251,9.18183974 C1.41484085,9.18183974 0,10.565883 0,12.2755836 C0,13.9853096 1.41224481,15.3693529 3.15418647,15.3693529 L20.3165953,15.3693529 C22.8140101,15.3693529 24.8362979,13.384879 24.8362979,10.9398546 C24.836272,8.49490649 22.8165802,6.50788844 20.3191654,6.50788844 L20.3191654,6.50788844 Z" fill="#6D8EA1"></path>
	                    <g transform="translate(14.757047, 8.999683) rotate(-44.000000) translate(-14.757047, -8.999683) translate(8.987817, 2.749683)">
	                        <g transform="translate(0.000000, 0.000000)">
	                            <g>
	                            <path fill="#FFCF00" fill-rule="evenodd" d="M1.95589588,6.30639121 L0.757905649,6.30639121 L0.721153846,6.30639121 L0.721153846,9.40930086 L1.59904773,8.56468885 C2.45915848,9.82695249 3.86936074,10.6504647 5.46332201,10.6504647 C7.88182777,10.6504647 9.87709503,8.7552075 10.1687384,6.30639121 L8.97074814,6.30639121 C8.68858913,8.06760273 7.22563025,9.40930086 5.46332201,9.40930086 C4.21494624,9.40930086 3.11594877,8.73534888 2.48168378,7.71573277 L3.94642097,6.30639121 L1.95589588,6.30639121 Z M5.46332201,0.721153846 C3.04481625,0.721153846 1.04954899,2.61641106 0.757905649,5.06522735 L1.95589588,5.06522735 C2.23805489,3.30401584 3.70101377,1.9623177 5.46332201,1.9623177 C6.74904235,1.9623177 7.87590006,2.67660751 8.50068072,3.74711133 L7.24163507,5.06522735 L8.42717711,5.06522735 L8.97074814,5.06522735 L10.1687384,5.06522735 L10.2054902,5.06522735 L10.2054902,1.9623177 L9.35664207,2.85099103 C8.50008795,1.56328352 7.07565919,0.721153846 5.46332201,0.721153846 Z"></path>
	                                
	                            </g>
	                        </g>
	                    </g>
	                </g>
	            </g>
	        </g>
	    </g>   	
    </symbol>

    <symbol id="cloud-paused" viewBox="0 0 25 25">
        <g stroke="none" stroke-width="1" fill="none" fill-rule="evenodd">
	        <g transform="translate(-246.000000, -1362.000000)">
	            <g transform="translate(19.000000, 1212.000000)">
	                <g transform="translate(227.000000, 150.000000)">
	                    <path d="M20.3191654,5.54634998 L20.3061852,5.54634998 C20.1063162,2.45006194 17.4791515,0 14.2703963,0 C11.3083426,0 8.84467635,2.08624174 8.32289863,4.83906315 C8.25537567,4.83651895 8.1853086,4.83397475 8.1178116,4.83397475 C5.91117909,4.83397475 4.04981967,6.2663578 3.44234672,8.23302227 C3.34888934,8.22541512 3.25283593,8.22030128 3.15678251,8.22030128 C1.41484085,8.22030128 0,9.60434458 0,11.3140451 C0,13.0237711 1.41224481,14.4078144 3.15418647,14.4078144 L20.3165953,14.4078144 C22.8140101,14.4078144 24.8362979,12.4233406 24.8362979,9.97831613 C24.836272,7.53336803 22.8165802,5.54634998 20.3191654,5.54634998 L20.3191654,5.54634998 Z" fill="#6D8EA1"></path>
	                    <g>
	                    <path fill="#FFCF00" fill-rule="evenodd" d="M11.5384615,3.84615385 L13.4615385,3.84615385 L13.4615385,11.5384615 L11.5384615,11.5384615 L11.5384615,3.84615385 Z M15.3846154,3.84615385 L17.3076923,3.84615385 L17.3076923,11.5384615 L15.3846154,11.5384615 L15.3846154,3.84615385 Z"></path>
	                    </g>
	                </g>
	            </g>
	        </g>
	    </g>
    </symbol>

    <symbol id="cloud-synced" viewBox="0 0 25 25">
	    <g stroke="none" stroke-width="1" fill="none" fill-rule="evenodd">
	        <g transform="translate(-246.000000, -1286.000000)">
	            <g transform="translate(19.000000, 1212.000000)">
	                <g transform="translate(227.000000, 74.000000)">
	                    <g fill="#6D8EA1">
	                        <path d="M20.3191654,5.54634998 L20.3061852,5.54634998 C20.1063162,2.45006194 17.4791515,0 14.2703963,0 C11.3083426,0 8.84467635,2.08624174 8.32289863,4.83906315 C8.25537567,4.83651895 8.1853086,4.83397475 8.1178116,4.83397475 C5.91117909,4.83397475 4.04981967,6.2663578 3.44234672,8.23302227 C3.34888934,8.22541512 3.25283593,8.22030128 3.15678251,8.22030128 C1.41484085,8.22030128 0,9.60434458 0,11.3140451 C0,13.0237711 1.41224481,14.4078144 3.15418647,14.4078144 L20.3165953,14.4078144 C22.8140101,14.4078144 24.8362979,12.4233406 24.8362979,9.97831613 C24.836272,7.53336803 22.8165802,5.54634998 20.3191654,5.54634998 L20.3191654,5.54634998 Z"></path>
	                    </g>
	                    <path d="M12.1017177,9.4504107 L9.38207626,6.73076923 L8.02225553,8.09058996 L11.4218074,11.4901418 L12.1017177,12.1700522 L18.9008214,5.3709485 L17.5410007,4.01112776 L12.1017177,9.4504107 L12.1017177,9.4504107 Z" fill="#84F757"></path>
	                </g>
	            </g>
	        </g>
	    </g>	
    </symbol>

    <symbol id="cloud-unable" viewBox="0 0 25 25">
	    <g stroke="none" stroke-width="1" fill="none" fill-rule="evenodd">
	        <g transform="translate(-246.000000, -1402.000000)" fill="#FF2246">
	            <g transform="translate(19.000000, 1212.000000)">
	                <g transform="translate(227.000000, 190.000000)">
	                    <path d="M20.3191654,5.54634998 L20.3061852,5.54634998 C20.1063162,2.45006194 17.4791515,0 14.2703963,0 C11.3083426,0 8.84467635,2.08624174 8.32289863,4.83906315 C8.25537567,4.83651895 8.1853086,4.83397475 8.1178116,4.83397475 C5.91117909,4.83397475 4.04981967,6.2663578 3.44234672,8.23302227 C3.34888934,8.22541512 3.25283593,8.22030128 3.15678251,8.22030128 C1.41484085,8.22030128 0,9.60434458 0,11.3140451 C0,13.0237711 1.41224481,14.4078144 3.15418647,14.4078144 L20.3165953,14.4078144 C22.8140101,14.4078144 24.8362979,12.4233406 24.8362979,9.97831613 C24.836272,7.53336803 22.8165802,5.54634998 20.3191654,5.54634998 Z M12.9191784,12.5000092 L12.9191784,9.89040316 L15.9241792,9.89040316 L15.9241792,12.5000092 L12.9191784,12.5000092 Z M13.0114372,8.50884703 L12.8269196,2.89424016 L16.016438,2.89424016 L15.8319204,8.50884703 L13.0114372,8.50884703 Z"></path>
	                </g>
	            </g>
	        </g>
	    </g>
    </symbol>

    <symbol id="part" viewBox="0 0 25 25">
	    <g stroke="none" stroke-width="1" fill-rule="evenodd">
	        <g transform="translate(-587.000000, -941.000000)">
	            <g transform="translate(19.000000, 941.000000)">
	                <g transform="translate(568.000000, 0.000000)">
	                    <g>
	                        <mask fill="white">
	                            <path d="M11.3042305,0 L22.6084611,6.17218476 L22.6084611,18.5165543 L11.3042305,24.6887391 L-1.12798659e-13,18.5165543 L-1.20126131e-13,6.17218476 L11.3042305,0 Z M11.3042305,1.88246035 L20.8846172,7.11341494 L20.8846172,17.5753241 L11.3042305,22.8062787 L1.72384388,17.5753241 L1.72384388,7.11341494 L11.3042305,1.88246035 Z"></path>
	                        </mask>
	                        <path fill="#595F70" d="M11.3042305,0 L22.6084611,6.17218476 L22.6084611,18.5165543 L11.3042305,24.6887391 L-1.12798659e-13,18.5165543 L-1.20126131e-13,6.17218476 L11.3042305,0 Z M11.3042305,1.88246035 L20.8846172,7.11341494 L20.8846172,17.5753241 L11.3042305,22.8062787 L1.72384388,17.5753241 L1.72384388,7.11341494 L11.3042305,1.88246035 Z"></path>
	                    </g>
	                    <g transform="translate(3.726669, 3.518070)">
	                        <path d="M0.834773863,4.33074191 L7.45333882,0.714285714 L14.7409945,4.6963404 L14.7409945,4.85095606 L14.6662473,4.81011339 L7.98668455,8.45989947 L0.834773863,4.33074191 Z M0.165683122,5.520927 L0.165683122,12.6604498 L7.37859165,16.6016618 L7.37859165,9.68530168 L0.165683122,5.520927 Z" fill="#C3CEEF"></path>
	                        <path d="M14.7409945,6.20994846 L14.7409945,12.8179816 L8.57451661,16.1874125 L8.51126902,16.1528533 L8.51126902,9.54482017 L14.6777469,6.17538928 L14.7409945,6.20994846 Z" id="indication_02" fill="#8B97B8"></path>
	                    </g>
	                </g>
	            </g>
	        </g>
	    </g>    	
    </symbol>

	<symbol id="part-dark" viewBox="0 0 25 25">
	    <g stroke="none" stroke-width="1" fill-rule="evenodd">
	        <g transform="translate(-391.000000, -1789.000000)">
	            <g transform="translate(391.000000, 1789.000000)">
	                <g>
	                    <g transform="translate(0.694444, 0.694444)"></g>
	                    <g transform="translate(0.651214, 0.642568)">
	                        <path d="M4.16185085,7.72796777 L10.3302053,4.16666667 L17.0357396,8.03810872 L17.0357396,8.1884295 L16.9669631,8.14872135 L10.9287903,11.6348621 L4.16185085,7.72796777 Z M3.62467095,8.95052038 L3.62467095,15.7809928 L10.2614288,19.6127267 L10.2614288,12.7822543 L3.62467095,8.95052038 Z" fill="#526D7C"></path>
	                        <path d="M17.0357396,9.50967212 L17.0357396,15.9341488 L11.361826,19.2099844 L11.3036304,19.1763852 L11.3036304,12.7519085 L16.9775441,9.47607291 L17.0357396,9.50967212 Z" fill="#526D7C"></path>
	                        <mask fill="white">
	                          <path d="M10.444505,0.0518768244 L20.8457793,6.05261201 L20.8457793,18.0540824 L10.444505,24.0548176 L0.043230687,18.0540824 L0.043230687,6.05261201 L10.444505,0.0518768244 Z M10.444505,1.88204661 L19.2596322,6.96769691 L19.2596322,17.1389975 L10.444505,22.2246478 L1.62937784,17.1389975 L1.62937784,6.96769691 L10.444505,1.88204661 Z"></path>
	                        </mask>
	                        <path fill="#526D7C" d="M10.444505,0.0518768244 L20.8457793,6.05261201 L20.8457793,18.0540824 L10.444505,24.0548176 L0.043230687,18.0540824 L0.043230687,6.05261201 L10.444505,0.0518768244 Z M10.444505,1.88204661 L19.2596322,6.96769691 L19.2596322,17.1389975 L10.444505,22.2246478 L1.62937784,17.1389975 L1.62937784,6.96769691 L10.444505,1.88204661 Z"></path>
	                    </g>
	                </g>
	            </g>
	        </g>
	    </g>   		
    </symbol>

	<symbol id="part-light" viewBox="0 0 25 25">
	    <g stroke="none" stroke-width="1" fill="none" fill-rule="evenodd">
	        <g fill="#3494D9">
	            <path d="M6.28076087,7.94876685 L12.625354,4.28571429 L19.522475,8.26776897 L19.522475,8.42238463 L19.4517335,8.38154196 L13.2410414,11.9672867 L6.28076087,7.94876685 Z M5.72823298,9.20624953 L5.72823298,16.2318783 L12.5546124,20.1730904 L12.5546124,13.1474615 L5.72823298,9.20624953 Z"></path>
	            <path d="M19.522475,9.78137703 L19.522475,16.3894102 L13.6864496,19.7588411 L13.6265913,19.7242819 L13.6265913,13.1162487 L19.4626168,9.74681786 L19.522475,9.78137703 Z"></path>
	            <path d="M12.7429194,0.0533590194 L23.441373,6.22554378 L23.441373,18.5699133 L12.7429194,24.7420981 L2.04446585,18.5699133 L2.04446585,6.22554378 L12.7429194,0.0533590194 Z M12.7429194,1.93581937 L21.8099074,7.16677396 L21.8099074,17.6286831 L12.7429194,22.8596377 L3.67593149,17.6286831 L3.67593149,7.16677396 L12.7429194,1.93581937 Z"></path>
	        </g>
	    </g>
    </symbol>

    <symbol id="part-unavailable" viewBox="0 0 25 25">
		<g stroke="none" stroke-width="1" fill="none" fill-rule="evenodd">
	        <g  transform="translate(-4.000000, -6.000000)">
	            <g >
	                <g>
	                    <g>
	                        <g>
	                            <g transform="translate(17.500000, 17.500000) rotate(-30.000000) translate(-17.500000, -17.500000) translate(5.000000, 5.000000)" fill="#F63D5C">
	                                <path d="M12.3042305,1.95399252e-14 L23.6084611,6.17218476 L23.6084611,18.5165543 L12.3042305,24.6887391 L1,18.5165543 L1,6.17218476 L12.3042305,1.95399252e-14 L12.3042305,1.95399252e-14 Z M12.3042305,1.88246035 L21.8846172,7.11341494 L21.8846172,17.5753241 L12.3042305,22.8062787 L2.72384388,17.5753241 L2.72384388,7.11341494 L12.3042305,1.88246035 L12.3042305,1.88246035 Z"></path>
	                                <rect x="0.873952251" y="11.385704" width="23.2644792" height="2.25140121"></rect>
	                            </g>
	                            <g transform="translate(9.726669, 9.232355)" fill="#595F70">
	                                <path d="M14.7409945,6.92423418 L14.7409945,12.1036959 L8.57451661,15.4731268 L8.51126902,15.4385676 L8.51126902,10.2591059 L14.6777469,6.889675 L14.7409945,6.92423418 L14.7409945,6.92423418 Z"></path>
	                                <path d="M12.6151583,2.82047454 L7.45333882,0 L0.834773863,3.6164562 L6.03562572,6.61916942 L12.6151583,2.82047454 L12.6151583,2.82047454 Z M0.165683122,10.0081824 L0.165683122,4.80664128 L4.67034983,7.40741182 L0.165683122,10.0081824 L0.165683122,10.0081824 Z M3.05537725,13.5251245 L7.37859165,15.8873761 L7.37859165,11.0291155 L3.05537725,13.5251245 L3.05537725,13.5251245 Z"></path>
	                            </g>
	                        </g>
	                    </g>
	                </g>
	            </g>
	        </g>
	    </g>    
    </symbol>

    <symbol id="part-in-process" viewBox="0 0 25 25">
		<g stroke="none" stroke-width="1" fill="none" fill-rule="evenodd">
	        <g transform="translate(-588.000000, -1035.000000)">
	            <g transform="translate(19.000000, 941.000000)">
	                <g transform="translate(569.000000, 94.000000)">
	                    <polygon fill="#595F70" points="11.4285714 3.57142857 18.8516463 7.85714286 18.8516463 16.4285714 11.4285714 20.7142857 4.00549654 16.4285714 4.00549654 7.85714286 "></polygon>
	                    <g>
	                      <path fill="#FFCF00" fill-rule="evenodd" d="M5.75799133,12.5446429 L5.71428571,12.5446429 L5.71428571,16.2202399 L6.75828589,15.2197424 C7.78113819,16.7149753 9.45816481,17.6904787 11.3537195,17.6904787 C14.2298307,17.6904787 16.6026225,15.4454241 16.9494476,12.5446429 L15.5247857,12.5446429 C15.1892394,14.6309117 13.4494741,16.2202399 11.3537195,16.2202399 C9.86913855,16.2202399 8.56219977,15.4219002 7.8079255,14.214099 L9.54980561,12.5446429 L7.18265328,12.5446429 L5.75799133,12.5446429 Z M11.3100139,5.71428571 C8.43390265,5.71428571 6.06111089,7.9593404 5.71428571,10.8601216 L7.13894767,10.8601216 C7.47449398,8.7738527 9.2142593,7.18452454 11.3100139,7.18452454 C12.8390054,7.18452454 14.1790758,8.03064698 14.9220712,9.29872796 L13.4248015,10.8601216 L14.83466,10.8601216 L15.4810801,10.8601216 L16.905742,10.8601216 L16.9494476,10.8601216 L16.9494476,7.18452454 L15.939989,8.23721553 C14.9213663,6.71184275 13.2274214,5.71428571 11.3100139,5.71428571 Z"></path>


	                    </g>
	                    <mask fill="white">
	                        <path d="M11.3042305,0 L22.6084611,6.17218476 L22.6084611,18.5165543 L11.3042305,24.6887391 L-1.12798659e-13,18.5165543 L-1.20126131e-13,6.17218476 L11.3042305,0 Z M11.3042305,1.88246035 L20.8846172,7.11341494 L20.8846172,17.5753241 L11.3042305,22.8062787 L1.72384388,17.5753241 L1.72384388,7.11341494 L11.3042305,1.88246035 Z"></path>
	                    </mask>
	                    <path fill="#595F70" d="M11.3042305,0 L22.6084611,6.17218476 L22.6084611,18.5165543 L11.3042305,24.6887391 L-1.12798659e-13,18.5165543 L-1.20126131e-13,6.17218476 L11.3042305,0 Z M11.3042305,1.88246035 L20.8846172,7.11341494 L20.8846172,17.5753241 L11.3042305,22.8062787 L1.72384388,17.5753241 L1.72384388,7.11341494 L11.3042305,1.88246035 Z"></path>

	                </g>
	            </g>
	        </g>
	    </g>    	
    </symbol>

    <symbol id="part-available" viewBox="0 0 25 25">
	    <g stroke="none" stroke-width="1" fill="none" fill-rule="evenodd">
	        <g transform="translate(-589.000000, -982.000000)">
	            <g transform="translate(19.000000, 941.000000)">
	                <g transform="translate(570.000000, 41.000000)">
	                    <g>
	                        <mask fill="white">
	                            <path d="M11.3042305,0 L22.6084611,6.17218476 L22.6084611,18.5165543 L11.3042305,24.6887391 L-1.12798659e-13,18.5165543 L-1.20126131e-13,6.17218476 L11.3042305,0 Z M11.3042305,1.88246035 L20.8846172,7.11341494 L20.8846172,17.5753241 L11.3042305,22.8062787 L1.72384388,17.5753241 L1.72384388,7.11341494 L11.3042305,1.88246035 Z"></path>
	                        </mask>
	                        <path fill="#595F70" d="M11.3042305,0 L22.6084611,6.17218476 L22.6084611,18.5165543 L11.3042305,24.6887391 L-1.12798659e-13,18.5165543 L-1.20126131e-13,6.17218476 L11.3042305,0 Z M11.3042305,1.88246035 L20.8846172,7.11341494 L20.8846172,17.5753241 L11.3042305,22.8062787 L1.72384388,17.5753241 L1.72384388,7.11341494 L11.3042305,1.88246035 Z"></path>
	                    </g>
	                    <path d="M4.56144327,7.84881146 L11.1800082,4.23235527 L18.4676639,8.21440995 L18.4676639,8.36902561 L18.3929168,8.32818294 L11.713354,11.977969 L4.56144327,7.84881146 Z M3.89235253,9.03899655 L3.89235253,16.1785193 L11.1052611,20.1197313 L11.1052611,13.2033712 L3.89235253,9.03899655 Z" fill="#C3CEEF"></path>
	                    <path d="M18.4676639,9.72801801 L18.4676639,16.3360512 L12.301186,19.705482 L12.2379384,19.6709229 L12.2379384,13.0628897 L18.4044163,9.69345884 L18.4676639,9.72801801 Z" fill="#84F757"></path>
	                </g>
	            </g>
	        </g>
	    </g>    	
    </symbol>

    <symbol id="trusted" viewBox="0 0 25 25">
   		<g stroke="none" stroke-width="1" fill-rule="evenodd">
	        <g transform="translate(-595.000000, -386.000000)">
	            <g transform="translate(19.000000, 230.000000)">
	                <g transform="translate(576.000000, 156.000000)">
	                    <polygon fill="#526D7C" points="21.2759949 0.305854286 21.2759949 18.9641215 10.7478728 24.8145951 0.219750687 18.9641215 0.219750687 0.305854286 "></polygon>
	                    <path fill="#84F757" d="M9.05713098,12.8061996 L5.98787789,9.73694647 L3.66458715,12.0602372 L9.03138875,17.4270388 L9.3287306,17.129697 L9.35447284,17.1554392 L18.2991422,8.21076986 L15.9758514,5.88747912 L9.05713098,12.8061996 Z"></path>
	                </g>
	            </g>
	        </g>
	    </g>
    </symbol>    

	<symbol id="untrusted" viewBox="0 0 25 25">
	    <g stroke="none" stroke-width="1" fill="none" fill-rule="evenodd" >
	        <g>
	            <polygon fill="#5B6172"  points="23.0562443 0 23.0562443 18.6582672 12.5281221 24.5087408 2 18.6582672 2 7.8646164e-15 "></polygon>
	            <path d="M15,13.6660287 L10,13.6660287 L10,1.62895976 L15,1.62895976 L15,13.6660287 Z M15,20 L10,20 L10,16.769927 L15,16.769927 L15,20 Z" fill="#A11E34" ></path>
	        </g>
	    </g>
    </symbol>        

   	<symbol id="info" viewBox="0 0 25 25">
		<g stroke="none" stroke-width="1" fill="none" fill-rule="evenodd">
	        <g transform="translate(-241.000000, -1831.000000)">
	            <g transform="translate(241.000000, 1831.000000)">
	                <path d="M10.7142857,0 L21.4285714,6.25 L21.4285714,18.75 L10.7142857,25 L2.28705943e-14,18.75 L1.59872116e-14,6.25 L10.7142857,0 Z M10.7142857,2.17850298 L19.5612832,7.33925149 L19.5612832,17.6607485 L10.7142857,22.821497 L1.86728827,17.6607485 L1.86728827,7.33925149 L10.7142857,2.17850298 Z" fill="#C3CEEF"></path>
	                <path d="M12.1233259,18.7723214 L9.28571429,18.7723214 L9.28571429,9.71540179 L12.1233259,9.71540179 L12.1233259,18.7723214 Z M12.1233259,7.61439732 L9.28571429,7.61439732 L9.28571429,5.71428571 L12.1233259,5.71428571 L12.1233259,7.61439732 Z" fill="#FFFFFF"></path>
	            </g>
	        </g>
	    </g>
    </symbol>             

   	<symbol id="info-dark" viewBox="0 0 25 25">
	    <g stroke="none" stroke-width="1" fill="none" fill-rule="evenodd">
	        <g transform="translate(-241.000000, -1789.000000)" fill="#526D7C">
	            <g transform="translate(241.000000, 1789.000000)">
	                <path d="M10.7142857,0 L21.4285714,6.25 L21.4285714,18.75 L10.7142857,25 L2.28705943e-14,18.75 L1.59872116e-14,6.25 L10.7142857,0 Z M10.7142857,2.17850298 L19.5612832,7.33925149 L19.5612832,17.6607485 L10.7142857,22.821497 L1.86728827,17.6607485 L1.86728827,7.33925149 L10.7142857,2.17850298 Z"></path>
	                <path d="M12.1233259,18.7723214 L9.28571429,18.7723214 L9.28571429,9.71540179 L12.1233259,9.71540179 L12.1233259,18.7723214 Z M12.1233259,7.61439732 L9.28571429,7.61439732 L9.28571429,5.71428571 L12.1233259,5.71428571 L12.1233259,7.61439732 Z"></path>
	            </g>
	        </g>
	    </g>
    </symbol> 

    <symbol id="info-light" viewBox="0 0 25 25">
	    <g stroke="none" stroke-width="1" fill="none" fill-rule="evenodd">
	        <g fill="#3494D9">
	            <path d="M12.7142857,0 L23.4285714,6.25 L23.4285714,18.75 L12.7142857,25 L2,18.75 L2,6.25 L12.7142857,0 Z M12.7142857,2.17850298 L21.5612832,7.33925149 L21.5612832,17.6607485 L12.7142857,22.821497 L3.86728827,17.6607485 L3.86728827,7.33925149 L12.7142857,2.17850298 Z"></path>
	            <path d="M14.1233259,18.7723214 L11.2857143,18.7723214 L11.2857143,9.71540179 L14.1233259,9.71540179 L14.1233259,18.7723214 Z M14.1233259,7.61439732 L11.2857143,7.61439732 L11.2857143,5.71428571 L14.1233259,5.71428571 L14.1233259,7.61439732 Z"></path>
	        </g>
	    </g>    	
    </symbol>        

    <symbol id="drive" viewBox="0 0 25 25">
		<g stroke="none" stroke-width="1" fill="none" fill-rule="evenodd">
	        <g transform="translate(-177.000000, -568.000000)">
	            <g transform="translate(-1.000000, 0.000000)">
	                <g transform="translate(152.000000, 340.000000)">
	                    <g>
	                        <g transform="translate(24.000000, 0.000000)">
	                            <g transform="translate(2.000000, 190.000000)">
	                                <g transform="translate(0.000000, 37.000000)">
	                                    <g >
	                                        <g >
	                                            <rect stroke-opacity="0" stroke="#979797" x="0" y="0" width="25" height="25"></rect>
	                                            <path d="M0,11.4347826 L25,11.4347826 L25,19.0434783 L0,19.0434783 L0,11.4347826 Z M20.1923077,17.1413043 C21.2543937,17.1413043 22.1153846,16.2896721 22.1153846,15.2391304 C22.1153846,14.1885888 21.2543937,13.3369565 20.1923077,13.3369565 C19.1302216,13.3369565 18.2692308,14.1885888 18.2692308,15.2391304 C18.2692308,16.2896721 19.1302216,17.1413043 20.1923077,17.1413043 Z M5.42702563,6.06794401 L20.1096755,6 L23.9130435,9.26086957 L1.08695652,9.26086957 L5.42702563,6.06794401 Z" fill="#526D7C"></path>
	                                        </g>
	                                    </g>
	                                </g>
	                            </g>
	                        </g>
	                    </g>
	                </g>
	            </g>
	        </g>
	    </g>
    </symbol>

    <symbol id="no-entry" viewBox="0 0 25 25">
	    <g stroke="none" stroke-width="1" fill="none" fill-rule="evenodd">
	        <g fill="#455664">
	            <path d="M21.879918,14 C21.1607443,18.5339785 17.2339734,22 12.4976697,22 C7.76136605,22 3.8345951,18.5339785 3.11542144,14 L21.879918,14 Z M21.879918,11 C21.1607443,6.46602153 17.2339734,3 12.4976697,3 C7.76136605,3 3.8345951,6.46602153 3.11542144,11 L21.879918,11 Z M12.4976697,25 C19.4012291,25 24.9976697,19.4035594 24.9976697,12.5 C24.9976697,5.59644063 19.4012291,0 12.4976697,0 C5.59411033,0 -0.00233029867,5.59644063 -0.00233029867,12.5 C-0.00233029867,19.4035594 5.59411033,25 12.4976697,25 Z" transform="translate(12.497670, 12.500000) rotate(-315.000000) translate(-12.497670, -12.500000) "></path>
	        </g>
	    </g>    	
    </symbol>    

	<symbol id="copy" viewBox="0 0 25 25">
	    <g stroke="none" stroke-width="1" fill="none" fill-rule="evenodd">
	        <g fill="#526D7C">
	            <path d="M22.6058909,13.7763238 L22.6099209,13.7763302 L22.6099209,20.5063175 C22.6099209,20.5063175 14.1374046,25.0036547 14.1968257,24.9999978 C14.2562468,24.9963408 6.01832792,24.9999978 6.01832792,24.9999978 L6.00402999,16.2236762 L6,16.2236698 L6,9.49368246 C6,9.49368246 14.4725162,4.99634526 14.4130952,5.00000223 C14.3536741,5.0036592 22.591593,5.00000223 22.591593,5.00000223 L22.6058909,13.7763238 Z M17.3272829,3.00159474 L17.3223929,2.22901178e-06 C17.3223929,2.22901178e-06 9.08447402,0.00365919534 9.14389507,2.22901178e-06 C9.20331613,-0.00365473732 0.730799886,4.49368246 0.730799886,4.49368246 L0.730799886,11.2236698 L0.734829873,11.2236762 L0.749127808,19.9999978 C0.749127808,19.9999978 2.27700143,19.9993195 4.01201308,19.9988393 L4.00443299,15.3460439 L4,15.3460368 L4,7.9430507 C4,7.9430507 13.3197679,2.99597979 13.2544047,3.00000245 C13.2236601,3.00189458 15.2122309,3.00200672 17.3272829,3.00159474 Z M7.65401964,10.8404949 L20.1610422,10.8404949 L20.1610422,12.4271142 L7.65401964,12.4271142 L7.65401964,10.8404949 Z M7.65401964,14.0137335 L20.1610422,14.0137335 L20.1610422,15.6003528 L7.65401964,15.6003528 L7.65401964,14.0137335 Z M7.65401964,17.1869721 L20.1610422,17.1869721 L20.1610422,18.7735914 L7.65401964,18.7735914 L7.65401964,17.1869721 Z M7.65401964,20.3602107 L14.1751604,20.3602107 L14.1751604,21.9468301 L7.65401964,21.9468301 L7.65401964,20.3602107 Z"></path>
	        </g>
	    </g>		
    </symbol>     

	<symbol id="object-dark" viewBox="0 0 25 25">
	    <g stroke="none" stroke-width="1" fill="none" fill-rule="evenodd">
	        <g fill="#526D7C">
	            <path d="M19.6353057,11.2888624 L19.6385955,11.2888675 L19.6385955,16.6591228 C19.6385955,16.6591228 12.7222557,20.2478143 12.7707627,20.2448962 C12.8192697,20.2419781 6.09443799,20.2448962 6.09443799,20.2448962 L6.0827662,13.2417498 L6.07947642,13.2417447 L6.07947642,7.87148947 C6.07947642,7.87148947 12.9958162,4.28279795 12.9473092,4.28571606 C12.8988022,4.28863417 19.6236339,4.28571606 19.6236339,4.28571606 L19.6353057,11.2888624 Z M7.42969653,8.94619082 L17.6395108,8.94619082 L17.6395108,10.2122483 L7.42969653,10.2122483 L7.42969653,8.94619082 Z M7.42969653,11.4783057 L17.6395108,11.4783057 L17.6395108,12.7443632 L7.42969653,12.7443632 L7.42969653,11.4783057 Z M7.42969653,14.0104206 L17.6395108,14.0104206 L17.6395108,15.2764781 L7.42969653,15.2764781 L7.42969653,14.0104206 Z M7.42969653,16.5425355 L12.7530768,16.5425355 L12.7530768,17.808593 L7.42969653,17.808593 L7.42969653,16.5425355 Z"></path>
	            <path d="M6.12243901,7.59132254 L12.7142857,4.28571429 L12.7142857,7.77678571 L6.08163265,7.77678571 L6.12243901,7.59132254 Z"></path>
	            <path d="M13.0630413,2.14285714 L16.3259726,2.14285714 L12.7301178,0.0460397119 L2.03166425,6.28452978 L2.03166425,18.7615099 L3.42857143,19.5760755 L3.42857143,7.14285714 L3.82264073,7.14285714 L12.7301178,1.94872258 L13.0630413,2.14285714 Z M21.7165489,17.8571429 L22,17.8571429 L22,5.45150017 L23.4285714,6.28452978 L23.4285714,18.7615099 L12.7301178,25 L9.05530912,22.8571429 L12.3182404,22.8571429 L12.7301178,23.0973171 L21.7165489,17.8571429 Z"></path>
	        </g>
	    </g>		
	</symbol>

	<symbol id="object-dark" viewBox="0 0 25 25">
	    <g stroke="none" stroke-width="1" fill="none" fill-rule="evenodd">
	        <g fill="#3494D9">
	            <path d="M6.28076087,7.94876685 L12.625354,4.28571429 L19.522475,8.26776897 L19.522475,8.42238463 L19.4517335,8.38154196 L13.2410414,11.9672867 L6.28076087,7.94876685 Z M5.72823298,9.20624953 L5.72823298,16.2318783 L12.5546124,20.1730904 L12.5546124,13.1474615 L5.72823298,9.20624953 Z"></path>
	            <path d="M19.522475,9.78137703 L19.522475,16.3894102 L13.6864496,19.7588411 L13.6265913,19.7242819 L13.6265913,13.1162487 L19.4626168,9.74681786 L19.522475,9.78137703 Z"></path>
	            <path d="M12.7429194,0.0533590194 L23.441373,6.22554378 L23.441373,18.5699133 L12.7429194,24.7420981 L2.04446585,18.5699133 L2.04446585,6.22554378 L12.7429194,0.0533590194 Z M12.7429194,1.93581937 L21.8099074,7.16677396 L21.8099074,17.6286831 L12.7429194,22.8596377 L3.67593149,17.6286831 L3.67593149,7.16677396 L12.7429194,1.93581937 Z"></path>
	        </g>
	    </g>		
	</symbol>

    <symbol id="object-healthy" viewBox="0 0 25 25">
	    <g stroke="none" stroke-width="1" fill="none" fill-rule="evenodd">
	        <g >
	            <path d="M20.27327,15.9947523 L20.27327,18.2427265 C20.27327,18.2427265 10.3056038,23.5337115 10.375511,23.5294091 C10.4454181,23.5251068 0.753748865,23.5294091 0.753748865,23.5294091 L0.736927764,13.204325 L0.732186603,13.2043175 L0.732186603,5.28668524 C0.732186603,5.28668524 10.6998528,-0.00429969096 10.6299456,2.6223668e-06 C10.5600385,0.0043049357 20.2517077,2.6223668e-06 20.2517077,2.6223668e-06 L20.2556506,2.42021262 L12.5463655,6.87117046 L2.67809206,6.87117046 L2.67809206,8.73778142 L10.6914457,8.73778142 L11.769134,10.6043924 L2.67809206,10.6043924 L2.67809206,12.4710033 L12.8468224,12.4710033 L13.9245107,14.3376143 L2.67809206,14.3376143 L2.67809206,16.2042252 L15.002199,16.2042252 L16.2292623,18.3295612 L20.27327,15.9947523 Z M2.67809206,18.0708362 L10.3500224,18.0708362 L10.3500224,19.9374471 L2.67809206,19.9374471 L2.67809206,18.0708362 Z" id="Rectangle-3001" fill="#455664"></path>
	            <path d="M0.794103286,4.87362132 L10.2941176,0 L10.2941176,5.14705882 L0.735294118,5.14705882 L0.794103286,4.87362132 Z" fill="#6D8EA1"></path>
	            <path d="M12.3557703,8.67929969 L19.9971709,4.26753498 L24.4089356,11.9089356 L16.767535,16.3207003 L12.3557703,8.67929969 L12.3557703,8.67929969 Z" fill="#6B7289"></path>
	            <path d="M17.1306284,11.4351401 L15.1587263,9.46323796 L13.8441249,10.7778394 L17.1306284,14.0643429 L17.980448,13.2145233 L22.1167712,9.07820013 L20.8021698,7.76359872 L17.1306284,11.4351401 L17.1306284,11.4351401 Z" fill="#7EE058"></path>
	        </g>
	    </g>    	
    </symbol>

	<symbol id="object-problem" viewBox="0 0 25 25">
	    <g stroke="none" stroke-width="1" fill="none" fill-rule="evenodd">
	        <g>
	            <path d="M20.2348737,15.9644592 L20.2348737,18.2081759 C20.2348737,18.2081759 10.2860856,23.48914 10.3558604,23.4848459 C10.4256351,23.4805517 0.75232131,23.4848459 0.75232131,23.4848459 L0.735532068,13.1793168 L0.730799886,13.1793093 L0.730799886,5.27667258 C0.730799886,5.27667258 10.6795879,-0.00429154761 10.6098132,2.6174002e-06 C10.5400385,0.00429678241 20.2133522,2.6174002e-06 20.2133522,2.6174002e-06 L20.2172877,2.41562888 L12.5226034,6.85815688 L2.67301992,6.85815688 L2.67301992,8.72123259 L10.6711967,8.72123259 L11.746844,10.5843083 L2.67301992,10.5843083 L2.67301992,12.447384 L12.8224913,12.447384 L13.8981385,14.3104597 L2.67301992,14.3104597 L2.67301992,16.1735354 L14.9737858,16.1735354 L16.1985251,18.2948461 L20.2348737,15.9644592 Z M2.67301992,18.0366111 L10.3304201,18.0366111 L10.3304201,19.8996868 L2.67301992,19.8996868 L2.67301992,18.0366111 Z" fill="#455664"></path>
	            <path d="M0.792599302,4.86439098 L10.2746212,0 L10.2746212,5.13731061 L0.733901515,5.13731061 L0.792599302,4.86439098 Z" fill="#6D8EA1"></path>
	            <path d="M12.3323692,8.66286162 L19.9592975,4.25945253 L24.3627066,11.8863808 L16.7357783,16.2897899 L12.3323692,8.66286162 Z M17.4382137,13.8849647 L17.4382137,12.0368916 L19.5662979,12.0368916 L19.5662979,13.8849647 L17.4382137,13.8849647 Z M17.5688855,10.8072445 L17.4382137,6.83108729 L19.6969697,6.83108729 L19.5662979,10.8072445 L17.5688855,10.8072445 Z" fill="#F63D5C"></path>
	        </g>
	    </g>		
    </symbol>    

	<symbol id="object-in-process" viewBox="0 0 25 25">
	    <g stroke="none" stroke-width="1" fill="none" fill-rule="evenodd">
	        <g>
	            <path d="M20.2348737,15.9644592 L20.2348737,18.2081759 C20.2348737,18.2081759 10.2860856,23.48914 10.3558604,23.4848459 C10.4256351,23.4805517 0.75232131,23.4848459 0.75232131,23.4848459 L0.735532068,13.1793168 L0.730799886,13.1793093 L0.730799886,5.27667258 C0.730799886,5.27667258 10.6795879,-0.00429154761 10.6098132,2.6174002e-06 C10.5400385,0.00429678241 20.2133522,2.6174002e-06 20.2133522,2.6174002e-06 L20.2172877,2.41562888 L12.5226034,6.85815688 L2.67301992,6.85815688 L2.67301992,8.72123259 L10.6711967,8.72123259 L11.746844,10.5843083 L2.67301992,10.5843083 L2.67301992,12.447384 L12.8224913,12.447384 L13.8981385,14.3104597 L2.67301992,14.3104597 L2.67301992,16.1735354 L14.9737858,16.1735354 L16.1985251,18.2948461 L20.2348737,15.9644592 Z M2.67301992,18.0366111 L10.3304201,18.0366111 L10.3304201,19.8996868 L2.67301992,19.8996868 L2.67301992,18.0366111 Z" fill="#455664"></path>
	            <path d="M0.792599302,4.86439098 L10.2746212,0 L10.2746212,5.13731061 L0.733901515,5.13731061 L0.792599302,4.86439098 Z" fill="#6D8EA1"></path>
	            <path d="M12.3323692,8.66286162 L19.9592975,4.25945253 L24.3627066,11.8863808 L16.7357783,16.2897899 L12.3323692,8.66286162 L12.3323692,8.66286162 Z" fill="#6B7289"></path>
	            <g>
	              <path fill="#FFCF00" fill-rule="evenodd" d="M14.7055567,10.7883522 L14.6780303,10.7883522 L14.6780303,13.1123737 L15.3355564,12.479775 C15.9797633,13.4251869 17.0359785,14.0419822 18.2298258,14.0419822 C20.0412415,14.0419822 21.5356594,12.6224699 21.7540949,10.7883522 L20.8568225,10.7883522 C20.6454907,12.1074668 19.5497618,13.1123737 18.2298258,13.1123737 C17.2948156,13.1123737 16.471687,12.6075962 15.9966344,11.8439228 L17.0936952,10.7883522 L15.6028291,10.7883522 L14.7055567,10.7883522 Z M18.2298258,6.60511364 C16.4184101,6.60511364 14.9239921,8.02462593 14.7055567,9.85874365 L15.6028291,9.85874365 C15.8141609,8.53962908 16.9098898,7.53472221 18.2298258,7.53472221 C19.1928063,7.53472221 20.0368017,8.06971195 20.5047508,8.87149934 L19.5617491,9.85874365 L20.449698,9.85874365 L20.8568225,9.85874365 L21.7540949,9.85874365 L21.7816213,9.85874365 L21.7816213,7.53472221 L21.1458499,8.20032195 C20.5043068,7.23585305 19.4374362,6.60511364 18.2298258,6.60511364 Z"></path>
	            </g>
	        </g>
	    </g>		
    </symbol>        

    <symbol id="upload" viewBox="0 0 25 25">
	    <g stroke="none" stroke-width="1" fill="none" fill-rule="evenodd">
	        <g fill="#FFFFFF">
	            <path d="M13.9658385,11.6374224 L13.9658385,17.6374224 L10.9378882,17.6374224 L10.9378882,11.6374224 L6,11.6374224 L12.4829193,3 L18.9658385,11.6374224 L13.9658385,11.6374224 Z M3,19 L22,19 L22,22 L3,22 L3,19 Z"></path>
	        </g>
	    </g>    	
    </symbol>    

	<symbol id="policy" viewBox="0 0 25 25">
	    <g stroke="none" stroke-width="1" fill="none" fill-rule="evenodd">
	        <g fill="#FFFFFF">
	            <path d="M22.2750079,16.4054703 L22.2750079,10.3259794 L22.2702663,10.3259719 L22.2534438,2.62259174e-06 L2.73224937,0.287138426 L2.73224937,13.2054494 L2.73699094,13.2054569 L2.75381348,23.5314261 C2.75381348,23.5314261 12.4463135,23.5271234 12.3764004,23.5314261 C12.3560213,23.5326803 13.1885835,23.0839683 14.3785675,22.4475065 C13.5243593,21.550478 13.0000026,20.3364744 13.0000026,19.0000007 C13.0000026,16.238578 15.238578,14.0000026 18.0000007,14.0000026 C19.8114101,14.0000026 21.3978403,14.963253 22.2750079,16.4054703 Z M4.67832163,2.87175947 L19.3937271,2.87175947 L19.3937271,4.73853043 L4.67832163,4.73853043 L4.67832163,2.87175947 Z M4.67832163,6.60530139 L19.3937271,6.60530139 L19.3937271,8.47207235 L4.67832163,8.47207235 L4.67832163,6.60530139 Z M4.67832163,10.3388433 L19.3937271,10.3388433 L19.3937271,12.2056143 L4.67832163,12.2056143 L4.67832163,10.3388433 Z M4.67832163,14.0723852 L12.3509096,14.0723852 L12.3509096,15.9391562 L4.67832163,15.9391562 L4.67832163,14.0723852 Z"></path>
	            <path d="M19.854148,21.40033 C20.5677816,20.8492003 21.0273973,19.9851239 21.0273973,19.0136986 C21.0273973,17.3492788 19.6781184,16 18.0136986,16 C16.3492788,16 15,17.3492788 15,19.0136986 C15,20.0139804 15.4873272,20.9004407 16.2375123,21.4486105 L16.2808219,25 C16.2808219,25 18.0890411,22.6643836 18.0890411,22.5136986 C18.0890411,22.3630137 19.8972603,24.8493151 19.8972603,24.8493151 L19.854148,21.40033 Z"></path>
	        </g>
	    </g>		
    </symbol>    

    <symbol id="backward" viewBox="0 0 25 25">
        <g stroke="none" stroke-width="1" fill="none" fill-rule="evenodd">
	        <g  fill="#C3CEEF">
	            <path d="M21.8242702,5 C23.6494413,6.72545651 25,8.02519685 25,8.02519685 L12.1822034,20.7835776 L0,8.65784383 C0,8.65784383 1.28947726,7.28456904 3.03173807,5.46217034 L12.1958428,14.5837956 L21.8242702,5 Z" transform="translate(12.500000, 12.891789) rotate(-270.000000) translate(-12.500000, -12.891789) "></path>
	        </g>
	    </g>
    </symbol>    

    <symbol id="backward-disabled" viewBox="0 0 25 25">
        <g stroke="none" stroke-width="1" fill="none" fill-rule="evenodd">
	        <g  fill="#161D22">
	            <path d="M21.8242702,5 C23.6494413,6.72545651 25,8.02519685 25,8.02519685 L12.1822034,20.7835776 L0,8.65784383 C0,8.65784383 1.28947726,7.28456904 3.03173807,5.46217034 L12.1958428,14.5837956 L21.8242702,5 Z" transform="translate(12.500000, 12.891789) rotate(-270.000000) translate(-12.500000, -12.891789) "></path>
	        </g>
	    </g>
    </symbol>        

    <symbol id="forward" viewBox="0 0 25 25">
    	<g stroke="none" stroke-width="1" fill="none" fill-rule="evenodd">
	        <g fill="#C3CEEF">
	            <path d="M21.8242702,5 C23.6494413,6.72545651 25,8.02519685 25,8.02519685 L12.1822034,20.7835776 L0,8.65784383 C0,8.65784383 1.28947726,7.28456904 3.03173807,5.46217034 L12.1958428,14.5837956 L21.8242702,5 Z" transform="translate(12.500000, 12.891789) scale(-1, 1) rotate(-270.000000) translate(-12.500000, -12.891789) "></path>
	        </g>
	    </g>
    </symbol>   

    <symbol id="forward-disabled" viewBox="0 0 25 25">
    	<g stroke="none" stroke-width="1" fill="none" fill-rule="evenodd">
	        <g fill="#161D22">
	            <path d="M21.8242702,5 C23.6494413,6.72545651 25,8.02519685 25,8.02519685 L12.1822034,20.7835776 L0,8.65784383 C0,8.65784383 1.28947726,7.28456904 3.03173807,5.46217034 L12.1958428,14.5837956 L21.8242702,5 Z" transform="translate(12.500000, 12.891789) scale(-1, 1) rotate(-270.000000) translate(-12.500000, -12.891789) "></path>
	        </g>
	    </g>
    </symbol> 

    <symbol id="move-nodes" viewBox="0 0 25 25">
		<g stroke="none" stroke-width="1" fill="none" fill-rule="evenodd">
	        <g>
	            <g>
	                <rect fill-opacity="0" fill="#D8D8D8" x="0" y="0" width="25" height="25"></rect>
	                <path d="M22.8649183,19.1770382 L19.4105022,21.0822827 L18.1890482,16.7461213 L18.7787459,16.4208801 L22.8649183,19.1770382 Z M23.6539915,14.2836581 L23.6539915,6.24727787 L12.3269958,0 L1,6.24727787 L1,18.7418336 L8.00659711,22.6062439 L7.90757014,17.2587876 L6.04390512,16.230904 L6.04390512,9.01716891 L12.5835492,5.41030134 L19.1231932,9.01716891 L19.1231932,11.2275961 L23.6539915,14.2836581 Z" fill="#FFFFFF" ></path>
	                <path d="M16,17 L10,17 L10,20.0279503 L16,20.0279503 L16,24.9658385 L24.6374224,18.4829193 L16,12 L16,17 Z" fill="#FFFFFF" ></path>
	            </g>
	        </g>
	    </g>    	
    </symbol>

    <symbol id="heartbeat" viewBox="0 0 25 25">
	    <g stroke="none" stroke-width="1" fill="none" fill-rule="evenodd">
	        <g fill="#8B97B8">
	            <path d="M13.2990381,13.25 L23.2749911,13.25 C24.3462163,12.0567474 25,10.481637 25,8.75110966 C25,5.02251385 21.9773339,2 18.2487381,2 C15.814034,2 13.6877713,3.29302909 12.4999239,5.22541854 C11.3122287,3.29302909 9.18505274,2 6.75039931,2 C3.0218035,2 0,5.02251385 0,8.75110966 C0,10.481637 0.653709913,12.0567474 1.724882,13.25 L5.27831216,13.25 L8.98205081,6.83493649 L10.7990381,7.8839746 L10.5,8.40192379 L13.2990381,13.25 Z M11.6943248,14.9346566 L11.6943248,15.3649426 L21.1517028,15.3649426 L13.1159951,23.4009912 C12.952616,23.5643704 12.7310394,23.656157 12.4999239,23.656157 C12.2688084,23.656157 12.0472318,23.5643704 11.8838527,23.4009912 L3.84814496,15.3649426 L6.3179309,15.3649426 L6.43940715,15.4350769 L9.21132487,10.6339746 L11.6943248,14.9346566 Z"></path>
	        </g>
	    </g>    
    </symbol>    

	<symbol id="location" viewBox="0 0 25 25">
		<g stroke="none" stroke-width="1" fill="none" fill-rule="evenodd" >
	        <g fill="#1B5985">
	            <g transform="translate(4.000000, 0.000000)">
	                <path d="M4.92969822,8.64978697 C4.92969822,6.66106516 6.50697633,5.04703008 8.45040828,5.04703008 C10.3938402,5.04703008 11.9711183,6.66106516 11.9711183,8.64978697 C11.9711183,10.6385088 10.3938402,12.2525439 8.45040828,12.2525439 C6.50697633,12.2525439 4.92969822,10.6385088 4.92969822,8.64978697 M8.45040828,0.00317042607 C3.78335503,0.00317042607 0.000704142012,3.87397243 0.000704142012,8.64978697 C0.000704142012,14.414198 8.45040828,24.5019173 8.45040828,24.5019173 C8.45040828,24.5019173 16.9001124,14.414198 16.9001124,8.64978697 C16.9001124,3.87397243 13.1160533,0.00317042607 8.45040828,0.00317042607 Z" ></path>
	            </g>
	        </g>
	    </g>
    </symbol>

    <symbol id="node-diagnose" viewBox="0 0 25 25">
    	<g stroke="none" stroke-width="1" fill="none" fill-rule="evenodd">
	        <g transform="translate(-23.000000, -1189.000000)">
	            <g transform="translate(21.000000, 1080.000000)">
	                <g transform="translate(2.000000, 109.000000)">
	                    <path d="M19.2901235,12.962963 C21.9535337,12.962963 24.1126543,10.8902072 24.1126543,8.33333333 C24.1126543,5.77645949 21.9535337,3.7037037 19.2901235,3.7037037 C16.6267132,3.7037037 14.4675926,5.77645949 14.4675926,8.33333333 C14.4675926,10.8902072 16.6267132,12.962963 19.2901235,12.962963 Z M19.2901235,10.6481481 C20.6218286,10.6481481 21.7013889,9.61177025 21.7013889,8.33333333 C21.7013889,7.05489641 20.6218286,6.01851852 19.2901235,6.01851852 C17.9584183,6.01851852 16.878858,7.05489641 16.878858,8.33333333 C16.878858,9.61177025 17.9584183,10.6481481 19.2901235,10.6481481 Z" fill="#FFFFFF"></path>
	                    <path d="M20.2546296,11.9175468 L20.2546296,19.496402 C20.2546296,22.5359553 17.7947817,25 14.7532987,25 L12.0851939,25 C9.04689273,25 6.58386299,22.5406486 6.58386299,19.496402 L6.58386299,9.18762474 L6.58386299,15.3126086 L8.07271397,14.9428604 L8.07271397,18.3715228 C8.07271397,21.2725839 10.4257148,23.6276591 13.3282885,23.6276591 C16.224956,23.6276591 18.583863,21.2744067 18.583863,18.3715228 L18.583863,12.3324728 L20.2546296,11.9175468 Z" fill="#FFFFFF"></path>
	                    <path d="M13.5030864,5.4584581 L13.5030864,11.1720557 C13.5030864,14.2066455 11.0417625,16.6666667 8.01066857,16.6666667 L7.2543823,16.6666667 C4.22100369,16.6666667 1.76196445,14.2030188 1.76196445,11.1720557 L1.76196445,5.32721721 C0.722817687,4.88937315 0,3.91678809 0,2.78728523 C0,1.24791011 1.34258885,0 2.99875612,0 C4.6549234,0 5.99751225,1.24791011 5.99751225,2.78728523 C5.99751225,4.06742251 5.06904371,5.14599688 3.80388081,5.47296582 L3.80388081,10.783601 C3.80388081,12.9037194 5.51802339,14.6159997 7.63252544,14.6159997 C9.74272489,14.6159997 11.4611701,12.9001764 11.4611701,10.783601 L11.4611701,5.34943139 C10.3930727,4.92293468 9.64506173,3.93630348 9.64506173,2.78728523 C9.64506173,1.24791011 10.9876506,0 12.6438179,0 C14.2999851,0 15.642574,1.24791011 15.642574,2.78728523 C15.642574,4.04909048 14.740507,5.1150644 13.5030864,5.4584581 Z" fill="#FFFFFF"></path>
	                </g>
	            </g>
	        </g>
	    </g>
    </symbol>    

	<symbol id="node-test" viewBox="0 0 25 25">
		<g stroke="none" stroke-width="1" fill="none" fill-rule="evenodd">
	        <g transform="translate(-23.000000, -1110.000000)">
	            <g transform="translate(21.000000, 1080.000000)">
	                <g transform="translate(0.000000, 30.000000)">
	                    <path d="M23.2242188,7.76484375 L20.1804688,4.1140625 L18.06875,5.87578125 C17.1328125,5.25078125 16.0851563,4.78515625 14.9679688,4.4921875 L14.9679688,2.81953125 L16.6585938,2.81953125 L16.6585938,0 L9.73046875,0 L9.73046875,2.81953125 L11.6640625,2.81953125 L11.6640625,4.17890625 C6.27734375,4.53515625 2,9.01953125 2,14.4945313 C2,20.203125 6.64296875,24.8453125 12.35,24.8453125 C18.0585938,24.8453125 22.7007813,20.203125 22.7007813,14.4945312 C22.7007813,12.6226562 22.19375,10.8695312 21.3203125,9.353125 L23.2242188,7.76484375 Z M12.4166667,22.5208333 C16.8004269,22.5208333 20.3541667,18.9670935 20.3541667,14.5833333 C20.3541667,10.1995731 16.8004269,6.64583333 12.4166667,6.64583333 C8.03290647,6.64583333 4.47916667,10.1995731 4.47916667,14.5833333 C4.47916667,18.9670935 8.03290647,22.5208333 12.4166667,22.5208333 Z" fill="#FFFFFF"></path>
	                    <path d="M12.6299088,8.85416667 L12.6299088,12.1213405 C14.0325945,12.3687346 15.1062067,13.5483728 15.2028082,14.9973958 L18.4142201,14.4719777 C18.0717952,11.4796864 15.6496884,9.11098538 12.6299088,8.85416667 L12.6299088,8.85416667 Z" fill="#FFFFFF"></path>
	                    <rect fill-opacity="0" fill="#D8D8D8" x="0" y="0" width="25" height="25"></rect>
	                </g>
	            </g>
	        </g>
	    </g>		
    </symbol>        

	<symbol id="preview" viewBox="0 0 25 25">
	    <g stroke="none" stroke-width="1" fill="none" fill-rule="evenodd">
	        <g fill="#FFFFFF">
	            <path d="M12.488612,4.01406752 C6.97950161,4.01406752 2.23137728,7.26165595 0.0502411576,11.9481511 C-0.0167470525,12.0901661 -0.0167470525,12.2562969 0.0502411576,12.4009914 C2.23137728,17.0874598 6.9795284,20.335075 12.488612,20.335075 C17.9976956,20.335075 22.7458467,17.0874866 24.9269829,12.4009914 C24.9939711,12.2589764 24.9939711,12.0928457 24.9269829,11.9481511 C22.7458467,7.26165595 17.9977224,4.01406752 12.488612,4.01406752 L12.488612,4.01406752 Z M12.488612,17.805627 C9.37767953,17.805627 6.85892283,15.284164 6.85892283,12.175911 C6.85892283,9.06497856 9.38035906,6.54622186 12.488612,6.54622186 C15.5995445,6.54622186 18.1183012,9.06765809 18.1183012,12.175911 C18.1183012,15.284164 15.596865,17.805627 12.488612,17.805627 L12.488612,17.805627 Z"></path>
	            <ellipse cx="12.488612" cy="12.1732315" rx="3.6039657" ry="3.6039657"></ellipse>
	        </g>
	    </g>		
    </symbol>    

    <symbol id="download" viewBox="0 0 25 25">
	    <g stroke="none" stroke-width="1" fill="none" fill-rule="evenodd">
	        <g fill="#FFFFFF">
	            <path d="M13.9658385,9 L13.9658385,3 L10.9378882,3 L10.9378882,9 L6,9 L12.4829193,17.6374224 L18.9658385,9 L13.9658385,9 Z M3,19 L22,19 L22,22 L3,22 L3,19 Z"></path>
	        </g>
	    </g>    	
    </symbol>    

    <symbol id="object-size" viewBox="0 0 25 25">
	   <g stroke="none" stroke-width="1" fill="none" fill-rule="evenodd" >
	        <g>
	            <path d="M22.2348737,24 L2.73079989,23.9461695 L2.73079989,10.1870841 C2.73079989,10.1870841 12.6795879,0.992528093 12.6098132,1.00000456 C12.5400385,1.00748102 22.2133522,1.00000456 22.2133522,1.00000456 L22.2348737,24 Z" fill="#455664" ></path>
	            <path d="M8.93798828,17.4711914 L8.02490234,17.4711914 L8.02490234,21 L6.96679688,21 L6.96679688,13.1796875 L8.02490234,13.1796875 L8.02490234,16.6386719 L8.84130859,16.6386719 L11.6396484,13.1796875 L12.8105469,13.1796875 L12.8266602,13.206543 L9.79199219,16.9609375 L13.046875,20.9731445 L13.0307617,21 L11.7685547,21 L8.93798828,17.4711914 Z M14.0405273,21 L14.0405273,13.1796875 L16.5917969,13.1796875 C17.4082072,13.1796875 18.047361,13.3560366 18.5092773,13.7087402 C18.9711937,14.0614438 19.2021484,14.5904913 19.2021484,15.2958984 C19.2021484,15.6432309 19.0911469,15.9538561 18.8691406,16.2277832 C18.6471343,16.5017104 18.3553078,16.7049147 17.9936523,16.8374023 C18.466311,16.9376633 18.8378079,17.168618 19.1081543,17.5302734 C19.3785007,17.8919289 19.5136719,18.3126604 19.5136719,18.7924805 C19.5136719,19.5086299 19.281822,20.0555808 18.8181152,20.4333496 C18.3544085,20.8111184 17.7251016,21 16.9301758,21 L14.0405273,21 Z M15.0986328,17.331543 L15.0986328,20.1728516 L16.9301758,20.1728516 C17.4099959,20.1728516 17.7841783,20.0537935 18.0527344,19.8156738 C18.3212904,19.5775541 18.4555664,19.2400738 18.4555664,18.8032227 C18.4555664,18.344887 18.3436697,17.9850273 18.119873,17.7236328 C17.8960764,17.4622383 17.5514346,17.331543 17.0859375,17.331543 L15.0986328,17.331543 Z M15.0986328,16.5043945 L16.8120117,16.5043945 C17.2058939,16.5043945 17.526366,16.3960786 17.7734375,16.1794434 C18.020509,15.9628082 18.144043,15.6611347 18.144043,15.2744141 C18.144043,14.8518859 18.0106621,14.5358897 17.7438965,14.326416 C17.4771308,14.1169423 17.0931015,14.012207 16.5917969,14.012207 L15.0986328,14.012207 L15.0986328,16.5043945 Z" fill="#FFFFFF"></path>
	            <path d="M2.79079777,9.521875 L12.4828368,1 L12.4828368,10 L2.73079989,10 L2.79079777,9.521875 Z" fill="#6D8EA1" ></path>
	        </g>
	    </g>    	
    </symbol>    

	<symbol id="notifications" viewBox="0 0 25 25">
	    <g  stroke="none" stroke-width="1" fill="none" fill-rule="evenodd" >
	        <g stroke="#607D8B" stroke-width="3">
	            <path d="M12.5,23 C31.3811189,23 19.0357719,18.2989899 19.0357719,12.5 C19.0357719,6.70101013 16.1096072,2 12.5,2 C8.89039284,2 5.96422808,6.70101013 5.96422808,12.5 C5.96422808,18.2989899 -6.38111888,23 12.5,23 Z" ></path>
	        </g>
	    </g>		
    </symbol>    

	<symbol id="account" viewBox="0 0 25 25">
	    <g stroke="none" stroke-width="1" fill="none" fill-rule="evenodd" >
	        <g fill="#526D7C">
	            <path d="M12.9362844,0 L23.8725689,6.28399978 L23.8725689,18.8519993 L12.9362844,25.1359991 L2,18.8519993 L2,6.28399978 L12.9362844,0 Z M13.0435434,2.74373284 L21.6675775,7.63250688 L21.6675775,17.410055 L13.0435434,22.298829 L4.41950922,17.410055 L4.41950922,7.63250688 L13.0435434,2.74373284 Z"></path>
	            <path d="M13.43044,14.5095101 L13.3411033,14.4797818 L13.3411033,14.5392383 L10.4768542,15.4923635 L8,21.4086606 L13.3411033,24.5421259 L13.3411033,24.6986539 L13.4745071,24.6203899 L13.5760129,24.6799404 L13.5760129,24.5608395 L18.9171162,21.4273741 L16.440262,15.5110771 L13.5760129,14.5579518 L13.5760129,14.4610683 L13.43044,14.5095101 Z M13.1642577,13.5763889 C15.5438937,13.5763889 17.4729698,11.6564988 17.4729698,9.28819444 C17.4729698,6.91989005 15.5438937,5 13.1642577,5 C10.7846217,5 8.85554556,6.91989005 8.85554556,9.28819444 C8.85554556,11.6564988 10.7846217,13.5763889 13.1642577,13.5763889 Z" ></path>
	        </g>
	    </g>
	</symbol>

	<symbol id="signout" viewBox="0 0 25 25">
	    <g  stroke="none" stroke-width="1" fill="none" fill-rule="evenodd">
	        <g fill="#607D8B">
	            <path d="M15.4761905,0.356482995 C20.94287,1.69167484 25,6.62204068 25,12.5 C25,19.4035594 19.4035594,25 12.5,25 C5.59644063,25 0,19.4035594 0,12.5 C0,6.62204068 4.05713001,1.69167484 9.52380952,0.356482995 L9.52380952,2.82571217 C5.38769566,4.09663046 2.38095238,7.94718397 2.38095238,12.5 C2.38095238,18.0885957 6.91140432,22.6190476 12.5,22.6190476 C18.0885957,22.6190476 22.6190476,18.0885957 22.6190476,12.5 C22.6190476,7.94718397 19.6123043,4.09663046 15.4761905,2.82571217 L15.4761905,0.356482995 Z M10.7142857,0 L14.2857143,0 L14.2857143,8.33333333 L10.7142857,8.33333333 L10.7142857,0 Z"></path>
	        </g>
	    </g>
	</symbol>

	<symbol id="expand" viewBox="0 0 25 25">
	    <g stroke="none" stroke-width="1" fill-rule="evenodd">
	        <g>
	            <path d="M6.08775175,6.47859107 L1.02140518e-12,6.63264698 L12.1822034,18.7583808 L25,6 L18.8066054,6.1567293 L12.2854982,12.6476084 L6.08775175,6.47859107 Z"></path>
	        </g>
	    </g>
	</symbol>

    <!-- <symbol id="<name>" viewBox="0 0 25 25">
    </symbol>    


</svg>