<svg xmlns="http://www.w3.org/2000/svg">
    <symbol id="logo" viewBox="0 0 25 25">
        <g stroke="none" stroke-width="1" fill="none" fill-rule="evenodd">
            <g transform="translate(-570.000000, -106.000000)">
                <g transform="translate(570.000000, 106.000000)">
                    <path d="M0.0981060606,4.2809466 L0.0978650138,12.6237864 L2.80253099,11.051335 L2.80325413,5.85364078 L7.27202135,3.25570388 L7.27202135,0.110436893 L0.0981060606,4.2809466" fill-opacity="0.420000017" fill="#000000"></path>
                    <path d="M16.444697,19.2520631 L11.974604,21.8506068 L7.50607782,19.2527913 L4.80105028,20.8254854 L11.974604,24.9958738 L19.149845,20.8246359 L16.444697,19.2520631" fill-opacity="0.409999996" fill="#000000"></path>
                    <path d="M16.6775482,0.110558252 L16.6775482,3.25582524 L21.146918,5.85412621 L21.1467975,11.0497573 L23.8519456,12.6223301 L23.8520661,4.2815534 L16.6775482,0.110558252" fill="#000000"></path>
                    <path id="Fill-4" fill="#000000" d="M11.9747245,11.1867718 L11.9758092,11.1860437 L11.9747245,11.1854369 L11.9747245,11.1867718"></path>
                    <path d="M16.6775482,3.25582524 L16.6775482,5.57839806 L11.9747245,8.31237864 L7.27190083,5.57839806 L7.27202135,3.25570388 L2.80325413,5.85364078 L11.9747245,11.1854369 L21.146918,5.85412621 L16.6775482,3.25582524" fill="#505052"></path>
                    <path d="M11.9758092,11.1860437 L11.974604,21.8506068 L16.444697,19.2520631 L14.4467803,18.090534 L14.4469008,12.6226942 L19.149604,9.88859223 L21.1467975,11.0497573 L21.146918,5.85424757 L11.9758092,11.1860437" fill="#000000"></path>
                    <path d="M2.80325413,5.85364078 L2.80253099,11.051335 L4.80056818,9.88980583 L9.50327135,12.6237864 L9.50327135,18.0917476 L7.50607782,19.2527913 L11.974604,21.8506068 L11.9747245,11.1867718 L2.80325413,5.85364078" fill="#3C3B3C"></path>
                    <path d="M16.6775482,3.25582524 L11.9747245,5.98968447 L11.9747245,8.31237864 L16.6775482,5.57839806 L16.6775482,3.25582524" fill="#000000"></path>
                    <path d="M7.27202135,3.25570388 L7.27190083,5.57839806 L11.9747245,8.31237864 L11.9747245,5.98968447 L7.27202135,3.25570388" fill="#000000"></path>
                    <path fill="#000000"></path>
                    <path fill="#000000" d="M21.1471591,11.05 L21.1467975,11.0497573 L21.1467975,11.0501214 L21.1471591,11.05"></path>
                    <path d="M16.4444559,13.7839806 L14.4469008,12.6226942 L14.4467803,18.090534 L16.444697,19.2520631 L16.4444559,13.7839806" fill="#000000"></path>
                    <path d="M14.4469008,12.6226942 L16.4444559,13.7838592 L21.1467975,11.0501214 L19.149604,9.88859223 L14.4469008,12.6226942" fill="#DA2681"></path>
                    <path fill="#000000" d="M7.50571625,19.253034 L7.50607782,19.2527913 L7.50571625,19.2525485 L7.50571625,19.253034"></path>
                    <path d="M7.50547521,13.7849515 L9.5030303,12.623665 L4.80056818,9.88980583 L2.80253099,11.051335 L7.50547521,13.7849515" fill="#DA2681"></path>
                    <path d="M9.5030303,12.623665 L7.50571625,13.7850728 L7.50607782,19.2527913 L9.50327135,18.0917476 L9.5030303,12.623665" fill="#0A0B09"></path>
                </g>
            </g>
        </g>
    </symbol>

    <symbol id="refresh" viewBox="0 0 25 25" fill-rule="evenodd">
        <g transform="translate(-841.000000, -22.000000)" fill="#607D8B">
            <g transform="translate(0.000000, 16.000000)">
                <path d="M844.108831,20.0625 L841.092534,20.0625 L841,20.0625 L841,27.875 L843.21036,25.7484375 C845.375945,28.9265625 848.926549,31 852.939822,31 C859.029131,31 864.052811,26.228125 864.78711,20.0625 L861.770813,20.0625 C861.060393,24.496875 857.376958,27.875 852.939822,27.875 C849.796664,27.875 847.02961,26.178125 845.432659,23.6109375 L849.120571,20.0625 L844.108831,20.0625 Z M852.939822,6 C846.850513,6 841.826833,10.771875 841.092534,16.9375 L844.108831,16.9375 C844.819251,12.503125 848.502686,9.125 852.939822,9.125 C856.177006,9.125 859.014206,10.9234375 860.587278,13.61875 L857.417255,16.9375 L860.402211,16.9375 L861.770813,16.9375 L864.78711,16.9375 L864.879644,16.9375 L864.879644,9.125 L862.742416,11.3625 C860.585785,8.1203125 856.999361,6 852.939822,6 Z"></path>
            </g>
        </g>
    </symbol>

    <symbol id="manage" viewBox="0 0 25 25">
        <g  stroke="none" stroke-width="1" fill="none" fill-rule="evenodd" >
            <g fill="#607D8B">
                <path d="M24.8993689,11.1023052 C24.8598708,10.7511899 24.4504842,10.4873424 24.0964879,10.4873424 C22.9519711,10.4873424 21.9363578,9.81531633 21.5104284,8.77600406 C21.0752983,7.71150592 21.3558745,6.47005611 22.2088485,5.68762116 C22.4773429,5.44217507 22.5099637,5.03130146 22.2847778,4.74589254 C21.6989972,4.00202637 21.0331979,3.33009328 20.3062462,2.74775127 C20.0215808,2.51931261 19.6039228,2.551097 19.3570827,2.82442414 C18.6126589,3.64886652 17.2754842,3.95527916 16.2422128,3.52414533 C15.166934,3.07182191 14.4888671,1.98223083 14.5552239,0.812621163 C14.5770641,0.445241981 14.3085697,0.125818189 13.9423057,0.0831601968 C13.0094061,-0.0247394315 12.068328,-0.0280851564 11.1326403,0.0757252526 C10.7705585,0.115688078 10.5020641,0.427583989 10.5142388,0.790316331 C10.5549451,1.94840183 9.86869977,3.01894087 8.80410869,3.45500035 C7.78319791,3.87200778 6.4554098,3.56819737 5.712473,2.751097 C5.46693397,2.48195202 5.05606036,2.44886652 4.77000088,2.67182191 C4.02148787,3.25908956 3.34072579,3.93158027 2.74955479,4.66931261 C2.51897858,4.95611559 2.55290051,5.37182191 2.8240901,5.61856912 C3.69332802,6.40574384 3.97399716,7.65797432 3.52241724,8.73474012 C3.09128341,9.76132005 2.02529828,10.4229371 0.80494512,10.4229371 C0.408941402,10.4102048 0.126878205,10.6760041 0.0835696552,11.0360412 C-0.0262816459,11.9743312 -0.0275827611,12.9303721 0.0781793207,13.8762829 C0.117398652,14.2288851 0.5392388,14.4904093 0.897138428,14.4904093 C1.9846849,14.4626212 3.02882988,15.1359483 3.46684103,16.2018405 C3.90345813,17.2663386 3.62278899,18.507045 2.76851389,19.2901305 C2.50132058,19.5355766 2.46739865,19.9457996 2.69258453,20.2312085 C3.27288192,20.9703349 3.93877412,21.6429186 4.66832802,22.2300933 C4.95448044,22.4606695 5.37083731,22.4281416 5.61888564,22.1548145 C6.36609754,21.3283275 7.70317932,21.0224725 8.73236148,21.4544427 C9.81033545,21.9053721 10.4884024,22.9948702 10.4220455,24.1651305 C10.4003912,24.5326955 10.6701868,24.8526769 11.0349637,24.8946844 C11.5121942,24.9503535 11.9923057,24.9781416 12.4737184,24.9781416 C12.9306886,24.9781416 13.3877518,24.9530487 13.8447221,24.9022122 C14.2068968,24.8622494 14.4752053,24.5503535 14.4630306,24.1869706 C14.4211161,23.0295357 15.1085697,21.9589966 16.1717667,21.5236806 C17.1995548,21.1038851 18.5217667,21.4111342 19.2647964,22.2273981 C19.5117295,22.4959855 19.9197221,22.5284204 20.2073615,22.3062085 C20.9544804,21.7203349 21.6338485,21.0484018 22.2278076,20.3086249 C22.4582908,20.0224725 22.425763,19.6061156 22.1531793,19.3594613 C21.2839414,18.5722866 21.0018782,17.3198702 21.4534581,16.2438479 C21.8779934,15.2309297 22.9043875,14.5508182 24.0083838,14.5508182 L24.1628447,14.5548145 C24.5209303,14.5839037 24.8503912,14.3080673 24.8937927,13.9425468 C25.0038299,13.0034204 25.005131,12.048216 24.8993689,11.1023052 L24.8993689,11.1023052 Z M5.3427704,12.5147828 C5.3427704,8.56379052 8.55669812,5.34970295 12.5078503,5.34970295 C16.4588426,5.34970295 19.6727703,8.56379052 19.6727703,12.5147828 C19.6727703,16.465935 16.4588426,19.6798627 12.5078503,19.6798627 C8.55669812,19.6798627 5.3427704,16.465935 5.3427704,12.5147828 Z" ></path>
            </g>
        </g>
    </symbol>

    <symbol id="audit" viewBox="0 0 25 25">
        <g stroke="none" stroke-width="1" fill="none" fill-rule="evenodd">
            <g transform="translate(-987.000000, -22.000000)" fill="#607D8B">
                <g id="header" transform="translate(0.000000, 16.000000)">
                    <path d="M995.342718,19.3080924 C995.450382,20.5233373 996.471059,21.4761905 997.714286,21.4761905 C999.029249,21.4761905 1000.09524,20.4102018 1000.09524,19.0952381 C1000.09524,17.7802744 999.029249,16.7142857 997.714286,16.7142857 C997.481696,16.7142857 997.256895,16.7476366 997.044406,16.809817 L989.287257,13.25108 L988.953924,13.8284303 L995.342718,19.3080924 Z M999.337662,8.42705721 C1005.10192,8.94650239 1009.61905,13.7909736 1009.61905,19.6904762 C1009.61905,25.9365537 1004.5556,31 998.309524,31 C992.063446,31 987,25.9365537 987,19.6904762 C987,18.7905788 987.105104,17.9152296 987.303705,17.0760346 L987.303705,17.0760346 L989.661966,17.6664414 C989.527533,18.2836951 989.45671,18.9247023 989.45671,19.5822511 C989.45671,24.5312962 993.468704,28.54329 998.417749,28.54329 C1003.36679,28.54329 1007.37879,24.5312962 1007.37879,19.5822511 C1007.37879,14.9437874 1003.85455,11.1284546 999.337662,10.6678534 L999.337662,14.2251082 L991.112554,10.1125541 L999.337662,6 L999.337662,8.42705721 L999.337662,8.42705721 Z"></path>
                </g>
            </g>
        </g>
    </symbol>

    <symbol id="signout" viewBox="0 0 25 25">
        <g  stroke="none" stroke-width="1" fill="none" fill-rule="evenodd">
            <g fill="#607D8B">
                <path d="M15.4761905,0.356482995 C20.94287,1.69167484 25,6.62204068 25,12.5 C25,19.4035594 19.4035594,25 12.5,25 C5.59644063,25 0,19.4035594 0,12.5 C0,6.62204068 4.05713001,1.69167484 9.52380952,0.356482995 L9.52380952,2.82571217 C5.38769566,4.09663046 2.38095238,7.94718397 2.38095238,12.5 C2.38095238,18.0885957 6.91140432,22.6190476 12.5,22.6190476 C18.0885957,22.6190476 22.6190476,18.0885957 22.6190476,12.5 C22.6190476,7.94718397 19.6123043,4.09663046 15.4761905,2.82571217 L15.4761905,0.356482995 Z M10.7142857,0 L14.2857143,0 L14.2857143,8.33333333 L10.7142857,8.33333333 L10.7142857,0 Z"></path>
            </g>
        </g>
    </symbol>

    <symbol id="x" viewBox="0 0 25 25">
        <g stroke="none" stroke-width="1" fill="none" fill-rule="evenodd">
            <g fill="#526D7C">
                <path d="M11.0344168,12.5360336 L1.16471242,22.405738 L2.93247937,24.173505 L12.8021838,14.3038005 L22.6718882,24.173505 L24.4396552,22.405738 L14.5699507,12.5360336 L24.4396552,2.66632915 L22.6718882,0.8985622 L12.8021838,10.7682666 L2.93247937,0.8985622 L1.16471242,2.66632915 L11.0344168,12.5360336 Z"></path>
            </g>
        </g>
    </symbol>

    <symbol id="chevron" viewBox="0 0 25 25">
       <g stroke="none" stroke-width="1" fill-rule="evenodd">
            <g>
                <path d="M6.08775175,6.47859107 L1.02140518e-12,6.63264698 L12.1822034,18.7583808 L25,6 L18.8066054,6.1567293 L12.2854982,12.6476084 L6.08775175,6.47859107 Z"></path>
            </g>
        </g>
    </symbol>

    <symbol id="bin-closed" viewBox="0 0 25 25">
        <g stroke="none" stroke-width="1" fill="none" fill-rule="evenodd">
            <g fill="#6D8EA1">
                <path d="M6,10 L19,10 L19,25 L6,25 L6,10 Z M4,6 L21,6 L21,8 L4,8 L4,6 Z M10,4 L15,4 L15,6 L10,6 L10,4 Z" ></path>
            </g>
        </g>
    </symbol>

    <symbol id="bin-opened" viewBox="0 0 25 25">
        <g stroke="none" stroke-width="1" fill="none" fill-rule="evenodd">
            <g transform="translate(-3.000000, -1.000000)">
                <g >
                    <rect fill="#526D7C" transform="translate(12.000000, 18.500000) scale(-1, 1) translate(-12.000000, -18.500000) " x="6" y="12" width="12" height="13"></rect>
                    <path d="M7.92820323,5.73205081 L1.92820323,5.73205081 L1.92820323,7.73205081 L17.9282032,7.73205081 L17.9282032,5.73205081 L11.9282032,5.73205081 L11.9282032,3.73205081 L7.92820323,3.73205081 L7.92820323,5.73205081 Z" fill="#526D7C" transform="translate(9.928203, 5.732051) scale(-1, 1) rotate(-330.000000) translate(-9.928203, -5.732051) "></path>
                    <rect fill-opacity="0" fill="#D8D8D8" x="0" y="0" width="25" height="25"></rect>
                </g>
            </g>
        </g>
    </symbol>

    <symbol id="bin-disabled" viewBox="0 0 25 25">
        <g stroke="none" stroke-width="1" fill="none" fill-rule="evenodd" >
            <g transform="translate(-2.000000, -2.000000)" fill="#2E3D46">
                <path d="M11,8 L19,8 L19,16 L11,8 Z M14.9153977,23 L6,23 L6,14.0846023 L14.9153977,23 Z M7,4 L21,4 L21,6 L9,6 L7,4 Z M10,2 L15,2 L15,4 L10,4 L10,2 Z M4.65802182,5.73824199 L22.2105107,22.1062026 L20.1645156,24.3002637 L2.61202674,7.9323031 L4.65802182,5.73824199 Z"></path>
            </g>
        </g>
    </symbol>

    <symbol id="trusted" viewBox="0 0 25 25">
        <g stroke="none" stroke-width="1" fill="none" fill-rule="evenodd">
            <g transform="translate(1.000000, 0.000000)">
                <path d="M22.2430856,0.305854286 L22.2430856,18.9641215 L11.2364125,24.8145951 L0.229739354,18.9641215 L0.229739354,0.305854286 L22.2430856,0.305854286 Z M20.1561024,2.30585429 L20.1561024,17.4229865 L11.2383754,22.1631042 L2.32064845,17.4229865 L2.32064845,2.30585429 L20.1561024,2.30585429 Z" fill="#526D7C"></path>
                <path d="M9.51564906,12.8177666 L6.38202692,9.68414441 L3.95313206,12.1130393 L9.31993366,17.4798409 L9.78724868,17.0125258 L9.98296409,17.2082413 L18.9276334,8.26357192 L16.4987386,5.83467706 L9.51564906,12.8177666 Z" fill="#84F757"></path>
            </g>
        </g>
    </symbol>

    <symbol id="untrusted" viewBox="0 0 25 25">
        <g stroke="none" stroke-width="1" fill="#A11E34" fill-rule="evenodd">
            <path d="M23.0133463,0 L23.0133463,18.6582672 L12.0066731,24.5087408 L1,18.6582672 L1,7.8646164e-15 L23.0133463,0 Z M20.9263631,2 L20.9263631,17.1171322 L12.0086361,21.85725 L3.09090909,17.1171322 L3.09090909,2 L20.9263631,2 Z M13.7702606,12.6843801 L10.6252411,12.6843801 L10.6252411,3.96367696 L13.7702606,3.96367696 L13.7702606,12.6843801 Z M13.7702606,17.4714895 L10.6252411,17.4714895 L10.6252411,14.8460012 L13.7702606,14.8460012 L13.7702606,17.4714895 Z"></path>
        </g>
    </symbol> 

    <symbol id="pool" viewBox="0 0 25 25">
        <g stroke="none" stroke-width="1" fill="none" fill-rule="evenodd">
            <g transform="translate(-243.000000, -35.000000)">
                <g transform="translate(19.000000, 35.000000)">
                    <g transform="translate(224.000000, 0.000000)">
                        <path d="M10.4822878,22.0943077 L5.80333278,24.8158633 L1.2509389,22.1679231 L3.55241263,20.8391666 L5.93036614,22.2223243 L8.30831964,20.8391666 L10.4822878,22.0943077 Z M11.3040385,19.9087029 L11.3040385,15.2172607 L5.80333278,12.0177265 L0.302627037,15.2172607 L0.302627037,20.0553884 L2.7545322,18.6397803 L2.7545322,16.6805685 L5.93036614,14.8333166 L9.10620008,16.6805685 L9.10620008,18.6397803 L11.3040385,19.9087029 Z" fill="#C3CFF0"></path>
                        <path d="M17.2224986,10.2850488 L12.5435436,13.0066044 L7.99114972,10.3586642 L10.2926235,9.02990769 L12.670577,10.4130654 L15.0485305,9.02990769 L17.2224986,10.2850488 Z M18.0442493,8.09944401 L18.0442493,3.40800179 L12.5435436,0.208467596 L7.04283786,3.40800179 L7.04283786,8.2461295 L9.49474302,6.83052139 L9.49474302,4.87130961 L12.670577,3.02405769 L15.8464109,4.87130961 L15.8464109,6.83052139 L18.0442493,8.09944401 Z" fill="#C3CFF0"></path>
                        <path d="M23.9627094,22.0943077 L19.2837544,24.8158633 L14.7313605,22.1679231 L17.0328343,20.8391666 L19.4107878,22.2223243 L21.7887413,20.8391666 L23.9627094,22.0943077 Z M24.7844602,19.9087029 L24.7844602,15.2172607 L19.2837544,12.0177265 L13.7830487,15.2172607 L13.7830487,20.0553884 L16.2349538,18.6397803 L16.2349538,16.6805685 L19.4107878,14.8333166 L22.5866217,16.6805685 L22.5866217,18.6397803 L24.7844602,19.9087029 Z" fill="#C3CFF0"></path>
                        <polygon fill="#8B97B8" points="19.4544026 16.2630245 21.2967492 17.3346417 21.2967492 19.4778761 19.4544026 20.5494933 17.612056 19.4778761 17.612056 17.3346417 "></polygon>
                    </g>
                </g>
            </g>
        </g>
    </symbol>

    <symbol id="pool-healthy" viewBox="0 0 25 25">
        <g stroke="none" stroke-width="1" fill="none" fill-rule="evenodd">
            <path d="M10.4822878,22.0943077 L5.80333278,24.8158633 L1.2509389,22.1679231 L3.55241263,20.8391666 L5.93036614,22.2223243 L8.30831964,20.8391666 L10.4822878,22.0943077 Z M11.3040385,19.9087029 L11.3040385,15.2172607 L5.80333278,12.0177265 L0.302627037,15.2172607 L0.302627037,20.0553884 L2.7545322,18.6397803 L2.7545322,16.6805685 L5.93036614,14.8333166 L9.10620008,16.6805685 L9.10620008,18.6397803 L11.3040385,19.9087029 Z" fill="#526D7C"></path>
            <path d="M17.2224986,10.2850488 L12.5435436,13.0066044 L7.99114972,10.3586642 L10.2926235,9.02990769 L12.670577,10.4130654 L15.0485305,9.02990769 L17.2224986,10.2850488 Z M18.0442493,8.09944401 L18.0442493,3.40800179 L12.5435436,0.208467596 L7.04283786,3.40800179 L7.04283786,8.2461295 L9.49474302,6.83052139 L9.49474302,4.87130961 L12.670577,3.02405769 L15.8464109,4.87130961 L15.8464109,6.83052139 L18.0442493,8.09944401 Z" fill="#526D7C"></path>
            <path d="M10.5,11.5 L8.5,14.5" stroke="#526D7C" stroke-linecap="square"></path>
            <path d="M14.5,18.5 L10.5,18.5" stroke="#526D7C" stroke-linecap="square"></path>
            <path d="M16.5,11.5 L14.5,14.5" stroke="#526D7C" stroke-linecap="square" transform="translate(15.500000, 13.000000) scale(-1, 1) translate(-15.500000, -13.000000) "></path>
                <path d="M18.6002615,19.2643242 L17.1354144,17.799477 L16,18.9348914 L18.5087721,21.4436635 L18.7272238,21.2252118 L18.8187132,21.3167012 L23,17.1354144 L21.8645856,16 L18.6002615,19.2643242 Z M19.4646661,12 L24.9293322,15.1785714 L24.9293322,21.5357143 L19.4646661,24.7142857 L14,21.5357143 L14,15.1785714 L19.4646661,12 Z" fill="#84F757"></path>
        </g>
    </symbol>

    <symbol id="pool-problem" viewBox="0 0 25 25">
        <g stroke="none" stroke-width="1" fill="none" fill-rule="evenodd">
            <path d="M10.4822878,22.0943077 L5.80333278,24.8158633 L1.2509389,22.1679231 L3.55241263,20.8391666 L5.93036614,22.2223243 L8.30831964,20.8391666 L10.4822878,22.0943077 Z M11.3040385,19.9087029 L11.3040385,15.2172607 L5.80333278,12.0177265 L0.302627037,15.2172607 L0.302627037,20.0553884 L2.7545322,18.6397803 L2.7545322,16.6805685 L5.93036614,14.8333166 L9.10620008,16.6805685 L9.10620008,18.6397803 L11.3040385,19.9087029 Z" fill="#526D7C"></path>
            <path d="M17.2224986,10.2850488 L12.5435436,13.0066044 L7.99114972,10.3586642 L10.2926235,9.02990769 L12.670577,10.4130654 L15.0485305,9.02990769 L17.2224986,10.2850488 Z M18.0442493,8.09944401 L18.0442493,3.40800179 L12.5435436,0.208467596 L7.04283786,3.40800179 L7.04283786,8.2461295 L9.49474302,6.83052139 L9.49474302,4.87130961 L12.670577,3.02405769 L15.8464109,4.87130961 L15.8464109,6.83052139 L18.0442493,8.09944401 Z" fill="#526D7C"></path>
            <path d="M10.5,11.5 L8.5,14.5" stroke="#526D7C" stroke-linecap="square"></path>
            <path d="M14.5,18.5 L10.5,18.5" stroke="#526D7C" stroke-linecap="square"></path>
            <path d="M16.5,11.5 L14.5,14.5" stroke="#526D7C" stroke-linecap="square" transform="translate(15.500000, 13.000000) scale(-1, 1) translate(-15.500000, -13.000000) "></path>
            <path d="M18.125639,19.2069242 L17.9660672,14.3513826 L20.7243796,14.3513826 L20.5648078,19.2069242 L18.125639,19.2069242 Z M19.1730983,12.2142857 L24.6377644,15.3928571 L24.6377644,21.75 L19.1730983,24.9285714 L13.7084322,21.75 L13.7084322,15.3928571 L19.1730983,12.2142857 Z M18.0458531,22.6585022 L18.0458531,20.4017012 L20.6445937,20.4017012 L20.6445937,22.6585022 L18.0458531,22.6585022 Z" fill="#FF2246"></path>
        </g>
    </symbol>

    <symbol id="node-no-status" viewBox="0 0 25 25">
        <g stroke="none" stroke-width="1" fill="none" fill-rule="evenodd" transform="translate(1.000000, 1.000000)">
            <g transform="translate(6.708333, 6.000000)" fill="#526D7C">
                <path d="M3.90000426,5.96858875 L3.78724505,2.38830877 L5.73636852,2.38830877 L5.62360931,5.96858875 L3.90000426,5.96858875 Z M4.64017693,0.8125 L8.50170803,3.15625 L8.50170803,7.84375 L4.64017693,10.1875 L0.778645833,7.84375 L0.778645833,3.15625 L4.64017693,0.8125 Z M3.84362466,8.51364279 L3.84362466,6.84956899 L5.67998892,6.84956899 L5.67998892,8.51364279 L3.84362466,8.51364279 Z"></path>
            </g>
            <path d="M20.6067572,18.1188947 L11.1454878,23 L2.09694351,18.3318212 L6.55293744,15.7591519 L11.3979301,18.2587023 L16.3890171,15.6837813 L20.6067572,18.1188947 Z M22.2909756,14.3108184 L22.2909756,5.75 L11.1454878,0 L4.36909768e-13,5.75 L4.42477971e-13,14.7620319 L4.96307971,11.8965965 L4.96307971,8.29941012 L11.3979301,4.97964607 L17.8327805,8.29941012 L17.8327805,11.7368782 L22.2909756,14.3108184 Z" stroke="#526D7C" stroke-width="2" stroke-linecap="round"></path>
        </g>
    </symbol>

    <symbol id="node-offline" viewBox="0 0 25 25">
        <g stroke="none" stroke-width="1" fill="none" fill-rule="evenodd">
            <g transform="translate(1.000000, 1.000000)">
                <g transform="translate(6.708333, 6.000000)" fill="#A11E34">
                    <path d="M3.90000426,5.96858875 L3.78724505,2.38830877 L5.73636852,2.38830877 L5.62360931,5.96858875 L3.90000426,5.96858875 Z M4.64017693,0.8125 L8.50170803,3.15625 L8.50170803,7.84375 L4.64017693,10.1875 L0.778645833,7.84375 L0.778645833,3.15625 L4.64017693,0.8125 Z M3.84362466,8.51364279 L3.84362466,6.84956899 L5.67998892,6.84956899 L5.67998892,8.51364279 L3.84362466,8.51364279 Z"></path>
                </g>
                <path d="M20.6067572,18.1188947 L11.1454878,23 L2.09694351,18.3318212 L6.55293744,15.7591519 L11.3979301,18.2587023 L16.3890171,15.6837813 L20.6067572,18.1188947 Z M22.2909756,14.3108184 L22.2909756,5.75 L11.1454878,0 L1.11022302e-15,5.75 L6.67842633e-15,14.7620319 L4.96307971,11.8965965 L4.96307971,8.29941012 L11.3979301,4.97964607 L17.8327805,8.29941012 L17.8327805,11.7368782 L22.2909756,14.3108184 Z" stroke="#526D7C" stroke-width="2" stroke-linecap="round"></path>
            </g>
        </g>
    </symbol>

    <symbol id="node-online" viewBox="0 0 25 25">
         <g stroke="none" stroke-width="1" fill="none" fill-rule="evenodd" transform="translate(1.000000, 1.000000)">
            <path d="M20.6067572,18.1188947 L11.1454878,23 L2.09694351,18.3318212 L6.55293744,15.7591519 L11.3979301,18.2587023 L16.3890171,15.6837813 L20.6067572,18.1188947 Z M22.2909756,14.3108184 L22.2909756,5.75 L11.1454878,0 L3.93685085e-13,5.75 L3.99253288e-13,14.7620319 L4.96307971,11.8965965 L4.96307971,8.29941012 L11.3979301,4.97964607 L17.8327805,8.29941012 L17.8327805,11.7368782 L22.2909756,14.3108184 Z" stroke="#526D7C" stroke-width="2" stroke-linecap="round"></path>
            <polygon fill="#84F757" points="11.5238271 6.88571429 15.9965596 9.19321417 15.9965596 13.8082139 11.5238271 16.1157138 7.05109464 13.8082139 7.05109464 9.19321417"></polygon>
        </g>
    </symbol>

    <symbol id="node-full-access" viewBox="0 0 25 25">
        <g stroke="none" stroke-width="1" fill="none" fill-rule="evenodd">
            <g>
                <g transform="translate(0.000000, 1.000000)">
                    <g>
                        <path d="M12.2991787,0 L23.7991787,6 L23.7991787,18 L12.2991787,24 L0.799178742,18 L0.799178742,6 L12.2991787,0 Z M12.3012319,3.13043478 L21.1016912,7.46086966 L21.1016912,16.1217394 L12.3012319,20.4521743 L3.50077249,16.1217394 L3.50077249,7.46086966 L12.3012319,3.13043478 Z" fill="#526D7C"></path>
                        <path d="M9,7.30434783 L11,7.30434783 L11,13.5652174 L9,13.5652174 L9,7.30434783 Z M10,16.6956522 L7,13.5652174 L13,13.5652174 L10,16.6956522 Z" fill="#84F757"></path>
                        <path d="M14,7.30434783 L16,7.30434783 L16,13.5652174 L14,13.5652174 L14,7.30434783 Z M15,16.6956522 L12,13.5652174 L18,13.5652174 L15,16.6956522 Z" fill="#84F757" transform="translate(15.000000, 12.000000) scale(-1, -1) translate(-15.000000, -12.000000) "></path>
                    </g>
                </g>
            </g>
        </g>
    </symbol>

    <symbol id="node-read-only-access" viewBox="0 0 25 25">
        <g stroke="none" stroke-width="1" fill="none" fill-rule="evenodd">
            <g transform="translate(0.000000, 1.000000)">
                    <path d="M11.9320828,0 L23.0969541,6 L23.0969541,18 L11.9320828,24 L0.767211592,18 L0.767211592,6 L11.9320828,0 Z M11.9340761,3.13043478 L20.4780758,7.46086966 L20.4780758,16.1217394 L11.9340761,20.4521743 L3.39007649,16.1217394 L3.39007649,7.46086966 L11.9340761,3.13043478 Z" fill="#526D7C"></path>
                    <path d="M8.64,7.30434783 L10.56,7.30434783 L10.56,13.5652174 L8.64,13.5652174 L8.64,7.30434783 Z M9.6,16.6956522 L6.72,13.5652174 L12.48,13.5652174 L9.6,16.6956522 Z" fill="#A11E34"></path>
                    <path d="M13.44,7.30434783 L15.36,7.30434783 L15.36,13.5652174 L13.44,13.5652174 L13.44,7.30434783 Z M14.4,16.6956522 L11.52,13.5652174 L17.28,13.5652174 L14.4,16.6956522 Z" fill="#84F757" transform="translate(14.400000, 12.000000) scale(-1, -1) translate(-14.400000, -12.000000) "></path>
            </g>
        </g>
    </symbol> 

    <symbol id="node-no-access" viewBox="0 0 25 25">
        <g stroke="none" stroke-width="1" fill="none" fill-rule="evenodd">
            <g transform="translate(0.000000, 1.000000)">
                <path d="M12.2991787,0 L23.7991787,6 L23.7991787,18 L12.2991787,24 L0.799178742,18 L0.799178742,6 L12.2991787,0 Z M12.3012319,3.13043478 L21.1016912,7.46086966 L21.1016912,16.1217394 L12.3012319,20.4521743 L3.50077249,16.1217394 L3.50077249,7.46086966 L12.3012319,3.13043478 Z" fill="#526D7C"></path>
                <path d="M9,7.30434783 L11,7.30434783 L11,13.5652174 L9,13.5652174 L9,7.30434783 Z M10,16.6956522 L7,13.5652174 L13,13.5652174 L10,16.6956522 Z" fill="#A11E34"></path>
                <path d="M14,7.30434783 L16,7.30434783 L16,13.5652174 L14,13.5652174 L14,7.30434783 Z M15,16.6956522 L12,13.5652174 L18,13.5652174 L15,16.6956522 Z" fill="#A11E34" transform="translate(15.000000, 12.000000) scale(-1, -1) translate(-15.000000, -12.000000) "></path>
            </g>
        </g>
    </symbol>

    <symbol id="bucket" viewBox="0 0 25 25">
        <g stroke="none" stroke-width="1" fill="none" fill-rule="evenodd">
            <g transform="translate(-488.000000, -517.000000)">
                <g transform="translate(488.000000, 517.000000)">
                    <path d="M11.0646723,0 L21.8899898,6.25 L21.8899898,18.75 L11.0646723,25 L0.239354721,18.75 L0.239354721,6.25 L11.0646723,0 Z M11.0646723,1.1738521 L20.289831,6.5 L11.0646723,11.8261479 L1.83951349,6.5 L11.0646723,1.1738521 Z" fill="#C3CEEF"></path>
                    <polygon id="Polygon-1800-Copy-4" fill="#8B97B8" points="11.337276 3.35104795 16.7914209 6.5 11.337276 9.64895205 "></polygon>
                </g>
            </g>
        </g>
    </symbol>

    <symbol id="bucket-healthy" viewBox="0 0 25 25">
        <g stroke="none" stroke-width="1" fill="none" fill-rule="evenodd">
            <g transform="translate(2.000000, 1.000000)">
                <path d="M10.5,0 L21,5.75 L21,17.25 L10.5,23 L2.41972099e-13,17.25 L2.35189646e-13,5.75 L10.5,0 Z M10.5,1 L19.95,6.0999999 L19.95,16.2999997 L10.5,21.3999996 L1.05,16.2999997 L1.05,6.0999999 L10.5,1 Z" fill="#607D8B"></path>
                <path d="M10.5,0.159943931 L19.95,5.51894376 L10.5,10.8779436 L1.05,5.51894376 L10.5,0.159943931 Z" stroke="#607D8B" stroke-linecap="round" fill="#84F757"></path>
            </g>
            <rect id="Rectangle-127" fill="#607D8B" x="12" y="12" width="1" height="11"></rect>
        </g>
    </symbol>

    <!-- TODO: replace -->
    <symbol id="bucket-problem" viewBox="0 0 25 25">
        <g stroke-width="1" fill="none" fill-rule="evenodd">
            <g transform="translate(2.000000, 1.000000)">
                <path d="M10.5,0 L21,5.75 L21,17.25 L10.5,23 L2.49077526e-13,17.25 L2.42295073e-13,5.75 L10.5,0 Z M10.5,1 L19.95,6.0999999 L19.95,16.2999997 L10.5,21.3999996 L1.05,16.2999997 L1.05,6.0999999 L10.5,1 Z" id="Combined-Shape" fill="#607D8B"></path>
                <path d="M10.5,0.159943931 L19.95,5.51894376 L10.5,10.8779436 L1.05,5.51894376 L10.5,0.159943931 Z" stroke="#607D8B" stroke-linecap="round" fill="#A11E34"></path>
            </g>
            <rect fill="#607D8B" x="12" y="12" width="1" height="11"></rect>
        </g>
    </symbol>

    <symbol id="cloud-not-set" viewBox="0 0 25 25">
         <g stroke="none" stroke-width="1" fill="#607D8B" fill-rule="evenodd">
            <path d="M16.5147186,17.56 L4.74653654,17.56 C2.67738154,17.56 1,15.8768536 1,13.81 C1,11.9756328 2.3121509,10.4488897 4.05308367,10.1238697 C4.01823748,9.94117772 4,9.75267288 4,9.56 C4,8.3397868 4.73032253,7.28972249 5.77572665,6.82100802 L5.03242394,6.07770531 C3.86594255,6.73891434 3.06256018,7.96935756 3.00349222,9.39152852 C1.2469814,10.0875292 0,11.8034711 0,13.81 C0,16.4280146 2.12504408,18.56 4.7464188,18.56 L17.5147186,18.56 L16.5147186,17.56 Z M23.3554567,15.9154567 C23.7624738,15.3152318 24,14.590459 24,13.81 C24,11.7431464 22.3226185,10.06 20.2534635,10.06 L19.9091039,10.06 C19.9687986,9.73572375 20,9.40149649 20,9.06 C20,6.02861471 17.5375661,3.56 14.5,3.56 C13.4958277,3.56 12.5534094,3.83020837 11.7420222,4.30202218 L11.0145741,3.57457412 C12.0226392,2.93219758 13.2187881,2.56 14.5,2.56 C18.0898509,2.56 21,5.47745375 21,9.06 C21,9.07951787 20.9999138,9.09901564 20.9997416,9.11849297 C23.266627,9.47750495 25,11.4455284 25,13.81 C25,14.8662885 24.6544314,15.8420484 24.0708776,16.6308776 L23.3554567,15.9154567 Z M6.87254865,2.68745135 L23.3725486,19.1874514 L22.1874514,20.3725486 L5.68745135,3.87254865 L6.87254865,2.68745135 Z" id="Combined-Shape"></path>
        </g>
    </symbol>

    <symbol id="cloud-pending" viewBox="0 0 25 25">
        <g stroke="none" stroke-width="1" fill="#607D8B" fill-rule="evenodd" transform="translate(0.000000, 2.000000)">
            <path d="M4.05308367,8.12386973 C2.3121509,8.44888966 1,9.97563284 1,11.81 C1,13.8768536 2.67738154,15.56 4.74653654,15.56 L20.2534635,15.56 C22.32737,15.56 24,13.8810678 24,11.81 C24,9.74314639 22.3226185,8.06 20.2534635,8.06 L19.9091039,8.06 C19.9687986,7.73572375 20,7.40149649 20,7.06 C20,4.02861471 17.5375661,1.56 14.5,1.56 C11.9959296,1.56 9.87586892,3.24025564 9.21406342,5.53697303 C8.66554187,4.93699159 7.87668626,4.56 7,4.56 C5.34651712,4.56 4,5.90314575 4,7.56 C4,7.75267288 4.01823748,7.94117772 4.05308367,8.12386973 Z M3.00349222,7.39152852 C1.2469814,8.08752924 0,9.80347113 0,11.81 C0,14.4280146 2.12504408,16.56 4.7464188,16.56 L20.2535812,16.56 C22.8685141,16.56 25,14.4333526 25,11.81 C25,9.44552841 23.266627,7.47750495 20.9997416,7.11849297 C20.9999138,7.09901564 21,7.07951787 21,7.06 C21,3.47745375 18.0898509,0.56 14.5,0.56 C12.0309551,0.56 9.87781515,1.94225957 8.77788922,3.97664311 C8.2423242,3.71004359 7.63864051,3.56 7,3.56 C4.8516791,3.56 3.09200054,5.26052611 3.00349222,7.39152852 Z"></path>
            <path d="M15.7142857,6.35170064 C15.7142857,6.46331265 15.6633333,6.57322066 15.5747619,6.65288266 L13.3333333,8.65806477 L11.0919048,6.65288266 C11.0033333,6.57322066 10.952381,6.46331265 10.952381,6.35170064 L10.952381,5.85242862 L15.7142857,5.85242862 L15.7142857,6.35170064 Z M15.7142857,12.169583 L15.7142857,12.668429 L10.952381,12.668429 L10.952381,12.169583 C10.952381,12.055415 11.0019048,11.9484889 11.0919048,11.8679749 L13.3333333,9.86279283 L15.5747619,11.8679749 C15.6647619,11.9484889 15.7142857,12.055415 15.7142857,12.169583 L15.7142857,12.169583 Z M16.6666667,6.35170064 L16.6666667,5.42642859 C16.6666667,5.19127658 16.4533333,5.00042857 16.1904762,5.00042857 L10.4761905,5.00042857 C10.2133333,5.00042857 10,5.19127658 10,5.42642859 L10,6.35170064 C10,6.68824066 10.152381,7.01711268 10.4185714,7.25524669 L12.66,9.2604288 L10.4185714,11.2656109 C10.1485714,11.5071529 10,11.8279309 10,12.169583 L10,13.094429 C10,13.329581 10.2133333,13.520429 10.4761905,13.520429 L16.1904762,13.520429 C16.4533333,13.520429 16.6666667,13.329581 16.6666667,13.094429 L16.6666667,12.169583 C16.6666667,11.8279309 16.5180952,11.5071529 16.2480952,11.2656109 L14.0066667,9.2604288 L16.2480952,7.25524669 C16.5142857,7.01711268 16.6666667,6.68824066 16.6666667,6.35170064 Z"></path>
        </g>
    </symbol>

    <symbol id="cloud-syncing" viewBox="0 0 25 25">
        <g stroke="none" stroke-width="1" fill="none" fill-rule="evenodd">
            <path d="M4.05308367,10.1238697 C2.3121509,10.4488897 1,11.9756328 1,13.81 C1,15.8768536 2.67738154,17.56 4.74653654,17.56 L20.2534635,17.56 C22.32737,17.56 24,15.8810678 24,13.81 C24,11.7431464 22.3226185,10.06 20.2534635,10.06 L19.9091039,10.06 C19.9687986,9.73572375 20,9.40149649 20,9.06 C20,6.02861471 17.5375661,3.56 14.5,3.56 C11.9959296,3.56 9.87586892,5.24025564 9.21406342,7.53697303 C8.66554187,6.93699159 7.87668626,6.56 7,6.56 C5.34651712,6.56 4,7.90314575 4,9.56 C4,9.75267288 4.01823748,9.94117772 4.05308367,10.1238697 Z M3.00349222,9.39152852 C1.2469814,10.0875292 0,11.8034711 0,13.81 C0,16.4280146 2.12504408,18.56 4.7464188,18.56 L20.2535812,18.56 C22.8685141,18.56 25,16.4333526 25,13.81 C25,11.4455284 23.266627,9.47750495 20.9997416,9.11849297 C20.9999138,9.09901564 21,9.07951787 21,9.06 C21,5.47745375 18.0898509,2.56 14.5,2.56 C12.0309551,2.56 9.87781515,3.94225957 8.77788922,5.97664311 C8.2423242,5.71004359 7.63864051,5.56 7,5.56 C4.8516791,5.56 3.09200054,7.26052611 3.00349222,9.39152852 Z" fill="#607D8B"></path>
            <path d="M9.23474204,12.5852374 L8.0367518,12.5852374 L8,12.5852374 L8,15.688147 L8.87789388,14.843535 C9.73800463,16.1057986 11.1482069,16.9293109 12.7421682,16.9293109 C15.1606739,16.9293109 17.1559412,15.0340537 17.4475845,12.5852374 L16.2495943,12.5852374 C15.9674353,14.3464489 14.5044764,15.688147 12.7421682,15.688147 C11.4937924,15.688147 10.3947949,15.014195 9.76052993,13.9945789 L11.2252671,12.5852374 L9.23474204,12.5852374 L9.23474204,12.5852374 L9.23474204,12.5852374 Z M12.7421682,7 C10.3236624,7 8.32839515,8.89525721 8.0367518,11.3440735 L9.23474204,11.3440735 C9.51690104,9.58286199 10.9798599,8.24116386 12.7421682,8.24116386 C14.0278885,8.24116386 15.1547462,8.95545366 15.7795269,10.0259575 L14.5204812,11.3440735 L15.7060233,11.3440735 L16.2495943,11.3440735 L17.4475845,11.3440735 L17.4843363,11.3440735 L17.4843363,8.24116386 L16.6354882,9.12983718 C15.7789341,7.84212968 14.3545053,7 12.7421682,7 L12.7421682,7 L12.7421682,7 Z" fill="#FFCF00"></path>
        </g>
    </symbol>

    <symbol id="cloud-paused" viewBox="0 0 25 25">
        <g stroke="none" stroke-width="1" fill="#607D8B" fill-rule="evenodd">
            <path d="M4.05308367,10.1238697 C2.3121509,10.4488897 1,11.9756328 1,13.81 C1,15.8768536 2.67738154,17.56 4.74653654,17.56 L20.2534635,17.56 C22.32737,17.56 24,15.8810678 24,13.81 C24,11.7431464 22.3226185,10.06 20.2534635,10.06 L19.9091039,10.06 C19.9687986,9.73572375 20,9.40149649 20,9.06 C20,6.02861471 17.5375661,3.56 14.5,3.56 C11.9959296,3.56 9.87586892,5.24025564 9.21406342,7.53697303 C8.66554187,6.93699159 7.87668626,6.56 7,6.56 C5.34651712,6.56 4,7.90314575 4,9.56 C4,9.75267288 4.01823748,9.94117772 4.05308367,10.1238697 Z M3.00349222,9.39152852 C1.2469814,10.0875292 0,11.8034711 0,13.81 C0,16.4280146 2.12504408,18.56 4.7464188,18.56 L20.2535812,18.56 C22.8685141,18.56 25,16.4333526 25,13.81 C25,11.4455284 23.266627,9.47750495 20.9997416,9.11849297 C20.9999138,9.09901564 21,9.07951787 21,9.06 C21,5.47745375 18.0898509,2.56 14.5,2.56 C12.0309551,2.56 9.87781515,3.94225957 8.77788922,5.97664311 C8.2423242,5.71004359 7.63864051,5.56 7,5.56 C4.8516791,5.56 3.09200054,7.26052611 3.00349222,9.39152852 Z"></path>
            <rect x="10" y="8" width="1.92307692" height="7.69230769"></rect>
            <rect x="13.8461538" y="8" width="1.92307692" height="7.69230769"></rect>
        </g>
    </symbol>

    <symbol id="cloud-synced" viewBox="0 0 25 25">
        <g stroke="none" stroke-width="1" fill="none" fill-rule="evenodd" transform="translate(0.000000, 2.000000)">
            <path d="M4.05308367,8.12386973 C2.3121509,8.44888966 1,9.97563284 1,11.81 C1,13.8768536 2.67738154,15.56 4.74653654,15.56 L20.2534635,15.56 C22.32737,15.56 24,13.8810678 24,11.81 C24,9.74314639 22.3226185,8.06 20.2534635,8.06 L19.9091039,8.06 C19.9687986,7.73572375 20,7.40149649 20,7.06 C20,4.02861471 17.5375661,1.56 14.5,1.56 C11.9959296,1.56 9.87586892,3.24025564 9.21406342,5.53697303 C8.66554187,4.93699159 7.87668626,4.56 7,4.56 C5.34651712,4.56 4,5.90314575 4,7.56 C4,7.75267288 4.01823748,7.94117772 4.05308367,8.12386973 Z M3.00349222,7.39152852 C1.2469814,8.08752924 0,9.80347113 0,11.81 C0,14.4280146 2.12504408,16.56 4.7464188,16.56 L20.2535812,16.56 C22.8685141,16.56 25,14.4333526 25,11.81 C25,9.44552841 23.266627,7.47750495 20.9997416,7.11849297 C20.9999138,7.09901564 21,7.07951787 21,7.06 C21,3.47745375 18.0898509,0.56 14.5,0.56 C12.0309551,0.56 9.87781515,1.94225957 8.77788922,3.97664311 C8.2423242,3.71004359 7.63864051,3.56 7,3.56 C4.8516791,3.56 3.09200054,5.26052611 3.00349222,7.39152852 Z" fill="#607D8B"></path>
            <path d="M16.6668315,5.11825798 C16.5066905,4.96058067 16.2470237,4.96058067 16.0868827,5.11825798 L10.4503982,10.6680849 L8.05307379,8.30769993 C7.8929912,8.15002261 7.63329518,8.15002261 7.47318338,8.30769993 L6.12010576,9.63998973 C5.95996475,9.79763828 5.95996475,10.0533102 6.12010576,10.2109875 L10.1604676,14.1891611 C10.2405381,14.2680286 10.3454973,14.3074335 10.4504274,14.3074335 C10.5553866,14.3074335 10.6603459,14.2680286 10.7403872,14.1891611 L18.0199092,7.02151678 C18.0968248,6.9458133 18.1400003,6.84310154 18.1400003,6.73604667 C18.1400295,6.62893426 18.0968248,6.52628004 18.0199092,6.45054779 L16.6668315,5.11825798 L16.6668315,5.11825798 Z" fill="#84F757"></path>
        </g>    
    </symbol>

    <symbol id="cloud-error" viewBox="0 0 25 25">
        <g stroke="none" stroke-width="1" fill="none" fill-rule="evenodd">
            <path d="M4.05308367,10.1238697 C2.3121509,10.4488897 1,11.9756328 1,13.81 C1,15.8768536 2.67738154,17.56 4.74653654,17.56 L20.2534635,17.56 C22.32737,17.56 24,15.8810678 24,13.81 C24,11.7431464 22.3226185,10.06 20.2534635,10.06 L19.9091039,10.06 C19.9687986,9.73572375 20,9.40149649 20,9.06 C20,6.02861471 17.5375661,3.56 14.5,3.56 C11.9959296,3.56 9.87586892,5.24025564 9.21406342,7.53697303 C8.66554187,6.93699159 7.87668626,6.56 7,6.56 C5.34651712,6.56 4,7.90314575 4,9.56 C4,9.75267288 4.01823748,9.94117772 4.05308367,10.1238697 Z M3.00349222,9.39152852 C1.2469814,10.0875292 0,11.8034711 0,13.81 C0,16.4280146 2.12504408,18.56 4.7464188,18.56 L20.2535812,18.56 C22.8685141,18.56 25,16.4333526 25,13.81 C25,11.4455284 23.266627,9.47750495 20.9997416,9.11849297 C20.9999138,9.09901564 21,9.07951787 21,9.06 C21,5.47745375 18.0898509,2.56 14.5,2.56 C12.0309551,2.56 9.87781515,3.94225957 8.77788922,5.97664311 C8.2423242,5.71004359 7.63864051,5.56 7,5.56 C4.8516791,5.56 3.09200054,7.26052611 3.00349222,9.39152852 Z" fill="#607D8B"></path>
            <text font-family="Roboto-Bold, Roboto" font-size="14" font-weight="bold" line-spacing="19" fill="#FF2246">
                <tspan x="11" y="16">!</tspan>
            </text>
        </g>
    </symbol>

    <symbol id="part-unavailable" viewBox="0 0 25 25">
        <g stroke="none" stroke-width="1" fill="none" fill-rule="evenodd">
            <g  transform="translate(-4.000000, -6.000000)">
                <g >
                    <g>
                        <g>
                            <g>
                                <g transform="translate(17.500000, 17.500000) rotate(-30.000000) translate(-17.500000, -17.500000) translate(5.000000, 5.000000)" fill="#F63D5C">
                                    <path d="M12.3042305,1.95399252e-14 L23.6084611,6.17218476 L23.6084611,18.5165543 L12.3042305,24.6887391 L1,18.5165543 L1,6.17218476 L12.3042305,1.95399252e-14 L12.3042305,1.95399252e-14 Z M12.3042305,1.88246035 L21.8846172,7.11341494 L21.8846172,17.5753241 L12.3042305,22.8062787 L2.72384388,17.5753241 L2.72384388,7.11341494 L12.3042305,1.88246035 L12.3042305,1.88246035 Z"></path>
                                    <rect x="0.873952251" y="11.385704" width="23.2644792" height="2.25140121"></rect>
                                </g>
                                <g transform="translate(9.726669, 9.232355)" fill="#595F70">
                                    <path d="M14.7409945,6.92423418 L14.7409945,12.1036959 L8.57451661,15.4731268 L8.51126902,15.4385676 L8.51126902,10.2591059 L14.6777469,6.889675 L14.7409945,6.92423418 L14.7409945,6.92423418 Z"></path>
                                    <path d="M12.6151583,2.82047454 L7.45333882,0 L0.834773863,3.6164562 L6.03562572,6.61916942 L12.6151583,2.82047454 L12.6151583,2.82047454 Z M0.165683122,10.0081824 L0.165683122,4.80664128 L4.67034983,7.40741182 L0.165683122,10.0081824 L0.165683122,10.0081824 Z M3.05537725,13.5251245 L7.37859165,15.8873761 L7.37859165,11.0291155 L3.05537725,13.5251245 L3.05537725,13.5251245 Z"></path>
                                </g>
                            </g>
                        </g>
                    </g>
                </g>
            </g>
        </g>    
    </symbol>

    <symbol id="part-in-process" viewBox="0 0 25 25">
        <g stroke="none" stroke-width="1" fill="none" fill-rule="evenodd">
            <g transform="translate(-588.000000, -1035.000000)">
                <g transform="translate(19.000000, 941.000000)">
                    <g transform="translate(569.000000, 94.000000)">
                        <polygon fill="#595F70" points="11.4285714 3.57142857 18.8516463 7.85714286 18.8516463 16.4285714 11.4285714 20.7142857 4.00549654 16.4285714 4.00549654 7.85714286 "></polygon>
                        <g>
                          <path fill="#FFCF00" fill-rule="evenodd" d="M5.75799133,12.5446429 L5.71428571,12.5446429 L5.71428571,16.2202399 L6.75828589,15.2197424 C7.78113819,16.7149753 9.45816481,17.6904787 11.3537195,17.6904787 C14.2298307,17.6904787 16.6026225,15.4454241 16.9494476,12.5446429 L15.5247857,12.5446429 C15.1892394,14.6309117 13.4494741,16.2202399 11.3537195,16.2202399 C9.86913855,16.2202399 8.56219977,15.4219002 7.8079255,14.214099 L9.54980561,12.5446429 L7.18265328,12.5446429 L5.75799133,12.5446429 Z M11.3100139,5.71428571 C8.43390265,5.71428571 6.06111089,7.9593404 5.71428571,10.8601216 L7.13894767,10.8601216 C7.47449398,8.7738527 9.2142593,7.18452454 11.3100139,7.18452454 C12.8390054,7.18452454 14.1790758,8.03064698 14.9220712,9.29872796 L13.4248015,10.8601216 L14.83466,10.8601216 L15.4810801,10.8601216 L16.905742,10.8601216 L16.9494476,10.8601216 L16.9494476,7.18452454 L15.939989,8.23721553 C14.9213663,6.71184275 13.2274214,5.71428571 11.3100139,5.71428571 Z"></path>


                        </g>
                        <mask fill="white">
                            <path d="M11.3042305,0 L22.6084611,6.17218476 L22.6084611,18.5165543 L11.3042305,24.6887391 L-1.12798659e-13,18.5165543 L-1.20126131e-13,6.17218476 L11.3042305,0 Z M11.3042305,1.88246035 L20.8846172,7.11341494 L20.8846172,17.5753241 L11.3042305,22.8062787 L1.72384388,17.5753241 L1.72384388,7.11341494 L11.3042305,1.88246035 Z"></path>
                        </mask>
                        <path fill="#595F70" d="M11.3042305,0 L22.6084611,6.17218476 L22.6084611,18.5165543 L11.3042305,24.6887391 L-1.12798659e-13,18.5165543 L-1.20126131e-13,6.17218476 L11.3042305,0 Z M11.3042305,1.88246035 L20.8846172,7.11341494 L20.8846172,17.5753241 L11.3042305,22.8062787 L1.72384388,17.5753241 L1.72384388,7.11341494 L11.3042305,1.88246035 Z"></path>

                    </g>
                </g>
            </g>
        </g>        
    </symbol>

    <symbol id="part-available" viewBox="0 0 25 25">
        <g stroke="none" stroke-width="1" fill="none" fill-rule="evenodd">
            <g transform="translate(-589.000000, -982.000000)">
                <g transform="translate(19.000000, 941.000000)">
                    <g transform="translate(570.000000, 41.000000)">
                        <g>
                            <mask fill="white">
                                <path d="M11.3042305,0 L22.6084611,6.17218476 L22.6084611,18.5165543 L11.3042305,24.6887391 L-1.12798659e-13,18.5165543 L-1.20126131e-13,6.17218476 L11.3042305,0 Z M11.3042305,1.88246035 L20.8846172,7.11341494 L20.8846172,17.5753241 L11.3042305,22.8062787 L1.72384388,17.5753241 L1.72384388,7.11341494 L11.3042305,1.88246035 Z"></path>
                            </mask>
                            <path fill="#595F70" d="M11.3042305,0 L22.6084611,6.17218476 L22.6084611,18.5165543 L11.3042305,24.6887391 L-1.12798659e-13,18.5165543 L-1.20126131e-13,6.17218476 L11.3042305,0 Z M11.3042305,1.88246035 L20.8846172,7.11341494 L20.8846172,17.5753241 L11.3042305,22.8062787 L1.72384388,17.5753241 L1.72384388,7.11341494 L11.3042305,1.88246035 Z"></path>
                        </g>
                        <path d="M4.56144327,7.84881146 L11.1800082,4.23235527 L18.4676639,8.21440995 L18.4676639,8.36902561 L18.3929168,8.32818294 L11.713354,11.977969 L4.56144327,7.84881146 Z M3.89235253,9.03899655 L3.89235253,16.1785193 L11.1052611,20.1197313 L11.1052611,13.2033712 L3.89235253,9.03899655 Z" fill="#C3CEEF"></path>
                        <path d="M18.4676639,9.72801801 L18.4676639,16.3360512 L12.301186,19.705482 L12.2379384,19.6709229 L12.2379384,13.0628897 L18.4044163,9.69345884 L18.4676639,9.72801801 Z" fill="#84F757"></path>
                    </g>
                </g>
            </g>
        </g>
    </symbol>

    <symbol id="copy-to-clipboard" viewBox="0 0 25 25">
        <g stroke="none" stroke-width="1" fill="#607D8B" fill-rule="evenodd" transform="translate(3.000000, 0.000000)">
            <path d="M17.3929348,17.3918478 L6.52228261,17.3918478 L6.52228261,2.17445652 L13.0440217,2.17445652 L13.0440217,6.52228261 L17.3918478,6.52228261 L17.3929348,17.3918478 Z M14.5809783,0.000543478261 L6.52228261,0.000543478261 C5.32336957,0.000543478261 4.34836957,0.976630435 4.34836957,2.17445652 L4.34836957,17.3918478 C4.34836957,18.5896739 5.32336957,19.5657609 6.52228261,19.5657609 L17.3918478,19.5657609 C18.5907609,19.5657609 19.5657609,18.5896739 19.5657609,17.3918478 L19.5657609,4.98532609 L14.5809783,0.000543478261 Z"></path>
            <path d="M2.17391304,4.34836957 L0,4.34836957 L0,21.7396739 C0,22.9375 0.975,23.913587 2.17391304,23.913587 L15.2173913,23.913587 L15.2173913,21.7396739 L2.17391304,21.7396739 L2.17391304,4.34836957 Z"></path>
        </g>
    </symbol>

    <symbol id="object-available" viewBox="0 0 25 25">
        <g stroke="none" stroke-width="1" fill="none" fill-rule="evenodd">
            <g transform="translate(4.000000, 2.000000)" fill="#607D8B">
                <path d="M15,19.0005 L1,19.0005 L1,1.0005 L10.3325556,1.0005 L10.3325556,5.5005 L14.9988334,5.5005 L15,19.0005 Z M11.414,0.0005 L2,0.0005 C0.897,0.0005 0,0.8985 0,2.0005 L0,18.0005 C0,19.1025 0.897,20.0005 2,20.0005 L14,20.0005 C15.103,20.0005 16,19.1025 16,18.0005 L16,4.5865 L11.414,0.0005 Z"></path>
            </g>
            <g transform="translate(7.000000, 9.000000)" fill="#84F757">
                <path d="M3.86324548,4.84985285 L1.68690129,2.67350866 L-9.63673585e-14,4.36040994 L3.72731841,8.08772835 L4.0518752,7.76317156 L4.18780227,7.89909863 L10.3999996,1.68690129 L8.71309833,6.21724894e-15 L3.86324548,4.84985285 Z"></path>
            </g>
        </g>
    </symbol>

    <symbol id="object-unavailable" viewBox="0 0 25 25">
        <g stroke="none" stroke-width="1" fill="none" fill-rule="evenodd">
            <g transform="translate(4.000000, 2.000000)" fill="#607D8B">
                <path d="M15,19.0005 L1,19.0005 L1,1.0005 L10.3325556,1.0005 L10.3325556,5.5005 L14.9988334,5.5005 L15,19.0005 Z M11.414,0.0005 L2,0.0005 C0.897,0.0005 0,0.8985 0,2.0005 L0,18.0005 C0,19.1025 0.897,20.0005 2,20.0005 L14,20.0005 C15.103,20.0005 16,19.1025 16,18.0005 L16,4.5865 L11.414,0.0005 Z"></path>
            </g>
            <path d="M12.546875,14.96875 L9.8984375,14.96875 L9.8984375,7.625 L12.546875,7.625 L12.546875,14.96875 Z M12.546875,19 L9.8984375,19 L9.8984375,16.7890625 L12.546875,16.7890625 L12.546875,19 Z" fill="#A11E34"></path>
        </g>
    </symbol>

    <symbol id="object-in-process" viewBox="0 0 25 25">
        <g stroke="none" stroke-width="1" fill="none" fill-rule="evenodd">
            <g transform="translate(4.000000, 2.000000)" fill="#607D8B">
                <path d="M15,19.0005 L1,19.0005 L1,1.0005 L10.3325556,1.0005 L10.3325556,5.5005 L14.9988334,5.5005 L15,19.0005 Z M11.414,0.0005 L2,0.0005 C0.897,0.0005 0,0.8985 0,2.0005 L0,18.0005 C0,19.1025 0.897,20.0005 2,20.0005 L14,20.0005 C15.103,20.0005 16,19.1025 16,18.0005 L16,4.5865 L11.414,0.0005 Z"></path>
            </g>
            <path d="M8.23474204,13.5852374 L7.0367518,13.5852374 L7,13.5852374 L7,16.688147 L7.87789388,15.843535 C8.73800463,17.1057986 10.1482069,17.9293109 11.7421682,17.9293109 C14.1606739,17.9293109 16.1559412,16.0340537 16.4475845,13.5852374 L15.2495943,13.5852374 C14.9674353,15.3464489 13.5044764,16.688147 11.7421682,16.688147 C10.4937924,16.688147 9.39479492,16.014195 8.76052993,14.9945789 L10.2252671,13.5852374 L8.23474204,13.5852374 L8.23474204,13.5852374 L8.23474204,13.5852374 Z M11.7421682,8 C9.3236624,8 7.32839515,9.89525721 7.0367518,12.3440735 L8.23474204,12.3440735 C8.51690104,10.582862 9.97985992,9.24116386 11.7421682,9.24116386 C13.0278885,9.24116386 14.1547462,9.95545366 14.7795269,11.0259575 L13.5204812,12.3440735 L14.7060233,12.3440735 L15.2495943,12.3440735 L16.4475845,12.3440735 L16.4843363,12.3440735 L16.4843363,9.24116386 L15.6354882,10.1298372 C14.7789341,8.84212968 13.3545053,8 11.7421682,8 L11.7421682,8 L11.7421682,8 Z" fill="#FFCF00"></path>
        </g>
    </symbol>

    <!-- TODO replace -->
    <symbol id="object-size" viewBox="0 0 25 25">
       <g stroke="none" stroke-width="1" fill="none" fill-rule="evenodd" >
            <g>
                <path d="M22.2348737,24 L2.73079989,23.9461695 L2.73079989,10.1870841 C2.73079989,10.1870841 12.6795879,0.992528093 12.6098132,1.00000456 C12.5400385,1.00748102 22.2133522,1.00000456 22.2133522,1.00000456 L22.2348737,24 Z" fill="#455664" ></path>
                <path d="M8.93798828,17.4711914 L8.02490234,17.4711914 L8.02490234,21 L6.96679688,21 L6.96679688,13.1796875 L8.02490234,13.1796875 L8.02490234,16.6386719 L8.84130859,16.6386719 L11.6396484,13.1796875 L12.8105469,13.1796875 L12.8266602,13.206543 L9.79199219,16.9609375 L13.046875,20.9731445 L13.0307617,21 L11.7685547,21 L8.93798828,17.4711914 Z M14.0405273,21 L14.0405273,13.1796875 L16.5917969,13.1796875 C17.4082072,13.1796875 18.047361,13.3560366 18.5092773,13.7087402 C18.9711937,14.0614438 19.2021484,14.5904913 19.2021484,15.2958984 C19.2021484,15.6432309 19.0911469,15.9538561 18.8691406,16.2277832 C18.6471343,16.5017104 18.3553078,16.7049147 17.9936523,16.8374023 C18.466311,16.9376633 18.8378079,17.168618 19.1081543,17.5302734 C19.3785007,17.8919289 19.5136719,18.3126604 19.5136719,18.7924805 C19.5136719,19.5086299 19.281822,20.0555808 18.8181152,20.4333496 C18.3544085,20.8111184 17.7251016,21 16.9301758,21 L14.0405273,21 Z M15.0986328,17.331543 L15.0986328,20.1728516 L16.9301758,20.1728516 C17.4099959,20.1728516 17.7841783,20.0537935 18.0527344,19.8156738 C18.3212904,19.5775541 18.4555664,19.2400738 18.4555664,18.8032227 C18.4555664,18.344887 18.3436697,17.9850273 18.119873,17.7236328 C17.8960764,17.4622383 17.5514346,17.331543 17.0859375,17.331543 L15.0986328,17.331543 Z M15.0986328,16.5043945 L16.8120117,16.5043945 C17.2058939,16.5043945 17.526366,16.3960786 17.7734375,16.1794434 C18.020509,15.9628082 18.144043,15.6611347 18.144043,15.2744141 C18.144043,14.8518859 18.0106621,14.5358897 17.7438965,14.326416 C17.4771308,14.1169423 17.0931015,14.012207 16.5917969,14.012207 L15.0986328,14.012207 L15.0986328,16.5043945 Z" fill="#FFFFFF"></path>
                <path d="M2.79079777,9.521875 L12.4828368,1 L12.4828368,10 L2.73079989,10 L2.79079777,9.521875 Z" fill="#6D8EA1" ></path>
            </g>
        </g>
    </symbol>

    <!-- REPLACE -->
    <symbol id="policy" viewBox="0 0 25 25">
        <g stroke="none" stroke-width="1" fill="#607D8B" fill-rule="evenodd" transform="translate(4.000000, 2.000000)">
            <path d="M16.15,18.9005007 L5.1,18.9005007 L5.1,0.900500033 L8.415,0.900500033 L8.415,11.0255004 L11.1775,8.77550032 L13.94,11.0255004 L13.94,0.900500033 L16.15,0.900500033 L16.15,18.9005007 Z M0.85,0.900500033 L3.89583333,0.900500033 L3.89583333,18.9005007 L0.85,18.9005007 L0.85,0.900500033 Z M16.0555556,0.000500000018 L0.944444444,0.000500000018 C0.423111111,0.000500000018 0,0.448500017 0,1.00050004 L0,19.0005007 C0,19.5525007 0.423111111,20.0005007 0.944444444,20.0005007 L16.0555556,20.0005007 C16.5768889,20.0005007 17,19.5525007 17,19.0005007 L17,1.00050004 C17,0.448500017 16.5768889,0.000500000018 16.0555556,0.000500000018 L16.0555556,0.000500000018 Z"></path>
        </g>
    </symbol>

    <symbol id="account" viewBox="0 0 25 25">
        <g stroke="none" stroke-width="1" fill="none" fill-rule="evenodd" >
            <g fill="#526D7C">
                <path d="M12.9362844,0 L23.8725689,6.28399978 L23.8725689,18.8519993 L12.9362844,25.1359991 L2,18.8519993 L2,6.28399978 L12.9362844,0 Z M13.0435434,2.74373284 L21.6675775,7.63250688 L21.6675775,17.410055 L13.0435434,22.298829 L4.41950922,17.410055 L4.41950922,7.63250688 L13.0435434,2.74373284 Z"></path>
                <path d="M13.43044,14.5095101 L13.3411033,14.4797818 L13.3411033,14.5392383 L10.4768542,15.4923635 L8,21.4086606 L13.3411033,24.5421259 L13.3411033,24.6986539 L13.4745071,24.6203899 L13.5760129,24.6799404 L13.5760129,24.5608395 L18.9171162,21.4273741 L16.440262,15.5110771 L13.5760129,14.5579518 L13.5760129,14.4610683 L13.43044,14.5095101 Z M13.1642577,13.5763889 C15.5438937,13.5763889 17.4729698,11.6564988 17.4729698,9.28819444 C17.4729698,6.91989005 15.5438937,5 13.1642577,5 C10.7846217,5 8.85554556,6.91989005 8.85554556,9.28819444 C8.85554556,11.6564988 10.7846217,13.5763889 13.1642577,13.5763889 Z" ></path>
            </g>
        </g>
    </symbol>

    <symbol id="notif-info" viewBox="0 0 25 25">
        <g stroke="none" stroke-width="1" fill="#6D8EA1" fill-rule="evenodd" >
            <g>
                <path d="M12.5,25 C19.4035594,25 25,19.4035594 25,12.5 C25,5.59644063 19.4035594,0 12.5,0 C5.59644063,0 0,5.59644063 0,12.5 C0,19.4035594 5.59644063,25 12.5,25 Z M13.9902344,20.203125 L11.0107422,20.203125 L11.0107422,9.203125 L13.9902344,9.203125 L13.9902344,20.203125 Z M13.9902344,6.69042969 L11.0107422,6.69042969 L11.0107422,4.203125 L13.9902344,4.203125 L13.9902344,6.69042969 Z"></path>
            </g>
        </g>
    </symbol>

    <symbol id="notif-success" viewBox="0 0 25 25">
        <g stroke="none" stroke-width="1" fill="#84F657" fill-rule="evenodd">
            <g>
                <path d="M12.5,25 C19.4035594,25 25,19.4035594 25,12.5 C25,5.59644063 19.4035594,0 12.5,0 C5.59644063,0 0,5.59644063 0,12.5 C0,19.4035594 5.59644063,25 12.5,25 Z M19.9387407,6.17670507 C19.6994526,5.94109831 19.3114497,5.94109831 19.0721615,6.17670507 L10.6499356,14.4694443 L7.06777235,10.9424772 C6.82857153,10.7068704 6.44052494,10.7068704 6.20128047,10.9424772 L4.17946609,12.9332297 C3.94017797,13.1687935 3.94017797,13.5508272 4.17946609,13.7864339 L10.2167115,19.7307556 C10.3363555,19.848602 10.4931892,19.9074822 10.6499792,19.9074822 C10.8068129,19.9074822 10.9636466,19.848602 11.083247,19.7307556 L21.9605551,9.0206188 C22.075485,8.9075001 22.1399994,8.7540247 22.1399994,8.5940597 C22.140043,8.4340087 22.075485,8.2806193 21.9605551,8.1674576 L19.9387407,6.17670507 Z"></path>
            </g>
        </g>
    </symbol>

    <symbol id="notif-warning" viewBox="0 0 25 25">
        <g stroke="none" stroke-width="1" fill="#FFCF00" fill-rule="evenodd">
            <g>
                <path d="M12.5,0 L25,25 L0,25 L12.5,0 Z M13.9902344,17.4648438 L11.0107422,17.4648438 L11.0107422,9.203125 L13.9902344,9.203125 L13.9902344,17.4648438 Z M13.9902344,22 L11.0107422,22 L11.0107422,19.5126953 L13.9902344,19.5126953 L13.9902344,22 Z"></path>
            </g>
        </g>
    </symbol>

    <symbol id="notif-error" viewBox="0 0 25 25">
        <g stroke="none" stroke-width="1" fill="#E0405A" fill-rule="evenodd">
            <g>
                <path d="M15.6066017,12.7781746 L20.5563492,7.82842712 L17.7279221,5 L12.7781746,9.94974747 L7.82842712,5 L5,7.82842712 L9.94974747,12.7781746 L5,17.7279221 L7.82842712,20.5563492 L12.7781746,15.6066017 L17.7279221,20.5563492 L20.5563492,17.7279221 L15.6066017,12.7781746 Z M12.5,25 C19.4035594,25 25,19.4035594 25,12.5 C25,5.59644063 19.4035594,0 12.5,0 C5.59644063,0 0,5.59644063 0,12.5 C0,19.4035594 5.59644063,25 12.5,25 Z"></path>
            </g>
        </g>
    </symbol>

    <!-- <symbol id="<name>" viewBox="0 0 25 25">
    </symbol>    -->
</svg>