<svg xmlns="http://www.w3.org/2000/svg">
    <symbol id="logo" viewBox="0 0 24 24">
        <g stroke="none" stroke-width="1" fill="none" fill-rule="evenodd">
            <g transform="translate(-570.000000, -106.000000)">
                <g transform="translate(570.000000, 106.000000)">
                    <path d="M0.0981060606,4.2809466 L0.0978650138,12.6237864 L2.80253099,11.051335 L2.80325413,5.85364078 L7.27202135,3.25570388 L7.27202135,0.110436893 L0.0981060606,4.2809466" fill-opacity="0.420000017" fill="#000000"></path>
                    <path d="M16.444697,19.2520631 L11.974604,21.8506068 L7.50607782,19.2527913 L4.80105028,20.8254854 L11.974604,24.9958738 L19.149845,20.8246359 L16.444697,19.2520631" fill-opacity="0.409999996" fill="#000000"></path>
                    <path d="M16.6775482,0.110558252 L16.6775482,3.25582524 L21.146918,5.85412621 L21.1467975,11.0497573 L23.8519456,12.6223301 L23.8520661,4.2815534 L16.6775482,0.110558252" fill="#000000"></path>
                    <path fill="#000000" d="M11.9747245,11.1867718 L11.9758092,11.1860437 L11.9747245,11.1854369 L11.9747245,11.1867718"></path>
                    <path d="M16.6775482,3.25582524 L16.6775482,5.57839806 L11.9747245,8.31237864 L7.27190083,5.57839806 L7.27202135,3.25570388 L2.80325413,5.85364078 L11.9747245,11.1854369 L21.146918,5.85412621 L16.6775482,3.25582524" fill="#505052"></path>
                    <path d="M11.9758092,11.1860437 L11.974604,21.8506068 L16.444697,19.2520631 L14.4467803,18.090534 L14.4469008,12.6226942 L19.149604,9.88859223 L21.1467975,11.0497573 L21.146918,5.85424757 L11.9758092,11.1860437" fill="#000000"></path>
                    <path d="M2.80325413,5.85364078 L2.80253099,11.051335 L4.80056818,9.88980583 L9.50327135,12.6237864 L9.50327135,18.0917476 L7.50607782,19.2527913 L11.974604,21.8506068 L11.9747245,11.1867718 L2.80325413,5.85364078" fill="#3C3B3C"></path>
                    <path d="M16.6775482,3.25582524 L11.9747245,5.98968447 L11.9747245,8.31237864 L16.6775482,5.57839806 L16.6775482,3.25582524" fill="#000000"></path>
                    <path d="M7.27202135,3.25570388 L7.27190083,5.57839806 L11.9747245,8.31237864 L11.9747245,5.98968447 L7.27202135,3.25570388" fill="#000000"></path>
                    <path fill="#000000"></path>
                    <path fill="#000000" d="M21.1471591,11.05 L21.1467975,11.0497573 L21.1467975,11.0501214 L21.1471591,11.05"></path>
                    <path d="M16.4444559,13.7839806 L14.4469008,12.6226942 L14.4467803,18.090534 L16.444697,19.2520631 L16.4444559,13.7839806" fill="#000000"></path>
                    <path d="M14.4469008,12.6226942 L16.4444559,13.7838592 L21.1467975,11.0501214 L19.149604,9.88859223 L14.4469008,12.6226942" fill="#DA2681"></path>
                    <path fill="#000000" d="M7.50571625,19.253034 L7.50607782,19.2527913 L7.50571625,19.2525485 L7.50571625,19.253034"></path>
                    <path d="M7.50547521,13.7849515 L9.5030303,12.623665 L4.80056818,9.88980583 L2.80253099,11.051335 L7.50547521,13.7849515" fill="#DA2681"></path>
                    <path d="M9.5030303,12.623665 L7.50571625,13.7850728 L7.50607782,19.2527913 L9.50327135,18.0917476 L9.5030303,12.623665" fill="#0A0B09"></path>
                </g>
            </g>
        </g>
    </symbol>

    <symbol id="refresh" viewBox="0 0 24 24">
        <g stroke-width="1" fill-rule="evenodd">
            <path d="M21.9368322,7.47213808 C20.2183037,3.65556882 16.3941205,1 11.952381,1 C5.90354798,1 1,5.92486775 1,12 C1,18.0751322 5.90354798,23 11.952381,23 C16.0063081,23 19.5458101,20.7879075 21.4395283,17.5 L20.3684362,17.5 C18.5770821,20.2593585 15.4768155,22.0833333 11.952381,22.0833333 C6.40761739,22.0833333 1.91269841,17.5688712 1.91269841,12 C1.91269841,6.43112877 6.40761739,1.91666667 11.952381,1.91666667 C16.1470702,1.91666667 19.7409198,4.50035147 21.2423419,8.1696479 L18.5238095,10.9 L24,10.9 L24,5.4 L21.9368322,7.47213808 Z"></path>
        </g>
    </symbol>

    <symbol id="manage" viewBox="0 0 24 24">
        <g   stroke-width="1" fill-rule="evenodd">
            <path d="M8.05000906,3 L2,3 L2,4 L8.05000906,4 C8.28164422,5.14112016 9.29052104,6 10.5,6 C11.709479,6 12.7183558,5.14112016 12.9499909,4 L22,4 L22,3 L12.9499909,3 C12.7183558,1.85887984 11.709479,1 10.5,1 C9.29052104,1 8.28164422,1.85887984 8.05000906,3 Z M10.5,5 C11.3284271,5 12,4.32842712 12,3.5 C12,2.67157288 11.3284271,2 10.5,2 C9.67157288,2 9,2.67157288 9,3.5 C9,4.32842712 9.67157288,5 10.5,5 Z"></path>
            <path d="M3.05000906,19 L2,19 L2,20 L3.05000906,20 C3.28164422,21.1411202 4.29052104,22 5.5,22 C6.70947896,22 7.71835578,21.1411202 7.94999094,20 L22,20 L22,19 L7.94999094,19 C7.71835578,17.8588798 6.70947896,17 5.5,17 C4.29052104,17 3.28164422,17.8588798 3.05000906,19 Z M5.5,21 C6.32842712,21 7,20.3284271 7,19.5 C7,18.6715729 6.32842712,18 5.5,18 C4.67157288,18 4,18.6715729 4,19.5 C4,20.3284271 4.67157288,21 5.5,21 Z"></path>
            <path d="M15.0500091,11 L2,11 L2,12 L15.0500091,12 C15.2816442,13.1411202 16.290521,14 17.5,14 C18.709479,14 19.7183558,13.1411202 19.9499909,12 L22,12 L22,11 L19.9499909,11 C19.7183558,9.85887984 18.709479,9 17.5,9 C16.290521,9 15.2816442,9.85887984 15.0500091,11 Z M17.5,13 C18.3284271,13 19,12.3284271 19,11.5 C19,10.6715729 18.3284271,10 17.5,10 C16.6715729,10 16,10.6715729 16,11.5 C16,12.3284271 16.6715729,13 17.5,13 Z"></path>
        </g>
    </symbol>

    <symbol id="audit" viewBox="0 0 24 24">
         <g stroke-width="1" fill-rule="evenodd" transform="translate(3.000000, 0.000000)">
            <path d="M13.5,1.8 L5.4,10.1 C5.3,10.2 5.3,10.2 5.3,10.3 L4.6,13 C4.6,13.2 4.6,13.4 4.7,13.5 C4.8,13.6 4.9,13.7 5.1,13.7 L5.2,13.7 L7.9,13 C8,13 8.1,12.9 8.1,12.9 L16.2,4.6 L16.2,4.6 L16.2,4.6 L17.8,2.9 C18,2.7 18,2.4 17.8,2.2 L15.8,0.2 C15.8,0.1 15.7,0 15.5,0 C15.4,0 15.2,0.1 15.1,0.2 L13.5,1.8 L13.5,1.8 L13.5,1.8 L13.5,1.8 L13.5,1.8 Z M7.5,12 L5.8,12.5 L6.2,10.8 L13.8,3 L15.1,4.3 L7.5,12 L7.5,12 Z M15.5,1.3 L16.8,2.6 L15.9,3.5 L14.6,2.2 L15.5,1.3 L15.5,1.3 Z"></path>
            <path d="M17.5,5.53181818 C17.2,5.53181818 17,5.72272727 17,6.00909091 L17,22.0454545 L1,22.0454545 L1,2.95454545 L10.4,2.95454545 C10.7,2.95454545 10.9,2.76363636 10.9,2.47727273 C10.9,2.19090909 10.7,2 10.4,2 L0.5,2 C0.2,2 0,2.19090909 0,2.47727273 L0,22.5227273 C0,22.8090909 0.2,23 0.5,23 L17.5,23 C17.8,23 18,22.8090909 18,22.5227273 L18,6.00909091 C18,5.72272727 17.8,5.53181818 17.5,5.53181818 L17.5,5.53181818 L17.5,5.53181818 Z"></path>
        </g>
    </symbol>

    <symbol id="signout" viewBox="0 0 24 24">
        <g stroke-width="1" fill-rule="evenodd" transform="translate(2.000000, 1.000000)">
            <path d="M21.3,10.5 L17.4,6.8 C17.1,6.5 16.6,6.5 16.4,6.8 C16.1,7.1 16.1,7.5 16.4,7.8 L19,10.3 L8.5,10.3 C8.1,10.3 7.8,10.6 7.8,11 C7.8,11.4 8.1,11.7 8.5,11.7 L19,11.7 L16.4,14.2 C16.1,14.5 16.1,14.9 16.4,15.2 C16.5,15.3 16.7,15.4 16.9,15.4 C17.1,15.4 17.3,15.3 17.4,15.2 L21.3,11.5 C21.4,11.4 21.5,11.2 21.5,11 C21.5,10.8 21.4,10.6 21.3,10.5 L21.3,10.5 L21.3,10.5 Z" ></path>
            <path d="M14.3416667,16.9583333 C13.975,16.9583333 13.7,17.2333333 13.7,17.6 L13.7,20.7166667 L1.875,20.7166667 L1.875,1.28333333 L13.7,1.28333333 L13.7,4.4 C13.7,4.76666667 13.975,5.04166667 14.3416667,5.04166667 C14.7083333,5.04166667 14.9833333,4.76666667 14.9833333,4.4 L14.9833333,0.641666667 C14.9833333,0.275 14.7083333,0 14.3416667,0 L1.14166667,0 C0.775,0 0.5,0.275 0.5,0.641666667 L0.5,21.3583333 C0.5,21.725 0.775,22 1.14166667,22 L14.25,22 C14.6166667,22 14.8916667,21.725 14.8916667,21.3583333 L14.8916667,17.6 C14.9833333,17.2333333 14.7083333,16.9583333 14.3416667,16.9583333 L14.3416667,16.9583333 L14.3416667,16.9583333 Z"></path>
        </g>
    </symbol>

    <symbol id="x" viewBox="0 0 24 24">
        <path d="M15.7,12l8.1-8.1c0.2-0.2,0.2-0.5,0-0.7l-3-3C20.8,0.1,20.6,0,20.5,0c-0.1,0-0.3,0.1-0.4,0.1L12,8.3L3.9,0.1
        C3.7,0,3.3,0,3.2,0.1l-3,3C0,3.3,0,3.7,0.1,3.9L8.3,12l-8.1,8.1c-0.2,0.2-0.2,0.5,0,0.7l3,3C3.2,23.9,3.4,24,3.5,24
        c0.1,0,0.3-0.1,0.4-0.1l8.1-8.1l8.1,8.1c0.1,0.1,0.2,0.1,0.4,0.1c0.1,0,0.3-0.1,0.4-0.1l3-3c0.2-0.2,0.2-0.5,0-0.7L15.7,12z
         M15.7,12"/>
    </symbol>

    <symbol id="chevron" viewBox="0 0 24 24">
        <g>
            <path d="M11.7,18.8c-0.3,0-0.7-0.1-0.9-0.4L0.4,8.2c-0.5-0.5-0.5-1.4,0-1.9c0.5-0.5,1.4-0.5,1.9,0l9.4,9.2l10.1-9.9
                c0.5-0.5,1.4-0.5,1.9,0c0.5,0.5,0.5,1.4,0,1.9l-11,10.8C12.3,18.6,12,18.8,11.7,18.8z"/>
        </g>
    </symbol>

    <symbol id="bin-closed" viewBox="0 0 24 24">
        <g stroke-width="1" fill-rule="evenodd">
            <path d="M15.5583333,21.25 C15.925,21.25 16.2,20.975 16.2,20.6083333 L16.2,12.3583333 C16.2,11.9916667 15.925,11.625 15.5583333,11.625 C15.1916667,11.625 14.9166667,11.9 14.9166667,12.3583333 L14.9166667,20.6083333 C14.825,20.975 15.1,21.25 15.5583333,21.25 L15.5583333,21.25 L15.5583333,21.25 Z M15.4666667,4.75 L15.4666667,3.375 C15.5583333,2.64166667 14.9166667,2 14.1833333,2 L10.15,2 C9.41666667,2 8.775,2.64166667 8.775,3.375 L8.775,4.75 L4.83333333,4.75 C4.1,4.75 3.45833333,5.39166667 3.45833333,6.125 L3.45833333,7.5 C3.45833333,8.23333333 4.1,8.875 4.83333333,8.875 L4.83333333,21.25 C4.83333333,22.8083333 6.025,24 7.49166667,24 L16.8416667,24 C18.3083333,24 19.5,22.8083333 19.5,21.25 L19.5,8.875 C20.2333333,8.875 20.875,8.23333333 20.875,7.5 L20.875,6.125 C20.875,5.39166667 20.2333333,4.75 19.5,4.75 L15.4666667,4.75 Z M10.15,4.01666667 C10.15,3.65 10.425,3.375 10.7916667,3.375 L13.45,3.375 C13.8166667,3.375 14.0916667,3.65 14.0916667,4.01666667 L14.0916667,4.75 L10.15,4.75 L10.15,4.01666667 L10.15,4.01666667 Z M18.2166667,21.25 C18.2166667,21.9833333 17.575,22.625 16.8416667,22.625 L7.49166667,22.625 C6.75833333,22.625 6.11666667,21.9833333 6.11666667,21.25 L6.11666667,8.875 L18.2166667,8.875 L18.2166667,21.25 L18.2166667,21.25 Z M18.8583333,7.5 L5.475,7.5 C5.10833333,7.5 4.83333333,7.225 4.83333333,6.85833333 C4.83333333,6.49166667 5.10833333,6.125 5.475,6.125 L18.8583333,6.125 C19.225,6.125 19.5,6.4 19.5,6.85833333 C19.5,7.225 19.225,7.5 18.8583333,7.5 L18.8583333,7.5 L18.8583333,7.5 Z M8.775,21.25 C9.14166667,21.25 9.41666667,20.975 9.41666667,20.6083333 L9.41666667,12.3583333 C9.41666667,11.9916667 9.14166667,11.625 8.775,11.625 C8.40833333,11.625 8.13333333,11.9 8.13333333,12.3583333 L8.13333333,20.6083333 C8.13333333,20.975 8.40833333,21.25 8.775,21.25 L8.775,21.25 L8.775,21.25 Z M12.1666667,21.25 C12.5333333,21.25 12.8083333,20.975 12.8083333,20.6083333 L12.8083333,12.3583333 C12.8083333,11.9916667 12.5333333,11.625 12.1666667,11.625 C11.8,11.625 11.525,11.9 11.525,12.3583333 L11.525,20.6083333 C11.525,20.975 11.8,21.25 12.1666667,21.25 L12.1666667,21.25 L12.1666667,21.25 Z"></path>
        </g>
    </symbol>

    <symbol id="bin-opened" viewBox="0 0 24 24">
        <g stroke-width="1" fill-rule="evenodd">
            <path transform="translate(3.000000, 8.000000)" d="M12.33,13.5 C12.69,13.5 12.96,13.23 12.96,12.87 L12.96,4.77 C12.96,4.41 12.69,4.05 12.33,4.05 C11.97,4.05 11.7,4.32 11.7,4.77 L11.7,12.87 C11.61,13.23 11.88,13.5 12.33,13.5 L12.33,13.5 L12.33,13.5 Z M0.45,3.17967874e-14 C0.45,0.72 1.08,1.35 1.8,1.35 L1.8,13.5 C1.8,15.03 2.97,16.2 4.41,16.2 L13.59,16.2 C15.03,16.2 16.2,15.03 16.2,13.5 L16.2,1.35 C16.92,1.35 17.55,0.72 17.55,3.17967874e-14 L0.45,3.17967874e-14 Z M14.94,13.5 C14.94,14.22 14.31,14.85 13.59,14.85 L4.41,14.85 C3.69,14.85 3.06,14.22 3.06,13.5 L3.06,1.35 L14.94,1.35 L14.94,13.5 L14.94,13.5 Z M5.67,13.5 C6.03,13.5 6.3,13.23 6.3,12.87 L6.3,4.77 C6.3,4.41 6.03,4.05 5.67,4.05 C5.31,4.05 5.04,4.32 5.04,4.77 L5.04,12.87 C5.04,13.23 5.31,13.5 5.67,13.5 L5.67,13.5 L5.67,13.5 Z M9,13.5 C9.36,13.5 9.63,13.23 9.63,12.87 L9.63,4.77 C9.63,4.41 9.36,4.05 9,4.05 C8.64,4.05 8.37,4.32 8.37,4.77 L8.37,12.87 C8.37,13.23 8.64,13.5 9,13.5 L9,13.5 L9,13.5 Z"></path>
            <path d="M15.24,2.7 L15.24,1.35 C15.33,0.63 14.7,0 13.98,0 L10.02,0 C9.3,0 8.67,0.63 8.67,1.35 L8.67,2.7 L4.8,2.7 C4.08,2.7 3.45,3.33 3.45,4.05 L3.45,5.4 C3.45,6.12 4.08,6.75 4.8,6.75 L19.2,6.75 C19.92,6.75 20.55,6.12 20.55,5.4 L20.55,4.05 C20.55,3.33 19.92,2.7 19.2,2.7 L15.24,2.7 Z M10.02,1.98 C10.02,1.62 10.29,1.35 10.65,1.35 L13.26,1.35 C13.62,1.35 13.89,1.62 13.89,1.98 L13.89,2.7 L10.02,2.7 L10.02,1.98 L10.02,1.98 Z M18.57,5.4 L5.43,5.4 C5.07,5.4 4.8,5.13 4.8,4.77 C4.8,4.41 5.07,4.05 5.43,4.05 L18.57,4.05 C18.93,4.05 19.2,4.32 19.2,4.77 C19.2,5.13 18.93,5.4 18.57,5.4 L18.57,5.4 L18.57,5.4 Z"></path>
        </g>
    </symbol>

    <symbol id="trusted" viewBox="0 0 24 24">
        <g stroke="none" stroke-width="1" fill="none" fill-rule="evenodd">
            <g transform="translate(1.000000, 0.000000)">
                <path d="M22.2430856,0.305854286 L22.2430856,18.9641215 L11.2364125,24.8145951 L0.229739354,18.9641215 L0.229739354,0.305854286 L22.2430856,0.305854286 Z M20.1561024,2.30585429 L20.1561024,17.4229865 L11.2383754,22.1631042 L2.32064845,17.4229865 L2.32064845,2.30585429 L20.1561024,2.30585429 Z" fill="#526D7C"></path>
                <path d="M9.51564906,12.8177666 L6.38202692,9.68414441 L3.95313206,12.1130393 L9.31993366,17.4798409 L9.78724868,17.0125258 L9.98296409,17.2082413 L18.9276334,8.26357192 L16.4987386,5.83467706 L9.51564906,12.8177666 Z" fill="#84F757"></path>
            </g>
        </g>
    </symbol>

    <symbol id="untrusted" viewBox="0 0 24 24">
        <g stroke="none" stroke-width="1" fill="#A11E34" fill-rule="evenodd">
            <path d="M23.0133463,0 L23.0133463,18.6582672 L12.0066731,24.5087408 L1,18.6582672 L1,7.8646164e-15 L23.0133463,0 Z M20.9263631,2 L20.9263631,17.1171322 L12.0086361,21.85725 L3.09090909,17.1171322 L3.09090909,2 L20.9263631,2 Z M13.7702606,12.6843801 L10.6252411,12.6843801 L10.6252411,3.96367696 L13.7702606,3.96367696 L13.7702606,12.6843801 Z M13.7702606,17.4714895 L10.6252411,17.4714895 L10.6252411,14.8460012 L13.7702606,14.8460012 L13.7702606,17.4714895 Z"></path>
        </g>
    </symbol>

    <symbol id="pool" viewBox="0 0 24 24">
        <g stroke="none" stroke-width="1" fill="none" fill-rule="evenodd">
            <g transform="translate(-243.000000, -35.000000)">
                <g transform="translate(19.000000, 35.000000)">
                    <g transform="translate(224.000000, 0.000000)">
                        <path d="M10.4822878,22.0943077 L5.80333278,24.8158633 L1.2509389,22.1679231 L3.55241263,20.8391666 L5.93036614,22.2223243 L8.30831964,20.8391666 L10.4822878,22.0943077 Z M11.3040385,19.9087029 L11.3040385,15.2172607 L5.80333278,12.0177265 L0.302627037,15.2172607 L0.302627037,20.0553884 L2.7545322,18.6397803 L2.7545322,16.6805685 L5.93036614,14.8333166 L9.10620008,16.6805685 L9.10620008,18.6397803 L11.3040385,19.9087029 Z" fill="#C3CFF0"></path>
                        <path d="M17.2224986,10.2850488 L12.5435436,13.0066044 L7.99114972,10.3586642 L10.2926235,9.02990769 L12.670577,10.4130654 L15.0485305,9.02990769 L17.2224986,10.2850488 Z M18.0442493,8.09944401 L18.0442493,3.40800179 L12.5435436,0.208467596 L7.04283786,3.40800179 L7.04283786,8.2461295 L9.49474302,6.83052139 L9.49474302,4.87130961 L12.670577,3.02405769 L15.8464109,4.87130961 L15.8464109,6.83052139 L18.0442493,8.09944401 Z" fill="#C3CFF0"></path>
                        <path d="M23.9627094,22.0943077 L19.2837544,24.8158633 L14.7313605,22.1679231 L17.0328343,20.8391666 L19.4107878,22.2223243 L21.7887413,20.8391666 L23.9627094,22.0943077 Z M24.7844602,19.9087029 L24.7844602,15.2172607 L19.2837544,12.0177265 L13.7830487,15.2172607 L13.7830487,20.0553884 L16.2349538,18.6397803 L16.2349538,16.6805685 L19.4107878,14.8333166 L22.5866217,16.6805685 L22.5866217,18.6397803 L24.7844602,19.9087029 Z" fill="#C3CFF0"></path>
                        <polygon fill="#8B97B8" points="19.4544026 16.2630245 21.2967492 17.3346417 21.2967492 19.4778761 19.4544026 20.5494933 17.612056 19.4778761 17.612056 17.3346417 "></polygon>
                    </g>
                </g>
            </g>
        </g>
    </symbol>

    <symbol id="pool-healthy" viewBox="0 0 24 24">
        <g stroke="none" stroke-width="1" fill="none" fill-rule="evenodd">
            <path d="M10.4822878,22.0943077 L5.80333278,24.8158633 L1.2509389,22.1679231 L3.55241263,20.8391666 L5.93036614,22.2223243 L8.30831964,20.8391666 L10.4822878,22.0943077 Z M11.3040385,19.9087029 L11.3040385,15.2172607 L5.80333278,12.0177265 L0.302627037,15.2172607 L0.302627037,20.0553884 L2.7545322,18.6397803 L2.7545322,16.6805685 L5.93036614,14.8333166 L9.10620008,16.6805685 L9.10620008,18.6397803 L11.3040385,19.9087029 Z" fill="#526D7C"></path>
            <path d="M17.2224986,10.2850488 L12.5435436,13.0066044 L7.99114972,10.3586642 L10.2926235,9.02990769 L12.670577,10.4130654 L15.0485305,9.02990769 L17.2224986,10.2850488 Z M18.0442493,8.09944401 L18.0442493,3.40800179 L12.5435436,0.208467596 L7.04283786,3.40800179 L7.04283786,8.2461295 L9.49474302,6.83052139 L9.49474302,4.87130961 L12.670577,3.02405769 L15.8464109,4.87130961 L15.8464109,6.83052139 L18.0442493,8.09944401 Z" fill="#526D7C"></path>
            <path d="M10.5,11.5 L8.5,14.5" stroke="#526D7C" stroke-linecap="square"></path>
            <path d="M14.5,18.5 L10.5,18.5" stroke="#526D7C" stroke-linecap="square"></path>
            <path d="M16.5,11.5 L14.5,14.5" stroke="#526D7C" stroke-linecap="square" transform="translate(15.500000, 13.000000) scale(-1, 1) translate(-15.500000, -13.000000) "></path>
                <path d="M18.6002615,19.2643242 L17.1354144,17.799477 L16,18.9348914 L18.5087721,21.4436635 L18.7272238,21.2252118 L18.8187132,21.3167012 L23,17.1354144 L21.8645856,16 L18.6002615,19.2643242 Z M19.4646661,12 L24.9293322,15.1785714 L24.9293322,21.5357143 L19.4646661,24.7142857 L14,21.5357143 L14,15.1785714 L19.4646661,12 Z" fill="#84F757"></path>
        </g>
    </symbol>

    <symbol id="pool-problem" viewBox="0 0 24 24">
        <g stroke="none" stroke-width="1" fill="none" fill-rule="evenodd">
            <path d="M10.4822878,22.0943077 L5.80333278,24.8158633 L1.2509389,22.1679231 L3.55241263,20.8391666 L5.93036614,22.2223243 L8.30831964,20.8391666 L10.4822878,22.0943077 Z M11.3040385,19.9087029 L11.3040385,15.2172607 L5.80333278,12.0177265 L0.302627037,15.2172607 L0.302627037,20.0553884 L2.7545322,18.6397803 L2.7545322,16.6805685 L5.93036614,14.8333166 L9.10620008,16.6805685 L9.10620008,18.6397803 L11.3040385,19.9087029 Z" fill="#526D7C"></path>
            <path d="M17.2224986,10.2850488 L12.5435436,13.0066044 L7.99114972,10.3586642 L10.2926235,9.02990769 L12.670577,10.4130654 L15.0485305,9.02990769 L17.2224986,10.2850488 Z M18.0442493,8.09944401 L18.0442493,3.40800179 L12.5435436,0.208467596 L7.04283786,3.40800179 L7.04283786,8.2461295 L9.49474302,6.83052139 L9.49474302,4.87130961 L12.670577,3.02405769 L15.8464109,4.87130961 L15.8464109,6.83052139 L18.0442493,8.09944401 Z" fill="#526D7C"></path>
            <path d="M10.5,11.5 L8.5,14.5" stroke="#526D7C" stroke-linecap="square"></path>
            <path d="M14.5,18.5 L10.5,18.5" stroke="#526D7C" stroke-linecap="square"></path>
            <path d="M16.5,11.5 L14.5,14.5" stroke="#526D7C" stroke-linecap="square" transform="translate(15.500000, 13.000000) scale(-1, 1) translate(-15.500000, -13.000000) "></path>
            <path d="M18.125639,19.2069242 L17.9660672,14.3513826 L20.7243796,14.3513826 L20.5648078,19.2069242 L18.125639,19.2069242 Z M19.1730983,12.2142857 L24.6377644,15.3928571 L24.6377644,21.75 L19.1730983,24.9285714 L13.7084322,21.75 L13.7084322,15.3928571 L19.1730983,12.2142857 Z M18.0458531,22.6585022 L18.0458531,20.4017012 L20.6445937,20.4017012 L20.6445937,22.6585022 L18.0458531,22.6585022 Z" fill="#FF2246"></path>
        </g>
    </symbol>

    <symbol id="node-no-status" viewBox="0 0 24 24">
        <g stroke="none" stroke-width="1" fill="none" fill-rule="evenodd" transform="translate(1.000000, 1.000000)">
            <g transform="translate(6.708333, 6.000000)" fill="#526D7C">
                <path d="M3.90000426,5.96858875 L3.78724505,2.38830877 L5.73636852,2.38830877 L5.62360931,5.96858875 L3.90000426,5.96858875 Z M4.64017693,0.8125 L8.50170803,3.15625 L8.50170803,7.84375 L4.64017693,10.1875 L0.778645833,7.84375 L0.778645833,3.15625 L4.64017693,0.8125 Z M3.84362466,8.51364279 L3.84362466,6.84956899 L5.67998892,6.84956899 L5.67998892,8.51364279 L3.84362466,8.51364279 Z"></path>
            </g>
            <path d="M20.6067572,18.1188947 L11.1454878,23 L2.09694351,18.3318212 L6.55293744,15.7591519 L11.3979301,18.2587023 L16.3890171,15.6837813 L20.6067572,18.1188947 Z M22.2909756,14.3108184 L22.2909756,5.75 L11.1454878,0 L4.36909768e-13,5.75 L4.42477971e-13,14.7620319 L4.96307971,11.8965965 L4.96307971,8.29941012 L11.3979301,4.97964607 L17.8327805,8.29941012 L17.8327805,11.7368782 L22.2909756,14.3108184 Z" stroke="#526D7C" stroke-width="2" stroke-linecap="round"></path>
        </g>
    </symbol>

    <symbol id="node-offline" viewBox="0 0 24 24">
        <g stroke="none" stroke-width="1" fill="none" fill-rule="evenodd">
            <g transform="translate(1.000000, 1.000000)">
                <g transform="translate(6.708333, 6.000000)" fill="#A11E34">
                    <path d="M3.90000426,5.96858875 L3.78724505,2.38830877 L5.73636852,2.38830877 L5.62360931,5.96858875 L3.90000426,5.96858875 Z M4.64017693,0.8125 L8.50170803,3.15625 L8.50170803,7.84375 L4.64017693,10.1875 L0.778645833,7.84375 L0.778645833,3.15625 L4.64017693,0.8125 Z M3.84362466,8.51364279 L3.84362466,6.84956899 L5.67998892,6.84956899 L5.67998892,8.51364279 L3.84362466,8.51364279 Z"></path>
                </g>
                <path d="M20.6067572,18.1188947 L11.1454878,23 L2.09694351,18.3318212 L6.55293744,15.7591519 L11.3979301,18.2587023 L16.3890171,15.6837813 L20.6067572,18.1188947 Z M22.2909756,14.3108184 L22.2909756,5.75 L11.1454878,0 L1.11022302e-15,5.75 L6.67842633e-15,14.7620319 L4.96307971,11.8965965 L4.96307971,8.29941012 L11.3979301,4.97964607 L17.8327805,8.29941012 L17.8327805,11.7368782 L22.2909756,14.3108184 Z" stroke="#526D7C" stroke-width="2" stroke-linecap="round"></path>
            </g>
        </g>
    </symbol>

    <symbol id="node-online" viewBox="0 0 24 24">
         <g stroke="none" stroke-width="1" fill="none" fill-rule="evenodd" transform="translate(1.000000, 1.000000)">
            <path d="M20.6067572,18.1188947 L11.1454878,23 L2.09694351,18.3318212 L6.55293744,15.7591519 L11.3979301,18.2587023 L16.3890171,15.6837813 L20.6067572,18.1188947 Z M22.2909756,14.3108184 L22.2909756,5.75 L11.1454878,0 L3.93685085e-13,5.75 L3.99253288e-13,14.7620319 L4.96307971,11.8965965 L4.96307971,8.29941012 L11.3979301,4.97964607 L17.8327805,8.29941012 L17.8327805,11.7368782 L22.2909756,14.3108184 Z" stroke="#526D7C" stroke-width="2" stroke-linecap="round"></path>
            <polygon fill="#84F757" points="11.5238271 6.88571429 15.9965596 9.19321417 15.9965596 13.8082139 11.5238271 16.1157138 7.05109464 13.8082139 7.05109464 9.19321417"></polygon>
        </g>
    </symbol>

    <symbol id="node-full-access" viewBox="0 0 24 24">
        <g stroke="none" stroke-width="1" fill="none" fill-rule="evenodd">
            <g>
                <g transform="translate(0.000000, 1.000000)">
                    <g>
                        <path d="M12.2991787,0 L23.7991787,6 L23.7991787,18 L12.2991787,24 L0.799178742,18 L0.799178742,6 L12.2991787,0 Z M12.3012319,3.13043478 L21.1016912,7.46086966 L21.1016912,16.1217394 L12.3012319,20.4521743 L3.50077249,16.1217394 L3.50077249,7.46086966 L12.3012319,3.13043478 Z" fill="#526D7C"></path>
                        <path d="M9,7.30434783 L11,7.30434783 L11,13.5652174 L9,13.5652174 L9,7.30434783 Z M10,16.6956522 L7,13.5652174 L13,13.5652174 L10,16.6956522 Z" fill="#84F757"></path>
                        <path d="M14,7.30434783 L16,7.30434783 L16,13.5652174 L14,13.5652174 L14,7.30434783 Z M15,16.6956522 L12,13.5652174 L18,13.5652174 L15,16.6956522 Z" fill="#84F757" transform="translate(15.000000, 12.000000) scale(-1, -1) translate(-15.000000, -12.000000) "></path>
                    </g>
                </g>
            </g>
        </g>
    </symbol>

    <symbol id="node-read-only-access" viewBox="0 0 24 24">
        <g stroke="none" stroke-width="1" fill="none" fill-rule="evenodd">
            <g transform="translate(0.000000, 1.000000)">
                    <path d="M11.9320828,0 L23.0969541,6 L23.0969541,18 L11.9320828,24 L0.767211592,18 L0.767211592,6 L11.9320828,0 Z M11.9340761,3.13043478 L20.4780758,7.46086966 L20.4780758,16.1217394 L11.9340761,20.4521743 L3.39007649,16.1217394 L3.39007649,7.46086966 L11.9340761,3.13043478 Z" fill="#526D7C"></path>
                    <path d="M8.64,7.30434783 L10.56,7.30434783 L10.56,13.5652174 L8.64,13.5652174 L8.64,7.30434783 Z M9.6,16.6956522 L6.72,13.5652174 L12.48,13.5652174 L9.6,16.6956522 Z" fill="#A11E34"></path>
                    <path d="M13.44,7.30434783 L15.36,7.30434783 L15.36,13.5652174 L13.44,13.5652174 L13.44,7.30434783 Z M14.4,16.6956522 L11.52,13.5652174 L17.28,13.5652174 L14.4,16.6956522 Z" fill="#84F757" transform="translate(14.400000, 12.000000) scale(-1, -1) translate(-14.400000, -12.000000) "></path>
            </g>
        </g>
    </symbol>

    <symbol id="node-no-access" viewBox="0 0 24 24">
        <g stroke="none" stroke-width="1" fill="none" fill-rule="evenodd">
            <g transform="translate(0.000000, 1.000000)">
                <path d="M12.2991787,0 L23.7991787,6 L23.7991787,18 L12.2991787,24 L0.799178742,18 L0.799178742,6 L12.2991787,0 Z M12.3012319,3.13043478 L21.1016912,7.46086966 L21.1016912,16.1217394 L12.3012319,20.4521743 L3.50077249,16.1217394 L3.50077249,7.46086966 L12.3012319,3.13043478 Z" fill="#526D7C"></path>
                <path d="M9,7.30434783 L11,7.30434783 L11,13.5652174 L9,13.5652174 L9,7.30434783 Z M10,16.6956522 L7,13.5652174 L13,13.5652174 L10,16.6956522 Z" fill="#A11E34"></path>
                <path d="M14,7.30434783 L16,7.30434783 L16,13.5652174 L14,13.5652174 L14,7.30434783 Z M15,16.6956522 L12,13.5652174 L18,13.5652174 L15,16.6956522 Z" fill="#A11E34" transform="translate(15.000000, 12.000000) scale(-1, -1) translate(-15.000000, -12.000000) "></path>
            </g>
        </g>
    </symbol>

    <symbol id="bucket" viewBox="0 0 24 24">
        <g stroke="none" stroke-width="1" fill="none" fill-rule="evenodd">
            <g transform="translate(-488.000000, -517.000000)">
                <g transform="translate(488.000000, 517.000000)">
                    <path d="M11.0646723,0 L21.8899898,6.25 L21.8899898,18.75 L11.0646723,25 L0.239354721,18.75 L0.239354721,6.25 L11.0646723,0 Z M11.0646723,1.1738521 L20.289831,6.5 L11.0646723,11.8261479 L1.83951349,6.5 L11.0646723,1.1738521 Z" fill="#C3CEEF"></path>
                    <polygon fill="#8B97B8" points="11.337276 3.35104795 16.7914209 6.5 11.337276 9.64895205 "></polygon>
                </g>
            </g>
        </g>
    </symbol>


    <symbol id="healthy" viewBox="0 0 24 24">
        <path d="M12,0C5.4,0,0,5.4,0,12s5.4,12,12,12s12-5.4,12-12C24,5.4,18.6,0,12,0z M12,22.9C6,22.9,1.2,18,1.2,12S6,1.1,12,1.1
            S22.8,6,22.8,12S18,22.9,12,22.9z"/>
        <path d="M15.1,8.9l-4.6,4.6l-1.7-1.7c-0.3-0.3-0.8-0.3-1.1,0c-0.3,0.3-0.3,0.8,0,1.1l2.2,2.2c0.2,0.2,0.4,0.2,0.6,0.2
        s0.4-0.1,0.6-0.2l5.2-5.2c0.3-0.3,0.3-0.8,0-1.1C15.9,8.6,15.4,8.6,15.1,8.9z"/>
    </symbol>

    <symbol id="problem" viewBox="0 0 24 24">
        <path d="M12,0C5.4,0,0,5.4,0,12s5.4,12,12,12s12-5.4,12-12C24,5.4,18.6,0,12,0z M12,22.8C6,22.8,1.2,18,1.2,12S6,1.2,12,1.2
            S22.8,6,22.8,12S18,22.8,12,22.8z M12.6,16.9c0,0.3-0.3,0.6-0.6,0.6c-0.3,0-0.6-0.3-0.6-0.6c0-0.3,0.3-0.6,0.6-0.6
            C12.3,16.3,12.6,16.6,12.6,16.9z M11.4,13.8V6.8c0-0.3,0.3-0.6,0.6-0.6c0.3,0,0.6,0.2,0.6,0.6v7.1c0,0.3-0.3,0.6-0.6,0.6
            C11.6,14.4,11.4,14.1,11.4,13.8z"/>
    </symbol>

    <symbol id="working" viewBox="0 0 24 24">
        <g stroke="none" stroke-width="1" fill-rule="evenodd">
            <path d="M12,0 C5.37115385,0 0,5.37115385 0,12 C0,18.6288462 5.37115385,24 12,24 C18.6288462,24 24,18.6288462 24,12 C24,5.37115385 18.6288462,0 12,0 L12,0 Z M12,23.0019231 C5.93653846,23.0019231 0.998076923,18.0692308 0.998076923,12 C0.998076923,5.93653846 5.93076923,0.998076923 12,0.998076923 C18.0634615,0.998076923 23.0019231,5.93076923 23.0019231,12 C23.0019231,18.0634615 18.0634615,23.0019231 12,23.0019231 L12,23.0019231 Z"></path>
            <path d="M15.5333142,11.424127 L18.3275614,11.424127 L18.3275614,13.0678019 L15.5333142,13.0678019 L15.5333142,11.424127 Z M7.2296496,16.0819235 L9.20546184,14.1061113 L10.3677043,15.2683538 L8.39189209,17.244166 L7.2296496,16.0819235 Z M6,11.424127 L8.79424726,11.424127 L8.79424726,13.0678019 L6,13.0678019 L6,11.424127 Z M7.23176994,8.41205998 L8.39483427,7.25063933 L10.3692494,9.22784869 L9.20618505,10.3892693 L7.23176994,8.41205998 Z M13.9688973,15.1529349 L15.1311398,13.9906925 L17.1069521,15.9665047 L15.9447096,17.1287472 L13.9688973,15.1529349 Z M11.2597595,6 L12.9034344,6 L12.9034344,8.79424726 L11.2597595,8.79424726 L11.2597595,6 Z M11.2597595,15.5333142 L12.9034344,15.5333142 L12.9034344,18.3275614 L11.2597595,18.3275614 L11.2597595,15.5333142 Z"></path>
        </g>
    </symbol>


    <symbol id="bucket-healthy" viewBox="0 0 24 24">
        <g stroke="none" stroke-width="1" fill="none" fill-rule="evenodd">
            <g transform="translate(2.000000, 1.000000)">
                <path d="M10.5,0 L21,5.75 L21,17.25 L10.5,23 L2.41972099e-13,17.25 L2.35189646e-13,5.75 L10.5,0 Z M10.5,1 L19.95,6.0999999 L19.95,16.2999997 L10.5,21.3999996 L1.05,16.2999997 L1.05,6.0999999 L10.5,1 Z" fill="#607D8B"></path>
                <path d="M10.5,0.159943931 L19.95,5.51894376 L10.5,10.8779436 L1.05,5.51894376 L10.5,0.159943931 Z" stroke="#607D8B" stroke-linecap="round" fill="#84F757"></path>
            </g>
            <rect fill="#607D8B" x="12" y="12" width="1" height="11"></rect>
        </g>
    </symbol>

    <!-- TODO: replace -->
    <symbol id="bucket-problem" viewBox="0 0 24 24">
        <g stroke-width="1" fill="none" fill-rule="evenodd">
            <g transform="translate(2.000000, 1.000000)">
                <path d="M10.5,0 L21,5.75 L21,17.25 L10.5,23 L2.49077526e-13,17.25 L2.42295073e-13,5.75 L10.5,0 Z M10.5,1 L19.95,6.0999999 L19.95,16.2999997 L10.5,21.3999996 L1.05,16.2999997 L1.05,6.0999999 L10.5,1 Z" fill="#607D8B"></path>
                <path d="M10.5,0.159943931 L19.95,5.51894376 L10.5,10.8779436 L1.05,5.51894376 L10.5,0.159943931 Z" stroke="#607D8B" stroke-linecap="round" fill="#A11E34"></path>
            </g>
            <rect fill="#607D8B" x="12" y="12" width="1" height="11"></rect>
        </g>
    </symbol>

    <symbol id="cloud-not-set" viewBox="0 0 24 24">
         <g stroke="none" stroke-width="1" fill="#607D8B" fill-rule="evenodd">
            <path d="M16.5147186,17.56 L4.74653654,17.56 C2.67738154,17.56 1,15.8768536 1,13.81 C1,11.9756328 2.3121509,10.4488897 4.05308367,10.1238697 C4.01823748,9.94117772 4,9.75267288 4,9.56 C4,8.3397868 4.73032253,7.28972249 5.77572665,6.82100802 L5.03242394,6.07770531 C3.86594255,6.73891434 3.06256018,7.96935756 3.00349222,9.39152852 C1.2469814,10.0875292 0,11.8034711 0,13.81 C0,16.4280146 2.12504408,18.56 4.7464188,18.56 L17.5147186,18.56 L16.5147186,17.56 Z M23.3554567,15.9154567 C23.7624738,15.3152318 24,14.590459 24,13.81 C24,11.7431464 22.3226185,10.06 20.2534635,10.06 L19.9091039,10.06 C19.9687986,9.73572375 20,9.40149649 20,9.06 C20,6.02861471 17.5375661,3.56 14.5,3.56 C13.4958277,3.56 12.5534094,3.83020837 11.7420222,4.30202218 L11.0145741,3.57457412 C12.0226392,2.93219758 13.2187881,2.56 14.5,2.56 C18.0898509,2.56 21,5.47745375 21,9.06 C21,9.07951787 20.9999138,9.09901564 20.9997416,9.11849297 C23.266627,9.47750495 25,11.4455284 25,13.81 C25,14.8662885 24.6544314,15.8420484 24.0708776,16.6308776 L23.3554567,15.9154567 Z M6.87254865,2.68745135 L23.3725486,19.1874514 L22.1874514,20.3725486 L5.68745135,3.87254865 L6.87254865,2.68745135 Z"></path>
        </g>
    </symbol>

    <symbol id="cloud-pending" viewBox="0 0 24 24">
        <g stroke="none" stroke-width="1" fill="#607D8B" fill-rule="evenodd" transform="translate(0.000000, 2.000000)">
            <path d="M4.05308367,8.12386973 C2.3121509,8.44888966 1,9.97563284 1,11.81 C1,13.8768536 2.67738154,15.56 4.74653654,15.56 L20.2534635,15.56 C22.32737,15.56 24,13.8810678 24,11.81 C24,9.74314639 22.3226185,8.06 20.2534635,8.06 L19.9091039,8.06 C19.9687986,7.73572375 20,7.40149649 20,7.06 C20,4.02861471 17.5375661,1.56 14.5,1.56 C11.9959296,1.56 9.87586892,3.24025564 9.21406342,5.53697303 C8.66554187,4.93699159 7.87668626,4.56 7,4.56 C5.34651712,4.56 4,5.90314575 4,7.56 C4,7.75267288 4.01823748,7.94117772 4.05308367,8.12386973 Z M3.00349222,7.39152852 C1.2469814,8.08752924 0,9.80347113 0,11.81 C0,14.4280146 2.12504408,16.56 4.7464188,16.56 L20.2535812,16.56 C22.8685141,16.56 25,14.4333526 25,11.81 C25,9.44552841 23.266627,7.47750495 20.9997416,7.11849297 C20.9999138,7.09901564 21,7.07951787 21,7.06 C21,3.47745375 18.0898509,0.56 14.5,0.56 C12.0309551,0.56 9.87781515,1.94225957 8.77788922,3.97664311 C8.2423242,3.71004359 7.63864051,3.56 7,3.56 C4.8516791,3.56 3.09200054,5.26052611 3.00349222,7.39152852 Z"></path>
            <path d="M15.7142857,6.35170064 C15.7142857,6.46331265 15.6633333,6.57322066 15.5747619,6.65288266 L13.3333333,8.65806477 L11.0919048,6.65288266 C11.0033333,6.57322066 10.952381,6.46331265 10.952381,6.35170064 L10.952381,5.85242862 L15.7142857,5.85242862 L15.7142857,6.35170064 Z M15.7142857,12.169583 L15.7142857,12.668429 L10.952381,12.668429 L10.952381,12.169583 C10.952381,12.055415 11.0019048,11.9484889 11.0919048,11.8679749 L13.3333333,9.86279283 L15.5747619,11.8679749 C15.6647619,11.9484889 15.7142857,12.055415 15.7142857,12.169583 L15.7142857,12.169583 Z M16.6666667,6.35170064 L16.6666667,5.42642859 C16.6666667,5.19127658 16.4533333,5.00042857 16.1904762,5.00042857 L10.4761905,5.00042857 C10.2133333,5.00042857 10,5.19127658 10,5.42642859 L10,6.35170064 C10,6.68824066 10.152381,7.01711268 10.4185714,7.25524669 L12.66,9.2604288 L10.4185714,11.2656109 C10.1485714,11.5071529 10,11.8279309 10,12.169583 L10,13.094429 C10,13.329581 10.2133333,13.520429 10.4761905,13.520429 L16.1904762,13.520429 C16.4533333,13.520429 16.6666667,13.329581 16.6666667,13.094429 L16.6666667,12.169583 C16.6666667,11.8279309 16.5180952,11.5071529 16.2480952,11.2656109 L14.0066667,9.2604288 L16.2480952,7.25524669 C16.5142857,7.01711268 16.6666667,6.68824066 16.6666667,6.35170064 Z"></path>
        </g>
    </symbol>

    <symbol id="cloud-syncing" viewBox="0 0 24 24">
        <g stroke="none" stroke-width="1" fill="none" fill-rule="evenodd">
            <path d="M4.05308367,10.1238697 C2.3121509,10.4488897 1,11.9756328 1,13.81 C1,15.8768536 2.67738154,17.56 4.74653654,17.56 L20.2534635,17.56 C22.32737,17.56 24,15.8810678 24,13.81 C24,11.7431464 22.3226185,10.06 20.2534635,10.06 L19.9091039,10.06 C19.9687986,9.73572375 20,9.40149649 20,9.06 C20,6.02861471 17.5375661,3.56 14.5,3.56 C11.9959296,3.56 9.87586892,5.24025564 9.21406342,7.53697303 C8.66554187,6.93699159 7.87668626,6.56 7,6.56 C5.34651712,6.56 4,7.90314575 4,9.56 C4,9.75267288 4.01823748,9.94117772 4.05308367,10.1238697 Z M3.00349222,9.39152852 C1.2469814,10.0875292 0,11.8034711 0,13.81 C0,16.4280146 2.12504408,18.56 4.7464188,18.56 L20.2535812,18.56 C22.8685141,18.56 25,16.4333526 25,13.81 C25,11.4455284 23.266627,9.47750495 20.9997416,9.11849297 C20.9999138,9.09901564 21,9.07951787 21,9.06 C21,5.47745375 18.0898509,2.56 14.5,2.56 C12.0309551,2.56 9.87781515,3.94225957 8.77788922,5.97664311 C8.2423242,5.71004359 7.63864051,5.56 7,5.56 C4.8516791,5.56 3.09200054,7.26052611 3.00349222,9.39152852 Z" fill="#607D8B"></path>
            <path d="M9.23474204,12.5852374 L8.0367518,12.5852374 L8,12.5852374 L8,15.688147 L8.87789388,14.843535 C9.73800463,16.1057986 11.1482069,16.9293109 12.7421682,16.9293109 C15.1606739,16.9293109 17.1559412,15.0340537 17.4475845,12.5852374 L16.2495943,12.5852374 C15.9674353,14.3464489 14.5044764,15.688147 12.7421682,15.688147 C11.4937924,15.688147 10.3947949,15.014195 9.76052993,13.9945789 L11.2252671,12.5852374 L9.23474204,12.5852374 L9.23474204,12.5852374 L9.23474204,12.5852374 Z M12.7421682,7 C10.3236624,7 8.32839515,8.89525721 8.0367518,11.3440735 L9.23474204,11.3440735 C9.51690104,9.58286199 10.9798599,8.24116386 12.7421682,8.24116386 C14.0278885,8.24116386 15.1547462,8.95545366 15.7795269,10.0259575 L14.5204812,11.3440735 L15.7060233,11.3440735 L16.2495943,11.3440735 L17.4475845,11.3440735 L17.4843363,11.3440735 L17.4843363,8.24116386 L16.6354882,9.12983718 C15.7789341,7.84212968 14.3545053,7 12.7421682,7 L12.7421682,7 L12.7421682,7 Z" fill="#FFCF00"></path>
        </g>
    </symbol>

    <symbol id="cloud-paused" viewBox="0 0 24 24">
        <g stroke="none" stroke-width="1" fill="#607D8B" fill-rule="evenodd">
            <path d="M4.05308367,10.1238697 C2.3121509,10.4488897 1,11.9756328 1,13.81 C1,15.8768536 2.67738154,17.56 4.74653654,17.56 L20.2534635,17.56 C22.32737,17.56 24,15.8810678 24,13.81 C24,11.7431464 22.3226185,10.06 20.2534635,10.06 L19.9091039,10.06 C19.9687986,9.73572375 20,9.40149649 20,9.06 C20,6.02861471 17.5375661,3.56 14.5,3.56 C11.9959296,3.56 9.87586892,5.24025564 9.21406342,7.53697303 C8.66554187,6.93699159 7.87668626,6.56 7,6.56 C5.34651712,6.56 4,7.90314575 4,9.56 C4,9.75267288 4.01823748,9.94117772 4.05308367,10.1238697 Z M3.00349222,9.39152852 C1.2469814,10.0875292 0,11.8034711 0,13.81 C0,16.4280146 2.12504408,18.56 4.7464188,18.56 L20.2535812,18.56 C22.8685141,18.56 25,16.4333526 25,13.81 C25,11.4455284 23.266627,9.47750495 20.9997416,9.11849297 C20.9999138,9.09901564 21,9.07951787 21,9.06 C21,5.47745375 18.0898509,2.56 14.5,2.56 C12.0309551,2.56 9.87781515,3.94225957 8.77788922,5.97664311 C8.2423242,5.71004359 7.63864051,5.56 7,5.56 C4.8516791,5.56 3.09200054,7.26052611 3.00349222,9.39152852 Z"></path>
            <rect x="10" y="8" width="1.92307692" height="7.69230769"></rect>
            <rect x="13.8461538" y="8" width="1.92307692" height="7.69230769"></rect>
        </g>
    </symbol>

    <symbol id="cloud-synced" viewBox="0 0 24 24">
        <g stroke="none" stroke-width="1" fill="none" fill-rule="evenodd" transform="translate(0.000000, 2.000000)">
            <path d="M4.05308367,8.12386973 C2.3121509,8.44888966 1,9.97563284 1,11.81 C1,13.8768536 2.67738154,15.56 4.74653654,15.56 L20.2534635,15.56 C22.32737,15.56 24,13.8810678 24,11.81 C24,9.74314639 22.3226185,8.06 20.2534635,8.06 L19.9091039,8.06 C19.9687986,7.73572375 20,7.40149649 20,7.06 C20,4.02861471 17.5375661,1.56 14.5,1.56 C11.9959296,1.56 9.87586892,3.24025564 9.21406342,5.53697303 C8.66554187,4.93699159 7.87668626,4.56 7,4.56 C5.34651712,4.56 4,5.90314575 4,7.56 C4,7.75267288 4.01823748,7.94117772 4.05308367,8.12386973 Z M3.00349222,7.39152852 C1.2469814,8.08752924 0,9.80347113 0,11.81 C0,14.4280146 2.12504408,16.56 4.7464188,16.56 L20.2535812,16.56 C22.8685141,16.56 25,14.4333526 25,11.81 C25,9.44552841 23.266627,7.47750495 20.9997416,7.11849297 C20.9999138,7.09901564 21,7.07951787 21,7.06 C21,3.47745375 18.0898509,0.56 14.5,0.56 C12.0309551,0.56 9.87781515,1.94225957 8.77788922,3.97664311 C8.2423242,3.71004359 7.63864051,3.56 7,3.56 C4.8516791,3.56 3.09200054,5.26052611 3.00349222,7.39152852 Z" fill="#607D8B"></path>
            <path d="M16.6668315,5.11825798 C16.5066905,4.96058067 16.2470237,4.96058067 16.0868827,5.11825798 L10.4503982,10.6680849 L8.05307379,8.30769993 C7.8929912,8.15002261 7.63329518,8.15002261 7.47318338,8.30769993 L6.12010576,9.63998973 C5.95996475,9.79763828 5.95996475,10.0533102 6.12010576,10.2109875 L10.1604676,14.1891611 C10.2405381,14.2680286 10.3454973,14.3074335 10.4504274,14.3074335 C10.5553866,14.3074335 10.6603459,14.2680286 10.7403872,14.1891611 L18.0199092,7.02151678 C18.0968248,6.9458133 18.1400003,6.84310154 18.1400003,6.73604667 C18.1400295,6.62893426 18.0968248,6.52628004 18.0199092,6.45054779 L16.6668315,5.11825798 L16.6668315,5.11825798 Z" fill="#84F757"></path>
        </g>
    </symbol>

    <symbol id="cloud-error" viewBox="0 0 24 24">
        <g stroke="none" stroke-width="1" fill="none" fill-rule="evenodd">
            <path d="M4.05308367,10.1238697 C2.3121509,10.4488897 1,11.9756328 1,13.81 C1,15.8768536 2.67738154,17.56 4.74653654,17.56 L20.2534635,17.56 C22.32737,17.56 24,15.8810678 24,13.81 C24,11.7431464 22.3226185,10.06 20.2534635,10.06 L19.9091039,10.06 C19.9687986,9.73572375 20,9.40149649 20,9.06 C20,6.02861471 17.5375661,3.56 14.5,3.56 C11.9959296,3.56 9.87586892,5.24025564 9.21406342,7.53697303 C8.66554187,6.93699159 7.87668626,6.56 7,6.56 C5.34651712,6.56 4,7.90314575 4,9.56 C4,9.75267288 4.01823748,9.94117772 4.05308367,10.1238697 Z M3.00349222,9.39152852 C1.2469814,10.0875292 0,11.8034711 0,13.81 C0,16.4280146 2.12504408,18.56 4.7464188,18.56 L20.2535812,18.56 C22.8685141,18.56 25,16.4333526 25,13.81 C25,11.4455284 23.266627,9.47750495 20.9997416,9.11849297 C20.9999138,9.09901564 21,9.07951787 21,9.06 C21,5.47745375 18.0898509,2.56 14.5,2.56 C12.0309551,2.56 9.87781515,3.94225957 8.77788922,5.97664311 C8.2423242,5.71004359 7.63864051,5.56 7,5.56 C4.8516791,5.56 3.09200054,7.26052611 3.00349222,9.39152852 Z" fill="#607D8B"></path>
            <text font-family="Roboto-Bold, Roboto" font-size="14" font-weight="bold" line-spacing="19" fill="#FF2246">
                <tspan x="11" y="16">!</tspan>
            </text>
        </g>
    </symbol>

    <symbol id="part-unavailable" viewBox="0 0 24 24">
        <g stroke="none" stroke-width="1" fill="none" fill-rule="evenodd">
            <g  transform="translate(-4.000000, -6.000000)">
                <g >
                    <g>
                        <g>
                            <g>
                                <g transform="translate(17.500000, 17.500000) rotate(-30.000000) translate(-17.500000, -17.500000) translate(5.000000, 5.000000)" fill="#F63D5C">
                                    <path d="M12.3042305,1.95399252e-14 L23.6084611,6.17218476 L23.6084611,18.5165543 L12.3042305,24.6887391 L1,18.5165543 L1,6.17218476 L12.3042305,1.95399252e-14 L12.3042305,1.95399252e-14 Z M12.3042305,1.88246035 L21.8846172,7.11341494 L21.8846172,17.5753241 L12.3042305,22.8062787 L2.72384388,17.5753241 L2.72384388,7.11341494 L12.3042305,1.88246035 L12.3042305,1.88246035 Z"></path>
                                    <rect x="0.873952251" y="11.385704" width="23.2644792" height="2.25140121"></rect>
                                </g>
                                <g transform="translate(9.726669, 9.232355)" fill="#595F70">
                                    <path d="M14.7409945,6.92423418 L14.7409945,12.1036959 L8.57451661,15.4731268 L8.51126902,15.4385676 L8.51126902,10.2591059 L14.6777469,6.889675 L14.7409945,6.92423418 L14.7409945,6.92423418 Z"></path>
                                    <path d="M12.6151583,2.82047454 L7.45333882,0 L0.834773863,3.6164562 L6.03562572,6.61916942 L12.6151583,2.82047454 L12.6151583,2.82047454 Z M0.165683122,10.0081824 L0.165683122,4.80664128 L4.67034983,7.40741182 L0.165683122,10.0081824 L0.165683122,10.0081824 Z M3.05537725,13.5251245 L7.37859165,15.8873761 L7.37859165,11.0291155 L3.05537725,13.5251245 L3.05537725,13.5251245 Z"></path>
                                </g>
                            </g>
                        </g>
                    </g>
                </g>
            </g>
        </g>
    </symbol>

    <symbol id="part-in-process" viewBox="0 0 24 24">
        <g stroke="none" stroke-width="1" fill="none" fill-rule="evenodd">
            <g transform="translate(-588.000000, -1035.000000)">
                <g transform="translate(19.000000, 941.000000)">
                    <g transform="translate(569.000000, 94.000000)">
                        <polygon fill="#595F70" points="11.4285714 3.57142857 18.8516463 7.85714286 18.8516463 16.4285714 11.4285714 20.7142857 4.00549654 16.4285714 4.00549654 7.85714286 "></polygon>
                        <g>
                          <path fill="#FFCF00" fill-rule="evenodd" d="M5.75799133,12.5446429 L5.71428571,12.5446429 L5.71428571,16.2202399 L6.75828589,15.2197424 C7.78113819,16.7149753 9.45816481,17.6904787 11.3537195,17.6904787 C14.2298307,17.6904787 16.6026225,15.4454241 16.9494476,12.5446429 L15.5247857,12.5446429 C15.1892394,14.6309117 13.4494741,16.2202399 11.3537195,16.2202399 C9.86913855,16.2202399 8.56219977,15.4219002 7.8079255,14.214099 L9.54980561,12.5446429 L7.18265328,12.5446429 L5.75799133,12.5446429 Z M11.3100139,5.71428571 C8.43390265,5.71428571 6.06111089,7.9593404 5.71428571,10.8601216 L7.13894767,10.8601216 C7.47449398,8.7738527 9.2142593,7.18452454 11.3100139,7.18452454 C12.8390054,7.18452454 14.1790758,8.03064698 14.9220712,9.29872796 L13.4248015,10.8601216 L14.83466,10.8601216 L15.4810801,10.8601216 L16.905742,10.8601216 L16.9494476,10.8601216 L16.9494476,7.18452454 L15.939989,8.23721553 C14.9213663,6.71184275 13.2274214,5.71428571 11.3100139,5.71428571 Z"></path>


                        </g>
                        <mask fill="white">
                            <path d="M11.3042305,0 L22.6084611,6.17218476 L22.6084611,18.5165543 L11.3042305,24.6887391 L-1.12798659e-13,18.5165543 L-1.20126131e-13,6.17218476 L11.3042305,0 Z M11.3042305,1.88246035 L20.8846172,7.11341494 L20.8846172,17.5753241 L11.3042305,22.8062787 L1.72384388,17.5753241 L1.72384388,7.11341494 L11.3042305,1.88246035 Z"></path>
                        </mask>
                        <path fill="#595F70" d="M11.3042305,0 L22.6084611,6.17218476 L22.6084611,18.5165543 L11.3042305,24.6887391 L-1.12798659e-13,18.5165543 L-1.20126131e-13,6.17218476 L11.3042305,0 Z M11.3042305,1.88246035 L20.8846172,7.11341494 L20.8846172,17.5753241 L11.3042305,22.8062787 L1.72384388,17.5753241 L1.72384388,7.11341494 L11.3042305,1.88246035 Z"></path>

                    </g>
                </g>
            </g>
        </g>
    </symbol>

    <symbol id="part-available" viewBox="0 0 24 24">
        <g stroke="none" stroke-width="1" fill="none" fill-rule="evenodd">
            <g transform="translate(-589.000000, -982.000000)">
                <g transform="translate(19.000000, 941.000000)">
                    <g transform="translate(570.000000, 41.000000)">
                        <g>
                            <mask fill="white">
                                <path d="M11.3042305,0 L22.6084611,6.17218476 L22.6084611,18.5165543 L11.3042305,24.6887391 L-1.12798659e-13,18.5165543 L-1.20126131e-13,6.17218476 L11.3042305,0 Z M11.3042305,1.88246035 L20.8846172,7.11341494 L20.8846172,17.5753241 L11.3042305,22.8062787 L1.72384388,17.5753241 L1.72384388,7.11341494 L11.3042305,1.88246035 Z"></path>
                            </mask>
                            <path fill="#595F70" d="M11.3042305,0 L22.6084611,6.17218476 L22.6084611,18.5165543 L11.3042305,24.6887391 L-1.12798659e-13,18.5165543 L-1.20126131e-13,6.17218476 L11.3042305,0 Z M11.3042305,1.88246035 L20.8846172,7.11341494 L20.8846172,17.5753241 L11.3042305,22.8062787 L1.72384388,17.5753241 L1.72384388,7.11341494 L11.3042305,1.88246035 Z"></path>
                        </g>
                        <path d="M4.56144327,7.84881146 L11.1800082,4.23235527 L18.4676639,8.21440995 L18.4676639,8.36902561 L18.3929168,8.32818294 L11.713354,11.977969 L4.56144327,7.84881146 Z M3.89235253,9.03899655 L3.89235253,16.1785193 L11.1052611,20.1197313 L11.1052611,13.2033712 L3.89235253,9.03899655 Z" fill="#C3CEEF"></path>
                        <path d="M18.4676639,9.72801801 L18.4676639,16.3360512 L12.301186,19.705482 L12.2379384,19.6709229 L12.2379384,13.0628897 L18.4044163,9.69345884 L18.4676639,9.72801801 Z" fill="#84F757"></path>
                    </g>
                </g>
            </g>
        </g>
    </symbol>

    <symbol id="copy-to-clipboard" viewBox="0 0 24 24">
        <g>
            <path d="M22.9,4.4h-3.3V1.1c0-0.6-0.5-1.1-1.1-1.1H1.1C0.5,0,0,0.5,0,1.1v17.5c0,0.6,0.5,1.1,1.1,1.1h3.3v3.3
                c0,0.6,0.5,1.1,1.1,1.1h17.5c0.6,0,1.1-0.5,1.1-1.1V5.5C24,4.9,23.5,4.4,22.9,4.4L22.9,4.4z M2.2,2.2h15.3v15.3h-12h0c0,0,0,0,0,0
                H2.2V2.2z M21.8,21.8H6.5v-2.2h12c0.6,0,1.1-0.5,1.1-1.1v-12h2.2V21.8z M21.8,21.8"/>
        </g>
    </symbol>

    <symbol id="object-available" viewBox="0 0 24 24">
        <g stroke="none" stroke-width="1" fill="none" fill-rule="evenodd">
            <g transform="translate(4.000000, 2.000000)" fill="#607D8B">
                <path d="M15,19.0005 L1,19.0005 L1,1.0005 L10.3325556,1.0005 L10.3325556,5.5005 L14.9988334,5.5005 L15,19.0005 Z M11.414,0.0005 L2,0.0005 C0.897,0.0005 0,0.8985 0,2.0005 L0,18.0005 C0,19.1025 0.897,20.0005 2,20.0005 L14,20.0005 C15.103,20.0005 16,19.1025 16,18.0005 L16,4.5865 L11.414,0.0005 Z"></path>
            </g>
            <g transform="translate(7.000000, 9.000000)" fill="#84F757">
                <path d="M3.86324548,4.84985285 L1.68690129,2.67350866 L-9.63673585e-14,4.36040994 L3.72731841,8.08772835 L4.0518752,7.76317156 L4.18780227,7.89909863 L10.3999996,1.68690129 L8.71309833,6.21724894e-15 L3.86324548,4.84985285 Z"></path>
            </g>
        </g>
    </symbol>

    <symbol id="object-unavailable" viewBox="0 0 24 24">
        <g stroke="none" stroke-width="1" fill="none" fill-rule="evenodd">
            <g transform="translate(4.000000, 2.000000)" fill="#607D8B">
                <path d="M15,19.0005 L1,19.0005 L1,1.0005 L10.3325556,1.0005 L10.3325556,5.5005 L14.9988334,5.5005 L15,19.0005 Z M11.414,0.0005 L2,0.0005 C0.897,0.0005 0,0.8985 0,2.0005 L0,18.0005 C0,19.1025 0.897,20.0005 2,20.0005 L14,20.0005 C15.103,20.0005 16,19.1025 16,18.0005 L16,4.5865 L11.414,0.0005 Z"></path>
            </g>
            <path d="M12.546875,14.96875 L9.8984375,14.96875 L9.8984375,7.625 L12.546875,7.625 L12.546875,14.96875 Z M12.546875,19 L9.8984375,19 L9.8984375,16.7890625 L12.546875,16.7890625 L12.546875,19 Z" fill="#A11E34"></path>
        </g>
    </symbol>

    <symbol id="object-in-process" viewBox="0 0 24 24">
        <g stroke="none" stroke-width="1" fill="none" fill-rule="evenodd">
            <g transform="translate(4.000000, 2.000000)" fill="#607D8B">
                <path d="M15,19.0005 L1,19.0005 L1,1.0005 L10.3325556,1.0005 L10.3325556,5.5005 L14.9988334,5.5005 L15,19.0005 Z M11.414,0.0005 L2,0.0005 C0.897,0.0005 0,0.8985 0,2.0005 L0,18.0005 C0,19.1025 0.897,20.0005 2,20.0005 L14,20.0005 C15.103,20.0005 16,19.1025 16,18.0005 L16,4.5865 L11.414,0.0005 Z"></path>
            </g>
            <path d="M8.23474204,13.5852374 L7.0367518,13.5852374 L7,13.5852374 L7,16.688147 L7.87789388,15.843535 C8.73800463,17.1057986 10.1482069,17.9293109 11.7421682,17.9293109 C14.1606739,17.9293109 16.1559412,16.0340537 16.4475845,13.5852374 L15.2495943,13.5852374 C14.9674353,15.3464489 13.5044764,16.688147 11.7421682,16.688147 C10.4937924,16.688147 9.39479492,16.014195 8.76052993,14.9945789 L10.2252671,13.5852374 L8.23474204,13.5852374 L8.23474204,13.5852374 L8.23474204,13.5852374 Z M11.7421682,8 C9.3236624,8 7.32839515,9.89525721 7.0367518,12.3440735 L8.23474204,12.3440735 C8.51690104,10.582862 9.97985992,9.24116386 11.7421682,9.24116386 C13.0278885,9.24116386 14.1547462,9.95545366 14.7795269,11.0259575 L13.5204812,12.3440735 L14.7060233,12.3440735 L15.2495943,12.3440735 L16.4475845,12.3440735 L16.4843363,12.3440735 L16.4843363,9.24116386 L15.6354882,10.1298372 C14.7789341,8.84212968 13.3545053,8 11.7421682,8 L11.7421682,8 L11.7421682,8 Z" fill="#FFCF00"></path>
        </g>
    </symbol>

    <!-- TODO replace -->
    <symbol id="object-size" viewBox="0 0 24 24">
       <g stroke="none" stroke-width="1" fill="none" fill-rule="evenodd" >
            <g>
                <path d="M22.2348737,24 L2.73079989,23.9461695 L2.73079989,10.1870841 C2.73079989,10.1870841 12.6795879,0.992528093 12.6098132,1.00000456 C12.5400385,1.00748102 22.2133522,1.00000456 22.2133522,1.00000456 L22.2348737,24 Z" fill="#455664" ></path>
                <path d="M8.93798828,17.4711914 L8.02490234,17.4711914 L8.02490234,21 L6.96679688,21 L6.96679688,13.1796875 L8.02490234,13.1796875 L8.02490234,16.6386719 L8.84130859,16.6386719 L11.6396484,13.1796875 L12.8105469,13.1796875 L12.8266602,13.206543 L9.79199219,16.9609375 L13.046875,20.9731445 L13.0307617,21 L11.7685547,21 L8.93798828,17.4711914 Z M14.0405273,21 L14.0405273,13.1796875 L16.5917969,13.1796875 C17.4082072,13.1796875 18.047361,13.3560366 18.5092773,13.7087402 C18.9711937,14.0614438 19.2021484,14.5904913 19.2021484,15.2958984 C19.2021484,15.6432309 19.0911469,15.9538561 18.8691406,16.2277832 C18.6471343,16.5017104 18.3553078,16.7049147 17.9936523,16.8374023 C18.466311,16.9376633 18.8378079,17.168618 19.1081543,17.5302734 C19.3785007,17.8919289 19.5136719,18.3126604 19.5136719,18.7924805 C19.5136719,19.5086299 19.281822,20.0555808 18.8181152,20.4333496 C18.3544085,20.8111184 17.7251016,21 16.9301758,21 L14.0405273,21 Z M15.0986328,17.331543 L15.0986328,20.1728516 L16.9301758,20.1728516 C17.4099959,20.1728516 17.7841783,20.0537935 18.0527344,19.8156738 C18.3212904,19.5775541 18.4555664,19.2400738 18.4555664,18.8032227 C18.4555664,18.344887 18.3436697,17.9850273 18.119873,17.7236328 C17.8960764,17.4622383 17.5514346,17.331543 17.0859375,17.331543 L15.0986328,17.331543 Z M15.0986328,16.5043945 L16.8120117,16.5043945 C17.2058939,16.5043945 17.526366,16.3960786 17.7734375,16.1794434 C18.020509,15.9628082 18.144043,15.6611347 18.144043,15.2744141 C18.144043,14.8518859 18.0106621,14.5358897 17.7438965,14.326416 C17.4771308,14.1169423 17.0931015,14.012207 16.5917969,14.012207 L15.0986328,14.012207 L15.0986328,16.5043945 Z" fill="#FFFFFF"></path>
                <path d="M2.79079777,9.521875 L12.4828368,1 L12.4828368,10 L2.73079989,10 L2.79079777,9.521875 Z" fill="#6D8EA1" ></path>
            </g>
        </g>
    </symbol>

    <!-- REPLACE -->
    <symbol id="policy" viewBox="0 0 24 24">
        <g stroke="none" stroke-width="1" fill="#607D8B" fill-rule="evenodd" transform="translate(4.000000, 2.000000)">
            <path d="M16.15,18.9005007 L5.1,18.9005007 L5.1,0.900500033 L8.415,0.900500033 L8.415,11.0255004 L11.1775,8.77550032 L13.94,11.0255004 L13.94,0.900500033 L16.15,0.900500033 L16.15,18.9005007 Z M0.85,0.900500033 L3.89583333,0.900500033 L3.89583333,18.9005007 L0.85,18.9005007 L0.85,0.900500033 Z M16.0555556,0.000500000018 L0.944444444,0.000500000018 C0.423111111,0.000500000018 0,0.448500017 0,1.00050004 L0,19.0005007 C0,19.5525007 0.423111111,20.0005007 0.944444444,20.0005007 L16.0555556,20.0005007 C16.5768889,20.0005007 17,19.5525007 17,19.0005007 L17,1.00050004 C17,0.448500017 16.5768889,0.000500000018 16.0555556,0.000500000018 L16.0555556,0.000500000018 Z"></path>
        </g>
    </symbol>

    <symbol id="account" viewBox="0 0 24 24">
        <g stroke="none" stroke-width="1" fill="none" fill-rule="evenodd" >
            <g fill="#526D7C">
                <path d="M12.9362844,0 L23.8725689,6.28399978 L23.8725689,18.8519993 L12.9362844,25.1359991 L2,18.8519993 L2,6.28399978 L12.9362844,0 Z M13.0435434,2.74373284 L21.6675775,7.63250688 L21.6675775,17.410055 L13.0435434,22.298829 L4.41950922,17.410055 L4.41950922,7.63250688 L13.0435434,2.74373284 Z"></path>
                <path d="M13.43044,14.5095101 L13.3411033,14.4797818 L13.3411033,14.5392383 L10.4768542,15.4923635 L8,21.4086606 L13.3411033,24.5421259 L13.3411033,24.6986539 L13.4745071,24.6203899 L13.5760129,24.6799404 L13.5760129,24.5608395 L18.9171162,21.4273741 L16.440262,15.5110771 L13.5760129,14.5579518 L13.5760129,14.4610683 L13.43044,14.5095101 Z M13.1642577,13.5763889 C15.5438937,13.5763889 17.4729698,11.6564988 17.4729698,9.28819444 C17.4729698,6.91989005 15.5438937,5 13.1642577,5 C10.7846217,5 8.85554556,6.91989005 8.85554556,9.28819444 C8.85554556,11.6564988 10.7846217,13.5763889 13.1642577,13.5763889 Z" ></path>
            </g>
        </g>
    </symbol>

    <symbol id="notif-info" viewBox="0 0 24 24">
        <g>
            <g>
                <path d="M13.9,15.1L12.5,16V9.8c0-0.3-0.1-0.5-0.4-0.7c-0.2-0.1-0.5-0.1-0.8,0l-2,1.1c-0.4,0.2-0.5,0.7-0.3,1
                    c0.2,0.4,0.7,0.5,1,0.3l0.9-0.5v6.2c0,0.3,0.1,0.5,0.4,0.7c0.1,0.1,0.2,0.1,0.4,0.1c0.1,0,0.3,0,0.4-0.1l2.6-1.5
                    c0.4-0.2,0.5-0.7,0.3-1C14.8,15,14.3,14.9,13.9,15.1z"/>
                <circle cx="11.7" cy="7" r="1.1"/>
            </g>
            <path d="M12,0C5.4,0,0,5.4,0,12s5.4,12,12,12s12-5.4,12-12C24,5.4,18.6,0,12,0z M12,22.1C6.4,22.1,1.9,17.6,1.9,12
                C1.9,6.4,6.4,1.9,12,1.9S22.1,6.4,22.1,12S17.6,22.1,12,22.1z"/>
        </g>
    </symbol>

    <symbol id="notif-success" viewBox="0 0 24 24">
        <g>
            <path d="M12,0C5.4,0,0,5.4,0,12s5.4,12,12,12s12-5.4,12-12C24,5.4,18.6,0,12,0z M12,22.1C6.4,22.1,1.9,17.6,1.9,12
                C1.9,6.4,6.4,1.9,12,1.9S22.1,6.4,22.1,12C22.1,17.6,17.6,22.1,12,22.1z"/>
            <path d="M15.8,8.2l-5.6,5.6l-2-2c-0.4-0.4-1-0.4-1.4,0c-0.4,0.4-0.4,1,0,1.4l2.7,2.7c0.2,0.2,0.4,0.3,0.7,0.3
                c0.2,0,0.5-0.1,0.7-0.3l6.3-6.3c0.4-0.4,0.4-1,0-1.4C16.8,7.8,16.2,7.8,15.8,8.2z"/>
        </g>
    </symbol>

    <symbol id="notif-warning" viewBox="0 0 24 24">
        <g>
            <path d="M23.8,22.4L12.9,0.6c-0.5-0.9-1.6-0.5-1.8,0l-11,22C-0.3,23.4,0.5,24,1,24h22c0,0,0,0,0,0C23.8,24,24.3,23.1,23.8,22.4z
                 M2.6,22L12,3.2L21.4,22H2.6z"/>
            <path d="M11,9.4v6.2c0,0.6,0.4,1,1,1s1-0.4,1-1V9.4c0-0.6-0.4-1-1-1C11.4,8.4,11,8.9,11,9.4L11,9.4z"/>
            <ellipse cx="12" cy="19.1" rx="1" ry="1"/>
        </g>
    </symbol>

    <symbol id="notif-error" viewBox="0 0 24 24">
        <g>
            <path d="M10.1,9C9.8,8.6,9.3,8.6,8.9,9s-0.3,0.9,0,1.2l1.9,1.9l-1.9,1.9c-0.3,0.3-0.3,0.9,0,1.2c0.2,0.2,0.4,0.2,0.6,0.2
                s0.4-0.1,0.6-0.2l1.9-1.9l1.9,1.9c0.2,0.2,0.4,0.2,0.6,0.2c0.2,0,0.4-0.1,0.6-0.2c0.3-0.3,0.3-0.9,0-1.2L13.2,12l1.9-1.9
                c0.3-0.3,0.3-0.9,0-1.2s-0.9-0.3-1.2,0L12,10.8L10.1,9z"/>
            <path d="M0,12c0,6.6,5.4,12,12,12s12-5.4,12-12S18.6,0,12,0S0,5.4,0,12z M22.3,12c0,5.7-4.6,10.3-10.3,10.3S1.7,17.7,1.7,12
                S6.3,1.7,12,1.7S22.3,6.3,22.3,12z"/>
        </g>
    </symbol>

    <symbol id="export" viewBox="0 0 24 24">
        <path d="M20.6,21H3.4c-0.5,0-0.9,0.4-0.9,0.9v1.2c0,0.5,0.4,0.9,0.9,0.9h17.1c0.5,0,0.9-0.4,0.9-0.9v-1.2C21.5,21.4,21.1,21,20.6,21
            L20.6,21z M20.6,21"/>
        <path d="M11.4,18.7c0.2,0.2,0.4,0.3,0.6,0.3c0.2,0,0.5-0.1,0.6-0.3l6.1-6.4c0.3-0.4,0.3-1,0-1.3l-0.8-0.9c-0.3-0.4-0.9-0.4-1.3,0
            l-3.1,3.3V0.9c0-0.5-0.4-0.9-0.9-0.9h-1.2c-0.5,0-0.9,0.4-0.9,0.9v12.4l-3.1-3.3c-0.3-0.4-0.9-0.4-1.3,0L5.3,11
            c-0.3,0.4-0.3,1,0,1.3L11.4,18.7z M11.4,18.7"/>
    </symbol>

    <symbol id="in-progress" viewBox="0 0 24 24">
        <g stroke-width="1" fill="#F2009B" fill-rule="evenodd">
            <path d="M12,0 C11.172,0 10.5,0.672 10.5,1.5 L10.5,4.5 C10.5,5.328 11.172,6 12,6 C12.828,6 13.5,5.328 13.5,4.5 L13.5,1.5 C13.5,0.672 12.828,0 12,0 L12,0 Z M12,18 C11.172,18 10.5,18.6705 10.5,19.5 L10.5,22.5 C10.5,23.3295 11.172,24 12,24 C12.828,24 13.5,23.3295 13.5,22.5 L13.5,19.5 C13.5,18.6705 12.828,18 12,18 L12,18 Z M18.363,7.758 L20.484,5.6355 C21.0705,5.0505 21.0705,4.0995 20.484,3.5145 C19.899,2.928 18.9495,2.928 18.363,3.5145 L16.242,5.6355 C15.6555,6.222 15.6555,7.1715 16.242,7.758 C16.8285,8.343 17.778,8.343 18.363,7.758 L18.363,7.758 Z M5.6355,16.242 L3.5145,18.363 C2.928,18.9495 2.928,19.899 3.5145,20.484 C4.0995,21.0705 5.049,21.0705 5.6355,20.484 L7.7565,18.363 C8.343,17.7765 8.343,16.8285 7.7565,16.242 C7.1715,15.657 6.222,15.657 5.6355,16.242 L5.6355,16.242 Z M5.6355,3.5145 C5.049,2.928 4.0995,2.928 3.5145,3.5145 C2.928,4.0995 2.928,5.0505 3.5145,5.6355 L5.6355,7.758 C6.222,8.343 7.1715,8.343 7.7565,7.758 C8.343,7.1715 8.343,6.222 7.7565,5.6355 L5.6355,3.5145 L5.6355,3.5145 Z M18.363,16.242 C17.7765,15.6555 16.8285,15.6555 16.242,16.242 C15.6555,16.8285 15.6555,17.7765 16.242,18.363 L18.363,20.484 C18.9495,21.0705 19.899,21.0705 20.484,20.484 C21.0705,19.899 21.0705,18.9495 20.484,18.363 L18.363,16.242 L18.363,16.242 Z M22.5,10.5 L19.5,10.5 C18.6705,10.5 18,11.172 18,12 C18,12.828 18.6705,13.5 19.5,13.5 L22.5,13.5 C23.3295,13.5 24,12.828 24,12 C24,11.172 23.3295,10.5 22.5,10.5 L22.5,10.5 Z M6,12 C6,11.172 5.328,10.5 4.5,10.5 L1.5,10.5 C0.672,10.5 0,11.172 0,12 C0,12.828 0.672,13.5 1.5,13.5 L4.5,13.5 C5.328,13.5 6,12.828 6,12 L6,12 Z"></path>
        </g>
    </symbol>

    <symbol id="cluster" viewBox="0 0 24 24">
        <g  stroke="none" stroke-width="1" fill="#607D8B" fill-rule="evenodd">
            <path d="M22.9166667,13.5416667 L20.8333333,13.5416667 L20.8333333,11.4583333 L22.9166667,11.4583333 L22.9166667,13.5416667 Z M15.625,20.2135417 L15.625,19.7916667 C15.625,19.2177083 15.1583333,18.75 14.5833333,18.75 L10.4166667,18.75 C9.84166667,18.75 9.375,19.2177083 9.375,19.7916667 L9.375,20.2229167 C7.29375,19.375 5.63333333,17.7083333 4.7875,15.625 L5.20833333,15.625 C5.78333333,15.625 6.25,15.159375 6.25,14.5833333 L6.25,10.4166667 C6.25,9.84270833 5.78333333,9.375 5.20833333,9.375 L4.7875,9.375 C5.63333333,7.29166667 7.29375,5.62604167 9.375,4.77916667 L9.375,5.20833333 C9.375,5.784375 9.84166667,6.25 10.4166667,6.25 L14.5833333,6.25 C15.1583333,6.25 15.625,5.784375 15.625,5.20833333 L15.625,4.7875 C17.70625,5.63333333 19.3666667,7.29479167 20.2125,9.375 L19.7916667,9.375 C19.2166667,9.375 18.75,9.84270833 18.75,10.4166667 L18.75,14.5833333 C18.75,15.159375 19.2166667,15.625 19.7916667,15.625 L20.2125,15.625 C19.3666667,17.70625 17.70625,19.3677083 15.625,20.2135417 L15.625,20.2135417 Z M13.5416667,22.9166667 L11.4583333,22.9166667 L11.4583333,20.8333333 L13.5416667,20.8333333 L13.5416667,22.9166667 Z M2.08333333,11.4583333 L4.16666667,11.4583333 L4.16666667,13.5416667 L2.08333333,13.5416667 L2.08333333,11.4583333 Z M11.4583333,2.08333333 L13.5416667,2.08333333 L13.5416667,4.16666667 L11.4583333,4.16666667 L11.4583333,2.08333333 Z M23.9583333,9.375 L22.4114583,9.375 C21.3916667,6.14895833 18.8520833,3.609375 15.625,2.58854167 L15.625,1.04166667 C15.625,0.467708333 15.1583333,0 14.5833333,0 L10.4166667,0 C9.84166667,0 9.375,0.467708333 9.375,1.04166667 L9.375,2.59583333 C6.14895833,3.61666667 3.609375,6.15104167 2.58854167,9.375 L1.04166667,9.375 C0.466666667,9.375 0,9.84270833 0,10.4166667 L0,14.5833333 C0,15.159375 0.466666667,15.625 1.04166667,15.625 L2.58854167,15.625 C3.609375,18.85 6.14895833,21.384375 9.375,22.4052083 L9.375,23.9583333 C9.375,24.534375 9.84166667,25 10.4166667,25 L14.5833333,25 C15.1583333,25 15.625,24.534375 15.625,23.9583333 L15.625,22.4125 C18.8520833,21.3916667 21.3916667,18.8520833 22.4114583,15.625 L23.9583333,15.625 C24.5333333,15.625 25,15.159375 25,14.5833333 L25,10.4166667 C25,9.84270833 24.5333333,9.375 23.9583333,9.375 L23.9583333,9.375 Z"></path>
        </g>
    </symbol>

    <symbol id="amazon-resource" viewBox="0 0 24 24">
        <path d="M12.6,10.6v1.3c0,0.7-0.5,1.3-1.1,1.4c-0.2,0-0.4,0.1-0.6,0.1c-1.4,0-1.2-1.8-0.5-2.4c0.5-0.4,1.5-0.5,2-0.6 C12.5,10.4,12.6,10.5,12.6,10.6z M24,0v24H0V0H24z M12.6,7.7v1c0,0.1-0.1,0.2-0.2,0.2c-0.4,0-1.2,0-2.5,0.2c-1.8,0.4-2.6,2-2.6,3.3 s1.2,2.8,3.1,2.8c1.4,0,2.2-0.9,2.5-1.3c0.1-0.1,0.2-0.1,0.3,0c0.1,0.1,0.2,0.3,0.3,0.4c0.1,0.2,0.3,0.4,0.5,0.5 c0.2,0.1,0.4,0.1,0.5,0l1.2-1.2c0.1-0.1,0.2-0.4,0-0.5c-0.1-0.1-0.2-0.2-0.3-0.4c-0.3-0.5-0.3-0.8-0.3-0.8s0-3.9,0-4.4 c0-0.5-0.3-2.7-3.7-2.7C8.8,5,8,7,7.7,7.7c0,0.1,0,0.3,0.2,0.3l1.7,0.3c0.1,0,0.2,0,0.3-0.1c0.2-0.4,0.7-1.3,1.6-1.3 C12.5,6.9,12.6,7.7,12.6,7.7z M17.2,16.5c-0.2-0.3-0.8,0-1.3,0.2c-0.6,0.2-2.3,0.9-4.7,0.9s-4.9-1.7-5.5-2.1s-0.7,0-0.7,0 s-0.2,0.3,0.3,0.9c0.5,0.6,3,2.6,6,2.6c2.5,0,3.6-0.5,4.7-1.1C17.2,17.2,17.4,16.8,17.2,16.5z M18.9,15.2c-0.5-0.8-2.6,0.1-2.8,0.2 c-0.2,0.1-0.2,0.2-0.2,0.2s0,0.3,0.6,0.2c0.7-0.1,1-0.2,1.2,0c0.2,0.2,0.1,0.6,0,1s-0.5,0.8-0.1,1C18,18.1,19.5,16.2,18.9,15.2z"/>
    </symbol>

    <symbol id="google-resource" viewBox="0 0 24 24">
        <path d="M0,0v24h24V0H0z M8.5,18.1c-3.4,0-6.1-2.7-6.1-6.1s2.7-6.1,6.1-6.1c1.6,0,3,0.6,4.1,1.6L11,9.1c-0.4-0.4-1.2-1-2.4-1 c-2.1,0-3.7,1.7-3.7,3.8s1.6,3.8,3.7,3.8c2.4,0,3.3-1.7,3.5-2.6H8.5v-2.1h5.7c0.1,0.3,0.1,0.6,0.1,1C14.3,15.6,12,18.1,8.5,18.1z M21.5,12.9h-1.7v1.7h-1.7v-1.7h-1.7v-1.7h1.7V9.4h1.7v1.7h1.7V12.9z"/>
    </symbol>

    <symbol id="cloud-resource" viewBox="0 0 24 24">
        <path d="M0,0v24h24V0H0z M10,19.2l-5.8-2.2L3.9,7.6L10,9.7V19.2z M6,6.6l6-1.8l5.9,1.8l-5.9,2L6,6.6z M19,16.9l-6.3,2.3l0-9.5 L19,7.6V16.9z"/>
    </symbol>

    <!-- <symbol id="<name>" viewBox="0 0 24 24">
    </symbol>  -->
</svg>
